<?xml version="1.0" encoding="utf-8"?>
<!-- Generator: Adobe Illustrator 28.3.0, SVG Export Plug-In . SVG Version: 6.00 Build 0)  -->
<svg version="1.1" id="Layer_1" xmlns="http://www.w3.org/2000/svg" xmlns:xlink="http://www.w3.org/1999/xlink" x="0px" y="0px"
	 viewBox="0 0 580 180" style="enable-background:new 0 0 580 180;" xml:space="preserve">
<style type="text/css">
	.st0{fill:#FFFFFF;}
</style>
<g>
	<path class="st0" d="M181.54,23.41h9.63l18.79,47.9H198.7l-3.19-8.68h-18.72l-3.19,8.68h-11.06L181.54,23.41z M192.39,53.93
		l-6.17-17.1l-6.24,17.1H192.39z"/>
	<path class="st0" d="M250.39,54.82c0-9.84,7.67-17.23,17.71-17.23c9.7,0,16.62,6.92,16.62,16.49c0,1.22-0.14,2.44-0.48,4.14
		l-23.61,0.07c1.09,3.66,3.94,5.77,8.14,5.77c3.26,0,5.9-1.09,7.87-3.39l5.7,5.7c-3.26,3.8-7.94,5.7-13.5,5.7
		C258.12,72.05,250.39,64.86,250.39,54.82z M260.63,51.15l14.38-0.07c-0.81-3.66-3.12-5.56-6.85-5.56
		C264.36,45.52,261.65,47.62,260.63,51.15z"/>
	<path class="st0" d="M289.73,38.33h10.38v2.65c2.31-2.1,5.56-3.32,9.23-3.32c7.26,0,12.55,5.77,12.55,12.55v21.1h-10.38V52.51
		c0-3.46-2.37-5.77-5.63-5.77c-3.32,0-5.77,2.31-5.77,5.77V71.3h-10.38V38.33z"/>
	<path class="st0" d="M326.5,54.82c0-9.84,6.72-17.16,16.08-17.16c3.32,0,6.38,1.02,8.62,2.78V22.05h10.38V71.3h-10.18v-2.37
		c-2.31,1.9-5.43,3.05-8.82,3.05C333.21,71.98,326.5,64.65,326.5,54.82z M351.8,54.82c0-4.61-2.99-7.8-7.33-7.8s-7.46,3.26-7.46,7.8
		s3.12,7.8,7.39,7.8C348.82,62.62,351.8,59.43,351.8,54.82z"/>
	<path class="st0" d="M366.86,54.82c0-9.84,6.72-17.16,15.81-17.16c3.66,0,6.85,1.29,9.09,3.39v-2.71h10.18V71.3h-10.18v-2.71
		c-2.24,2.1-5.43,3.39-9.09,3.39C373.57,71.98,366.86,64.65,366.86,54.82z M392.16,54.82c0-4.61-2.99-7.8-7.33-7.8
		s-7.46,3.26-7.46,7.8s3.12,7.8,7.39,7.8C389.18,62.62,392.16,59.43,392.16,54.82z"/>
	<path class="st0" d="M142.12,138.8v-19.06h10.38v19c0,3.39,1.9,5.5,5.09,5.5c3.12,0,5.02-2.04,5.02-5.5v-19h10.38v19.06
		c0,8.68-6.31,14.65-15.4,14.65S142.12,147.41,142.12,138.8z"/>
	<g id="XMLID_00000119837076243649461600000004574004244899426477_">
		<g>
			<path class="st0" d="M179.5,125.68c-1.96-9.23,0.5-24.31,6.34-32.11c0.58,1.14,1.36,2.18,2.33,3.04
				c-3.01,7.57-1.2,17.98,3.1,24.68c-0.01,0.01-0.01,0.01-0.01,0.02c-0.49,0.32-0.95,0.68-1.38,1.07v-2.65H179.5V125.68z"/>
			<path class="st0" d="M211.66,131.6v21.1h-10.38v-18.79c0-3.46-2.38-5.77-5.63-5.77c-3.33,0-5.77,2.31-5.77,5.77v18.79H179.5
				v-27.02c0.06,0.29,0.12,0.57,0.19,0.84c3.17-0.23,9.25-2.36,11.57-5.21c0-0.01,0-0.01,0.01-0.02c2.15-1.43,4.85-2.24,7.84-2.24
				C206.37,119.05,211.66,124.82,211.66,131.6z"/>
			<path class="st0" d="M191.26,121.31c-2.32,2.85-8.4,4.98-11.57,5.21c-0.07-0.27-0.13-0.55-0.19-0.84v-5.95h10.38v2.65
				C190.31,121.99,190.77,121.63,191.26,121.31z"/>
			<path class="st0" d="M194.31,98.8c-2.22,0.23-4.45-0.7-6.12-2.17c-0.01-0.01-0.01-0.01-0.02-0.02c0.51-1.3,1.17-2.5,1.97-3.6
				c0.36-0.49,0.77-0.98,1.22-1.42c0.85,2.24,2.17,4.37,4.18,5.64c0.43,0.27,0.89,0.48,1.37,0.65
				C196.14,98.38,195.23,98.7,194.31,98.8z"/>
			<path class="st0" d="M185.84,93.57c-1.61-3.14-1.74-7.07-0.28-10.32c1.24-2.75,3.49-4.94,6.17-6.32
				c-1.62,3.76-2.03,8.1-1.13,12.12c-1.2,0.81-2.3,1.77-3.3,2.8C186.79,92.37,186.3,92.95,185.84,93.57z"/>
			<path class="st0" d="M245.23,38.33v31c0,10.18-7.66,16.76-18.31,16.76c-6.34,0-10.25-2.34-15.24-5.76
				c-4.3-2.94-9.29-5.51-14.64-4.99c-1.85,0.18-3.66,0.73-5.31,1.59c1.22-2.88,3.15-5.42,5.74-7.22c4.53-3.15,10.88-3.43,15.78-0.98
				c5.4,2.71,6.35,8.13,13.33,8.13c5.15,0,8.27-2.64,8.27-7.26v-2.1c-2.17,1.77-5.08,2.78-8.41,2.78c-9.09,0-15.67-7.12-15.67-16.35
				c0-9.22,6.58-16.28,15.67-16.28c3.39,0,6.38,1.09,8.62,2.92v-2.24H245.23z M235.46,53.93c0-4.07-2.71-7.19-7.05-7.19
				c-4.27,0-7.12,3.19-7.12,7.19c0,3.94,2.85,7.13,7.12,7.13C232.75,61.06,235.46,58,235.46,53.93z"/>
			<path class="st0" d="M194.52,87.26c2.8-0.71,6.05-0.14,8.01,1.98c1.97,2.12,2.15,5.86-0.01,7.78c-1.49,1.33-3.7,1.52-5.61,0.86
				c1.1-0.71,1.95-1.77,2.27-3.03c0.55-2.15-0.8-4.71-2.98-5.18c-1.79-0.39-3.49,0.58-4.84,1.92c-0.04-0.1-0.08-0.21-0.12-0.32
				c-0.26-0.73-0.47-1.47-0.64-2.22C191.81,88.25,193.11,87.62,194.52,87.26z"/>
		</g>
		<g>
		</g>
	</g>
	<path class="st0" d="M216.27,136.22c0-9.84,6.72-17.16,15.81-17.16c3.66,0,6.85,1.29,9.09,3.39v-2.71h10.18v32.97h-10.18v-2.71
		c-2.24,2.1-5.43,3.39-9.09,3.39C222.98,153.38,216.27,146.05,216.27,136.22z M241.57,136.22c0-4.61-2.98-7.8-7.33-7.8
		s-7.46,3.26-7.46,7.8c0,4.55,3.12,7.8,7.39,7.8C238.59,144.02,241.57,140.83,241.57,136.22z"/>
	<path class="st0" d="M269.38,136.22c0-9.84,7.87-17.23,18.25-17.23c5.09,0,9.5,1.83,12.82,5.29l-6.65,6.65
		c-1.49-1.7-3.53-2.51-6.17-2.51c-4.41,0-7.67,3.12-7.67,7.73c0,4.68,3.26,7.87,7.67,7.87c2.78,0,4.82-0.95,6.38-2.71l6.58,6.65
		c-3.46,3.6-7.8,5.5-13.09,5.5C277.25,153.45,269.38,146.05,269.38,136.22z"/>
	<path class="st0" d="M305.2,103.45h10.38v49.25H305.2V103.45z"/>
	<path class="st0" d="M320.86,136.22c0-9.84,6.72-17.16,15.81-17.16c3.66,0,6.85,1.29,9.09,3.39v-2.71h10.18v32.97h-10.18v-2.71
		c-2.24,2.1-5.43,3.39-9.09,3.39C327.58,153.38,320.86,146.05,320.86,136.22z M346.17,136.22c0-4.61-2.99-7.8-7.33-7.8
		s-7.46,3.26-7.46,7.8c0,4.55,3.12,7.8,7.39,7.8C343.18,144.02,346.17,140.83,346.17,136.22z"/>
	<path class="st0" d="M360.21,147.41l5.9-5.97c2.17,2.38,5.22,3.73,8.75,3.73c2.44,0,3.8-0.75,3.8-2.04
		c0-4.82-16.08-1.63-16.08-13.77c0-6.31,5.16-10.58,13.23-10.58c5.56,0,10.58,1.97,13.57,5.77l-5.9,5.97
		c-2.04-2.44-4.75-3.32-7.26-3.32c-2.38,0-3.53,0.75-3.53,1.97c0,4.21,16.01,1.49,16.01,13.84c0,6.51-5.22,10.52-13.43,10.52
		C369.37,153.52,363.6,151.14,360.21,147.41z"/>
	<path class="st0" d="M392.16,136.22c0-9.84,7.67-17.23,17.71-17.23c9.7,0,16.62,6.92,16.62,16.49c0,1.22-0.14,2.44-0.48,4.14
		l-23.61,0.07c1.09,3.66,3.93,5.77,8.14,5.77c3.26,0,5.9-1.09,7.87-3.39l5.7,5.7c-3.26,3.8-7.94,5.7-13.5,5.7
		C399.89,153.45,392.16,146.26,392.16,136.22z M402.4,132.55l14.38-0.07c-0.81-3.66-3.12-5.56-6.85-5.56
		C406.13,126.92,403.42,129.03,402.4,132.55z"/>
</g>
<polygon class="st0" points="180.84,126.14 179.5,136.4 178.86,120.01 "/>
</svg>
