<?xml version="1.0" encoding="utf-8"?>
<!-- Generator: Adobe Illustrator 28.3.0, SVG Export Plug-In . SVG Version: 6.00 Build 0)  -->
<svg version="1.1" id="Layer_1" xmlns="http://www.w3.org/2000/svg" xmlns:xlink="http://www.w3.org/1999/xlink" x="0px" y="0px"
	 viewBox="0 0 100 50" style="enable-background:new 0 0 100 50;" xml:space="preserve">
<style type="text/css">
	.st0{fill:#FFFFFF;}
	.st1{fill:url(#SVGID_1_);stroke:url(#SVGID_00000032634067908059496530000011700634269938664075_);stroke-miterlimit:10;}
</style>
<g>
	<path class="st0" d="M25.33,20.24h2.6v11.69h-2.6V20.24z"/>
	<path class="st0" d="M30.19,20.24h1.82l5.55,7.1v-7.1h2.6v11.69h-1.9l-5.46-7v7h-2.6V20.24z"/>
	<path class="st0" d="M42.41,20.24h2.6v11.69h-2.6V20.24z"/>
	<path class="st0" d="M46.66,26.07c0-3.41,2.63-6.01,6.13-6.01c1.86,0,3.28,0.63,4.37,1.67l-1.74,1.76
		c-0.61-0.66-1.49-1.06-2.63-1.06c-2.04,0-3.46,1.46-3.46,3.64c0,2.22,1.42,3.68,3.46,3.68c1.19,0,2.05-0.4,2.7-1.06l1.76,1.76
		c-1.13,1.04-2.53,1.67-4.44,1.67C49.31,32.11,46.66,29.5,46.66,26.07z"/>
	<path class="st0" d="M58.67,20.24h2.6v11.69h-2.6V20.24z"/>
	<path class="st0" d="M62.92,26.07c0-3.41,2.65-6.03,6.14-6.03c3.49,0,6.14,2.62,6.14,6.04c0,3.41-2.65,6.04-6.11,6.04
		C65.61,32.13,62.92,29.48,62.92,26.07z M72.54,26.07c0-2.19-1.41-3.66-3.48-3.66c-2.09,0-3.48,1.46-3.48,3.66s1.39,3.69,3.48,3.69
		C71.15,29.76,72.54,28.27,72.54,26.07z"/>
</g>
<linearGradient id="SVGID_1_" gradientUnits="userSpaceOnUse" x1="1.9511" y1="25.0355" x2="97.234" y2="25.0355">
	<stop  offset="0" style="stop-color:#FF0096"/>
	<stop  offset="0.1605" style="stop-color:#F8137A"/>
	<stop  offset="0.3586" style="stop-color:#F2265E"/>
	<stop  offset="0.558" style="stop-color:#ED334A"/>
	<stop  offset="0.7578" style="stop-color:#EA3B3E"/>
	<stop  offset="0.9587" style="stop-color:#E93E3A"/>
	<stop  offset="0.9601" style="stop-color:#E93E3A"/>
	<stop  offset="1" style="stop-color:#E93E3A"/>
</linearGradient>
<linearGradient id="SVGID_00000102545225880494338970000010517488319411095950_" gradientUnits="userSpaceOnUse" x1="1.4511" y1="25.0355" x2="97.734" y2="25.0355">
	<stop  offset="0" style="stop-color:#FF0096"/>
	<stop  offset="0.1605" style="stop-color:#F8137A"/>
	<stop  offset="0.3586" style="stop-color:#F2265E"/>
	<stop  offset="0.558" style="stop-color:#ED334A"/>
	<stop  offset="0.7578" style="stop-color:#EA3B3E"/>
	<stop  offset="0.9587" style="stop-color:#E93E3A"/>
	<stop  offset="0.9601" style="stop-color:#E93E3A"/>
	<stop  offset="1" style="stop-color:#E93E3A"/>
</linearGradient>
<path style="fill:url(#SVGID_1_);stroke:url(#SVGID_00000102545225880494338970000010517488319411095950_);stroke-miterlimit:10;" d="
	M80.53,41.74H18.66c-9.23,0-16.71-7.48-16.71-16.71v0c0-9.23,7.48-16.71,16.71-16.71h61.87c9.23,0,16.71,7.48,16.71,16.71v0
	C97.23,34.26,89.75,41.74,80.53,41.74z"/>
<g>
	<path class="st0" d="M12.05,19.17h4.32c2.1,0,3.54,1.29,3.54,3.12c0,1.6-1.05,2.73-2.7,3.03l3.39,4.44h-2.79l-3.15-4.37h-0.25v4.37
		h-2.35V19.17z M14.41,21v2.66h1.68c0.95,0,1.47-0.51,1.47-1.33c0-0.77-0.52-1.32-1.46-1.32H14.41z"/>
	<path class="st0" d="M21.62,19.17h7.53v2.02h-5.17v2.17h4.72v1.96h-4.72v2.39h5.25v2.04h-7.6V19.17z"/>
	<path class="st0" d="M30.11,24.45c0-3.09,2.5-5.44,5.67-5.44c1.81,0,3.36,0.7,4.33,1.86l-1.6,1.6c-0.69-0.87-1.59-1.32-2.76-1.32
		c-1.88,0-3.22,1.32-3.22,3.3s1.3,3.33,3.12,3.33c1.5,0,2.49-0.71,2.82-1.98l-3.03-0.04v-2H41v0.35c0,3.81-2.21,5.82-5.35,5.82
		C32.54,29.93,30.11,27.53,30.11,24.45z"/>
	<path class="st0" d="M42.43,19.17h4.32c2.1,0,3.54,1.29,3.54,3.12c0,1.6-1.05,2.73-2.7,3.03l3.39,4.44h-2.79l-3.15-4.37h-0.25v4.37
		h-2.35V19.17z M44.78,21v2.66h1.68c0.95,0,1.47-0.51,1.47-1.33c0-0.77-0.52-1.32-1.46-1.32H44.78z"/>
	<path class="st0" d="M52,19.17h7.53v2.02h-5.17v2.17h4.73v1.96h-4.73v2.39h5.25v2.04H52V19.17z"/>
	<path class="st0" d="M60.17,28.2l1.53-1.52c0.68,0.79,1.47,1.23,2.58,1.23c0.99,0,1.58-0.39,1.58-1.02c0-1.99-4.96-1.05-4.96-4.77
		c0-1.95,1.53-3.12,3.72-3.12c1.49,0,2.76,0.57,3.55,1.45l-1.53,1.52C66.01,21.32,65.38,21,64.57,21c-0.84,0-1.33,0.31-1.33,0.9
		c0,1.85,4.96,0.93,4.96,4.79c0,2.03-1.51,3.24-4.06,3.24C62.39,29.93,61.21,29.37,60.17,28.2z"/>
	<path class="st0" d="M72.8,19.17h2.13l4.16,10.59h-2.49l-0.71-1.92h-4.14l-0.71,1.92H68.6L72.8,19.17z M75.2,25.92l-1.37-3.78
		l-1.38,3.78H75.2z"/>
	<path class="st0" d="M80.21,19.17h4.32c2.1,0,3.54,1.29,3.54,3.12c0,1.6-1.05,2.73-2.7,3.03l3.39,4.44h-2.79l-3.15-4.37h-0.25v4.37
		h-2.36V19.17z M82.57,21v2.66h1.68c0.95,0,1.47-0.51,1.47-1.33c0-0.77-0.52-1.32-1.46-1.32H82.57z"/>
</g>
</svg>
