<?xml version="1.0" encoding="utf-8"?>
<!-- Generator: Adobe Illustrator 28.3.0, SVG Export Plug-In . SVG Version: 6.00 Build 0)  -->
<svg version="1.1" xmlns="http://www.w3.org/2000/svg" xmlns:xlink="http://www.w3.org/1999/xlink" x="0px" y="0px"
	 viewBox="0 0 220 120" style="enable-background:new 0 0 220 120;" xml:space="preserve">
<style type="text/css">
	
		.st0{fill:url(#SVGID_1_);stroke:url(#SVGID_00000002357080442505562020000005695994003925841341_);stroke-width:1.7585;stroke-miterlimit:10;}
	.st1{fill:#FFFFFF;}
</style>
<g id="Layer_2">
	<linearGradient id="SVGID_1_" gradientUnits="userSpaceOnUse" x1="1.6951" y1="66.2766" x2="218.3049" y2="66.2766">
		<stop  offset="0" style="stop-color:#FF0096"/>
		<stop  offset="0.1605" style="stop-color:#F8137A"/>
		<stop  offset="0.3586" style="stop-color:#F2265E"/>
		<stop  offset="0.558" style="stop-color:#ED334A"/>
		<stop  offset="0.7578" style="stop-color:#EA3B3E"/>
		<stop  offset="0.9587" style="stop-color:#E93E3A"/>
		<stop  offset="0.9601" style="stop-color:#E93E3A"/>
		<stop  offset="1" style="stop-color:#E93E3A"/>
	</linearGradient>
	
		<linearGradient id="SVGID_00000012472763475574807070000015024765830091481503_" gradientUnits="userSpaceOnUse" x1="0.8158" y1="66.2766" x2="219.1842" y2="66.2766">
		<stop  offset="0" style="stop-color:#FF0096"/>
		<stop  offset="0.1605" style="stop-color:#F8137A"/>
		<stop  offset="0.3586" style="stop-color:#F2265E"/>
		<stop  offset="0.558" style="stop-color:#ED334A"/>
		<stop  offset="0.7578" style="stop-color:#EA3B3E"/>
		<stop  offset="0.9587" style="stop-color:#E93E3A"/>
		<stop  offset="0.9601" style="stop-color:#E93E3A"/>
		<stop  offset="1" style="stop-color:#E93E3A"/>
	</linearGradient>
	
		<path style="fill:url(#SVGID_1_);stroke:url(#SVGID_00000012472763475574807070000015024765830091481503_);stroke-width:1.7585;stroke-miterlimit:10;" d="
		M195.58,89H24.42C11.87,89,1.7,78.83,1.7,66.28v0c0-12.55,10.17-22.72,22.72-22.72h171.16c12.55,0,22.72,10.17,22.72,22.72v0
		C218.3,78.83,208.13,89,195.58,89z"/>
</g>
<g id="Layer_1">
	<g>
		<path class="st1" d="M9.53,66.06c0-6.27,4.84-11.05,11.26-11.05c3.41,0,6.03,1.16,8.04,3.07l-3.2,3.23
			c-1.13-1.22-2.74-1.95-4.84-1.95c-3.74,0-6.36,2.68-6.36,6.7c0,4.08,2.62,6.76,6.36,6.76c2.19,0,3.78-0.73,4.96-1.95l3.23,3.23
			c-2.07,1.92-4.66,3.07-8.16,3.07C14.4,77.17,9.53,72.36,9.53,66.06z"/>
		<path class="st1" d="M29.66,66.06c0-6.27,4.87-11.08,11.29-11.08c6.42,0,11.29,4.81,11.29,11.11c0,6.27-4.87,11.11-11.23,11.11
			C34.59,77.2,29.66,72.33,29.66,66.06z M47.34,66.06c0-4.02-2.59-6.73-6.39-6.73c-3.84,0-6.39,2.68-6.39,6.73
			c0,4.05,2.56,6.79,6.39,6.79C44.79,72.85,47.34,70.11,47.34,66.06z"/>
		<path class="st1" d="M55.29,55.34h3.35l10.2,13.06V55.34h4.78v21.49h-3.5L60.07,63.96v12.88h-4.78V55.34z"/>
		<path class="st1" d="M76.66,66.06c0-6.27,4.87-11.08,11.29-11.08s11.29,4.81,11.29,11.11c0,6.27-4.87,11.11-11.23,11.11
			C81.59,77.2,76.66,72.33,76.66,66.06z M94.35,66.06c0-4.02-2.59-6.73-6.39-6.73c-3.84,0-6.39,2.68-6.39,6.73
			c0,4.05,2.56,6.79,6.39,6.79S94.35,70.11,94.35,66.06z"/>
		<path class="st1" d="M101.51,66.06c0-6.27,4.84-11.05,11.26-11.05c3.41,0,6.03,1.16,8.04,3.07l-3.2,3.23
			c-1.13-1.22-2.74-1.95-4.84-1.95c-3.74,0-6.36,2.68-6.36,6.7c0,4.08,2.62,6.76,6.36,6.76c2.19,0,3.77-0.73,4.96-1.95l3.23,3.23
			c-2.07,1.92-4.66,3.07-8.16,3.07C106.38,77.17,101.51,72.36,101.51,66.06z"/>
		<path class="st1" d="M123.58,55.34h15.28v4.11h-10.5v4.41h9.59v3.99h-9.59v4.84h10.66v4.14h-15.43V55.34z"/>
		<path class="st1" d="M148.09,55.34h3.41l7.58,11.84l7.58-11.84h3.44v21.49h-4.78v-11.9l-4.66,7.28h-3.17l-4.66-7.28v11.9h-4.75
			V55.34z"/>
		<path class="st1" d="M181.12,55.34h4.32l8.43,21.49h-5.05l-1.43-3.9h-8.4l-1.43,3.9h-4.96L181.12,55.34z M179.54,51.45l4.84-4.54
			l2.56,3.59l-5.88,3.17L179.54,51.45z M185.99,69.04l-2.77-7.67l-2.8,7.67H185.99z"/>
		<path class="st1" d="M194.18,73.67l3.11-3.07c1.37,1.61,2.98,2.5,5.24,2.5c2.01,0,3.2-0.79,3.2-2.07c0-4.05-10.08-2.13-10.08-9.68
			c0-3.96,3.11-6.33,7.55-6.33c3.01,0,5.6,1.16,7.21,2.95l-3.11,3.07c-1.28-1.34-2.56-1.98-4.2-1.98c-1.7,0-2.71,0.64-2.71,1.83
			c0,3.74,10.08,1.89,10.08,9.71c0,4.11-3.07,6.58-8.25,6.58C198.68,77.17,196.28,76.04,194.18,73.67z"/>
	</g>
</g>
</svg>
