<?xml version="1.0" encoding="utf-8"?>
<!-- Generator: Adobe Illustrator 28.3.0, SVG Export Plug-In . SVG Version: 6.00 Build 0)  -->
<svg version="1.1" id="Layer_1" xmlns="http://www.w3.org/2000/svg" xmlns:xlink="http://www.w3.org/1999/xlink" x="0px" y="0px"
	 viewBox="0 0 100 50" style="enable-background:new 0 0 100 50;" xml:space="preserve">
<style type="text/css">
	.st0{fill:#FFFFFF;}
	.st1{fill:none;stroke:url(#SVGID_1_);stroke-miterlimit:10;}
</style>
<g>
	<path class="st0" d="M9.49,27.21v-6.42h2.37v6.55c0,1.28,0.88,2.06,2.05,2.06s2.02-0.78,2.02-2.04v-6.57h2.37v6.43
		c0,2.5-1.79,4.32-4.4,4.32C11.32,31.55,9.49,29.72,9.49,27.21z"/>
	<path class="st0" d="M20.18,20.79h4.54c2.04,0,3.19,1.24,3.19,2.77c0,0.94-0.45,1.69-1.31,2.16c1.08,0.52,1.67,1.43,1.67,2.58
		c0,1.74-1.35,3.08-3.58,3.08h-4.51V20.79z M22.51,22.62v2.35h1.77c0.77,0,1.31-0.39,1.31-1.19c0-0.78-0.53-1.17-1.31-1.17H22.51z
		 M22.51,26.76v2.79h1.96c0.92,0,1.47-0.6,1.47-1.39s-0.56-1.4-1.47-1.4H22.51z"/>
	<path class="st0" d="M29.8,20.79h2.35v10.59H29.8V20.79z"/>
	<path class="st0" d="M33.65,26.07c0-3.09,2.38-5.44,5.55-5.44c1.68,0,2.97,0.57,3.96,1.51l-1.58,1.59
		c-0.55-0.6-1.35-0.96-2.38-0.96c-1.84,0-3.13,1.32-3.13,3.3c0,2.01,1.29,3.33,3.13,3.33c1.08,0,1.86-0.36,2.44-0.96l1.59,1.59
		c-1.02,0.94-2.29,1.51-4.02,1.51C36.05,31.55,33.65,29.18,33.65,26.07z"/>
	<path class="st0" d="M47.66,20.79h2.13l4.15,10.59h-2.49l-0.7-1.92h-4.14l-0.71,1.92h-2.44L47.66,20.79z M50.06,27.54l-1.36-3.78
		l-1.38,3.78H50.06z"/>
	<path class="st0" d="M53.96,26.07c0-3.09,2.39-5.44,5.55-5.44c1.68,0,2.97,0.57,3.96,1.51l-1.57,1.59
		c-0.56-0.6-1.35-0.96-2.39-0.96c-1.84,0-3.13,1.32-3.13,3.3c0,2.01,1.29,3.33,3.13,3.33c1.08,0,1.86-0.36,2.45-0.96l1.59,1.59
		c-1.02,0.94-2.29,1.51-4.02,1.51C56.36,31.55,53.96,29.18,53.96,26.07z"/>
	<path class="st0" d="M64.83,20.79h2.36v10.59h-2.36V20.79z"/>
	<path class="st0" d="M68.69,26.07c0-3.09,2.4-5.46,5.57-5.46s5.56,2.37,5.56,5.47c0,3.09-2.4,5.47-5.53,5.47
		C71.12,31.56,68.69,29.16,68.69,26.07z M77.41,26.07c0-1.98-1.27-3.31-3.15-3.31c-1.89,0-3.15,1.32-3.15,3.31s1.26,3.34,3.15,3.34
		S77.41,28.07,77.41,26.07z M72.43,18.87l2.38-2.24l1.26,1.77l-2.89,1.56L72.43,18.87z"/>
	<path class="st0" d="M81.32,20.79h1.65L88,27.23v-6.43h2.36v10.59h-1.73l-4.95-6.34v6.34h-2.36V20.79z"/>
</g>
<linearGradient id="SVGID_1_" gradientUnits="userSpaceOnUse" x1="1.4511" y1="25.0355" x2="97.734" y2="25.0355">
	<stop  offset="0" style="stop-color:#FF0096"/>
	<stop  offset="0.1605" style="stop-color:#F8137A"/>
	<stop  offset="0.3586" style="stop-color:#F2265E"/>
	<stop  offset="0.558" style="stop-color:#ED334A"/>
	<stop  offset="0.7578" style="stop-color:#EA3B3E"/>
	<stop  offset="0.9587" style="stop-color:#E93E3A"/>
	<stop  offset="0.9601" style="stop-color:#E93E3A"/>
	<stop  offset="1" style="stop-color:#E93E3A"/>
</linearGradient>
<path class="st1" d="M80.53,41.74H18.66c-9.23,0-16.71-7.48-16.71-16.71v0c0-9.23,7.48-16.71,16.71-16.71h61.87
	c9.23,0,16.71,7.48,16.71,16.71v0C97.23,34.26,89.75,41.74,80.53,41.74z"/>
</svg>
