<?xml version="1.0" encoding="utf-8"?>
<!-- Generator: Adobe Illustrator 28.3.0, SVG Export Plug-In . SVG Version: 6.00 Build 0)  -->
<svg version="1.1" id="Layer_1" xmlns="http://www.w3.org/2000/svg" xmlns:xlink="http://www.w3.org/1999/xlink" x="0px" y="0px"
	 viewBox="0 0 100 50" style="enable-background:new 0 0 100 50;" xml:space="preserve">
<style type="text/css">
	.st0{fill:#FFFFFF;}
	.st1{fill:none;stroke:url(#SVGID_1_);stroke-miterlimit:10;}
</style>
<g>
	<path class="st0" d="M9.04,26.07c0-3.09,2.38-5.44,5.55-5.44c1.68,0,2.97,0.57,3.96,1.51l-1.58,1.59c-0.55-0.6-1.35-0.96-2.38-0.96
		c-1.84,0-3.13,1.32-3.13,3.3c0,2.01,1.29,3.33,3.13,3.33c1.08,0,1.86-0.36,2.44-0.96l1.59,1.59c-1.02,0.94-2.29,1.51-4.02,1.51
		C11.44,31.55,9.04,29.18,9.04,26.07z"/>
	<path class="st0" d="M18.95,26.07c0-3.09,2.4-5.46,5.56-5.46c3.16,0,5.56,2.37,5.56,5.47c0,3.09-2.4,5.47-5.53,5.47
		C21.38,31.56,18.95,29.16,18.95,26.07z M27.67,26.07c0-1.98-1.27-3.31-3.15-3.31c-1.89,0-3.15,1.32-3.15,3.31s1.26,3.34,3.15,3.34
		C26.41,29.42,27.67,28.07,27.67,26.07z"/>
	<path class="st0" d="M31.58,20.79h1.65l5.02,6.43v-6.43h2.35v10.59h-1.73l-4.95-6.34v6.34h-2.35V20.79z"/>
	<path class="st0" d="M45.25,22.85h-3.31v-2.05h8.98v2.05H47.6v8.53h-2.35V22.85z"/>
	<path class="st0" d="M54.34,20.79h2.13l4.15,10.59h-2.49l-0.7-1.92h-4.14l-0.71,1.92h-2.44L54.34,20.79z M56.74,27.54l-1.37-3.78
		l-1.38,3.78H56.74z"/>
	<path class="st0" d="M60.64,26.07c0-3.09,2.38-5.44,5.55-5.44c1.68,0,2.97,0.57,3.96,1.51l-1.57,1.59
		c-0.56-0.6-1.35-0.96-2.39-0.96c-1.84,0-3.13,1.32-3.13,3.3c0,2.01,1.29,3.33,3.13,3.33c1.08,0,1.86-0.36,2.45-0.96l1.59,1.59
		c-1.02,0.94-2.29,1.51-4.02,1.51C63.04,31.55,60.64,29.18,60.64,26.07z"/>
	<path class="st0" d="M73.94,22.85h-3.32v-2.05h8.98v2.05H76.3v8.53h-2.35V22.85z"/>
	<path class="st0" d="M79.84,26.07c0-3.09,2.4-5.46,5.57-5.46s5.56,2.37,5.56,5.47c0,3.09-2.4,5.47-5.53,5.47
		C82.27,31.56,79.84,29.16,79.84,26.07z M88.55,26.07c0-1.98-1.27-3.31-3.15-3.31c-1.89,0-3.15,1.32-3.15,3.31s1.26,3.34,3.15,3.34
		S88.55,28.07,88.55,26.07z"/>
</g>
<linearGradient id="SVGID_1_" gradientUnits="userSpaceOnUse" x1="1.4511" y1="25.0355" x2="97.734" y2="25.0355">
	<stop  offset="0" style="stop-color:#FF0096"/>
	<stop  offset="0.1605" style="stop-color:#F8137A"/>
	<stop  offset="0.3586" style="stop-color:#F2265E"/>
	<stop  offset="0.558" style="stop-color:#ED334A"/>
	<stop  offset="0.7578" style="stop-color:#EA3B3E"/>
	<stop  offset="0.9587" style="stop-color:#E93E3A"/>
	<stop  offset="0.9601" style="stop-color:#E93E3A"/>
	<stop  offset="1" style="stop-color:#E93E3A"/>
</linearGradient>
<path class="st1" d="M80.53,41.74H18.66c-9.23,0-16.71-7.48-16.71-16.71v0c0-9.23,7.48-16.71,16.71-16.71h61.87
	c9.23,0,16.71,7.48,16.71,16.71v0C97.23,34.26,89.75,41.74,80.53,41.74z"/>
</svg>
