<?xml version="1.0" encoding="utf-8"?>
<!-- Generator: Adobe Illustrator 28.3.0, SVG Export Plug-In . SVG Version: 6.00 Build 0)  -->
<svg version="1.1" id="Layer_1" xmlns="http://www.w3.org/2000/svg" xmlns:xlink="http://www.w3.org/1999/xlink" x="0px" y="0px"
	 viewBox="0 0 100 50" style="enable-background:new 0 0 100 50;" xml:space="preserve">
<style type="text/css">
	.st0{fill:#FFFFFF;}
	.st1{fill:none;stroke:url(#SVGID_1_);stroke-miterlimit:10;}
</style>
<g>
	<path class="st0" d="M9.52,20.79h1.65l5.02,6.43v-6.43h2.35v10.59h-1.73l-4.95-6.34v6.34H9.52V20.79z"/>
	<path class="st0" d="M20.05,26.07c0-3.09,2.4-5.46,5.56-5.46c3.16,0,5.56,2.37,5.56,5.47c0,3.09-2.4,5.47-5.53,5.47
		C22.48,31.56,20.05,29.16,20.05,26.07z M28.77,26.07c0-1.98-1.28-3.31-3.15-3.31c-1.89,0-3.15,1.32-3.15,3.31s1.26,3.34,3.15,3.34
		C27.51,29.42,28.77,28.07,28.77,26.07z"/>
	<path class="st0" d="M31.66,29.82l1.53-1.52c0.67,0.79,1.47,1.23,2.58,1.23c0.99,0,1.58-0.39,1.58-1.02c0-1.99-4.96-1.05-4.96-4.77
		c0-1.95,1.53-3.12,3.72-3.12c1.48,0,2.76,0.57,3.56,1.45l-1.53,1.52c-0.63-0.66-1.26-0.98-2.07-0.98c-0.84,0-1.33,0.31-1.33,0.9
		c0,1.85,4.96,0.93,4.96,4.78c0,2.03-1.52,3.24-4.06,3.24C33.88,31.55,32.7,30.99,31.66,29.82z"/>
	<path class="st0" d="M40.74,26.07c0-3.09,2.4-5.46,5.56-5.46c3.16,0,5.56,2.37,5.56,5.47c0,3.09-2.4,5.47-5.54,5.47
		C43.17,31.56,40.74,29.16,40.74,26.07z M49.45,26.07c0-1.98-1.27-3.31-3.15-3.31c-1.89,0-3.15,1.32-3.15,3.31s1.26,3.34,3.15,3.34
		C48.19,29.42,49.45,28.07,49.45,26.07z"/>
	<path class="st0" d="M55.41,22.85h-3.32v-2.05h8.98v2.05h-3.31v8.53h-2.35V22.85z"/>
	<path class="st0" d="M62.4,20.79h4.32c2.1,0,3.54,1.29,3.54,3.12c0,1.6-1.05,2.73-2.7,3.03l3.39,4.44h-2.79l-3.15-4.37h-0.26v4.37
		H62.4V20.79z M64.75,22.62v2.65h1.68c0.95,0,1.47-0.51,1.47-1.33c0-0.77-0.53-1.32-1.46-1.32H64.75z"/>
	<path class="st0" d="M71.38,26.07c0-3.09,2.4-5.46,5.57-5.46c3.16,0,5.56,2.37,5.56,5.47c0,3.09-2.4,5.47-5.54,5.47
		C73.81,31.56,71.38,29.16,71.38,26.07z M80.1,26.07c0-1.98-1.27-3.31-3.15-3.31c-1.89,0-3.15,1.32-3.15,3.31s1.26,3.34,3.15,3.34
		C78.84,29.42,80.1,28.07,80.1,26.07z"/>
	<path class="st0" d="M82.99,29.82l1.53-1.52c0.68,0.79,1.47,1.23,2.58,1.23c0.99,0,1.58-0.39,1.58-1.02c0-1.99-4.96-1.05-4.96-4.77
		c0-1.95,1.53-3.12,3.72-3.12c1.49,0,2.76,0.57,3.55,1.45l-1.53,1.52c-0.63-0.66-1.26-0.98-2.07-0.98c-0.84,0-1.33,0.31-1.33,0.9
		c0,1.85,4.96,0.93,4.96,4.78c0,2.03-1.52,3.24-4.06,3.24C85.21,31.55,84.03,30.99,82.99,29.82z"/>
</g>
<linearGradient id="SVGID_1_" gradientUnits="userSpaceOnUse" x1="1.4511" y1="25.0355" x2="97.734" y2="25.0355">
	<stop  offset="0" style="stop-color:#FF0096"/>
	<stop  offset="0.1605" style="stop-color:#F8137A"/>
	<stop  offset="0.3586" style="stop-color:#F2265E"/>
	<stop  offset="0.558" style="stop-color:#ED334A"/>
	<stop  offset="0.7578" style="stop-color:#EA3B3E"/>
	<stop  offset="0.9587" style="stop-color:#E93E3A"/>
	<stop  offset="0.9601" style="stop-color:#E93E3A"/>
	<stop  offset="1" style="stop-color:#E93E3A"/>
</linearGradient>
<path class="st1" d="M80.53,41.74H18.66c-9.23,0-16.71-7.48-16.71-16.71v0c0-9.23,7.48-16.71,16.71-16.71h61.87
	c9.23,0,16.71,7.48,16.71,16.71v0C97.23,34.26,89.75,41.74,80.53,41.74z"/>
</svg>
