<?xml version="1.0" encoding="utf-8"?>
<!-- Generator: Adobe Illustrator 28.3.0, SVG Export Plug-In . SVG Version: 6.00 Build 0)  -->
<svg version="1.1" id="Layer_1" xmlns="http://www.w3.org/2000/svg" xmlns:xlink="http://www.w3.org/1999/xlink" x="0px" y="0px"
	 viewBox="0 0 100 50" style="enable-background:new 0 0 100 50;" xml:space="preserve">
<style type="text/css">
	.st0{fill:#FFFFFF;}
	.st1{fill:none;stroke:url(#SVGID_1_);stroke-miterlimit:10;}
</style>
<g>
	<path class="st0" d="M9.42,26.07c0-3.09,2.4-5.46,5.56-5.46c3.16,0,5.56,2.37,5.56,5.47c0,3.09-2.4,5.47-5.53,5.47
		C11.85,31.56,9.42,29.16,9.42,26.07z M18.13,26.07c0-1.98-1.28-3.31-3.15-3.31c-1.89,0-3.15,1.32-3.15,3.31s1.26,3.34,3.15,3.34
		C16.87,29.42,18.13,28.07,18.13,26.07z"/>
	<path class="st0" d="M22.05,20.79h4.42c2.01,0,3.57,1.29,3.57,3.36c0,2.08-1.56,3.38-3.57,3.38H24.4v3.85h-2.35V20.79z M24.4,22.62
		v3.08h1.72c0.89,0,1.58-0.57,1.58-1.54c0-0.98-0.69-1.53-1.58-1.53H24.4z"/>
	<path class="st0" d="M31.36,20.79h2.35v10.59h-2.35V20.79z"/>
	<path class="st0" d="M35.76,20.79h1.65l5.02,6.43v-6.43h2.35v10.59h-1.73l-4.95-6.34v6.34h-2.35V20.79z"/>
	<path class="st0" d="M46.83,20.79h2.35v10.59h-2.35V20.79z"/>
	<path class="st0" d="M50.68,26.07c0-3.09,2.4-5.46,5.56-5.46c3.17,0,5.57,2.37,5.57,5.47c0,3.09-2.4,5.47-5.54,5.47
		C53.11,31.56,50.68,29.16,50.68,26.07z M59.4,26.07c0-1.98-1.28-3.31-3.15-3.31c-1.89,0-3.15,1.32-3.15,3.31s1.26,3.34,3.15,3.34
		C58.14,29.42,59.4,28.07,59.4,26.07z"/>
	<path class="st0" d="M63.31,20.79h1.65l5.02,6.43v-6.43h2.36v10.59h-1.73l-4.95-6.34v6.34h-2.36V20.79z"/>
	<path class="st0" d="M74.38,20.79h7.53v2.02h-5.17v2.17h4.72v1.96h-4.72v2.38h5.25v2.04h-7.61V20.79z"/>
	<path class="st0" d="M82.56,29.82l1.53-1.52c0.68,0.79,1.47,1.23,2.58,1.23c0.99,0,1.58-0.39,1.58-1.02c0-1.99-4.96-1.05-4.96-4.77
		c0-1.95,1.53-3.12,3.72-3.12c1.49,0,2.76,0.57,3.55,1.45l-1.53,1.52c-0.63-0.66-1.26-0.98-2.07-0.98c-0.84,0-1.33,0.31-1.33,0.9
		c0,1.85,4.96,0.93,4.96,4.78c0,2.03-1.51,3.24-4.06,3.24C84.78,31.55,83.59,30.99,82.56,29.82z"/>
</g>
<linearGradient id="SVGID_1_" gradientUnits="userSpaceOnUse" x1="1.4511" y1="25.0355" x2="97.734" y2="25.0355">
	<stop  offset="0" style="stop-color:#FF0096"/>
	<stop  offset="0.1605" style="stop-color:#F8137A"/>
	<stop  offset="0.3586" style="stop-color:#F2265E"/>
	<stop  offset="0.558" style="stop-color:#ED334A"/>
	<stop  offset="0.7578" style="stop-color:#EA3B3E"/>
	<stop  offset="0.9587" style="stop-color:#E93E3A"/>
	<stop  offset="0.9601" style="stop-color:#E93E3A"/>
	<stop  offset="1" style="stop-color:#E93E3A"/>
</linearGradient>
<path class="st1" d="M80.53,41.74H18.66c-9.23,0-16.71-7.48-16.71-16.71v0c0-9.23,7.48-16.71,16.71-16.71h61.87
	c9.23,0,16.71,7.48,16.71,16.71v0C97.23,34.26,89.75,41.74,80.53,41.74z"/>
</svg>
