<?xml version="1.0" encoding="utf-8"?>
<!-- Generator: Adobe Illustrator 28.3.0, SVG Export Plug-In . SVG Version: 6.00 Build 0)  -->
<svg version="1.1" id="Layer_1" xmlns="http://www.w3.org/2000/svg" xmlns:xlink="http://www.w3.org/1999/xlink" x="0px" y="0px"
	 viewBox="0 0 100 50" style="enable-background:new 0 0 100 50;" xml:space="preserve">
<style type="text/css">
	.st0{fill:#FFFFFF;}
	.st1{fill:none;stroke:url(#SVGID_1_);stroke-miterlimit:10;}
</style>
<g>
	<path class="st0" d="M25.33,20.24h2.6v11.69h-2.6V20.24z"/>
	<path class="st0" d="M30.19,20.24h1.82l5.55,7.1v-7.1h2.6v11.69h-1.9l-5.46-7v7h-2.6V20.24z"/>
	<path class="st0" d="M42.41,20.24h2.6v11.69h-2.6V20.24z"/>
	<path class="st0" d="M46.66,26.07c0-3.41,2.63-6.01,6.13-6.01c1.86,0,3.28,0.63,4.37,1.67l-1.74,1.76
		c-0.61-0.66-1.49-1.06-2.63-1.06c-2.04,0-3.46,1.46-3.46,3.64c0,2.22,1.42,3.68,3.46,3.68c1.19,0,2.05-0.4,2.7-1.06l1.76,1.76
		c-1.13,1.04-2.53,1.67-4.44,1.67C49.31,32.11,46.66,29.5,46.66,26.07z"/>
	<path class="st0" d="M58.67,20.24h2.6v11.69h-2.6V20.24z"/>
	<path class="st0" d="M62.92,26.07c0-3.41,2.65-6.03,6.14-6.03c3.49,0,6.14,2.62,6.14,6.04c0,3.41-2.65,6.04-6.11,6.04
		C65.61,32.13,62.92,29.48,62.92,26.07z M72.54,26.07c0-2.19-1.41-3.66-3.48-3.66c-2.09,0-3.48,1.46-3.48,3.66s1.39,3.69,3.48,3.69
		C71.15,29.76,72.54,28.27,72.54,26.07z"/>
</g>
<linearGradient id="SVGID_1_" gradientUnits="userSpaceOnUse" x1="1.4511" y1="25.0355" x2="97.734" y2="25.0355">
	<stop  offset="0" style="stop-color:#FF0096"/>
	<stop  offset="0.1605" style="stop-color:#F8137A"/>
	<stop  offset="0.3586" style="stop-color:#F2265E"/>
	<stop  offset="0.558" style="stop-color:#ED334A"/>
	<stop  offset="0.7578" style="stop-color:#EA3B3E"/>
	<stop  offset="0.9587" style="stop-color:#E93E3A"/>
	<stop  offset="0.9601" style="stop-color:#E93E3A"/>
	<stop  offset="1" style="stop-color:#E93E3A"/>
</linearGradient>
<path class="st1" d="M80.53,41.74H18.66c-9.23,0-16.71-7.48-16.71-16.71v0c0-9.23,7.48-16.71,16.71-16.71h61.87
	c9.23,0,16.71,7.48,16.71,16.71v0C97.23,34.26,89.75,41.74,80.53,41.74z"/>
</svg>
