<?xml version="1.0" encoding="utf-8"?>
<!-- Generator: Adobe Illustrator 28.3.0, SVG Export Plug-In . SVG Version: 6.00 Build 0)  -->
<svg version="1.1" id="Layer_1" xmlns="http://www.w3.org/2000/svg" xmlns:xlink="http://www.w3.org/1999/xlink" x="0px" y="0px"
	 viewBox="0 0 940 180" style="enable-background:new 0 0 940 180;" xml:space="preserve">
<style type="text/css">
	.st0{fill:#EF4136;}
</style>
<g>
	<path d="M316.44,28.86h30.15v6.79h-22.71v12.1h20.84v6.53h-20.84v13.07h23.03v6.79h-30.48V28.86z"/>
	<path d="M350.92,69.1l4.53-4.53c2.14,2.52,4.92,3.75,8.48,3.75c3.17,0,4.85-0.97,4.85-2.78c0-5.63-16.11-2.27-16.11-13.52
		c0-5.95,4.34-9.58,11.45-9.58c4.98,0,8.86,1.81,11.45,5.31l-4.53,4.53c-1.81-2.26-4.08-3.36-7.12-3.36c-2.85,0-4.47,0.91-4.47,2.52
		c0,5.11,16.11,2.07,16.11,13.52c0,6.08-4.53,9.84-11.78,9.84C358.56,74.8,353.9,72.73,350.92,69.1z"/>
	<path d="M379.45,58.62c0-9.12,7.05-16.18,16.31-16.18c4.79,0,9.19,1.94,12.1,5.37l-4.66,4.72c-1.81-2.14-4.4-3.24-7.44-3.24
		c-5.31,0-8.99,3.82-8.99,9.32c0,5.5,3.69,9.32,8.99,9.32c3.04,0,5.63-1.1,7.44-3.23l4.66,4.72c-2.91,3.43-7.31,5.37-12.1,5.37
		C386.5,74.8,379.45,67.75,379.45,58.62z"/>
	<path d="M412.19,61.15V43.09h7.12v17.73c0,4.53,2.33,7.12,6.41,7.12c4.14,0,6.41-2.52,6.41-7.12V43.09h7.12v18.05
		c0,8.15-5.5,13.65-13.52,13.65C417.76,74.8,412.19,69.17,412.19,61.15z"/>
	<path d="M444.41,58.62c0-9.12,7.05-16.18,16.05-16.18c8.61,0,14.82,6.54,14.82,15.46c0,1.04-0.13,2.07-0.39,3.36h-23.17
		c1.04,4.27,4.4,6.86,9.06,6.86c3.17,0,6.02-1.1,7.89-3.3l4.53,4.59c-3.04,3.56-7.51,5.37-12.36,5.37
		C451.53,74.8,444.41,67.88,444.41,58.62z M451.72,55.45h16.56c-0.91-4.14-3.62-6.47-7.96-6.47
		C455.93,48.98,452.76,51.44,451.72,55.45z"/>
	<path d="M480.97,27.56h7.12v46.59h-7.12V27.56z"/>
	<path d="M494.03,58.69c0-9.12,6.54-16.24,14.95-16.24c3.95,0,7.31,1.55,9.51,4.08v-3.43h7.12v31.06h-7.12v-3.37
		c-2.2,2.52-5.56,4.01-9.51,4.01C500.57,74.8,494.03,67.75,494.03,58.69z M518.95,58.62c0-5.57-3.56-9.45-8.8-9.45
		c-5.18,0-8.8,3.88-8.8,9.45s3.62,9.45,8.8,9.45C515.39,68.07,518.95,64.19,518.95,58.62z"/>
	<path d="M544.5,58.69c0-9.12,6.54-16.24,14.95-16.24c3.95,0,7.31,1.55,9.51,4.08V27.56h7.12v46.59h-7.12v-3.37
		c-2.2,2.52-5.56,4.01-9.51,4.01C551.03,74.8,544.5,67.75,544.5,58.69z M569.41,58.62c0-5.57-3.56-9.45-8.8-9.45
		c-5.18,0-8.8,3.88-8.8,9.45s3.62,9.45,8.8,9.45C565.85,68.07,569.41,64.19,569.41,58.62z"/>
	<path d="M581.96,58.62c0-9.12,7.05-16.18,16.05-16.18c8.61,0,14.82,6.54,14.82,15.46c0,1.04-0.13,2.07-0.39,3.36h-23.16
		c1.03,4.27,4.4,6.86,9.06,6.86c3.17,0,6.02-1.1,7.89-3.3l4.53,4.59c-3.04,3.56-7.51,5.37-12.36,5.37
		C589.08,74.8,581.96,67.88,581.96,58.62z M589.27,55.45h16.56c-0.91-4.14-3.62-6.47-7.96-6.47
		C593.48,48.98,590.31,51.44,589.27,55.45z"/>
	<path d="M242,106.5h17.21c13.07,0,23.1,9.77,23.1,22.65c0,12.81-9.97,22.65-22.97,22.65H242V106.5z M249.44,113.29V145h9.58
		c9.25,0,15.66-6.47,15.66-15.92c0-9.32-6.47-15.79-15.66-15.79H249.44z"/>
	<path d="M286.97,136.33c0-9.12,6.53-16.24,14.95-16.24c3.95,0,7.31,1.55,9.51,4.08v-3.43h7.12v31.06h-7.12v-3.36
		c-2.2,2.52-5.56,4.01-9.51,4.01C293.5,152.44,286.97,145.38,286.97,136.33z M311.88,136.26c0-5.56-3.56-9.45-8.8-9.45
		c-5.18,0-8.8,3.88-8.8,9.45s3.62,9.45,8.8,9.45C308.32,145.71,311.88,141.83,311.88,136.26z"/>
	<path d="M326.43,120.73h7.12v3.56c2.14-2.65,5.44-4.21,9.25-4.21c6.99,0,12.04,6.15,12.04,12.23v19.48h-7.12v-17.92
		c0-4.14-2.91-7.12-7.05-7.12c-4.14,0-7.12,2.98-7.12,7.12v17.92h-7.12V120.73z"/>
	<path d="M359.75,147.91l15.4-20.71h-14.24v-6.47h24.52v3.88l-15.4,20.71h15.01v6.47h-25.3V147.91z"/>
	<path d="M388.8,136.33c0-9.12,6.53-16.24,14.95-16.24c3.95,0,7.31,1.55,9.51,4.08v-3.43h7.12v31.06h-7.12v-3.36
		c-2.2,2.52-5.56,4.01-9.51,4.01C395.34,152.44,388.8,145.38,388.8,136.33z M413.71,136.26c0-5.56-3.56-9.45-8.8-9.45
		c-5.18,0-8.8,3.88-8.8,9.45s3.62,9.45,8.8,9.45C410.15,145.71,413.71,141.83,413.71,136.26z"/>
	<path d="M442.18,106.5h29.25v6.79h-21.81v12.29h20.71v6.79h-20.71v19.41h-7.44V106.5z"/>
	<path d="M474.66,136.2c0-9,7.12-16.11,16.24-16.11c9.12,0,16.31,7.05,16.31,16.11c0,9.12-7.12,16.24-16.31,16.24
		C481.84,152.44,474.66,145.26,474.66,136.2z M499.89,136.2c0-5.44-3.75-9.25-9-9.25s-8.93,3.88-8.93,9.25
		c0,5.5,3.69,9.38,8.93,9.38C496.2,145.58,499.89,141.7,499.89,136.2z"/>
	<path d="M513.09,105.2h7.12v46.59h-7.12V105.2z"/>
	<path d="M528.1,105.2h7.12v30.15l12.55-14.62h8.48l-13.07,14.88l13.72,16.18h-9.06l-12.62-15.21v15.21h-7.12V105.2z"/>
	<path d="M557.6,136.2c0-9,7.12-16.11,16.24-16.11c9.12,0,16.31,7.05,16.31,16.11c0,9.12-7.12,16.24-16.31,16.24
		C564.78,152.44,557.6,145.26,557.6,136.2z M582.84,136.2c0-5.44-3.75-9.25-9-9.25s-8.93,3.88-8.93,9.25c0,5.5,3.69,9.38,8.93,9.38
		C579.15,145.58,582.84,141.7,582.84,136.2z M566.98,113.03l8.28-10.55l5.5,5.5l-10.55,8.28L566.98,113.03z"/>
	<path d="M596.03,120.73h7.12v3.24c1.75-2.46,4.46-3.88,8.09-3.88c3.11,0,5.56,1.1,7.7,3.56l-4.66,4.79
		c-1.17-1.17-2.46-1.68-4.27-1.68c-4.01,0-6.86,2.46-6.86,7.76v17.28h-7.12V120.73z"/>
	<path d="M622.43,120.73h7.12v31.06h-7.12V120.73z"/>
	<path d="M635.5,136.26c0-9.12,7.05-16.18,16.31-16.18c4.79,0,9.19,1.94,12.1,5.37l-4.66,4.72c-1.81-2.13-4.4-3.23-7.44-3.23
		c-5.31,0-8.99,3.82-8.99,9.32c0,5.5,3.69,9.32,8.99,9.32c3.04,0,5.63-1.1,7.44-3.23l4.66,4.72c-2.91,3.43-7.31,5.37-12.1,5.37
		C642.55,152.44,635.5,145.38,635.5,136.26z"/>
	<path d="M666.42,136.33c0-9.12,6.54-16.24,14.95-16.24c3.95,0,7.31,1.55,9.51,4.08v-3.43H698v31.06h-7.12v-3.36
		c-2.2,2.52-5.56,4.01-9.51,4.01C672.96,152.44,666.42,145.38,666.42,136.33z M691.34,136.26c0-5.56-3.56-9.45-8.8-9.45
		c-5.18,0-8.8,3.88-8.8,9.45s3.62,9.45,8.8,9.45C687.78,145.71,691.34,141.83,691.34,136.26z"/>
</g>
<g>
	<g>
		<path class="st0" d="M631.8,115.1c2.92-2.29,3.49-6.58,2.18-9.89c-0.68-1.7-1.79-3.21-3.35-4.19c-1.69-1.07-3.74-1.36-5.69-1.07
			c-3.92,0.57-7.6,3.72-8.39,7.67c-0.86,4.35,1.47,8.76,5.11,11.12c3.84,2.49,8.8,2.1,12.55-0.38c4.12-2.72,6.21-7.31,6.06-12.19
			c-0.17-5.56-2.77-10.57-5.57-15.23c-1.41-2.34-2.87-4.65-4.12-7.07c-1.15-2.23-2.12-4.55-2.91-6.94
			c-3.19-9.63-3.46-20.2-0.65-29.96c0.35-1.21,0.75-2.41,1.19-3.6c-0.61,0.08-1.22,0.16-1.83,0.24c6.51,10.49,10.9,22.22,12.92,34.4
			c0.56,3.39,0.92,6.81,1.11,10.24c0.66-0.09,1.31-0.18,1.97-0.27c-1.02-5.83,0.87-11.77,4.02-16.66
			c3.31-5.15,8.11-9.13,13.15-12.51c2.96-1.98,6.04-3.78,9.11-5.58c-0.49-0.2-0.98-0.4-1.47-0.6c0.98,6.26,0,12.72-2.38,18.57
			c-2.4,5.89-6.34,11.17-11.3,15.15c-2.76,2.21-5.89,4-9.2,5.23c-1.19,0.44-0.71,2.34,0.53,1.93c8.05-2.67,16.1-5.34,24.15-8.01
			c2.29-0.76,4.58-1.52,6.87-2.28c-0.42-0.32-0.85-0.64-1.27-0.97c0.17,5.05-1.48,10.12-4.61,14.09c-3.22,4.09-7.86,6.77-12.96,7.7
			c-2.83,0.52-5.76,0.45-8.56-0.2c-1.26-0.29-1.79,1.64-0.53,1.93c5.52,1.28,11.41,0.48,16.42-2.17c4.96-2.62,8.72-7.08,10.72-12.29
			c1.11-2.88,1.63-5.98,1.52-9.06c-0.02-0.62-0.63-1.18-1.27-0.97c-8.05,2.67-16.1,5.34-24.15,8.01c-2.29,0.76-4.58,1.52-6.87,2.28
			c0.18,0.64,0.36,1.29,0.53,1.93c6.33-2.35,11.89-6.5,16.07-11.79c4.18-5.28,7.09-11.59,8.17-18.26c0.61-3.78,0.64-7.59,0.05-11.37
			c-0.1-0.65-0.97-0.89-1.47-0.6c-10.92,6.38-22.88,13.73-26.6,26.67c-0.97,3.37-1.21,6.89-0.61,10.34
			c0.19,1.11,2.03,0.86,1.97-0.27c-0.67-12.59-3.82-24.99-9.23-36.37c-1.51-3.18-3.21-6.28-5.07-9.28
			c-0.48-0.77-1.54-0.56-1.83,0.24c-3.31,8.94-4.01,18.76-2.23,28.11c0.89,4.67,2.43,9.22,4.56,13.46c2.3,4.57,5.39,8.7,7.53,13.36
			c1.95,4.25,3.08,9.47,1.2,13.95c-1.51,3.58-5.14,6.37-9.04,6.69c-3.95,0.33-7.62-2.03-9.21-5.63c-1.51-3.4-0.46-7.25,2.6-9.38
			c2.72-1.89,6.61-2.3,9.05,0.28c2,2.12,2.59,5.73,1.15,8.31c-0.38,0.68-0.88,1.23-1.48,1.7c-0.43,0.33-0.35,1.07,0,1.42
			C630.81,115.52,631.38,115.43,631.8,115.1L631.8,115.1z"/>
	</g>
</g>
<ellipse cx="625.99" cy="109.38" rx="5.11" ry="5.01"/>
</svg>
