<?xml version="1.0" encoding="utf-8"?>
<!-- Generator: Adobe Illustrator 28.3.0, SVG Export Plug-In . SVG Version: 6.00 Build 0)  -->
<svg version="1.1" id="Layer_1" xmlns="http://www.w3.org/2000/svg" xmlns:xlink="http://www.w3.org/1999/xlink" x="0px" y="0px"
	 viewBox="0 0 10 10.02" style="enable-background:new 0 0 10 10.02;" xml:space="preserve">
<style type="text/css">
	
		.st0{fill:url(#SVGID_1_);stroke:url(#SVGID_00000083784705050185530270000015262111455643598487_);stroke-width:0.064;stroke-miterlimit:10;}
	
		.st1{fill:url(#SVGID_00000086669250376662699000000014066444200950139822_);stroke:url(#SVGID_00000092441840353372224670000008838721935370615181_);stroke-width:0.064;stroke-miterlimit:10;}
</style>
<g>
	<radialGradient id="SVGID_1_" cx="5" cy="5.0084" r="3.9337" gradientUnits="userSpaceOnUse">
		<stop  offset="0.131" style="stop-color:#000000;stop-opacity:0.98"/>
		<stop  offset="0.9505" style="stop-color:#FF0096"/>
	</radialGradient>
	
		<radialGradient id="SVGID_00000063633642449974333650000015684934760405460891_" cx="5" cy="5.0163" r="3.9699" gradientUnits="userSpaceOnUse">
		<stop  offset="0.131" style="stop-color:#000000;stop-opacity:0.98"/>
		<stop  offset="0.9505" style="stop-color:#FF0096"/>
	</radialGradient>
	
		<path style="fill:url(#SVGID_1_);stroke:url(#SVGID_00000063633642449974333650000015684934760405460891_);stroke-width:0.064;stroke-miterlimit:10;" d="
		M4.99,9.41C3.68,7.95,2.37,6.57,1.74,4.75C1.23,3.28,2.12,1.56,3.62,0.9C5.2,0.21,7.07,0.81,7.93,2.29
		c0.44,0.77,0.64,1.6,0.33,2.45C7.6,6.57,6.31,7.95,4.99,9.41z M4.91,8.46c1.13-1.29,2.12-2.45,2.68-3.9
		c0.08-0.22,0.12-0.48,0.1-0.71c-0.06-1.12-0.8-2.07-1.85-2.42C4.82,1.09,3.66,1.42,2.95,2.24c-0.74,0.86-0.9,1.9-0.27,2.95
		C3.33,6.28,4.12,7.31,4.91,8.46z"/>
	
		<radialGradient id="SVGID_00000158026639483370027930000010242484153778724770_" cx="4.9947" cy="3.9999" r="1.8937" gradientUnits="userSpaceOnUse">
		<stop  offset="0.131" style="stop-color:#000000;stop-opacity:0.98"/>
		<stop  offset="0.9505" style="stop-color:#FF0096"/>
	</radialGradient>
	
		<radialGradient id="SVGID_00000172438009235262664170000003498989042163326898_" cx="4.9947" cy="3.9999" r="1.9257" gradientUnits="userSpaceOnUse">
		<stop  offset="0.131" style="stop-color:#000000;stop-opacity:0.98"/>
		<stop  offset="0.9505" style="stop-color:#FF0096"/>
	</radialGradient>
	
		<path style="fill:url(#SVGID_00000158026639483370027930000010242484153778724770_);stroke:url(#SVGID_00000172438009235262664170000003498989042163326898_);stroke-width:0.064;stroke-miterlimit:10;" d="
		M4.96,5.89C3.89,5.87,3.07,5.02,3.1,3.94C3.13,2.9,3.97,2.09,5.03,2.11c1.05,0.01,1.87,0.85,1.86,1.9
		C6.89,5.08,6.04,5.91,4.96,5.89z M6.2,4.01C6.2,3.34,5.65,2.78,4.98,2.79c-0.64,0.01-1.19,0.56-1.2,1.2
		C3.77,4.65,4.34,5.21,5.01,5.21C5.65,5.2,6.19,4.66,6.2,4.01z"/>
</g>
</svg>
