<?xml version="1.0" encoding="utf-8"?>
<!-- Generator: Adobe Illustrator 28.3.0, SVG Export Plug-In . SVG Version: 6.00 Build 0)  -->
<svg version="1.1" id="Layer_1" xmlns="http://www.w3.org/2000/svg" xmlns:xlink="http://www.w3.org/1999/xlink" x="0px" y="0px"
	 viewBox="0 0 400 80" style="enable-background:new 0 0 400 80;" xml:space="preserve">
<style type="text/css">
	.st0{fill:#FFFFFF;stroke:#231F20;stroke-width:0.25;stroke-miterlimit:10;}
</style>
<g>
	<path class="st0" d="M52.82,25.54h6.19v22.41h12.35v5.44H52.82V25.54z"/>
	<path class="st0" d="M72.91,43.8c0-5.72,3.91-9.98,9.19-9.98c2.13,0,3.99,0.75,5.29,1.97v-1.58h5.92v19.17h-5.92v-1.58
		c-1.3,1.22-3.16,1.97-5.29,1.97C76.82,53.78,72.91,49.52,72.91,43.8z M87.63,43.8c0-2.68-1.74-4.54-4.26-4.54s-4.34,1.89-4.34,4.54
		c0,2.64,1.81,4.54,4.3,4.54C85.89,48.34,87.63,46.49,87.63,43.8z"/>
	<path class="st0" d="M103.9,43.8c0-5.72,3.91-9.98,9.35-9.98c1.93,0,3.71,0.59,5.01,1.62V24.75h6.04v28.64h-5.92v-1.38
		c-1.34,1.1-3.16,1.78-5.13,1.78C107.8,53.78,103.9,49.52,103.9,43.8z M118.61,43.8c0-2.68-1.74-4.54-4.26-4.54
		c-2.52,0-4.34,1.89-4.34,4.54c0,2.64,1.81,4.54,4.3,4.54C116.87,48.34,118.61,46.49,118.61,43.8z"/>
	<path class="st0" d="M127.38,43.8c0-5.72,3.91-9.98,9.19-9.98c2.13,0,3.99,0.75,5.29,1.97v-1.58h5.92v19.17h-5.92v-1.58
		c-1.3,1.22-3.16,1.97-5.29,1.97C131.29,53.78,127.38,49.52,127.38,43.8z M142.1,43.8c0-2.68-1.74-4.54-4.26-4.54
		s-4.34,1.89-4.34,4.54c0,2.64,1.81,4.54,4.3,4.54C140.36,48.34,142.1,46.49,142.1,43.8z"/>
	<path class="st0" d="M152.05,34.22h6.04v1.54c1.34-1.22,3.23-1.93,5.36-1.93c4.22,0,7.3,3.35,7.3,7.3v12.27h-6.04V42.46
		c0-2.01-1.38-3.35-3.27-3.35c-1.93,0-3.35,1.34-3.35,3.35v10.93h-6.04V34.22z"/>
	<path class="st0" d="M173.4,49.84l8.4-10.57h-7.69v-5.05h16.25v3.51l-8.4,10.61h8.17v5.05H173.4V49.84z"/>
	<path class="st0" d="M191.99,43.8c0-5.72,3.91-9.98,9.19-9.98c2.13,0,3.99,0.75,5.29,1.97v-1.58h5.92v19.17h-5.92v-1.58
		c-1.3,1.22-3.16,1.97-5.29,1.97C195.9,53.78,191.99,49.52,191.99,43.8z M206.71,43.8c0-2.68-1.74-4.54-4.26-4.54
		s-4.34,1.89-4.34,4.54c0,2.64,1.81,4.54,4.3,4.54C204.97,48.34,206.71,46.49,206.71,43.8z"/>
	<path class="st0" d="M224.16,34.22h6.04v1.34c1.3-1.06,3.08-1.74,5.01-1.74c5.44,0,9.35,4.26,9.35,9.98c0,5.72-3.91,9.98-9.35,9.98
		c-1.97,0-3.79-0.63-5.09-1.7v9.39h-5.96V34.22z M238.44,43.8c0-2.68-1.78-4.54-4.3-4.54c-2.56,0-4.3,1.85-4.3,4.54
		c0,2.64,1.73,4.54,4.3,4.54C236.66,48.34,238.44,46.45,238.44,43.8z"/>
	<path class="st0" d="M247.64,34.22h6.04v1.46c1.22-1.22,2.84-1.85,4.93-1.85c1.81,0,3.23,0.55,4.26,1.7l-3.59,4.54
		c-0.55-0.55-1.3-0.91-2.33-0.91c-2.01,0-3.28,1.22-3.28,3.71v10.53h-6.04V34.22z"/>
	<path class="st0" d="M262.68,43.76c0-5.68,4.5-9.98,10.49-9.98c5.96,0,10.49,4.3,10.49,9.98c0,5.72-4.5,10.06-10.49,10.06
		C267.22,53.82,262.68,49.44,262.68,43.76z M277.51,43.76c0-2.68-1.78-4.5-4.34-4.5c-2.56,0-4.34,1.85-4.34,4.54
		c0,2.68,1.78,4.54,4.34,4.54C275.78,48.34,277.51,46.49,277.51,43.76z"/>
	<path class="st0" d="M284.07,34.22h6.51l4.1,11.91l4.1-11.91h6.39l-8.13,19.13l-4.85,0.04L284.07,34.22z"/>
	<path class="st0" d="M305.58,43.8c0-5.72,4.46-10.02,10.3-10.02c5.64,0,9.67,4.02,9.67,9.59c0,0.71-0.08,1.42-0.28,2.41
		l-13.73,0.04c0.63,2.13,2.29,3.35,4.73,3.35c1.9,0,3.43-0.63,4.58-1.97l3.31,3.31c-1.9,2.21-4.62,3.31-7.85,3.31
		C310.08,53.82,305.58,49.64,305.58,43.8z M311.54,41.67l8.36-0.04c-0.47-2.13-1.81-3.23-3.98-3.23
		C313.71,38.4,312.13,39.62,311.54,41.67z"/>
	<path class="st0" d="M327.21,43.8c0-5.72,4.46-10.02,10.3-10.02c5.64,0,9.67,4.02,9.67,9.59c0,0.71-0.08,1.42-0.28,2.41
		l-13.73,0.04c0.63,2.13,2.29,3.35,4.73,3.35c1.9,0,3.43-0.63,4.58-1.97l3.31,3.31c-1.9,2.21-4.62,3.31-7.85,3.31
		C331.71,53.82,327.21,49.64,327.21,43.8z M333.17,41.67l8.36-0.04c-0.47-2.13-1.81-3.23-3.98-3.23
		C335.34,38.4,333.76,39.62,333.17,41.67z"/>
</g>
</svg>
