<?xml version="1.0" encoding="utf-8"?>
<!-- Generator: Adobe Illustrator 28.3.0, SVG Export Plug-In . SVG Version: 6.00 Build 0)  -->
<svg version="1.1" id="Layer_1" xmlns="http://www.w3.org/2000/svg" xmlns:xlink="http://www.w3.org/1999/xlink" x="0px" y="0px"
	 viewBox="0 0 460 100" style="enable-background:new 0 0 460 100;" xml:space="preserve">
<style type="text/css">
	.st0{fill:#FF0096;}
	.st1{fill:url(#SVGID_1_);}
</style>
<g>
	<g>
		<path class="st0" d="M133.19,24.55h8.06l17.93,28.01l17.93-28.01h8.14v50.84h-11.31V47.23l-11.02,17.21h-7.49l-11.02-17.21v28.15
			h-11.23V24.55z"/>
		<path class="st0" d="M194.97,24.55h11.3v50.84h-11.3V24.55z"/>
		<path class="st0" d="M211.31,67.9l7.34-7.27c3.24,3.82,7.06,5.9,12.39,5.9c4.75,0,7.56-1.87,7.56-4.9
			c0-9.58-23.83-5.04-23.83-22.9c0-9.36,7.34-14.98,17.86-14.98c7.13,0,13.25,2.74,17.07,6.98l-7.34,7.27
			c-3.02-3.17-6.05-4.68-9.94-4.68c-4.03,0-6.41,1.51-6.41,4.32c0,8.86,23.83,4.46,23.83,22.97c0,9.72-7.27,15.55-19.51,15.55
			C221.97,76.18,216.28,73.52,211.31,67.9z"/>
		<path class="st0" d="M257.03,24.55h11.31v50.84h-11.31V24.55z"/>
		<path class="st0" d="M275.54,49.9c0-14.83,11.52-26.21,26.71-26.21s26.71,11.38,26.71,26.28c0,14.83-11.52,26.28-26.57,26.28
			C287.2,76.25,275.54,64.73,275.54,49.9z M317.37,49.9c0-9.5-6.12-15.91-15.12-15.91c-9.07,0-15.12,6.34-15.12,15.91
			c0,9.58,6.05,16.06,15.12,16.06C311.32,65.96,317.37,59.48,317.37,49.9z M293.47,15.34l11.45-10.73l6.05,8.5l-13.9,7.49
			L293.47,15.34z"/>
		<path class="st0" d="M336.16,24.55h7.92l24.12,30.89V24.55h11.3v50.84h-8.28l-23.76-30.46v30.46h-11.3V24.55z"/>
	</g>
	<g>
		<g>
			<linearGradient id="SVGID_1_" gradientUnits="userSpaceOnUse" x1="79.8489" y1="49.9835" x2="111.6924" y2="49.9835">
				<stop  offset="0" style="stop-color:#FFF33B"/>
				<stop  offset="0.0401" style="stop-color:#FEE72E"/>
				<stop  offset="0.1171" style="stop-color:#FED51B"/>
				<stop  offset="0.1964" style="stop-color:#FDCA10"/>
				<stop  offset="0.2809" style="stop-color:#FDC70C"/>
				<stop  offset="0.6685" style="stop-color:#F3903F"/>
				<stop  offset="0.8876" style="stop-color:#ED683C"/>
				<stop  offset="1" style="stop-color:#E93E3A"/>
			</linearGradient>
			<path class="st1" d="M104.03,66.57c2.14-0.52,4.51,0.77,5.37,2.79c0.94,2.24-0.57,4.74-2.68,5.64c-2.34,0.99-4.66-0.44-5.87-2.44
				c-1.51-2.49-1.33-5.43-0.56-8.14c1.71-5.96,5.85-11.08,5.54-17.56c-0.27-5.68-3.28-10.97-7.33-14.84
				c-4.89-4.68-11.14-7.49-17.25-10.2c-1.24-0.55-2.43,0.35-2.2,1.69c2.06,12.17,11.26,22.57,22.99,26.3
				c1.84,0.59,2.63-2.31,0.8-2.89c-10.8-3.43-19.01-13.06-20.89-24.2c-0.73,0.56-1.47,1.13-2.2,1.69
				c6.14,2.72,12.61,5.53,17.36,10.44c4.66,4.82,7.04,11.35,4.81,17.87c-2.15,6.29-7.2,12.81-4.43,19.75
				c1.03,2.59,3.07,4.89,5.84,5.63c2.83,0.75,5.82-0.42,7.64-2.66c2.07-2.52,2.32-6.03,0.36-8.7c-1.85-2.52-5.02-3.8-8.08-3.06
				C101.36,64.13,102.15,67.02,104.03,66.57L104.03,66.57z"/>
		</g>
	</g>
</g>
</svg>
