<?xml version="1.0" encoding="utf-8"?>
<!-- Generator: Adobe Illustrator 28.3.0, SVG Export Plug-In . SVG Version: 6.00 Build 0)  -->
<svg version="1.1" id="Layer_1" xmlns="http://www.w3.org/2000/svg" xmlns:xlink="http://www.w3.org/1999/xlink" x="0px" y="0px"
	 viewBox="0 0 220 220" style="enable-background:new 0 0 220 220;" xml:space="preserve">
<style type="text/css">
	.st0{fill:url(#SVGID_1_);}
	.st1{fill:url(#SVGID_00000054225078508453922180000000044166703556273590_);}
	.st2{fill:url(#SVGID_00000036222596592051344370000007501874276918402186_);}
	.st3{fill:#F7941D;}
	.st4{fill:#FFFFFF;}
</style>
<linearGradient id="SVGID_1_" gradientUnits="userSpaceOnUse" x1="10.55" y1="108.27" x2="190.55" y2="108.27">
	<stop  offset="0" style="stop-color:#FF0096"/>
	<stop  offset="0.1605" style="stop-color:#F8137A"/>
	<stop  offset="0.3586" style="stop-color:#F2265E"/>
	<stop  offset="0.558" style="stop-color:#ED334A"/>
	<stop  offset="0.7578" style="stop-color:#EA3B3E"/>
	<stop  offset="0.9587" style="stop-color:#E93E3A"/>
	<stop  offset="0.9601" style="stop-color:#E93E3A"/>
	<stop  offset="1" style="stop-color:#E93E3A"/>
</linearGradient>
<polygon class="st0" points="163.64,193.27 20.55,193.27 20.55,23.27 110,23.27 110,13.27 10.55,13.27 10.55,203.27 163.64,203.27 
	"/>
<linearGradient id="SVGID_00000101078658517769352510000017517093261659220905_" gradientUnits="userSpaceOnUse" x1="100.55" y1="21.6425" x2="136.0917" y2="21.6425">
	<stop  offset="0" style="stop-color:#FF0096"/>
	<stop  offset="0.1605" style="stop-color:#F8137A"/>
	<stop  offset="0.3586" style="stop-color:#F2265E"/>
	<stop  offset="0.558" style="stop-color:#ED334A"/>
	<stop  offset="0.7578" style="stop-color:#EA3B3E"/>
	<stop  offset="0.9587" style="stop-color:#E93E3A"/>
	<stop  offset="0.9601" style="stop-color:#E93E3A"/>
	<stop  offset="1" style="stop-color:#E93E3A"/>
</linearGradient>
<path style="fill:url(#SVGID_00000101078658517769352510000017517093261659220905_);" d="M111.19,20.82
	c2.85,0.69,5.27,3.46,5.27,7.09c0,4.5-3.46,8.21-7.96,8.21c-4.24,0-7.95-3.63-7.95-8.21c0-1.82,0.6-4.06,2.68-7.96l6.92-12.8
	l6.49,3.55L111.19,20.82z M130.64,20.82c2.86,0.69,5.36,3.46,5.36,7.09c0,4.5-3.46,8.21-7.96,8.21c-4.32,0-7.95-3.63-7.95-8.21
	c0-1.82,0.52-4.06,2.59-7.96l7-12.8l6.4,3.55L130.64,20.82z"/>
<linearGradient id="SVGID_00000159467342783910894840000000620122384346095550_" gradientUnits="userSpaceOnUse" x1="156.7397" y1="195.4713" x2="192.2814" y2="195.4713">
	<stop  offset="0" style="stop-color:#FF0096"/>
	<stop  offset="0.1605" style="stop-color:#F8137A"/>
	<stop  offset="0.3586" style="stop-color:#F2265E"/>
	<stop  offset="0.558" style="stop-color:#ED334A"/>
	<stop  offset="0.7578" style="stop-color:#EA3B3E"/>
	<stop  offset="0.9587" style="stop-color:#E93E3A"/>
	<stop  offset="0.9601" style="stop-color:#E93E3A"/>
	<stop  offset="1" style="stop-color:#E93E3A"/>
</linearGradient>
<path style="fill:url(#SVGID_00000159467342783910894840000000620122384346095550_);" d="M162.1,196.34
	c-2.86-0.69-5.27-3.46-5.27-7.18c0-4.41,3.46-8.13,7.95-8.13c4.33,0,7.96,3.55,7.96,8.13c0,1.82-0.52,4.15-2.59,7.96l-7,12.8
	l-6.4-3.46L162.1,196.34z M181.65,196.34c-2.85-0.69-5.27-3.46-5.27-7.18c0-4.41,3.46-8.13,7.96-8.13c4.24,0,7.95,3.55,7.95,8.13
	c0,1.82-0.61,4.15-2.68,7.96l-6.92,12.8l-6.49-3.46L181.65,196.34z"/>
<polygon class="st3" points="80.2,50.65 82.12,56.56 88.34,56.56 83.31,60.22 85.23,66.13 80.2,62.48 75.17,66.13 77.09,60.22 
	72.06,56.56 78.28,56.56 "/>
<polygon class="st3" points="98.3,50.65 100.22,56.56 106.44,56.56 101.41,60.22 103.33,66.13 98.3,62.48 93.27,66.13 95.19,60.22 
	90.16,56.56 96.38,56.56 "/>
<polygon class="st3" points="116.79,50.65 118.71,56.56 124.93,56.56 119.9,60.22 121.82,66.13 116.79,62.48 111.76,66.13 
	113.68,60.22 108.65,56.56 114.87,56.56 "/>
<polygon class="st3" points="134.71,50.65 136.63,56.56 142.85,56.56 137.82,60.22 139.74,66.13 134.71,62.48 129.68,66.13 
	131.6,60.22 126.57,56.56 132.79,56.56 "/>
<polygon class="st3" points="153.07,50.65 154.99,56.56 161.21,56.56 156.18,60.22 158.1,66.13 153.07,62.48 148.04,66.13 
	149.96,60.22 144.93,56.56 151.15,56.56 "/>
<g>
	<path class="st4" d="M32.23,92.64l-0.46,3.16c-0.06,0.46-0.21,0.84-0.45,1.15s-0.53,0.54-0.9,0.69c-0.37,0.15-0.78,0.23-1.24,0.23
		c-0.62,0-1.11-0.1-1.48-0.31c-0.37-0.21-0.63-0.46-0.78-0.75c-0.15-0.29-0.22-0.57-0.22-0.84c0-0.22,0.02-0.48,0.07-0.77l0.39-2.56
		h1.31l-0.4,2.7c-0.02,0.13-0.03,0.26-0.03,0.39c0,0.28,0.08,0.51,0.24,0.7s0.46,0.28,0.89,0.28c0.22,0,0.41-0.03,0.59-0.1
		c0.17-0.07,0.32-0.18,0.45-0.35c0.12-0.16,0.21-0.38,0.25-0.66l0.45-2.97H32.23z"/>
	<path class="st4" d="M36.64,95.09c0,0.07-0.01,0.21-0.04,0.42l-0.34,2.29h-1.23l0.34-2.37c0-0.03,0.01-0.07,0.01-0.13
		c0-0.24-0.1-0.36-0.31-0.36c-0.13,0-0.25,0.04-0.38,0.13c-0.12,0.08-0.29,0.23-0.51,0.43l-0.33,2.29H32.6l0.57-3.79h1.24
		l-0.06,0.44c0.23-0.16,0.43-0.29,0.6-0.38c0.17-0.09,0.39-0.13,0.64-0.13c0.39,0,0.66,0.12,0.82,0.36
		C36.56,94.54,36.64,94.8,36.64,95.09z"/>
	<path class="st4" d="M43.57,95.72c0,0.42-0.09,0.8-0.28,1.12c-0.18,0.32-0.46,0.58-0.84,0.76c-0.38,0.18-0.84,0.27-1.39,0.27
		c-0.14,0-0.3,0-0.48-0.01c-0.19-0.01-0.36-0.02-0.52-0.04s-0.36-0.05-0.61-0.08l0.74-5.09h1.24l-0.25,1.74
		c0.25-0.29,0.56-0.43,0.92-0.43c0.19,0,0.38,0.04,0.55,0.13c0.18,0.09,0.33,0.21,0.47,0.36s0.25,0.34,0.33,0.57
		C43.53,95.22,43.57,95.46,43.57,95.72z M42.27,95.73c0-0.24-0.05-0.42-0.17-0.53c-0.11-0.11-0.24-0.17-0.4-0.17
		c-0.25,0-0.48,0.13-0.7,0.4l-0.21,1.39c0.08,0.01,0.2,0.01,0.36,0.01C41.9,96.83,42.27,96.46,42.27,95.73z"/>
	<path class="st4" d="M48.14,94.06l-0.57,3.74h-1.23l0.06-0.34c-0.14,0.13-0.28,0.23-0.42,0.3c-0.13,0.07-0.31,0.11-0.52,0.11
		c-0.27,0-0.5-0.08-0.71-0.23c-0.21-0.15-0.36-0.35-0.48-0.6c-0.11-0.25-0.17-0.52-0.17-0.82c0-0.25,0.04-0.5,0.12-0.75
		c0.08-0.26,0.23-0.5,0.43-0.74c0.21-0.24,0.5-0.42,0.88-0.57c0.38-0.15,0.84-0.22,1.4-0.22c0.23,0,0.42,0.01,0.57,0.03
		C47.65,93.98,47.86,94.02,48.14,94.06z M46.8,94.85h-0.23c-0.22,0-0.43,0.06-0.61,0.19c-0.18,0.13-0.33,0.3-0.43,0.51
		c-0.1,0.22-0.16,0.45-0.16,0.7c0,0.17,0.04,0.32,0.13,0.44s0.21,0.18,0.37,0.18c0.08,0,0.17-0.02,0.27-0.06s0.23-0.11,0.39-0.21
		L46.8,94.85z"/>
	<path class="st4" d="M50.69,92.64l-0.76,5.16h-1.26l0.76-5.16H50.69z"/>
	<path class="st4" d="M53.06,92.64L52.3,97.8h-1.26l0.76-5.16H53.06z"/>
	<path class="st4" d="M57.06,95.67c0,0.18-0.02,0.36-0.05,0.55h-2.4c0,0.52,0.26,0.79,0.77,0.79c0.26,0,0.49-0.03,0.69-0.09
		s0.44-0.15,0.72-0.26l-0.19,0.93c-0.27,0.11-0.48,0.18-0.64,0.22s-0.36,0.06-0.61,0.06c-0.52,0-0.92-0.1-1.22-0.29
		c-0.3-0.19-0.5-0.42-0.6-0.69c-0.11-0.27-0.16-0.53-0.16-0.79c0-0.39,0.09-0.75,0.27-1.08c0.18-0.33,0.42-0.59,0.74-0.79
		c0.31-0.19,0.67-0.29,1.06-0.29c0.3,0,0.57,0.06,0.81,0.19c0.24,0.13,0.44,0.32,0.59,0.58C56.99,94.97,57.06,95.29,57.06,95.67z
		 M55.86,95.56c0-0.02,0-0.03,0-0.05c0-0.02,0-0.04,0-0.07c0-0.43-0.15-0.64-0.44-0.64c-0.18,0-0.32,0.07-0.42,0.21
		c-0.1,0.14-0.2,0.33-0.29,0.55H55.86z"/>
	<path class="st4" d="M60.36,94.01l-0.2,0.93h-0.73l-0.25,1.24c-0.02,0.1-0.03,0.19-0.03,0.25c0,0.21,0.09,0.32,0.28,0.32
		c0.2,0,0.45-0.11,0.73-0.32l-0.07,1.15c-0.34,0.2-0.7,0.3-1.07,0.3c-0.16,0-0.32-0.03-0.48-0.09c-0.16-0.06-0.3-0.17-0.43-0.32
		c-0.15-0.18-0.23-0.42-0.23-0.71c0-0.13,0.01-0.27,0.04-0.41l0.26-1.39h-0.7l0.17-0.93h0.71l0.15-0.76h1.25l-0.15,0.76H60.36z"/>
	<path class="st4" d="M66.39,92.69l-0.13,0.91c-0.18-0.03-0.33-0.04-0.44-0.04c-0.22,0-0.38,0.06-0.5,0.18
		c-0.11,0.12-0.19,0.35-0.23,0.68h0.85l-0.15,0.93h-0.83l-0.58,4h-1.24l0.58-4h-0.86l0.14-0.93h0.86l0.06-0.35
		c0.03-0.18,0.07-0.34,0.12-0.48c0.04-0.14,0.12-0.29,0.23-0.45c0.11-0.16,0.28-0.29,0.49-0.4s0.48-0.16,0.81-0.16
		c0.14,0,0.27,0.01,0.4,0.03C66.08,92.62,66.22,92.65,66.39,92.69z"/>
	<path class="st4" d="M70.35,95.76c0,0.3-0.05,0.58-0.16,0.84c-0.11,0.26-0.26,0.49-0.45,0.67s-0.42,0.33-0.68,0.43
		c-0.26,0.1-0.54,0.15-0.83,0.15c-0.34,0-0.66-0.08-0.96-0.23s-0.53-0.37-0.7-0.65c-0.17-0.28-0.26-0.6-0.26-0.96
		c0-0.28,0.06-0.54,0.17-0.8c0.11-0.25,0.27-0.48,0.47-0.67c0.2-0.2,0.43-0.35,0.7-0.46c0.27-0.11,0.55-0.16,0.86-0.16
		c0.32,0,0.62,0.07,0.9,0.2c0.28,0.13,0.51,0.34,0.68,0.61S70.35,95.37,70.35,95.76z M69.08,95.74c0-0.23-0.06-0.41-0.18-0.54
		c-0.12-0.13-0.28-0.19-0.47-0.19c-0.2,0-0.36,0.06-0.49,0.17c-0.13,0.12-0.22,0.26-0.28,0.42s-0.09,0.32-0.09,0.46
		c0,0.21,0.06,0.38,0.18,0.52s0.28,0.21,0.49,0.21c0.16,0,0.31-0.05,0.44-0.16c0.13-0.1,0.23-0.24,0.3-0.4
		C69.05,96.08,69.08,95.91,69.08,95.74z"/>
	<path class="st4" d="M72.95,92.64l-0.76,5.16h-1.26l0.76-5.16H72.95z"/>
	<path class="st4" d="M77.56,94.01L76,95.9l1.35,1.9H76l-1.25-1.78l-0.27,1.78h-1.24l0.79-5.16h1.22l-0.43,2.95l1.32-1.58H77.56z"/>
	<path class="st4" d="M79.67,92.64l-0.76,5.16h-1.26l0.76-5.16H79.67z"/>
	<path class="st4" d="M84.05,95.76c0,0.3-0.05,0.58-0.16,0.84c-0.11,0.26-0.26,0.49-0.45,0.67s-0.42,0.33-0.68,0.43
		c-0.26,0.1-0.54,0.15-0.83,0.15c-0.34,0-0.66-0.08-0.96-0.23s-0.53-0.37-0.7-0.65c-0.17-0.28-0.26-0.6-0.26-0.96
		c0-0.28,0.06-0.54,0.17-0.8c0.11-0.25,0.27-0.48,0.47-0.67c0.2-0.2,0.43-0.35,0.7-0.46c0.27-0.11,0.55-0.16,0.86-0.16
		c0.32,0,0.62,0.07,0.9,0.2c0.28,0.13,0.51,0.34,0.68,0.61S84.05,95.37,84.05,95.76z M82.78,95.74c0-0.23-0.06-0.41-0.18-0.54
		c-0.12-0.13-0.28-0.19-0.47-0.19c-0.2,0-0.36,0.06-0.49,0.17c-0.13,0.12-0.22,0.26-0.28,0.42s-0.09,0.32-0.09,0.46
		c0,0.21,0.06,0.38,0.18,0.52s0.28,0.21,0.49,0.21c0.16,0,0.31-0.05,0.44-0.16c0.13-0.1,0.23-0.24,0.3-0.4
		C82.75,96.08,82.78,95.91,82.78,95.74z M83.8,92.28l-1.6,1.23h-0.76l0.98-1.23H83.8z"/>
	<path class="st4" d="M87.9,94.33l-0.58,1.2c-0.07-0.12-0.14-0.22-0.22-0.3s-0.19-0.12-0.31-0.12c-0.24,0-0.47,0.17-0.67,0.53
		l-0.32,2.17h-1.23l0.57-3.79h1.23l-0.08,0.54c0.34-0.41,0.64-0.61,0.91-0.61c0.14,0,0.26,0.03,0.37,0.1S87.78,94.21,87.9,94.33z"/>
	<path class="st4" d="M89.74,94.01L89.2,97.8h-1.26l0.54-3.79H89.74z M89.81,93.14c0,0.16-0.06,0.29-0.17,0.4
		c-0.11,0.11-0.25,0.17-0.41,0.17c-0.16,0-0.29-0.06-0.4-0.17c-0.11-0.11-0.17-0.25-0.17-0.4c0-0.16,0.06-0.29,0.17-0.4
		c0.11-0.11,0.25-0.17,0.4-0.17c0.1,0,0.19,0.03,0.28,0.08c0.09,0.05,0.16,0.12,0.21,0.21C89.79,92.95,89.81,93.04,89.81,93.14z"/>
	<path class="st4" d="M93.86,94.08l-0.17,1.17c-0.24-0.08-0.4-0.13-0.46-0.14c-0.14-0.03-0.29-0.05-0.44-0.05
		c-0.29,0-0.52,0.05-0.7,0.16c-0.18,0.11-0.31,0.24-0.39,0.4c-0.08,0.16-0.12,0.3-0.12,0.43c0,0.17,0.06,0.33,0.17,0.48
		s0.34,0.23,0.69,0.23c0.18,0,0.35-0.02,0.53-0.07s0.41-0.14,0.7-0.28l-0.2,1.27c-0.16,0.05-0.28,0.08-0.38,0.11
		s-0.2,0.04-0.31,0.05c-0.11,0.01-0.23,0.02-0.35,0.02c-0.81,0-1.37-0.2-1.67-0.59s-0.45-0.81-0.45-1.24c0-0.28,0.07-0.58,0.22-0.9
		c0.14-0.32,0.4-0.6,0.76-0.84s0.85-0.36,1.46-0.36C93.08,93.94,93.46,93.99,93.86,94.08z"/>
	<path class="st4" d="M98.2,95.76c0,0.3-0.05,0.58-0.16,0.84c-0.11,0.26-0.26,0.49-0.45,0.67s-0.42,0.33-0.68,0.43
		c-0.26,0.1-0.54,0.15-0.83,0.15c-0.34,0-0.66-0.08-0.96-0.23s-0.53-0.37-0.7-0.65c-0.17-0.28-0.26-0.6-0.26-0.96
		c0-0.28,0.06-0.54,0.17-0.8c0.11-0.25,0.27-0.48,0.47-0.67c0.2-0.2,0.43-0.35,0.7-0.46c0.27-0.11,0.55-0.16,0.86-0.16
		c0.32,0,0.62,0.07,0.9,0.2c0.28,0.13,0.51,0.34,0.68,0.61S98.2,95.37,98.2,95.76z M96.94,95.74c0-0.23-0.06-0.41-0.18-0.54
		c-0.12-0.13-0.28-0.19-0.47-0.19c-0.2,0-0.36,0.06-0.49,0.17c-0.13,0.12-0.22,0.26-0.28,0.42s-0.09,0.32-0.09,0.46
		c0,0.21,0.06,0.38,0.18,0.52s0.28,0.21,0.49,0.21c0.16,0,0.31-0.05,0.44-0.16c0.13-0.1,0.23-0.24,0.3-0.4
		C96.9,96.08,96.94,95.91,96.94,95.74z"/>
	<path class="st4" d="M104.67,95.67c0,0.18-0.02,0.36-0.05,0.55h-2.4c0,0.52,0.26,0.79,0.77,0.79c0.26,0,0.49-0.03,0.69-0.09
		s0.44-0.15,0.72-0.26l-0.19,0.93c-0.27,0.11-0.48,0.18-0.64,0.22s-0.36,0.06-0.61,0.06c-0.52,0-0.92-0.1-1.22-0.29
		c-0.3-0.19-0.5-0.42-0.6-0.69c-0.11-0.27-0.16-0.53-0.16-0.79c0-0.39,0.09-0.75,0.27-1.08c0.18-0.33,0.42-0.59,0.74-0.79
		c0.31-0.19,0.67-0.29,1.06-0.29c0.3,0,0.57,0.06,0.81,0.19c0.24,0.13,0.44,0.32,0.59,0.58C104.6,94.97,104.67,95.29,104.67,95.67z
		 M103.47,95.56c0-0.02,0-0.03,0-0.05c0-0.02,0-0.04,0-0.07c0-0.43-0.15-0.64-0.44-0.64c-0.18,0-0.32,0.07-0.42,0.21
		c-0.1,0.14-0.2,0.33-0.29,0.55H103.47z"/>
	<path class="st4" d="M109.19,95.09c0,0.07-0.01,0.21-0.04,0.42l-0.34,2.29h-1.23l0.34-2.37c0-0.03,0.01-0.07,0.01-0.13
		c0-0.24-0.1-0.36-0.31-0.36c-0.13,0-0.25,0.04-0.38,0.13c-0.12,0.08-0.29,0.23-0.51,0.43l-0.33,2.29h-1.24l0.57-3.79h1.24
		l-0.06,0.44c0.23-0.16,0.43-0.29,0.6-0.38c0.17-0.09,0.39-0.13,0.64-0.13c0.39,0,0.66,0.12,0.82,0.36
		C109.11,94.54,109.19,94.8,109.19,95.09z"/>
	<path class="st4" d="M115.72,95.67c0,0.18-0.02,0.36-0.05,0.55h-2.4c0,0.52,0.26,0.79,0.77,0.79c0.26,0,0.49-0.03,0.69-0.09
		s0.44-0.15,0.72-0.26l-0.19,0.93c-0.27,0.11-0.48,0.18-0.64,0.22s-0.36,0.06-0.61,0.06c-0.52,0-0.92-0.1-1.22-0.29
		c-0.3-0.19-0.5-0.42-0.6-0.69c-0.11-0.27-0.16-0.53-0.16-0.79c0-0.39,0.09-0.75,0.27-1.08c0.18-0.33,0.42-0.59,0.74-0.79
		c0.31-0.19,0.67-0.29,1.06-0.29c0.3,0,0.57,0.06,0.81,0.19c0.24,0.13,0.44,0.32,0.59,0.58C115.64,94.97,115.72,95.29,115.72,95.67z
		 M114.52,95.56c0-0.02,0-0.03,0-0.05c0-0.02,0-0.04,0-0.07c0-0.43-0.15-0.64-0.44-0.64c-0.18,0-0.32,0.07-0.42,0.21
		c-0.1,0.14-0.2,0.33-0.29,0.55H114.52z"/>
	<path class="st4" d="M118.29,92.64l-0.76,5.16h-1.26l0.76-5.16H118.29z"/>
	<path class="st4" d="M124.83,94.01l-0.79,5.52h-1.26l0.28-1.9c-0.12,0.06-0.25,0.12-0.39,0.17c-0.14,0.05-0.3,0.07-0.48,0.07
		c-0.27,0-0.51-0.07-0.71-0.21c-0.21-0.14-0.37-0.34-0.48-0.59s-0.17-0.54-0.17-0.85c0-0.18,0.03-0.38,0.08-0.62
		c0.05-0.23,0.16-0.47,0.33-0.72c0.17-0.25,0.41-0.45,0.74-0.62s0.75-0.25,1.26-0.25H124.83z M123.44,95.03
		c-0.56,0.02-0.93,0.16-1.09,0.41s-0.25,0.5-0.25,0.75c0,0.21,0.05,0.38,0.16,0.51s0.25,0.2,0.42,0.2c0.16,0,0.33-0.05,0.5-0.14
		L123.44,95.03z"/>
	<path class="st4" d="M129.4,94.01l-0.57,3.79h-1.24l0.06-0.44c-0.05,0.04-0.13,0.09-0.23,0.16c-0.1,0.07-0.2,0.13-0.29,0.18
		c-0.09,0.04-0.2,0.08-0.33,0.12c-0.13,0.04-0.26,0.05-0.4,0.05c-0.27,0-0.48-0.06-0.63-0.18s-0.27-0.27-0.33-0.45
		c-0.06-0.18-0.09-0.35-0.09-0.52c0-0.08,0.01-0.22,0.04-0.42l0.34-2.29h1.23l-0.34,2.37c0,0.03-0.01,0.07-0.01,0.13
		c0,0.24,0.1,0.36,0.31,0.36c0.13,0,0.26-0.04,0.38-0.13c0.12-0.08,0.29-0.23,0.51-0.43l0.33-2.3H129.4z"/>
	<path class="st4" d="M133.58,95.67c0,0.18-0.02,0.36-0.05,0.55h-2.4c0,0.52,0.26,0.79,0.77,0.79c0.26,0,0.49-0.03,0.69-0.09
		s0.44-0.15,0.72-0.26l-0.19,0.93c-0.27,0.11-0.48,0.18-0.64,0.22s-0.36,0.06-0.61,0.06c-0.52,0-0.92-0.1-1.22-0.29
		c-0.3-0.19-0.5-0.42-0.6-0.69c-0.11-0.27-0.16-0.53-0.16-0.79c0-0.39,0.09-0.75,0.27-1.08c0.18-0.33,0.42-0.59,0.74-0.79
		c0.31-0.19,0.67-0.29,1.06-0.29c0.3,0,0.57,0.06,0.81,0.19c0.24,0.13,0.44,0.32,0.59,0.58C133.5,94.97,133.58,95.29,133.58,95.67z
		 M132.38,95.56c0-0.02,0-0.03,0-0.05c0-0.02,0-0.04,0-0.07c0-0.43-0.15-0.64-0.44-0.64c-0.18,0-0.32,0.07-0.42,0.21
		c-0.1,0.14-0.2,0.33-0.29,0.55H132.38z"/>
	<path class="st4" d="M140.54,95.7c0,0.39-0.08,0.75-0.25,1.08c-0.17,0.33-0.41,0.59-0.73,0.79c-0.32,0.2-0.69,0.29-1.1,0.29
		c-0.12,0-0.24-0.01-0.34-0.03c-0.11-0.02-0.22-0.05-0.34-0.09l-0.28,1.79h-1.24l0.6-3.95l-0.52,0.62
		c-0.05,0.05-0.08,0.09-0.11,0.11c-0.02,0.02-0.05,0.03-0.08,0.03c-0.08,0-0.12-0.05-0.12-0.15c0-0.12,0.04-0.26,0.13-0.44
		c0.09-0.18,0.19-0.34,0.3-0.48c0.11-0.14,0.28-0.32,0.52-0.53l0.21-1.4h1.23l-0.1,0.67c0.08-0.02,0.17-0.04,0.26-0.04
		c0.09-0.02,0.18-0.02,0.27-0.02c0.28,0,0.52,0.04,0.74,0.14c0.21,0.09,0.39,0.22,0.53,0.38c0.14,0.16,0.25,0.35,0.31,0.56
		S140.54,95.46,140.54,95.7z M139.24,95.69c0-0.25-0.06-0.45-0.18-0.61c-0.12-0.16-0.31-0.24-0.59-0.24c-0.1,0-0.19,0.01-0.28,0.03
		l-0.3,1.97c0.09,0.02,0.19,0.04,0.29,0.04c0.25,0,0.46-0.06,0.62-0.18c0.16-0.12,0.27-0.27,0.33-0.45
		C139.21,96.06,139.24,95.88,139.24,95.69z"/>
	<path class="st4" d="M145.18,94.01l-0.57,3.79h-1.24l0.06-0.44c-0.05,0.04-0.13,0.09-0.23,0.16c-0.1,0.07-0.2,0.13-0.29,0.18
		c-0.09,0.04-0.2,0.08-0.33,0.12c-0.13,0.04-0.26,0.05-0.4,0.05c-0.27,0-0.48-0.06-0.63-0.18s-0.27-0.27-0.33-0.45
		c-0.06-0.18-0.09-0.35-0.09-0.52c0-0.08,0.01-0.22,0.04-0.42l0.34-2.29h1.23l-0.34,2.37c0,0.03-0.01,0.07-0.01,0.13
		c0,0.24,0.1,0.36,0.31,0.36c0.13,0,0.26-0.04,0.38-0.13c0.12-0.08,0.29-0.23,0.51-0.43l0.33-2.3H145.18z"/>
	<path class="st4" d="M149.36,95.67c0,0.18-0.02,0.36-0.05,0.55h-2.4c0,0.52,0.26,0.79,0.77,0.79c0.26,0,0.49-0.03,0.69-0.09
		s0.44-0.15,0.72-0.26l-0.19,0.93c-0.27,0.11-0.48,0.18-0.64,0.22s-0.36,0.06-0.61,0.06c-0.52,0-0.92-0.1-1.22-0.29
		c-0.3-0.19-0.5-0.42-0.6-0.69c-0.11-0.27-0.16-0.53-0.16-0.79c0-0.39,0.09-0.75,0.27-1.08c0.18-0.33,0.42-0.59,0.74-0.79
		c0.31-0.19,0.67-0.29,1.06-0.29c0.3,0,0.57,0.06,0.81,0.19c0.24,0.13,0.44,0.32,0.59,0.58C149.29,94.97,149.36,95.29,149.36,95.67z
		 M148.16,95.56c0-0.02,0-0.03,0-0.05c0-0.02,0-0.04,0-0.07c0-0.43-0.15-0.64-0.44-0.64c-0.18,0-0.32,0.07-0.42,0.21
		c-0.1,0.14-0.2,0.33-0.29,0.55H148.16z"/>
	<path class="st4" d="M154.2,92.64l-0.73,5.11c-0.5,0.08-0.95,0.12-1.36,0.12c-0.7,0-1.24-0.17-1.63-0.5s-0.58-0.78-0.58-1.35
		c0-0.22,0.04-0.45,0.13-0.69c0.08-0.24,0.22-0.47,0.41-0.68c0.19-0.21,0.43-0.38,0.73-0.52s0.66-0.2,1.09-0.2
		c0.16,0,0.33,0.01,0.51,0.03l0.2-1.33H154.2z M152.63,94.98c-0.03,0-0.07,0-0.12,0c-0.34,0-0.61,0.06-0.8,0.19
		c-0.2,0.13-0.33,0.28-0.4,0.44c-0.07,0.17-0.11,0.31-0.11,0.44c0,0.12,0.03,0.24,0.09,0.37c0.06,0.12,0.16,0.22,0.3,0.3
		c0.14,0.08,0.31,0.12,0.53,0.12c0.1,0,0.18-0.01,0.24-0.02L152.63,94.98z"/>
	<path class="st4" d="M158.14,95.67c0,0.18-0.02,0.36-0.05,0.55h-2.4c0,0.52,0.26,0.79,0.77,0.79c0.26,0,0.49-0.03,0.69-0.09
		s0.44-0.15,0.72-0.26l-0.19,0.93c-0.27,0.11-0.48,0.18-0.64,0.22s-0.36,0.06-0.61,0.06c-0.52,0-0.92-0.1-1.22-0.29
		c-0.3-0.19-0.5-0.42-0.6-0.69c-0.11-0.27-0.16-0.53-0.16-0.79c0-0.39,0.09-0.75,0.27-1.08c0.18-0.33,0.42-0.59,0.74-0.79
		c0.31-0.19,0.67-0.29,1.06-0.29c0.3,0,0.57,0.06,0.81,0.19c0.24,0.13,0.44,0.32,0.59,0.58C158.07,94.97,158.14,95.29,158.14,95.67z
		 M156.94,95.56c0-0.02,0-0.03,0-0.05c0-0.02,0-0.04,0-0.07c0-0.43-0.15-0.64-0.44-0.64c-0.18,0-0.32,0.07-0.42,0.21
		c-0.1,0.14-0.2,0.33-0.29,0.55H156.94z"/>
	<path class="st4" d="M161.39,94.29l-0.09,0.89c-0.18-0.09-0.39-0.17-0.61-0.25c-0.22-0.07-0.4-0.11-0.53-0.11
		c-0.17,0-0.25,0.06-0.25,0.17c0,0.07,0.03,0.13,0.08,0.18s0.14,0.12,0.25,0.21s0.23,0.16,0.32,0.24c0.25,0.21,0.42,0.4,0.5,0.56
		s0.13,0.32,0.13,0.47c0,0.19-0.05,0.37-0.16,0.56s-0.28,0.34-0.5,0.46c-0.22,0.12-0.49,0.18-0.81,0.18c-0.13,0-0.31-0.02-0.54-0.07
		c-0.24-0.05-0.48-0.13-0.73-0.27l0.16-0.87c0.28,0.11,0.49,0.19,0.64,0.24c0.15,0.05,0.31,0.08,0.48,0.08
		c0.1,0,0.18-0.02,0.24-0.07c0.06-0.05,0.08-0.1,0.08-0.16c0-0.07-0.04-0.15-0.12-0.22c-0.08-0.07-0.23-0.19-0.46-0.36
		c-0.21-0.16-0.38-0.33-0.52-0.5c-0.14-0.18-0.21-0.37-0.21-0.59c0-0.3,0.12-0.57,0.37-0.8c0.24-0.23,0.6-0.35,1.07-0.35
		c0.25,0,0.46,0.03,0.65,0.09C160.99,94.09,161.18,94.18,161.39,94.29z"/>
	<path class="st4" d="M168.35,92.64l-0.73,5.11c-0.5,0.08-0.95,0.12-1.36,0.12c-0.7,0-1.24-0.17-1.63-0.5s-0.58-0.78-0.58-1.35
		c0-0.22,0.04-0.45,0.13-0.69c0.08-0.24,0.22-0.47,0.41-0.68c0.19-0.21,0.43-0.38,0.73-0.52s0.66-0.2,1.09-0.2
		c0.16,0,0.33,0.01,0.51,0.03l0.2-1.33H168.35z M166.78,94.98c-0.03,0-0.07,0-0.12,0c-0.34,0-0.61,0.06-0.8,0.19
		c-0.2,0.13-0.33,0.28-0.4,0.44c-0.07,0.17-0.11,0.31-0.11,0.44c0,0.12,0.03,0.24,0.09,0.37c0.06,0.12,0.16,0.22,0.3,0.3
		c0.14,0.08,0.31,0.12,0.53,0.12c0.1,0,0.18-0.01,0.24-0.02L166.78,94.98z"/>
	<path class="st4" d="M172.3,95.67c0,0.18-0.02,0.36-0.05,0.55h-2.4c0,0.52,0.26,0.79,0.77,0.79c0.26,0,0.49-0.03,0.69-0.09
		s0.44-0.15,0.72-0.26l-0.19,0.93c-0.27,0.11-0.48,0.18-0.64,0.22s-0.36,0.06-0.61,0.06c-0.52,0-0.92-0.1-1.22-0.29
		c-0.3-0.19-0.5-0.42-0.6-0.69c-0.11-0.27-0.16-0.53-0.16-0.79c0-0.39,0.09-0.75,0.27-1.08c0.18-0.33,0.42-0.59,0.74-0.79
		c0.31-0.19,0.67-0.29,1.06-0.29c0.3,0,0.57,0.06,0.81,0.19c0.24,0.13,0.44,0.32,0.59,0.58C172.23,94.97,172.3,95.29,172.3,95.67z
		 M171.1,95.56c0-0.02,0-0.03,0-0.05c0-0.02,0-0.04,0-0.07c0-0.43-0.15-0.64-0.44-0.64c-0.18,0-0.32,0.07-0.42,0.21
		c-0.1,0.14-0.2,0.33-0.29,0.55H171.1z"/>
	<path class="st4" d="M175.54,94.29l-0.09,0.89c-0.18-0.09-0.39-0.17-0.61-0.25c-0.22-0.07-0.4-0.11-0.53-0.11
		c-0.17,0-0.25,0.06-0.25,0.17c0,0.07,0.03,0.13,0.08,0.18s0.14,0.12,0.25,0.21s0.23,0.16,0.32,0.24c0.25,0.21,0.42,0.4,0.5,0.56
		s0.13,0.32,0.13,0.47c0,0.19-0.05,0.37-0.16,0.56s-0.28,0.34-0.5,0.46c-0.22,0.12-0.49,0.18-0.81,0.18c-0.13,0-0.31-0.02-0.54-0.07
		c-0.24-0.05-0.48-0.13-0.73-0.27l0.16-0.87c0.28,0.11,0.49,0.19,0.64,0.24c0.15,0.05,0.31,0.08,0.48,0.08
		c0.1,0,0.18-0.02,0.24-0.07c0.06-0.05,0.08-0.1,0.08-0.16c0-0.07-0.04-0.15-0.12-0.22c-0.08-0.07-0.23-0.19-0.46-0.36
		c-0.21-0.16-0.38-0.33-0.52-0.5c-0.14-0.18-0.21-0.37-0.21-0.59c0-0.3,0.12-0.57,0.37-0.8c0.24-0.23,0.6-0.35,1.07-0.35
		c0.25,0,0.46,0.03,0.65,0.09C175.14,94.09,175.33,94.18,175.54,94.29z"/>
	<path class="st4" d="M180,94.06l-0.57,3.74h-1.23l0.06-0.34c-0.14,0.13-0.28,0.23-0.42,0.3c-0.13,0.07-0.31,0.11-0.52,0.11
		c-0.27,0-0.5-0.08-0.71-0.23c-0.21-0.15-0.36-0.35-0.48-0.6c-0.11-0.25-0.17-0.52-0.17-0.82c0-0.25,0.04-0.5,0.12-0.75
		c0.08-0.26,0.23-0.5,0.43-0.74c0.21-0.24,0.5-0.42,0.88-0.57c0.38-0.15,0.84-0.22,1.4-0.22c0.23,0,0.42,0.01,0.57,0.03
		C179.5,93.98,179.72,94.02,180,94.06z M178.66,94.85h-0.23c-0.22,0-0.43,0.06-0.61,0.19c-0.18,0.13-0.33,0.3-0.43,0.51
		c-0.1,0.22-0.16,0.45-0.16,0.7c0,0.17,0.04,0.32,0.13,0.44s0.21,0.18,0.37,0.18c0.08,0,0.17-0.02,0.27-0.06s0.23-0.11,0.39-0.21
		L178.66,94.85z"/>
	<path class="st4" d="M183.79,94.33l-0.58,1.2c-0.07-0.12-0.14-0.22-0.22-0.3s-0.19-0.12-0.31-0.12c-0.24,0-0.47,0.17-0.67,0.53
		l-0.32,2.17h-1.23l0.57-3.79h1.23l-0.08,0.54c0.34-0.41,0.64-0.61,0.91-0.61c0.14,0,0.26,0.03,0.37,0.1S183.67,94.21,183.79,94.33z
		"/>
	<path class="st4" d="M187.11,94.33l-0.58,1.2c-0.07-0.12-0.14-0.22-0.22-0.3s-0.19-0.12-0.31-0.12c-0.24,0-0.47,0.17-0.67,0.53
		l-0.32,2.17h-1.23l0.57-3.79h1.23l-0.08,0.54c0.34-0.41,0.64-0.61,0.91-0.61c0.14,0,0.26,0.03,0.37,0.1S186.98,94.21,187.11,94.33z
		"/>
	<path class="st4" d="M191.07,95.76c0,0.3-0.05,0.58-0.16,0.84c-0.11,0.26-0.26,0.49-0.45,0.67s-0.42,0.33-0.68,0.43
		c-0.26,0.1-0.54,0.15-0.83,0.15c-0.34,0-0.66-0.08-0.96-0.23s-0.53-0.37-0.7-0.65c-0.17-0.28-0.26-0.6-0.26-0.96
		c0-0.28,0.06-0.54,0.17-0.8c0.11-0.25,0.27-0.48,0.47-0.67c0.2-0.2,0.43-0.35,0.7-0.46c0.27-0.11,0.55-0.16,0.86-0.16
		c0.32,0,0.62,0.07,0.9,0.2c0.28,0.13,0.51,0.34,0.68,0.61S191.07,95.37,191.07,95.76z M189.8,95.74c0-0.23-0.06-0.41-0.18-0.54
		c-0.12-0.13-0.28-0.19-0.47-0.19c-0.2,0-0.36,0.06-0.49,0.17c-0.13,0.12-0.22,0.26-0.28,0.42s-0.09,0.32-0.09,0.46
		c0,0.21,0.06,0.38,0.18,0.52s0.28,0.21,0.49,0.21c0.16,0,0.31-0.05,0.44-0.16c0.13-0.1,0.23-0.24,0.3-0.4
		C189.76,96.08,189.8,95.91,189.8,95.74z"/>
	<path class="st4" d="M193.67,92.64l-0.76,5.16h-1.26l0.76-5.16H193.67z"/>
	<path class="st4" d="M196.04,92.64l-0.76,5.16h-1.26l0.76-5.16H196.04z"/>
	<path class="st4" d="M200.39,94.06l-0.57,3.74h-1.23l0.06-0.34c-0.14,0.13-0.28,0.23-0.42,0.3c-0.13,0.07-0.31,0.11-0.52,0.11
		c-0.27,0-0.5-0.08-0.71-0.23c-0.21-0.15-0.36-0.35-0.48-0.6c-0.11-0.25-0.17-0.52-0.17-0.82c0-0.25,0.04-0.5,0.12-0.75
		c0.08-0.26,0.23-0.5,0.43-0.74c0.21-0.24,0.5-0.42,0.88-0.57c0.38-0.15,0.84-0.22,1.4-0.22c0.23,0,0.42,0.01,0.57,0.03
		C199.9,93.98,200.11,94.02,200.39,94.06z M199.05,94.85h-0.23c-0.22,0-0.43,0.06-0.61,0.19c-0.18,0.13-0.33,0.3-0.43,0.51
		c-0.1,0.22-0.16,0.45-0.16,0.7c0,0.17,0.04,0.32,0.13,0.44s0.21,0.18,0.37,0.18c0.08,0,0.17-0.02,0.27-0.06s0.23-0.11,0.39-0.21
		L199.05,94.85z"/>
	<path class="st4" d="M204.19,94.33l-0.58,1.2c-0.07-0.12-0.14-0.22-0.22-0.3s-0.19-0.12-0.31-0.12c-0.24,0-0.47,0.17-0.67,0.53
		l-0.32,2.17h-1.23l0.57-3.79h1.23l-0.08,0.54c0.34-0.41,0.64-0.61,0.91-0.61c0.14,0,0.26,0.03,0.37,0.1S204.07,94.21,204.19,94.33z
		"/>
	<path class="st4" d="M29.08,103.16l-0.2,0.93h-0.73l-0.25,1.24c-0.02,0.1-0.03,0.19-0.03,0.25c0,0.21,0.09,0.32,0.28,0.32
		c0.2,0,0.45-0.11,0.73-0.32l-0.07,1.15c-0.34,0.2-0.7,0.3-1.07,0.3c-0.16,0-0.32-0.03-0.48-0.09c-0.16-0.06-0.3-0.17-0.43-0.32
		c-0.15-0.18-0.23-0.42-0.23-0.71c0-0.13,0.01-0.27,0.04-0.41l0.26-1.39h-0.7l0.17-0.93h0.71l0.15-0.76h1.25l-0.15,0.76H29.08z"/>
	<path class="st4" d="M33.54,103.16l-0.57,3.79h-1.24l0.06-0.44c-0.05,0.04-0.13,0.09-0.23,0.16c-0.1,0.07-0.2,0.13-0.29,0.18
		c-0.09,0.04-0.2,0.08-0.33,0.12c-0.13,0.04-0.26,0.05-0.4,0.05c-0.27,0-0.48-0.06-0.63-0.18c-0.16-0.12-0.27-0.27-0.33-0.45
		c-0.06-0.18-0.09-0.35-0.09-0.52c0-0.08,0.01-0.22,0.04-0.42l0.34-2.29h1.23l-0.34,2.37c0,0.03-0.01,0.07-0.01,0.13
		c0,0.24,0.1,0.36,0.31,0.36c0.13,0,0.26-0.04,0.38-0.13c0.12-0.08,0.29-0.23,0.51-0.43l0.33-2.3H33.54z"/>
	<path class="st4" d="M36.75,103.45l-0.09,0.89c-0.18-0.09-0.39-0.17-0.61-0.25c-0.22-0.07-0.4-0.11-0.53-0.11
		c-0.17,0-0.25,0.06-0.25,0.17c0,0.07,0.03,0.13,0.08,0.18s0.14,0.12,0.25,0.21s0.23,0.16,0.32,0.24c0.25,0.21,0.42,0.4,0.5,0.56
		s0.13,0.32,0.13,0.47c0,0.19-0.05,0.37-0.16,0.56s-0.28,0.34-0.5,0.46c-0.22,0.12-0.49,0.18-0.81,0.18c-0.13,0-0.31-0.02-0.54-0.07
		c-0.24-0.05-0.48-0.13-0.73-0.27l0.16-0.87c0.28,0.11,0.49,0.19,0.64,0.24c0.15,0.05,0.31,0.08,0.48,0.08
		c0.1,0,0.18-0.02,0.24-0.07c0.06-0.05,0.08-0.1,0.08-0.16c0-0.07-0.04-0.15-0.12-0.22c-0.08-0.07-0.23-0.19-0.46-0.36
		c-0.21-0.16-0.38-0.33-0.52-0.5c-0.14-0.18-0.21-0.37-0.21-0.59c0-0.3,0.12-0.57,0.37-0.8c0.24-0.23,0.6-0.35,1.07-0.35
		c0.25,0,0.46,0.03,0.65,0.09C36.35,103.25,36.54,103.34,36.75,103.45z"/>
	<path class="st4" d="M43.4,104.23c0,0.14-0.02,0.33-0.06,0.55l-0.32,2.18h-1.24l0.35-2.34c0-0.04,0.01-0.07,0.01-0.09
		c0-0.11-0.03-0.21-0.08-0.29c-0.05-0.08-0.13-0.13-0.24-0.13c-0.12,0-0.25,0.05-0.38,0.14c-0.13,0.09-0.3,0.23-0.5,0.42l-0.33,2.29
		h-1.24l0.77-5.16h1.23l-0.27,1.81c0.23-0.17,0.43-0.3,0.61-0.38c0.18-0.08,0.39-0.13,0.62-0.13c0.28,0,0.5,0.06,0.66,0.19
		c0.16,0.13,0.27,0.27,0.32,0.45C43.37,103.91,43.4,104.07,43.4,104.23z"/>
	<path class="st4" d="M48.04,103.22l-0.57,3.74h-1.23l0.06-0.34c-0.14,0.13-0.28,0.23-0.42,0.3c-0.13,0.07-0.31,0.11-0.52,0.11
		c-0.27,0-0.5-0.08-0.71-0.23c-0.21-0.15-0.36-0.35-0.48-0.6c-0.11-0.25-0.17-0.52-0.17-0.82c0-0.25,0.04-0.5,0.12-0.75
		c0.08-0.26,0.23-0.5,0.43-0.74c0.21-0.24,0.5-0.42,0.88-0.57c0.38-0.15,0.84-0.22,1.4-0.22c0.23,0,0.42,0.01,0.57,0.03
		C47.55,103.14,47.76,103.17,48.04,103.22z M46.7,104.01h-0.23c-0.22,0-0.43,0.06-0.61,0.19c-0.18,0.13-0.33,0.3-0.43,0.51
		c-0.1,0.22-0.16,0.45-0.16,0.7c0,0.17,0.04,0.32,0.13,0.44s0.21,0.18,0.37,0.18c0.08,0,0.17-0.02,0.27-0.06s0.23-0.11,0.39-0.21
		L46.7,104.01z"/>
	<path class="st4" d="M52.52,104.88c0,0.42-0.09,0.8-0.28,1.12c-0.18,0.32-0.46,0.58-0.84,0.76c-0.38,0.18-0.84,0.27-1.39,0.27
		c-0.14,0-0.3,0-0.48-0.01c-0.19-0.01-0.36-0.02-0.52-0.04s-0.36-0.05-0.61-0.08l0.74-5.09h1.24l-0.25,1.74
		c0.25-0.29,0.56-0.43,0.92-0.43c0.19,0,0.38,0.04,0.55,0.13c0.18,0.09,0.33,0.21,0.47,0.36s0.25,0.34,0.33,0.57
		C52.48,104.38,52.52,104.62,52.52,104.88z M51.22,104.88c0-0.24-0.05-0.42-0.17-0.53c-0.11-0.11-0.24-0.17-0.4-0.17
		c-0.25,0-0.48,0.13-0.7,0.4l-0.21,1.39c0.08,0.01,0.2,0.01,0.36,0.01C50.85,105.99,51.22,105.62,51.22,104.88z"/>
	<path class="st4" d="M54.89,103.16l-0.54,3.79h-1.26l0.54-3.79H54.89z M54.96,102.3c0,0.16-0.06,0.29-0.17,0.4
		c-0.11,0.11-0.25,0.17-0.41,0.17c-0.16,0-0.29-0.06-0.4-0.17c-0.11-0.11-0.17-0.25-0.17-0.4c0-0.16,0.06-0.29,0.17-0.4
		c0.11-0.11,0.25-0.17,0.4-0.17c0.1,0,0.19,0.03,0.28,0.08c0.09,0.05,0.16,0.12,0.21,0.21C54.93,102.1,54.96,102.2,54.96,102.3z"/>
	<path class="st4" d="M57.49,101.79l-0.76,5.16h-1.26l0.76-5.16H57.49z"/>
	<path class="st4" d="M59.64,103.16l-0.54,3.79h-1.26l0.54-3.79H59.64z M59.71,102.3c0,0.16-0.06,0.29-0.17,0.4
		c-0.11,0.11-0.25,0.17-0.41,0.17c-0.16,0-0.29-0.06-0.4-0.17c-0.11-0.11-0.17-0.25-0.17-0.4c0-0.16,0.06-0.29,0.17-0.4
		c0.11-0.11,0.25-0.17,0.4-0.17c0.1,0,0.19,0.03,0.28,0.08c0.09,0.05,0.16,0.12,0.21,0.21C59.68,102.1,59.71,102.2,59.71,102.3z"/>
	<path class="st4" d="M64.49,101.79l-0.73,5.11c-0.5,0.08-0.95,0.12-1.36,0.12c-0.7,0-1.24-0.17-1.63-0.5s-0.58-0.78-0.58-1.35
		c0-0.22,0.04-0.45,0.13-0.69c0.08-0.24,0.22-0.47,0.41-0.68c0.19-0.21,0.43-0.38,0.73-0.52s0.66-0.2,1.09-0.2
		c0.16,0,0.33,0.01,0.51,0.03l0.2-1.33H64.49z M62.92,104.13c-0.03,0-0.07,0-0.12,0c-0.34,0-0.61,0.06-0.8,0.19
		c-0.2,0.13-0.33,0.28-0.4,0.44c-0.07,0.17-0.11,0.31-0.11,0.44c0,0.12,0.03,0.24,0.09,0.37c0.06,0.12,0.16,0.22,0.3,0.3
		c0.14,0.08,0.31,0.12,0.53,0.12c0.1,0,0.18-0.01,0.24-0.02L62.92,104.13z"/>
	<path class="st4" d="M68.78,103.22l-0.57,3.74h-1.23l0.06-0.34c-0.14,0.13-0.28,0.23-0.42,0.3c-0.13,0.07-0.31,0.11-0.52,0.11
		c-0.27,0-0.5-0.08-0.71-0.23c-0.21-0.15-0.36-0.35-0.48-0.6c-0.11-0.25-0.17-0.52-0.17-0.82c0-0.25,0.04-0.5,0.12-0.75
		c0.08-0.26,0.23-0.5,0.43-0.74c0.21-0.24,0.5-0.42,0.88-0.57c0.38-0.15,0.84-0.22,1.4-0.22c0.23,0,0.42,0.01,0.57,0.03
		C68.29,103.14,68.5,103.17,68.78,103.22z M67.44,104.01h-0.23c-0.22,0-0.43,0.06-0.61,0.19c-0.18,0.13-0.33,0.3-0.43,0.51
		c-0.1,0.22-0.16,0.45-0.16,0.7c0,0.17,0.04,0.32,0.13,0.44s0.21,0.18,0.37,0.18c0.08,0,0.17-0.02,0.27-0.06s0.23-0.11,0.39-0.21
		L67.44,104.01z"/>
	<path class="st4" d="M73.58,101.79l-0.73,5.11c-0.5,0.08-0.95,0.12-1.36,0.12c-0.7,0-1.24-0.17-1.63-0.5s-0.58-0.78-0.58-1.35
		c0-0.22,0.04-0.45,0.13-0.69c0.08-0.24,0.22-0.47,0.41-0.68c0.19-0.21,0.43-0.38,0.73-0.52s0.66-0.2,1.09-0.2
		c0.16,0,0.33,0.01,0.51,0.03l0.2-1.33H73.58z M72.01,104.13c-0.03,0-0.07,0-0.12,0c-0.34,0-0.61,0.06-0.8,0.19
		c-0.2,0.13-0.33,0.28-0.4,0.44c-0.07,0.17-0.11,0.31-0.11,0.44c0,0.12,0.03,0.24,0.09,0.37c0.06,0.12,0.16,0.22,0.3,0.3
		c0.14,0.08,0.31,0.12,0.53,0.12c0.1,0,0.18-0.01,0.24-0.02L72.01,104.13z"/>
	<path class="st4" d="M77.53,104.83c0,0.18-0.02,0.36-0.05,0.55h-2.4c0,0.52,0.26,0.79,0.77,0.79c0.26,0,0.49-0.03,0.69-0.09
		s0.44-0.15,0.72-0.26l-0.19,0.93c-0.27,0.11-0.48,0.18-0.64,0.22s-0.36,0.06-0.61,0.06c-0.52,0-0.92-0.1-1.22-0.29
		c-0.3-0.19-0.5-0.42-0.6-0.69c-0.11-0.27-0.16-0.53-0.16-0.79c0-0.39,0.09-0.75,0.27-1.08c0.18-0.33,0.42-0.59,0.74-0.79
		c0.31-0.19,0.67-0.29,1.06-0.29c0.3,0,0.57,0.06,0.81,0.19c0.24,0.13,0.44,0.32,0.59,0.58C77.46,104.13,77.53,104.45,77.53,104.83z
		 M76.33,104.71c0-0.02,0-0.03,0-0.05c0-0.02,0-0.04,0-0.07c0-0.43-0.15-0.64-0.44-0.64c-0.18,0-0.32,0.07-0.42,0.21
		c-0.1,0.14-0.2,0.33-0.29,0.55H76.33z"/>
	<path class="st4" d="M80.77,103.45l-0.09,0.89c-0.18-0.09-0.39-0.17-0.61-0.25c-0.22-0.07-0.4-0.11-0.53-0.11
		c-0.17,0-0.25,0.06-0.25,0.17c0,0.07,0.03,0.13,0.08,0.18s0.14,0.12,0.25,0.21s0.23,0.16,0.32,0.24c0.25,0.21,0.42,0.4,0.5,0.56
		s0.13,0.32,0.13,0.47c0,0.19-0.05,0.37-0.16,0.56s-0.28,0.34-0.5,0.46c-0.22,0.12-0.49,0.18-0.81,0.18c-0.13,0-0.31-0.02-0.54-0.07
		c-0.24-0.05-0.48-0.13-0.73-0.27l0.16-0.87c0.28,0.11,0.49,0.19,0.64,0.24c0.15,0.05,0.31,0.08,0.48,0.08
		c0.1,0,0.18-0.02,0.24-0.07c0.06-0.05,0.08-0.1,0.08-0.16c0-0.07-0.04-0.15-0.12-0.22c-0.08-0.07-0.23-0.19-0.46-0.36
		c-0.21-0.16-0.38-0.33-0.52-0.5c-0.14-0.18-0.21-0.37-0.21-0.59c0-0.3,0.12-0.57,0.37-0.8c0.24-0.23,0.6-0.35,1.07-0.35
		c0.25,0,0.46,0.03,0.65,0.09C80.37,103.25,80.57,103.34,80.77,103.45z"/>
	<path class="st4" d="M87,103.24l-0.17,1.17c-0.24-0.08-0.4-0.13-0.46-0.14c-0.14-0.03-0.29-0.05-0.44-0.05
		c-0.29,0-0.52,0.05-0.7,0.16c-0.18,0.11-0.31,0.24-0.39,0.4c-0.08,0.16-0.12,0.3-0.12,0.43c0,0.17,0.06,0.33,0.17,0.48
		s0.34,0.23,0.69,0.23c0.18,0,0.35-0.02,0.53-0.07s0.41-0.14,0.7-0.28l-0.2,1.27c-0.16,0.05-0.28,0.08-0.38,0.11
		s-0.2,0.04-0.31,0.05c-0.11,0.01-0.23,0.02-0.35,0.02c-0.81,0-1.37-0.2-1.67-0.59s-0.45-0.81-0.45-1.24c0-0.28,0.07-0.58,0.22-0.9
		c0.14-0.32,0.4-0.6,0.76-0.84s0.85-0.36,1.46-0.36C86.23,103.1,86.6,103.14,87,103.24z"/>
	<path class="st4" d="M91.34,104.92c0,0.3-0.05,0.58-0.16,0.84c-0.11,0.26-0.26,0.49-0.45,0.67s-0.42,0.33-0.68,0.43
		c-0.26,0.1-0.54,0.15-0.83,0.15c-0.34,0-0.66-0.08-0.96-0.23s-0.53-0.37-0.7-0.65c-0.17-0.28-0.26-0.6-0.26-0.96
		c0-0.28,0.06-0.54,0.17-0.8c0.11-0.25,0.27-0.48,0.47-0.67c0.2-0.2,0.43-0.35,0.7-0.46c0.27-0.11,0.55-0.16,0.86-0.16
		c0.32,0,0.62,0.07,0.9,0.2c0.28,0.13,0.51,0.34,0.68,0.61S91.34,104.52,91.34,104.92z M90.08,104.9c0-0.23-0.06-0.41-0.18-0.54
		c-0.12-0.13-0.28-0.19-0.47-0.19c-0.2,0-0.36,0.06-0.49,0.17c-0.13,0.12-0.22,0.26-0.28,0.42s-0.09,0.32-0.09,0.46
		c0,0.21,0.06,0.38,0.18,0.52s0.28,0.21,0.49,0.21c0.16,0,0.31-0.05,0.44-0.16c0.13-0.1,0.23-0.24,0.3-0.4
		C90.04,105.23,90.08,105.07,90.08,104.9z"/>
	<path class="st4" d="M95.89,104.25c0,0.07-0.01,0.21-0.04,0.42l-0.34,2.29h-1.23l0.34-2.37c0-0.03,0.01-0.07,0.01-0.13
		c0-0.24-0.1-0.36-0.31-0.36c-0.13,0-0.25,0.04-0.38,0.13c-0.12,0.08-0.29,0.23-0.51,0.43l-0.33,2.29h-1.24l0.57-3.79h1.24
		l-0.06,0.44c0.23-0.16,0.43-0.29,0.6-0.38c0.17-0.09,0.39-0.13,0.64-0.13c0.39,0,0.66,0.12,0.82,0.36
		C95.82,103.7,95.89,103.96,95.89,104.25z"/>
	<path class="st4" d="M102.76,103.22l-0.57,3.74h-1.23l0.06-0.34c-0.14,0.13-0.28,0.23-0.42,0.3c-0.13,0.07-0.31,0.11-0.52,0.11
		c-0.27,0-0.5-0.08-0.71-0.23c-0.21-0.15-0.36-0.35-0.48-0.6c-0.11-0.25-0.17-0.52-0.17-0.82c0-0.25,0.04-0.5,0.12-0.75
		c0.08-0.26,0.23-0.5,0.43-0.74c0.21-0.24,0.5-0.42,0.88-0.57c0.38-0.15,0.84-0.22,1.4-0.22c0.23,0,0.42,0.01,0.57,0.03
		C102.27,103.14,102.48,103.17,102.76,103.22z M101.42,104.01h-0.23c-0.22,0-0.43,0.06-0.61,0.19c-0.18,0.13-0.33,0.3-0.43,0.51
		c-0.1,0.22-0.16,0.45-0.16,0.7c0,0.17,0.04,0.32,0.13,0.44s0.21,0.18,0.37,0.18c0.08,0,0.17-0.02,0.27-0.06s0.23-0.11,0.39-0.21
		L101.42,104.01z"/>
	<path class="st4" d="M107.32,103.16l-2.7,5.52h-1.2l1-2.04l-1.21-3.48h1.15l0.73,2.11l1.02-2.11H107.32z"/>
	<path class="st4" d="M111.42,103.16l-0.57,3.79h-1.24l0.06-0.44c-0.05,0.04-0.13,0.09-0.23,0.16c-0.1,0.07-0.2,0.13-0.29,0.18
		c-0.09,0.04-0.2,0.08-0.33,0.12c-0.13,0.04-0.26,0.05-0.4,0.05c-0.27,0-0.48-0.06-0.63-0.18s-0.27-0.27-0.33-0.45
		c-0.06-0.18-0.09-0.35-0.09-0.52c0-0.08,0.01-0.22,0.04-0.42l0.34-2.29h1.23l-0.34,2.37c0,0.03-0.01,0.07-0.01,0.13
		c0,0.24,0.1,0.36,0.31,0.36c0.13,0,0.26-0.04,0.38-0.13c0.12-0.08,0.29-0.23,0.51-0.43l0.33-2.3H111.42z"/>
	<path class="st4" d="M116.22,101.79l-0.73,5.11c-0.5,0.08-0.95,0.12-1.36,0.12c-0.7,0-1.24-0.17-1.63-0.5s-0.58-0.78-0.58-1.35
		c0-0.22,0.04-0.45,0.13-0.69c0.08-0.24,0.22-0.47,0.41-0.68c0.19-0.21,0.43-0.38,0.73-0.52s0.66-0.2,1.09-0.2
		c0.16,0,0.33,0.01,0.51,0.03l0.2-1.33H116.22z M114.65,104.13c-0.03,0-0.07,0-0.12,0c-0.34,0-0.61,0.06-0.8,0.19
		c-0.2,0.13-0.33,0.28-0.4,0.44c-0.07,0.17-0.11,0.31-0.11,0.44c0,0.12,0.03,0.24,0.09,0.37c0.06,0.12,0.16,0.22,0.3,0.3
		c0.14,0.08,0.31,0.12,0.53,0.12c0.1,0,0.18-0.01,0.24-0.02L114.65,104.13z"/>
	<path class="st4" d="M120.51,103.22l-0.57,3.74h-1.23l0.06-0.34c-0.14,0.13-0.28,0.23-0.42,0.3c-0.13,0.07-0.31,0.11-0.52,0.11
		c-0.27,0-0.5-0.08-0.71-0.23c-0.21-0.15-0.36-0.35-0.48-0.6c-0.11-0.25-0.17-0.52-0.17-0.82c0-0.25,0.04-0.5,0.12-0.75
		c0.08-0.26,0.23-0.5,0.43-0.74c0.21-0.24,0.5-0.42,0.88-0.57c0.38-0.15,0.84-0.22,1.4-0.22c0.23,0,0.42,0.01,0.57,0.03
		C120.02,103.14,120.23,103.17,120.51,103.22z M119.17,104.01h-0.23c-0.22,0-0.43,0.06-0.61,0.19c-0.18,0.13-0.33,0.3-0.43,0.51
		c-0.1,0.22-0.16,0.45-0.16,0.7c0,0.17,0.04,0.32,0.13,0.44s0.21,0.18,0.37,0.18c0.08,0,0.17-0.02,0.27-0.06s0.23-0.11,0.39-0.21
		L119.17,104.01z"/>
	<path class="st4" d="M127.54,101.79l-0.73,5.11c-0.5,0.08-0.95,0.12-1.36,0.12c-0.7,0-1.24-0.17-1.63-0.5s-0.58-0.78-0.58-1.35
		c0-0.22,0.04-0.45,0.13-0.69c0.08-0.24,0.22-0.47,0.41-0.68c0.19-0.21,0.43-0.38,0.73-0.52s0.66-0.2,1.09-0.2
		c0.16,0,0.33,0.01,0.51,0.03l0.2-1.33H127.54z M125.97,104.13c-0.03,0-0.07,0-0.12,0c-0.34,0-0.61,0.06-0.8,0.19
		c-0.2,0.13-0.33,0.28-0.4,0.44c-0.07,0.17-0.11,0.31-0.11,0.44c0,0.12,0.03,0.24,0.09,0.37c0.06,0.12,0.16,0.22,0.3,0.3
		c0.14,0.08,0.31,0.12,0.53,0.12c0.1,0,0.18-0.01,0.24-0.02L125.97,104.13z"/>
	<path class="st4" d="M131.49,104.83c0,0.18-0.02,0.36-0.05,0.55h-2.4c0,0.52,0.26,0.79,0.77,0.79c0.26,0,0.49-0.03,0.69-0.09
		s0.44-0.15,0.72-0.26l-0.19,0.93c-0.27,0.11-0.48,0.18-0.64,0.22s-0.36,0.06-0.61,0.06c-0.52,0-0.92-0.1-1.22-0.29
		c-0.3-0.19-0.5-0.42-0.6-0.69c-0.11-0.27-0.16-0.53-0.16-0.79c0-0.39,0.09-0.75,0.27-1.08c0.18-0.33,0.42-0.59,0.74-0.79
		c0.31-0.19,0.67-0.29,1.06-0.29c0.3,0,0.57,0.06,0.81,0.19c0.24,0.13,0.44,0.32,0.59,0.58
		C131.42,104.13,131.49,104.45,131.49,104.83z M130.29,104.71c0-0.02,0-0.03,0-0.05c0-0.02,0-0.04,0-0.07
		c0-0.43-0.15-0.64-0.44-0.64c-0.18,0-0.32,0.07-0.42,0.21c-0.1,0.14-0.2,0.33-0.29,0.55H130.29z"/>
	<path class="st4" d="M138.36,103.16l-0.57,3.79h-1.24l0.06-0.44c-0.05,0.04-0.13,0.09-0.23,0.16c-0.1,0.07-0.2,0.13-0.29,0.18
		c-0.09,0.04-0.2,0.08-0.33,0.12c-0.13,0.04-0.26,0.05-0.4,0.05c-0.27,0-0.48-0.06-0.63-0.18s-0.27-0.27-0.33-0.45
		c-0.06-0.18-0.09-0.35-0.09-0.52c0-0.08,0.01-0.22,0.04-0.42l0.34-2.29h1.23l-0.34,2.37c0,0.03-0.01,0.07-0.01,0.13
		c0,0.24,0.1,0.36,0.31,0.36c0.13,0,0.26-0.04,0.38-0.13c0.12-0.08,0.29-0.23,0.51-0.43l0.33-2.3H138.36z"/>
	<path class="st4" d="M142.85,104.25c0,0.07-0.01,0.21-0.04,0.42l-0.34,2.29h-1.23l0.34-2.37c0-0.03,0.01-0.07,0.01-0.13
		c0-0.24-0.1-0.36-0.31-0.36c-0.13,0-0.25,0.04-0.38,0.13c-0.12,0.08-0.29,0.23-0.51,0.43l-0.33,2.29h-1.24l0.57-3.79h1.24
		l-0.06,0.44c0.23-0.16,0.43-0.29,0.6-0.38c0.17-0.09,0.39-0.13,0.64-0.13c0.39,0,0.66,0.12,0.82,0.36
		C142.77,103.7,142.85,103.96,142.85,104.25z"/>
	<path class="st4" d="M147.49,103.22l-0.57,3.74h-1.23l0.06-0.34c-0.14,0.13-0.28,0.23-0.42,0.3c-0.13,0.07-0.31,0.11-0.52,0.11
		c-0.27,0-0.5-0.08-0.71-0.23c-0.21-0.15-0.36-0.35-0.48-0.6c-0.11-0.25-0.17-0.52-0.17-0.82c0-0.25,0.04-0.5,0.12-0.75
		c0.08-0.26,0.23-0.5,0.43-0.74c0.21-0.24,0.5-0.42,0.88-0.57c0.38-0.15,0.84-0.22,1.4-0.22c0.23,0,0.42,0.01,0.57,0.03
		C147,103.14,147.21,103.17,147.49,103.22z M146.15,104.01h-0.23c-0.22,0-0.43,0.06-0.61,0.19c-0.18,0.13-0.33,0.3-0.43,0.51
		c-0.1,0.22-0.16,0.45-0.16,0.7c0,0.17,0.04,0.32,0.13,0.44s0.21,0.18,0.37,0.18c0.08,0,0.17-0.02,0.27-0.06s0.23-0.11,0.39-0.21
		L146.15,104.01z"/>
	<path class="st4" d="M153.9,104.83c0,0.18-0.02,0.36-0.05,0.55h-2.4c0,0.52,0.26,0.79,0.77,0.79c0.26,0,0.49-0.03,0.69-0.09
		s0.44-0.15,0.72-0.26l-0.19,0.93c-0.27,0.11-0.48,0.18-0.64,0.22s-0.36,0.06-0.61,0.06c-0.52,0-0.92-0.1-1.22-0.29
		c-0.3-0.19-0.5-0.42-0.6-0.69c-0.11-0.27-0.16-0.53-0.16-0.79c0-0.39,0.09-0.75,0.27-1.08c0.18-0.33,0.42-0.59,0.74-0.79
		c0.31-0.19,0.67-0.29,1.06-0.29c0.3,0,0.57,0.06,0.81,0.19c0.24,0.13,0.44,0.32,0.59,0.58C153.82,104.13,153.9,104.45,153.9,104.83
		z M152.7,104.71c0-0.02,0-0.03,0-0.05c0-0.02,0-0.04,0-0.07c0-0.43-0.15-0.64-0.44-0.64c-0.18,0-0.32,0.07-0.42,0.21
		c-0.1,0.14-0.2,0.33-0.29,0.55H152.7z"/>
	<path class="st4" d="M158.34,103.16l-1.67,1.92l1.15,1.87h-1.3l-0.58-1.08l-0.89,1.08h-1.44l1.78-1.99l-1.1-1.8h1.3l0.51,1l0.8-1
		H158.34z"/>
	<path class="st4" d="M161.75,103.24l-0.17,1.17c-0.24-0.08-0.4-0.13-0.46-0.14c-0.14-0.03-0.29-0.05-0.44-0.05
		c-0.29,0-0.52,0.05-0.7,0.16c-0.18,0.11-0.31,0.24-0.39,0.4c-0.08,0.16-0.12,0.3-0.12,0.43c0,0.17,0.06,0.33,0.17,0.48
		s0.34,0.23,0.69,0.23c0.18,0,0.35-0.02,0.53-0.07s0.41-0.14,0.7-0.28l-0.2,1.27c-0.16,0.05-0.28,0.08-0.38,0.11
		s-0.2,0.04-0.31,0.05c-0.11,0.01-0.23,0.02-0.35,0.02c-0.81,0-1.37-0.2-1.67-0.59s-0.45-0.81-0.45-1.24c0-0.28,0.07-0.58,0.22-0.9
		c0.14-0.32,0.4-0.6,0.76-0.84s0.85-0.36,1.46-0.36C160.98,103.1,161.35,103.14,161.75,103.24z"/>
	<path class="st4" d="M165.73,104.83c0,0.18-0.02,0.36-0.05,0.55h-2.4c0,0.52,0.26,0.79,0.77,0.79c0.26,0,0.49-0.03,0.69-0.09
		s0.44-0.15,0.72-0.26l-0.19,0.93c-0.27,0.11-0.48,0.18-0.64,0.22s-0.36,0.06-0.61,0.06c-0.52,0-0.92-0.1-1.22-0.29
		c-0.3-0.19-0.5-0.42-0.6-0.69c-0.11-0.27-0.16-0.53-0.16-0.79c0-0.39,0.09-0.75,0.27-1.08c0.18-0.33,0.42-0.59,0.74-0.79
		c0.31-0.19,0.67-0.29,1.06-0.29c0.3,0,0.57,0.06,0.81,0.19c0.24,0.13,0.44,0.32,0.59,0.58
		C165.65,104.13,165.73,104.45,165.73,104.83z M164.53,104.71c0-0.02,0-0.03,0-0.05c0-0.02,0-0.04,0-0.07
		c0-0.43-0.15-0.64-0.44-0.64c-0.18,0-0.32,0.07-0.42,0.21c-0.1,0.14-0.2,0.33-0.29,0.55H164.53z"/>
	<path class="st4" d="M168.3,101.79l-0.76,5.16h-1.26l0.76-5.16H168.3z"/>
	<path class="st4" d="M172.31,104.83c0,0.18-0.02,0.36-0.05,0.55h-2.4c0,0.52,0.26,0.79,0.77,0.79c0.26,0,0.49-0.03,0.69-0.09
		s0.44-0.15,0.72-0.26l-0.19,0.93c-0.27,0.11-0.48,0.18-0.64,0.22s-0.36,0.06-0.61,0.06c-0.52,0-0.92-0.1-1.22-0.29
		c-0.3-0.19-0.5-0.42-0.6-0.69c-0.11-0.27-0.16-0.53-0.16-0.79c0-0.39,0.09-0.75,0.27-1.08c0.18-0.33,0.42-0.59,0.74-0.79
		c0.31-0.19,0.67-0.29,1.06-0.29c0.3,0,0.57,0.06,0.81,0.19c0.24,0.13,0.44,0.32,0.59,0.58
		C172.24,104.13,172.31,104.45,172.31,104.83z M171.11,104.71c0-0.02,0-0.03,0-0.05c0-0.02,0-0.04,0-0.07
		c0-0.43-0.15-0.64-0.44-0.64c-0.18,0-0.32,0.07-0.42,0.21c-0.1,0.14-0.2,0.33-0.29,0.55H171.11z"/>
	<path class="st4" d="M176.83,104.25c0,0.07-0.01,0.21-0.04,0.42l-0.34,2.29h-1.23l0.34-2.37c0-0.03,0.01-0.07,0.01-0.13
		c0-0.24-0.1-0.36-0.31-0.36c-0.13,0-0.25,0.04-0.38,0.13c-0.12,0.08-0.29,0.23-0.51,0.43l-0.33,2.29h-1.24l0.57-3.79h1.24
		l-0.06,0.44c0.23-0.16,0.43-0.29,0.6-0.38c0.17-0.09,0.39-0.13,0.64-0.13c0.39,0,0.66,0.12,0.82,0.36
		C176.75,103.7,176.83,103.96,176.83,104.25z"/>
	<path class="st4" d="M180.21,103.16l-0.2,0.93h-0.73l-0.25,1.24c-0.02,0.1-0.03,0.19-0.03,0.25c0,0.21,0.09,0.32,0.28,0.32
		c0.2,0,0.45-0.11,0.73-0.32l-0.07,1.15c-0.34,0.2-0.7,0.3-1.07,0.3c-0.16,0-0.32-0.03-0.48-0.09c-0.16-0.06-0.3-0.17-0.43-0.32
		c-0.15-0.18-0.23-0.42-0.23-0.71c0-0.13,0.01-0.27,0.04-0.41l0.26-1.39h-0.7l0.17-0.93h0.71l0.15-0.76h1.25l-0.15,0.76H180.21z"/>
	<path class="st4" d="M184.24,104.83c0,0.18-0.02,0.36-0.05,0.55h-2.4c0,0.52,0.26,0.79,0.77,0.79c0.26,0,0.49-0.03,0.69-0.09
		s0.44-0.15,0.72-0.26l-0.19,0.93c-0.27,0.11-0.48,0.18-0.64,0.22s-0.36,0.06-0.61,0.06c-0.52,0-0.92-0.1-1.22-0.29
		c-0.3-0.19-0.5-0.42-0.6-0.69c-0.11-0.27-0.16-0.53-0.16-0.79c0-0.39,0.09-0.75,0.27-1.08c0.18-0.33,0.42-0.59,0.74-0.79
		c0.31-0.19,0.67-0.29,1.06-0.29c0.3,0,0.57,0.06,0.81,0.19c0.24,0.13,0.44,0.32,0.59,0.58
		C184.17,104.13,184.24,104.45,184.24,104.83z M183.04,104.71c0-0.02,0-0.03,0-0.05c0-0.02,0-0.04,0-0.07
		c0-0.43-0.15-0.64-0.44-0.64c-0.18,0-0.32,0.07-0.42,0.21c-0.1,0.14-0.2,0.33-0.29,0.55H183.04z"/>
	<path class="st4" d="M30.52,114.02c0,0.39-0.08,0.75-0.25,1.08c-0.17,0.33-0.41,0.59-0.73,0.79c-0.32,0.2-0.69,0.29-1.1,0.29
		c-0.12,0-0.24-0.01-0.34-0.03c-0.11-0.02-0.22-0.05-0.34-0.09l-0.28,1.78h-1.24l0.6-3.95l-0.52,0.62
		c-0.05,0.05-0.08,0.09-0.11,0.11s-0.05,0.03-0.08,0.03c-0.08,0-0.12-0.05-0.12-0.15c0-0.12,0.04-0.26,0.13-0.44s0.19-0.34,0.3-0.48
		c0.11-0.14,0.28-0.32,0.52-0.53l0.21-1.4h1.23l-0.1,0.67c0.08-0.02,0.17-0.04,0.26-0.04c0.09-0.01,0.18-0.02,0.27-0.02
		c0.28,0,0.52,0.05,0.74,0.14c0.21,0.09,0.39,0.22,0.53,0.38c0.14,0.16,0.25,0.35,0.31,0.56S30.52,113.77,30.52,114.02z M29.22,114
		c0-0.25-0.06-0.45-0.18-0.62c-0.12-0.16-0.31-0.24-0.59-0.24c-0.1,0-0.19,0.01-0.28,0.03l-0.3,1.98c0.09,0.02,0.19,0.04,0.29,0.04
		c0.25,0,0.46-0.06,0.61-0.18c0.16-0.12,0.27-0.27,0.33-0.45C29.19,114.38,29.22,114.19,29.22,114z"/>
	<path class="st4" d="M34.35,112.64l-0.58,1.2c-0.07-0.12-0.14-0.22-0.22-0.3s-0.19-0.12-0.31-0.12c-0.24,0-0.47,0.18-0.67,0.53
		l-0.32,2.17h-1.23l0.57-3.79h1.23l-0.08,0.54c0.34-0.41,0.64-0.61,0.91-0.61c0.14,0,0.26,0.03,0.37,0.1S34.23,112.52,34.35,112.64z
		"/>
	<path class="st4" d="M38.31,114.08c0,0.3-0.05,0.58-0.16,0.84c-0.11,0.26-0.26,0.49-0.45,0.67s-0.42,0.33-0.68,0.43
		c-0.26,0.1-0.54,0.16-0.83,0.16c-0.34,0-0.66-0.08-0.96-0.23s-0.53-0.37-0.7-0.65s-0.26-0.6-0.26-0.96c0-0.28,0.06-0.54,0.17-0.8
		c0.11-0.25,0.27-0.48,0.47-0.67c0.2-0.19,0.43-0.35,0.7-0.46c0.27-0.11,0.55-0.16,0.86-0.16c0.32,0,0.62,0.07,0.9,0.2
		c0.28,0.14,0.51,0.34,0.68,0.61S38.31,113.68,38.31,114.08z M37.04,114.05c0-0.23-0.06-0.41-0.18-0.54
		c-0.12-0.13-0.28-0.19-0.47-0.19c-0.2,0-0.36,0.06-0.49,0.18c-0.13,0.12-0.22,0.26-0.28,0.42s-0.09,0.32-0.09,0.46
		c0,0.21,0.06,0.38,0.18,0.52s0.28,0.21,0.49,0.21c0.16,0,0.31-0.05,0.44-0.16s0.23-0.24,0.3-0.4
		C37.01,114.39,37.04,114.22,37.04,114.05z"/>
	<path class="st4" d="M42.32,111l-0.13,0.91c-0.18-0.03-0.33-0.04-0.44-0.04c-0.22,0-0.38,0.06-0.5,0.18
		c-0.11,0.12-0.19,0.35-0.23,0.68h0.85l-0.15,0.93h-0.83l-0.58,4h-1.24l0.58-4h-0.86l0.14-0.93h0.86l0.06-0.35
		c0.03-0.18,0.07-0.34,0.12-0.48c0.04-0.14,0.12-0.29,0.23-0.45c0.11-0.16,0.28-0.29,0.49-0.4s0.48-0.16,0.81-0.16
		c0.14,0,0.27,0.01,0.4,0.03C42.01,110.93,42.15,110.96,42.32,111z"/>
	<path class="st4" d="M45.9,113.99c0,0.18-0.02,0.36-0.05,0.56h-2.4c0,0.52,0.26,0.79,0.77,0.79c0.26,0,0.49-0.03,0.69-0.09
		s0.44-0.15,0.72-0.26l-0.19,0.93c-0.27,0.11-0.48,0.18-0.64,0.22c-0.16,0.04-0.36,0.06-0.61,0.06c-0.52,0-0.92-0.1-1.22-0.29
		c-0.3-0.19-0.5-0.42-0.6-0.69c-0.11-0.27-0.16-0.53-0.16-0.79c0-0.39,0.09-0.75,0.27-1.08c0.18-0.33,0.42-0.6,0.74-0.79
		c0.31-0.2,0.67-0.29,1.06-0.29c0.3,0,0.57,0.06,0.81,0.19c0.24,0.13,0.44,0.32,0.59,0.58S45.9,113.61,45.9,113.99z M44.7,113.87
		c0-0.02,0-0.03,0-0.05c0-0.02,0-0.04,0-0.07c0-0.43-0.15-0.64-0.44-0.64c-0.18,0-0.32,0.07-0.42,0.21c-0.1,0.14-0.2,0.33-0.29,0.55
		H44.7z"/>
	<path class="st4" d="M49.14,112.6l-0.09,0.89c-0.18-0.09-0.39-0.17-0.61-0.25c-0.22-0.07-0.4-0.11-0.53-0.11
		c-0.17,0-0.25,0.06-0.25,0.18c0,0.07,0.03,0.13,0.08,0.18s0.14,0.12,0.25,0.21c0.12,0.08,0.23,0.17,0.32,0.24
		c0.25,0.21,0.42,0.4,0.5,0.56c0.09,0.17,0.13,0.32,0.13,0.47c0,0.19-0.05,0.37-0.16,0.56s-0.28,0.34-0.5,0.46
		c-0.22,0.12-0.49,0.18-0.81,0.18c-0.13,0-0.31-0.02-0.54-0.07c-0.24-0.05-0.48-0.13-0.73-0.27l0.16-0.87
		c0.28,0.11,0.49,0.19,0.64,0.24c0.15,0.05,0.31,0.08,0.48,0.08c0.1,0,0.18-0.02,0.24-0.07s0.08-0.1,0.08-0.16
		c0-0.07-0.04-0.15-0.12-0.22c-0.08-0.07-0.23-0.19-0.46-0.36c-0.21-0.16-0.38-0.33-0.52-0.5c-0.14-0.17-0.21-0.37-0.21-0.59
		c0-0.3,0.12-0.57,0.37-0.8c0.24-0.23,0.6-0.35,1.07-0.35c0.25,0,0.46,0.03,0.65,0.09C48.74,112.41,48.94,112.49,49.14,112.6z"/>
	<path class="st4" d="M53.63,114.08c0,0.3-0.05,0.58-0.16,0.84c-0.11,0.26-0.26,0.49-0.45,0.67s-0.42,0.33-0.68,0.43
		c-0.26,0.1-0.54,0.16-0.83,0.16c-0.34,0-0.66-0.08-0.96-0.23s-0.53-0.37-0.7-0.65s-0.26-0.6-0.26-0.96c0-0.28,0.06-0.54,0.17-0.8
		c0.11-0.25,0.27-0.48,0.47-0.67c0.2-0.19,0.43-0.35,0.7-0.46c0.27-0.11,0.55-0.16,0.86-0.16c0.32,0,0.62,0.07,0.9,0.2
		c0.28,0.14,0.51,0.34,0.68,0.61S53.63,113.68,53.63,114.08z M52.36,114.05c0-0.23-0.06-0.41-0.18-0.54
		c-0.12-0.13-0.28-0.19-0.47-0.19c-0.2,0-0.36,0.06-0.49,0.18c-0.13,0.12-0.22,0.26-0.28,0.42s-0.09,0.32-0.09,0.46
		c0,0.21,0.06,0.38,0.18,0.52s0.28,0.21,0.49,0.21c0.16,0,0.31-0.05,0.44-0.16s0.23-0.24,0.3-0.4
		C52.33,114.39,52.36,114.22,52.36,114.05z"/>
	<path class="st4" d="M57.48,112.64l-0.58,1.2c-0.07-0.12-0.14-0.22-0.22-0.3s-0.19-0.12-0.31-0.12c-0.24,0-0.47,0.18-0.67,0.53
		l-0.32,2.17h-1.23l0.57-3.79h1.23l-0.08,0.54c0.34-0.41,0.64-0.61,0.91-0.61c0.14,0,0.26,0.03,0.37,0.1S57.36,112.52,57.48,112.64z
		"/>
	<path class="st4" d="M61.41,112.37l-0.57,3.74h-1.23l0.06-0.34c-0.14,0.13-0.28,0.23-0.42,0.3c-0.13,0.07-0.31,0.11-0.52,0.11
		c-0.27,0-0.5-0.08-0.71-0.23c-0.21-0.15-0.36-0.35-0.48-0.6c-0.11-0.25-0.17-0.52-0.17-0.82c0-0.25,0.04-0.5,0.12-0.75
		c0.08-0.26,0.23-0.5,0.43-0.74s0.5-0.42,0.88-0.57c0.38-0.14,0.84-0.22,1.4-0.22c0.23,0,0.42,0.01,0.57,0.03
		C60.92,112.3,61.13,112.33,61.41,112.37z M60.07,113.17h-0.23c-0.22,0-0.43,0.06-0.61,0.19c-0.18,0.13-0.33,0.3-0.43,0.51
		c-0.1,0.22-0.16,0.45-0.16,0.7c0,0.17,0.04,0.32,0.13,0.44c0.09,0.12,0.21,0.18,0.37,0.18c0.08,0,0.17-0.02,0.27-0.06
		s0.23-0.11,0.39-0.21L60.07,113.17z"/>
	<path class="st4" d="M63.57,115.63c0,0.13-0.02,0.26-0.06,0.38s-0.1,0.25-0.18,0.38c-0.08,0.13-0.18,0.24-0.31,0.35
		c-0.12,0.11-0.28,0.2-0.46,0.29c-0.11,0.05-0.24,0.1-0.37,0.13c-0.13,0.03-0.27,0.05-0.41,0.06c-0.14,0.01-0.3,0.02-0.48,0.02
		l0.1-0.4c0.22-0.02,0.39-0.06,0.52-0.12c0.13-0.06,0.24-0.13,0.32-0.23c0.08-0.09,0.16-0.21,0.22-0.35
		c-0.17-0.04-0.32-0.11-0.46-0.21c-0.14-0.1-0.21-0.28-0.21-0.53c0-0.23,0.08-0.42,0.24-0.57c0.16-0.15,0.36-0.22,0.58-0.22
		c0.27,0,0.49,0.09,0.67,0.28C63.48,115.1,63.57,115.34,63.57,115.63z"/>
	<path class="st4" d="M70.51,112.32l-0.79,5.52h-1.26l0.28-1.9c-0.12,0.06-0.25,0.12-0.39,0.17c-0.14,0.05-0.3,0.08-0.48,0.08
		c-0.27,0-0.51-0.07-0.71-0.21c-0.21-0.14-0.37-0.34-0.48-0.59s-0.17-0.54-0.17-0.85c0-0.18,0.03-0.38,0.08-0.62
		c0.05-0.23,0.16-0.47,0.33-0.72c0.17-0.25,0.41-0.45,0.74-0.62c0.33-0.17,0.75-0.25,1.26-0.25H70.51z M69.12,113.35
		c-0.56,0.02-0.93,0.16-1.09,0.41s-0.25,0.5-0.25,0.75c0,0.21,0.05,0.38,0.16,0.51s0.25,0.2,0.42,0.2c0.16,0,0.33-0.05,0.5-0.14
		L69.12,113.35z"/>
	<path class="st4" d="M75.08,112.32l-0.57,3.79h-1.24l0.06-0.44c-0.05,0.04-0.13,0.09-0.23,0.16c-0.1,0.07-0.2,0.13-0.29,0.17
		c-0.09,0.04-0.2,0.09-0.33,0.12c-0.13,0.04-0.26,0.05-0.4,0.05c-0.27,0-0.48-0.06-0.63-0.18s-0.27-0.27-0.33-0.45
		c-0.06-0.18-0.09-0.35-0.09-0.52c0-0.08,0.01-0.22,0.04-0.42l0.34-2.29h1.23l-0.34,2.37c0,0.03-0.01,0.07-0.01,0.13
		c0,0.24,0.1,0.36,0.31,0.36c0.13,0,0.26-0.04,0.38-0.13c0.12-0.08,0.29-0.23,0.51-0.43l0.33-2.3H75.08z"/>
	<path class="st4" d="M79.26,113.99c0,0.18-0.02,0.36-0.05,0.56h-2.4c0,0.52,0.26,0.79,0.77,0.79c0.26,0,0.49-0.03,0.69-0.09
		s0.44-0.15,0.72-0.26l-0.19,0.93c-0.27,0.11-0.48,0.18-0.64,0.22c-0.16,0.04-0.36,0.06-0.61,0.06c-0.52,0-0.92-0.1-1.22-0.29
		c-0.3-0.19-0.5-0.42-0.6-0.69c-0.11-0.27-0.16-0.53-0.16-0.79c0-0.39,0.09-0.75,0.27-1.08c0.18-0.33,0.42-0.6,0.74-0.79
		c0.31-0.2,0.67-0.29,1.06-0.29c0.3,0,0.57,0.06,0.81,0.19c0.24,0.13,0.44,0.32,0.59,0.58S79.26,113.61,79.26,113.99z M78.06,113.87
		c0-0.02,0-0.03,0-0.05c0-0.02,0-0.04,0-0.07c0-0.43-0.15-0.64-0.44-0.64c-0.18,0-0.32,0.07-0.42,0.21c-0.1,0.14-0.2,0.33-0.29,0.55
		H78.06z"/>
	<path class="st4" d="M84.78,112.32l-0.2,0.93h-0.73l-0.25,1.24c-0.02,0.1-0.03,0.19-0.03,0.25c0,0.21,0.09,0.32,0.28,0.32
		c0.2,0,0.45-0.11,0.73-0.32l-0.07,1.15c-0.34,0.2-0.7,0.3-1.07,0.3c-0.16,0-0.32-0.03-0.48-0.09s-0.3-0.17-0.43-0.32
		c-0.15-0.18-0.23-0.42-0.23-0.72c0-0.13,0.01-0.27,0.04-0.41l0.26-1.39h-0.7l0.17-0.93h0.71l0.15-0.76h1.25l-0.15,0.76H84.78z"/>
	<path class="st4" d="M86.96,112.32l-0.54,3.79h-1.26l0.54-3.79H86.96z M87.03,111.45c0,0.16-0.06,0.29-0.17,0.4
		c-0.11,0.11-0.25,0.17-0.41,0.17c-0.16,0-0.29-0.06-0.4-0.17s-0.17-0.25-0.17-0.4c0-0.16,0.06-0.29,0.17-0.4s0.25-0.17,0.4-0.17
		c0.1,0,0.19,0.03,0.28,0.08c0.09,0.05,0.16,0.12,0.21,0.21C87,111.26,87.03,111.35,87.03,111.45z"/>
	<path class="st4" d="M91.19,113.99c0,0.18-0.02,0.36-0.05,0.56h-2.4c0,0.52,0.26,0.79,0.77,0.79c0.26,0,0.49-0.03,0.69-0.09
		s0.44-0.15,0.72-0.26l-0.19,0.93c-0.27,0.11-0.48,0.18-0.64,0.22c-0.16,0.04-0.36,0.06-0.61,0.06c-0.52,0-0.92-0.1-1.22-0.29
		c-0.3-0.19-0.5-0.42-0.6-0.69c-0.11-0.27-0.16-0.53-0.16-0.79c0-0.39,0.09-0.75,0.27-1.08c0.18-0.33,0.42-0.6,0.74-0.79
		c0.31-0.2,0.67-0.29,1.06-0.29c0.3,0,0.57,0.06,0.81,0.19c0.24,0.13,0.44,0.32,0.59,0.58S91.19,113.61,91.19,113.99z M89.99,113.87
		c0-0.02,0-0.03,0-0.05c0-0.02,0-0.04,0-0.07c0-0.43-0.15-0.64-0.44-0.64c-0.18,0-0.32,0.07-0.42,0.21c-0.1,0.14-0.2,0.33-0.29,0.55
		H89.99z"/>
	<path class="st4" d="M95.71,113.41c0,0.07-0.01,0.22-0.04,0.42l-0.34,2.29H94.1l0.34-2.37c0-0.03,0.01-0.07,0.01-0.13
		c0-0.24-0.1-0.36-0.31-0.36c-0.13,0-0.25,0.04-0.38,0.13c-0.12,0.08-0.29,0.23-0.51,0.43l-0.33,2.29h-1.24l0.57-3.79h1.24
		l-0.06,0.44c0.23-0.16,0.43-0.29,0.6-0.38c0.17-0.09,0.39-0.13,0.64-0.13c0.39,0,0.66,0.12,0.82,0.36
		C95.63,112.85,95.71,113.12,95.71,113.41z"/>
	<path class="st4" d="M100,113.99c0,0.18-0.02,0.36-0.05,0.56h-2.4c0,0.52,0.26,0.79,0.77,0.79c0.26,0,0.49-0.03,0.69-0.09
		s0.44-0.15,0.72-0.26l-0.19,0.93c-0.27,0.11-0.48,0.18-0.64,0.22c-0.16,0.04-0.36,0.06-0.61,0.06c-0.52,0-0.92-0.1-1.22-0.29
		c-0.3-0.19-0.5-0.42-0.6-0.69c-0.11-0.27-0.16-0.53-0.16-0.79c0-0.39,0.09-0.75,0.27-1.08c0.18-0.33,0.42-0.6,0.74-0.79
		c0.31-0.2,0.67-0.29,1.06-0.29c0.3,0,0.57,0.06,0.81,0.19c0.24,0.13,0.44,0.32,0.59,0.58S100,113.61,100,113.99z M98.8,113.87
		c0-0.02,0-0.03,0-0.05c0-0.02,0-0.04,0-0.07c0-0.43-0.15-0.64-0.44-0.64c-0.18,0-0.32,0.07-0.42,0.21c-0.1,0.14-0.2,0.33-0.29,0.55
		H98.8z"/>
	<path class="st4" d="M106.59,112.32l-2.07,3.86h-0.84l-0.96-3.86h1.1l0.5,1.99l1.07-1.99H106.59z"/>
	<path class="st4" d="M110.66,114.08c0,0.3-0.05,0.58-0.16,0.84c-0.11,0.26-0.26,0.49-0.45,0.67s-0.42,0.33-0.68,0.43
		c-0.26,0.1-0.54,0.16-0.83,0.16c-0.34,0-0.66-0.08-0.96-0.23s-0.53-0.37-0.7-0.65s-0.26-0.6-0.26-0.96c0-0.28,0.06-0.54,0.17-0.8
		c0.11-0.25,0.27-0.48,0.47-0.67c0.2-0.19,0.43-0.35,0.7-0.46c0.27-0.11,0.55-0.16,0.86-0.16c0.32,0,0.62,0.07,0.9,0.2
		c0.28,0.14,0.51,0.34,0.68,0.61S110.66,113.68,110.66,114.08z M109.39,114.05c0-0.23-0.06-0.41-0.18-0.54
		c-0.12-0.13-0.28-0.19-0.47-0.19c-0.2,0-0.36,0.06-0.49,0.18c-0.13,0.12-0.22,0.26-0.28,0.42s-0.09,0.32-0.09,0.46
		c0,0.21,0.06,0.38,0.18,0.52s0.28,0.21,0.49,0.21c0.16,0,0.31-0.05,0.44-0.16s0.23-0.24,0.3-0.4
		C109.36,114.39,109.39,114.22,109.39,114.05z"/>
	<path class="st4" d="M114.78,112.39l-0.17,1.17c-0.24-0.08-0.4-0.13-0.46-0.14c-0.14-0.04-0.29-0.05-0.44-0.05
		c-0.29,0-0.52,0.05-0.7,0.16c-0.18,0.11-0.31,0.24-0.39,0.4s-0.12,0.3-0.12,0.43c0,0.17,0.06,0.33,0.17,0.48
		c0.11,0.16,0.34,0.23,0.69,0.23c0.18,0,0.35-0.02,0.53-0.07s0.41-0.14,0.7-0.28l-0.2,1.27c-0.16,0.05-0.28,0.09-0.38,0.11
		s-0.2,0.04-0.31,0.05c-0.11,0.01-0.23,0.02-0.35,0.02c-0.81,0-1.37-0.2-1.67-0.59c-0.3-0.39-0.45-0.81-0.45-1.24
		c0-0.28,0.07-0.58,0.22-0.9c0.14-0.32,0.4-0.6,0.76-0.84c0.36-0.24,0.85-0.36,1.46-0.36C114.01,112.25,114.38,112.3,114.78,112.39z
		"/>
	<path class="st4" d="M119.1,112.37l-0.57,3.74h-1.23l0.06-0.34c-0.14,0.13-0.28,0.23-0.42,0.3c-0.13,0.07-0.31,0.11-0.52,0.11
		c-0.27,0-0.5-0.08-0.71-0.23c-0.21-0.15-0.36-0.35-0.48-0.6c-0.11-0.25-0.17-0.52-0.17-0.82c0-0.25,0.04-0.5,0.12-0.75
		c0.08-0.26,0.23-0.5,0.43-0.74s0.5-0.42,0.88-0.57c0.38-0.14,0.84-0.22,1.4-0.22c0.23,0,0.42,0.01,0.57,0.03
		C118.61,112.3,118.82,112.33,119.1,112.37z M117.76,113.17h-0.23c-0.22,0-0.43,0.06-0.61,0.19c-0.18,0.13-0.33,0.3-0.43,0.51
		c-0.1,0.22-0.16,0.45-0.16,0.7c0,0.17,0.04,0.32,0.13,0.44c0.09,0.12,0.21,0.18,0.37,0.18c0.08,0,0.17-0.02,0.27-0.06
		s0.23-0.11,0.39-0.21L117.76,113.17z"/>
	<path class="st4" d="M123.16,112.39l-0.17,1.17c-0.24-0.08-0.4-0.13-0.46-0.14c-0.14-0.04-0.29-0.05-0.44-0.05
		c-0.29,0-0.52,0.05-0.7,0.16c-0.18,0.11-0.31,0.24-0.39,0.4s-0.12,0.3-0.12,0.43c0,0.17,0.06,0.33,0.17,0.48
		c0.11,0.16,0.34,0.23,0.69,0.23c0.18,0,0.35-0.02,0.53-0.07s0.41-0.14,0.7-0.28l-0.2,1.27c-0.16,0.05-0.28,0.09-0.38,0.11
		s-0.2,0.04-0.31,0.05c-0.11,0.01-0.23,0.02-0.35,0.02c-0.81,0-1.37-0.2-1.67-0.59c-0.3-0.39-0.45-0.81-0.45-1.24
		c0-0.28,0.07-0.58,0.22-0.9c0.14-0.32,0.4-0.6,0.76-0.84c0.36-0.24,0.85-0.36,1.46-0.36C122.39,112.25,122.77,112.3,123.16,112.39z
		"/>
	<path class="st4" d="M125.28,112.32l-0.54,3.79h-1.26l0.54-3.79H125.28z M125.35,111.45c0,0.16-0.06,0.29-0.17,0.4
		c-0.11,0.11-0.25,0.17-0.41,0.17c-0.16,0-0.29-0.06-0.4-0.17s-0.17-0.25-0.17-0.4c0-0.16,0.06-0.29,0.17-0.4s0.25-0.17,0.4-0.17
		c0.1,0,0.19,0.03,0.28,0.08c0.09,0.05,0.16,0.12,0.21,0.21C125.33,111.26,125.35,111.35,125.35,111.45z"/>
	<path class="st4" d="M129.88,114.08c0,0.3-0.05,0.58-0.16,0.84c-0.11,0.26-0.26,0.49-0.45,0.67s-0.42,0.33-0.68,0.43
		c-0.26,0.1-0.54,0.16-0.83,0.16c-0.34,0-0.66-0.08-0.96-0.23s-0.53-0.37-0.7-0.65s-0.26-0.6-0.26-0.96c0-0.28,0.06-0.54,0.17-0.8
		c0.11-0.25,0.27-0.48,0.47-0.67c0.2-0.19,0.43-0.35,0.7-0.46c0.27-0.11,0.55-0.16,0.86-0.16c0.32,0,0.62,0.07,0.9,0.2
		c0.28,0.14,0.51,0.34,0.68,0.61S129.88,113.68,129.88,114.08z M128.62,114.05c0-0.23-0.06-0.41-0.18-0.54
		c-0.12-0.13-0.28-0.19-0.47-0.19c-0.2,0-0.36,0.06-0.49,0.18c-0.13,0.12-0.22,0.26-0.28,0.42s-0.09,0.32-0.09,0.46
		c0,0.21,0.06,0.38,0.18,0.52s0.28,0.21,0.49,0.21c0.16,0,0.31-0.05,0.44-0.16s0.23-0.24,0.3-0.4
		C128.58,114.39,128.62,114.22,128.62,114.05z M129.64,110.59l-1.6,1.23h-0.76l0.98-1.23H129.64z"/>
	<path class="st4" d="M134.43,113.41c0,0.07-0.01,0.22-0.04,0.42l-0.34,2.29h-1.23l0.34-2.37c0-0.03,0.01-0.07,0.01-0.13
		c0-0.24-0.1-0.36-0.31-0.36c-0.13,0-0.25,0.04-0.38,0.13c-0.12,0.08-0.29,0.23-0.51,0.43l-0.33,2.29h-1.24l0.57-3.79h1.24
		l-0.06,0.44c0.23-0.16,0.43-0.29,0.6-0.38c0.17-0.09,0.39-0.13,0.64-0.13c0.39,0,0.66,0.12,0.82,0.36
		C134.36,112.85,134.43,113.12,134.43,113.41z"/>
	<path class="st4" d="M141.23,112.32l-2.7,5.52h-1.2l1-2.04l-1.21-3.48h1.15l0.73,2.11l1.02-2.11H141.23z"/>
	<path class="st4" d="M148.07,112.52c0,0.32-0.06,0.6-0.19,0.87c-0.13,0.26-0.33,0.48-0.61,0.64s-0.63,0.25-1.05,0.25h-1.07
		l-0.26,1.84h-1.33l0.76-5.16h1.94c0.64,0,1.1,0.15,1.39,0.44S148.07,112.06,148.07,112.52z M146.7,112.59
		c0-0.17-0.04-0.32-0.12-0.46s-0.2-0.24-0.36-0.32s-0.35-0.12-0.57-0.12h-0.12l-0.27,1.82h0.37c0.34,0,0.6-0.08,0.79-0.23
		C146.61,113.14,146.7,112.91,146.7,112.59z"/>
	<path class="st4" d="M152.3,112.37l-0.57,3.74h-1.23l0.06-0.34c-0.14,0.13-0.28,0.23-0.42,0.3c-0.13,0.07-0.31,0.11-0.52,0.11
		c-0.27,0-0.5-0.08-0.71-0.23c-0.21-0.15-0.36-0.35-0.48-0.6c-0.11-0.25-0.17-0.52-0.17-0.82c0-0.25,0.04-0.5,0.12-0.75
		c0.08-0.26,0.23-0.5,0.43-0.74s0.5-0.42,0.88-0.57c0.38-0.14,0.84-0.22,1.4-0.22c0.23,0,0.42,0.01,0.57,0.03
		C151.81,112.3,152.02,112.33,152.3,112.37z M150.96,113.17h-0.23c-0.22,0-0.43,0.06-0.61,0.19c-0.18,0.13-0.33,0.3-0.43,0.51
		c-0.1,0.22-0.16,0.45-0.16,0.7c0,0.17,0.04,0.32,0.13,0.44c0.09,0.12,0.21,0.18,0.37,0.18c0.08,0,0.17-0.02,0.27-0.06
		s0.23-0.11,0.39-0.21L150.96,113.17z"/>
	<path class="st4" d="M156.36,112.39l-0.17,1.17c-0.24-0.08-0.4-0.13-0.46-0.14c-0.14-0.04-0.29-0.05-0.44-0.05
		c-0.29,0-0.52,0.05-0.7,0.16c-0.18,0.11-0.31,0.24-0.39,0.4s-0.12,0.3-0.12,0.43c0,0.17,0.06,0.33,0.17,0.48
		c0.11,0.16,0.34,0.23,0.69,0.23c0.18,0,0.35-0.02,0.53-0.07s0.41-0.14,0.7-0.28l-0.2,1.27c-0.16,0.05-0.28,0.09-0.38,0.11
		s-0.2,0.04-0.31,0.05c-0.11,0.01-0.23,0.02-0.35,0.02c-0.81,0-1.37-0.2-1.67-0.59c-0.3-0.39-0.45-0.81-0.45-1.24
		c0-0.28,0.07-0.58,0.22-0.9c0.14-0.32,0.4-0.6,0.76-0.84c0.36-0.24,0.85-0.36,1.46-0.36C155.59,112.25,155.97,112.3,156.36,112.39z
		"/>
	<path class="st4" d="M158.48,112.32l-0.54,3.79h-1.26l0.54-3.79H158.48z M158.55,111.45c0,0.16-0.06,0.29-0.17,0.4
		c-0.11,0.11-0.25,0.17-0.41,0.17c-0.16,0-0.29-0.06-0.4-0.17s-0.17-0.25-0.17-0.4c0-0.16,0.06-0.29,0.17-0.4s0.25-0.17,0.4-0.17
		c0.1,0,0.19,0.03,0.28,0.08c0.09,0.05,0.16,0.12,0.21,0.21C158.53,111.26,158.55,111.35,158.55,111.45z"/>
	<path class="st4" d="M162.71,113.99c0,0.18-0.02,0.36-0.05,0.56h-2.4c0,0.52,0.26,0.79,0.77,0.79c0.26,0,0.49-0.03,0.69-0.09
		s0.44-0.15,0.72-0.26l-0.19,0.93c-0.27,0.11-0.48,0.18-0.64,0.22c-0.16,0.04-0.36,0.06-0.61,0.06c-0.52,0-0.92-0.1-1.22-0.29
		c-0.3-0.19-0.5-0.42-0.6-0.69c-0.11-0.27-0.16-0.53-0.16-0.79c0-0.39,0.09-0.75,0.27-1.08c0.18-0.33,0.42-0.6,0.74-0.79
		c0.31-0.2,0.67-0.29,1.06-0.29c0.3,0,0.57,0.06,0.81,0.19c0.24,0.13,0.44,0.32,0.59,0.58S162.71,113.61,162.71,113.99z
		 M161.51,113.87c0-0.02,0-0.03,0-0.05c0-0.02,0-0.04,0-0.07c0-0.43-0.15-0.64-0.44-0.64c-0.18,0-0.32,0.07-0.42,0.21
		c-0.1,0.14-0.2,0.33-0.29,0.55H161.51z"/>
	<path class="st4" d="M167.24,113.41c0,0.07-0.01,0.22-0.04,0.42l-0.34,2.29h-1.23l0.34-2.37c0-0.03,0.01-0.07,0.01-0.13
		c0-0.24-0.1-0.36-0.31-0.36c-0.13,0-0.25,0.04-0.38,0.13c-0.12,0.08-0.29,0.23-0.51,0.43l-0.33,2.29h-1.24l0.57-3.79H165
		l-0.06,0.44c0.23-0.16,0.43-0.29,0.6-0.38c0.17-0.09,0.39-0.13,0.64-0.13c0.39,0,0.66,0.12,0.82,0.36
		C167.16,112.85,167.24,113.12,167.24,113.41z"/>
	<path class="st4" d="M171.42,112.39l-0.17,1.17c-0.24-0.08-0.4-0.13-0.46-0.14c-0.14-0.04-0.29-0.05-0.44-0.05
		c-0.29,0-0.52,0.05-0.7,0.16c-0.18,0.11-0.31,0.24-0.39,0.4s-0.12,0.3-0.12,0.43c0,0.17,0.06,0.33,0.17,0.48
		c0.11,0.16,0.34,0.23,0.69,0.23c0.18,0,0.35-0.02,0.53-0.07s0.41-0.14,0.7-0.28l-0.2,1.27c-0.16,0.05-0.28,0.09-0.38,0.11
		s-0.2,0.04-0.31,0.05c-0.11,0.01-0.23,0.02-0.35,0.02c-0.81,0-1.37-0.2-1.67-0.59c-0.3-0.39-0.45-0.81-0.45-1.24
		c0-0.28,0.07-0.58,0.22-0.9c0.14-0.32,0.4-0.6,0.76-0.84c0.36-0.24,0.85-0.36,1.46-0.36C170.64,112.25,171.02,112.3,171.42,112.39z
		"/>
	<path class="st4" d="M173.54,112.32l-0.54,3.79h-1.26l0.54-3.79H173.54z M173.61,111.45c0,0.16-0.06,0.29-0.17,0.4
		c-0.11,0.11-0.25,0.17-0.41,0.17c-0.16,0-0.29-0.06-0.4-0.17s-0.17-0.25-0.17-0.4c0-0.16,0.06-0.29,0.17-0.4s0.25-0.17,0.4-0.17
		c0.1,0,0.19,0.03,0.28,0.08c0.09,0.05,0.16,0.12,0.21,0.21C173.58,111.26,173.61,111.35,173.61,111.45z"/>
	<path class="st4" d="M178.11,112.37l-0.57,3.74h-1.23l0.06-0.34c-0.14,0.13-0.28,0.23-0.42,0.3c-0.13,0.07-0.31,0.11-0.52,0.11
		c-0.27,0-0.5-0.08-0.71-0.23c-0.21-0.15-0.36-0.35-0.48-0.6c-0.11-0.25-0.17-0.52-0.17-0.82c0-0.25,0.04-0.5,0.12-0.75
		c0.08-0.26,0.23-0.5,0.43-0.74s0.5-0.42,0.88-0.57c0.38-0.14,0.84-0.22,1.4-0.22c0.23,0,0.42,0.01,0.57,0.03
		C177.62,112.3,177.83,112.33,178.11,112.37z M176.77,113.17h-0.23c-0.22,0-0.43,0.06-0.61,0.19c-0.18,0.13-0.33,0.3-0.43,0.51
		c-0.1,0.22-0.16,0.45-0.16,0.7c0,0.17,0.04,0.32,0.13,0.44c0.09,0.12,0.21,0.18,0.37,0.18c0.08,0,0.17-0.02,0.27-0.06
		s0.23-0.11,0.39-0.21L176.77,113.17z"/>
	<path class="st4" d="M185.04,114.02c0,0.39-0.08,0.75-0.25,1.08c-0.17,0.33-0.41,0.59-0.73,0.79c-0.32,0.2-0.69,0.29-1.1,0.29
		c-0.12,0-0.24-0.01-0.34-0.03s-0.22-0.05-0.34-0.09l-0.28,1.78h-1.24l0.6-3.95l-0.52,0.62c-0.05,0.05-0.08,0.09-0.11,0.11
		c-0.02,0.02-0.05,0.03-0.08,0.03c-0.08,0-0.12-0.05-0.12-0.15c0-0.12,0.04-0.26,0.13-0.44c0.09-0.18,0.19-0.34,0.3-0.48
		c0.11-0.14,0.28-0.32,0.52-0.53l0.21-1.4h1.23l-0.1,0.67c0.08-0.02,0.17-0.04,0.26-0.04c0.09-0.01,0.18-0.02,0.27-0.02
		c0.28,0,0.52,0.05,0.74,0.14c0.21,0.09,0.39,0.22,0.53,0.38c0.14,0.16,0.25,0.35,0.31,0.56S185.04,113.77,185.04,114.02z
		 M183.74,114c0-0.25-0.06-0.45-0.18-0.62c-0.12-0.16-0.31-0.24-0.59-0.24c-0.1,0-0.19,0.01-0.28,0.03l-0.3,1.98
		c0.09,0.02,0.19,0.04,0.29,0.04c0.25,0,0.46-0.06,0.62-0.18c0.16-0.12,0.27-0.27,0.33-0.45C183.71,114.38,183.74,114.19,183.74,114
		z"/>
	<path class="st4" d="M189.6,112.37l-0.57,3.74h-1.23l0.06-0.34c-0.14,0.13-0.28,0.23-0.42,0.3c-0.13,0.07-0.31,0.11-0.52,0.11
		c-0.27,0-0.5-0.08-0.71-0.23c-0.21-0.15-0.36-0.35-0.48-0.6c-0.11-0.25-0.17-0.52-0.17-0.82c0-0.25,0.04-0.5,0.12-0.75
		c0.08-0.26,0.23-0.5,0.43-0.74s0.5-0.42,0.88-0.57c0.38-0.14,0.84-0.22,1.4-0.22c0.23,0,0.42,0.01,0.57,0.03
		C189.11,112.3,189.32,112.33,189.6,112.37z M188.26,113.17h-0.23c-0.22,0-0.43,0.06-0.61,0.19c-0.18,0.13-0.33,0.3-0.43,0.51
		c-0.1,0.22-0.16,0.45-0.16,0.7c0,0.17,0.04,0.32,0.13,0.44c0.09,0.12,0.21,0.18,0.37,0.18c0.08,0,0.17-0.02,0.27-0.06
		s0.23-0.11,0.39-0.21L188.26,113.17z"/>
	<path class="st4" d="M193.39,112.64l-0.58,1.2c-0.07-0.12-0.14-0.22-0.22-0.3s-0.19-0.12-0.31-0.12c-0.24,0-0.47,0.18-0.67,0.53
		l-0.32,2.17h-1.23l0.57-3.79h1.23l-0.08,0.54c0.34-0.41,0.64-0.61,0.91-0.61c0.14,0,0.26,0.03,0.37,0.1
		S193.27,112.52,193.39,112.64z"/>
	<path class="st4" d="M197.33,112.37l-0.57,3.74h-1.23l0.06-0.34c-0.14,0.13-0.28,0.23-0.42,0.3c-0.13,0.07-0.31,0.11-0.52,0.11
		c-0.27,0-0.5-0.08-0.71-0.23c-0.21-0.15-0.36-0.35-0.48-0.6c-0.11-0.25-0.17-0.52-0.17-0.82c0-0.25,0.04-0.5,0.12-0.75
		c0.08-0.26,0.23-0.5,0.43-0.74s0.5-0.42,0.88-0.57c0.38-0.14,0.84-0.22,1.4-0.22c0.23,0,0.42,0.01,0.57,0.03
		C196.83,112.3,197.05,112.33,197.33,112.37z M195.98,113.17h-0.23c-0.22,0-0.43,0.06-0.61,0.19c-0.18,0.13-0.33,0.3-0.43,0.51
		c-0.1,0.22-0.16,0.45-0.16,0.7c0,0.17,0.04,0.32,0.13,0.44c0.09,0.12,0.21,0.18,0.37,0.18c0.08,0,0.17-0.02,0.27-0.06
		s0.23-0.11,0.39-0.21L195.98,113.17z"/>
	<path class="st4" d="M29.99,123.14c0,0.18-0.02,0.36-0.05,0.55h-2.4c0,0.52,0.26,0.79,0.77,0.79c0.26,0,0.48-0.03,0.69-0.09
		c0.2-0.06,0.44-0.15,0.72-0.26l-0.19,0.93c-0.27,0.11-0.48,0.18-0.64,0.22c-0.16,0.04-0.36,0.06-0.61,0.06
		c-0.52,0-0.92-0.1-1.22-0.29c-0.3-0.19-0.5-0.42-0.6-0.69c-0.11-0.27-0.16-0.53-0.16-0.79c0-0.39,0.09-0.75,0.27-1.08
		c0.18-0.33,0.42-0.59,0.74-0.79c0.31-0.2,0.67-0.29,1.06-0.29c0.3,0,0.57,0.06,0.81,0.19s0.44,0.32,0.59,0.58
		C29.92,122.44,29.99,122.76,29.99,123.14z M28.79,123.03c0-0.02,0-0.03,0-0.05c0-0.02,0-0.04,0-0.07c0-0.43-0.15-0.64-0.44-0.64
		c-0.18,0-0.32,0.07-0.42,0.21c-0.1,0.14-0.2,0.32-0.29,0.55H28.79z"/>
	<path class="st4" d="M34.52,122.56c0,0.08-0.01,0.21-0.04,0.42l-0.34,2.29h-1.23l0.34-2.37c0-0.03,0.01-0.07,0.01-0.13
		c0-0.24-0.1-0.36-0.31-0.36c-0.13,0-0.25,0.04-0.38,0.13c-0.12,0.08-0.29,0.23-0.51,0.43l-0.33,2.29h-1.24l0.57-3.79h1.24
		l-0.06,0.44c0.23-0.16,0.43-0.29,0.6-0.38c0.17-0.09,0.39-0.13,0.64-0.13c0.39,0,0.66,0.12,0.82,0.36
		C34.44,122.01,34.52,122.27,34.52,122.56z"/>
	<path class="st4" d="M37.84,121.76l-0.09,0.89c-0.18-0.09-0.39-0.18-0.61-0.25c-0.22-0.07-0.4-0.11-0.53-0.11
		c-0.17,0-0.25,0.06-0.25,0.17c0,0.07,0.03,0.13,0.08,0.18s0.14,0.12,0.25,0.21c0.12,0.08,0.23,0.16,0.32,0.24
		c0.25,0.21,0.42,0.4,0.5,0.56c0.09,0.17,0.13,0.32,0.13,0.47c0,0.19-0.05,0.37-0.16,0.56s-0.28,0.34-0.5,0.46
		c-0.22,0.12-0.49,0.18-0.81,0.18c-0.13,0-0.31-0.02-0.54-0.07c-0.24-0.05-0.48-0.13-0.73-0.27l0.16-0.87
		c0.28,0.11,0.49,0.19,0.64,0.24c0.15,0.05,0.31,0.08,0.48,0.08c0.1,0,0.18-0.02,0.24-0.07s0.08-0.1,0.08-0.16
		c0-0.07-0.04-0.15-0.12-0.22c-0.08-0.07-0.23-0.19-0.46-0.36c-0.21-0.16-0.38-0.33-0.52-0.5c-0.14-0.17-0.21-0.37-0.21-0.59
		c0-0.3,0.12-0.57,0.37-0.8c0.24-0.23,0.6-0.35,1.07-0.35c0.25,0,0.46,0.03,0.65,0.09S37.64,121.65,37.84,121.76z"/>
	<path class="st4" d="M41.96,123.14c0,0.18-0.02,0.36-0.05,0.55h-2.4c0,0.52,0.26,0.79,0.77,0.79c0.26,0,0.49-0.03,0.69-0.09
		s0.44-0.15,0.72-0.26l-0.19,0.93c-0.27,0.11-0.48,0.18-0.64,0.22c-0.16,0.04-0.36,0.06-0.61,0.06c-0.52,0-0.92-0.1-1.22-0.29
		c-0.3-0.19-0.5-0.42-0.6-0.69c-0.11-0.27-0.16-0.53-0.16-0.79c0-0.39,0.09-0.75,0.27-1.08c0.18-0.33,0.42-0.59,0.74-0.79
		s0.67-0.29,1.06-0.29c0.3,0,0.57,0.06,0.81,0.19c0.24,0.13,0.44,0.32,0.59,0.58S41.96,122.76,41.96,123.14z M40.76,123.03
		c0-0.02,0-0.03,0-0.05c0-0.02,0-0.04,0-0.07c0-0.43-0.15-0.64-0.44-0.64c-0.18,0-0.32,0.07-0.42,0.21c-0.1,0.14-0.2,0.32-0.29,0.55
		H40.76z"/>
	<path class="st4" d="M46.48,122.56c0,0.08-0.01,0.21-0.04,0.42l-0.34,2.29h-1.23l0.34-2.37c0-0.03,0.01-0.07,0.01-0.13
		c0-0.24-0.1-0.36-0.31-0.36c-0.13,0-0.25,0.04-0.38,0.13c-0.12,0.08-0.29,0.23-0.51,0.43l-0.33,2.29h-1.24l0.57-3.79h1.24
		l-0.06,0.44c0.23-0.16,0.43-0.29,0.6-0.38c0.17-0.09,0.39-0.13,0.64-0.13c0.39,0,0.66,0.12,0.82,0.36
		C46.4,122.01,46.48,122.27,46.48,122.56z M46.32,119.85c-0.01,0.38-0.1,0.67-0.26,0.85s-0.35,0.28-0.56,0.28
		c-0.1,0-0.19-0.01-0.26-0.04c-0.07-0.03-0.23-0.11-0.48-0.24c-0.07-0.05-0.15-0.07-0.26-0.07c-0.07,0-0.14,0.03-0.21,0.08
		c-0.07,0.06-0.11,0.15-0.12,0.27h-0.62c0.1-0.75,0.38-1.13,0.86-1.13c0.08,0,0.14,0.01,0.2,0.02s0.12,0.04,0.18,0.07
		c0.06,0.03,0.17,0.09,0.32,0.18c0.09,0.06,0.18,0.09,0.25,0.09c0.09,0,0.17-0.04,0.23-0.11c0.06-0.07,0.1-0.16,0.11-0.26H46.32z"/>
	<path class="st4" d="M51.12,121.53l-0.57,3.74h-1.23l0.06-0.34c-0.14,0.13-0.28,0.23-0.42,0.3c-0.13,0.07-0.31,0.11-0.52,0.11
		c-0.27,0-0.5-0.08-0.71-0.23c-0.21-0.15-0.36-0.35-0.48-0.6c-0.11-0.25-0.17-0.52-0.17-0.82c0-0.25,0.04-0.5,0.12-0.75
		c0.08-0.26,0.23-0.5,0.43-0.74c0.21-0.23,0.5-0.42,0.88-0.57c0.38-0.15,0.84-0.22,1.4-0.22c0.23,0,0.42,0.01,0.57,0.03
		C50.63,121.45,50.84,121.49,51.12,121.53z M49.78,122.32h-0.23c-0.22,0-0.43,0.06-0.61,0.19c-0.18,0.13-0.33,0.3-0.43,0.51
		c-0.1,0.22-0.16,0.45-0.16,0.7c0,0.17,0.04,0.32,0.13,0.44c0.09,0.12,0.21,0.18,0.37,0.18c0.08,0,0.17-0.02,0.27-0.06
		s0.23-0.11,0.39-0.21L49.78,122.32z"/>
	<path class="st4" d="M54.92,121.8l-0.58,1.2c-0.07-0.12-0.14-0.22-0.22-0.3c-0.08-0.08-0.19-0.12-0.31-0.12
		c-0.24,0-0.47,0.17-0.67,0.53l-0.32,2.17h-1.23l0.57-3.79h1.23l-0.08,0.54c0.34-0.41,0.64-0.61,0.91-0.61
		c0.14,0,0.26,0.03,0.37,0.1S54.79,121.68,54.92,121.8z"/>
	<path class="st4" d="M59.21,120.11l-0.76,5.16h-1.26l0.76-5.16H59.21z"/>
	<path class="st4" d="M63.55,121.53l-0.57,3.74h-1.23l0.06-0.34c-0.14,0.13-0.28,0.23-0.42,0.3c-0.13,0.07-0.31,0.11-0.52,0.11
		c-0.27,0-0.5-0.08-0.71-0.23c-0.21-0.15-0.36-0.35-0.48-0.6c-0.11-0.25-0.17-0.52-0.17-0.82c0-0.25,0.04-0.5,0.12-0.75
		c0.08-0.26,0.23-0.5,0.43-0.74c0.21-0.23,0.5-0.42,0.88-0.57c0.38-0.15,0.84-0.22,1.4-0.22c0.23,0,0.42,0.01,0.57,0.03
		C63.06,121.45,63.28,121.49,63.55,121.53z M62.21,122.32h-0.23c-0.22,0-0.43,0.06-0.61,0.19c-0.18,0.13-0.33,0.3-0.43,0.51
		c-0.1,0.22-0.16,0.45-0.16,0.7c0,0.17,0.04,0.32,0.13,0.44c0.09,0.12,0.21,0.18,0.37,0.18c0.08,0,0.17-0.02,0.27-0.06
		s0.23-0.11,0.39-0.21L62.21,122.32z"/>
	<path class="st4" d="M70.59,120.11l-0.73,5.11c-0.5,0.08-0.95,0.12-1.36,0.12c-0.7,0-1.24-0.17-1.63-0.5
		c-0.39-0.33-0.58-0.78-0.58-1.34c0-0.22,0.04-0.45,0.13-0.69c0.08-0.24,0.22-0.47,0.41-0.68c0.19-0.21,0.43-0.38,0.73-0.52
		c0.3-0.13,0.66-0.2,1.09-0.2c0.16,0,0.33,0.01,0.51,0.03l0.2-1.33H70.59z M69.02,122.45c-0.03,0-0.07,0-0.12,0
		c-0.34,0-0.61,0.06-0.8,0.19c-0.2,0.13-0.33,0.28-0.4,0.44c-0.07,0.17-0.11,0.31-0.11,0.44c0,0.12,0.03,0.24,0.09,0.37
		s0.16,0.22,0.3,0.3s0.31,0.12,0.53,0.12c0.1,0,0.18-0.01,0.24-0.02L69.02,122.45z"/>
	<path class="st4" d="M74.88,121.53l-0.57,3.74h-1.23l0.06-0.34c-0.14,0.13-0.28,0.23-0.42,0.3c-0.13,0.07-0.31,0.11-0.52,0.11
		c-0.27,0-0.5-0.08-0.71-0.23c-0.21-0.15-0.36-0.35-0.48-0.6c-0.11-0.25-0.17-0.52-0.17-0.82c0-0.25,0.04-0.5,0.12-0.75
		c0.08-0.26,0.23-0.5,0.43-0.74c0.21-0.23,0.5-0.42,0.88-0.57c0.38-0.15,0.84-0.22,1.4-0.22c0.23,0,0.42,0.01,0.57,0.03
		C74.39,121.45,74.6,121.49,74.88,121.53z M73.54,122.32h-0.23c-0.22,0-0.43,0.06-0.61,0.19c-0.18,0.13-0.33,0.3-0.43,0.51
		c-0.1,0.22-0.16,0.45-0.16,0.7c0,0.17,0.04,0.32,0.13,0.44c0.09,0.12,0.21,0.18,0.37,0.18c0.08,0,0.17-0.02,0.27-0.06
		s0.23-0.11,0.39-0.21L73.54,122.32z"/>
	<path class="st4" d="M79.37,122.56c0,0.08-0.01,0.21-0.04,0.42l-0.34,2.29h-1.23l0.34-2.37c0-0.03,0.01-0.07,0.01-0.13
		c0-0.24-0.1-0.36-0.31-0.36c-0.13,0-0.25,0.04-0.38,0.13c-0.12,0.08-0.29,0.23-0.51,0.43l-0.33,2.29h-1.24l0.57-3.79h1.24
		l-0.06,0.44c0.23-0.16,0.43-0.29,0.6-0.38c0.17-0.09,0.39-0.13,0.64-0.13c0.39,0,0.66,0.12,0.82,0.36
		C79.29,122.01,79.37,122.27,79.37,122.56z"/>
	<path class="st4" d="M83.67,121.58l-1.93,2.78h1.59l-0.14,0.92H79.8v-0.07l1.99-2.85h-1.59l0.12-0.87h3.35V121.58z"/>
	<path class="st4" d="M88.05,121.53l-0.57,3.74h-1.23l0.06-0.34c-0.14,0.13-0.28,0.23-0.42,0.3c-0.13,0.07-0.31,0.11-0.52,0.11
		c-0.27,0-0.5-0.08-0.71-0.23c-0.21-0.15-0.36-0.35-0.48-0.6c-0.11-0.25-0.17-0.52-0.17-0.82c0-0.25,0.04-0.5,0.12-0.75
		c0.08-0.26,0.23-0.5,0.43-0.74c0.21-0.23,0.5-0.42,0.88-0.57c0.38-0.15,0.84-0.22,1.4-0.22c0.23,0,0.42,0.01,0.57,0.03
		C87.56,121.45,87.77,121.49,88.05,121.53z M86.71,122.32h-0.23c-0.22,0-0.43,0.06-0.61,0.19c-0.18,0.13-0.33,0.3-0.43,0.51
		c-0.1,0.22-0.16,0.45-0.16,0.7c0,0.17,0.04,0.32,0.13,0.44c0.09,0.12,0.21,0.18,0.37,0.18c0.08,0,0.17-0.02,0.27-0.06
		s0.23-0.11,0.39-0.21L86.71,122.32z"/>
	<path class="st4" d="M90.03,124.56c0,0.14-0.03,0.27-0.1,0.39c-0.07,0.12-0.16,0.21-0.28,0.28c-0.12,0.07-0.25,0.1-0.39,0.1
		s-0.27-0.04-0.39-0.1s-0.21-0.16-0.28-0.28c-0.07-0.12-0.1-0.25-0.1-0.39c0-0.14,0.03-0.27,0.1-0.39c0.07-0.12,0.16-0.21,0.28-0.28
		c0.12-0.07,0.25-0.1,0.39-0.1s0.27,0.03,0.39,0.1c0.12,0.07,0.21,0.16,0.28,0.28C89.99,124.29,90.03,124.42,90.03,124.56z"/>
	<path class="st4" d="M29.88,138.72l-0.17,1.02c-0.05-0.04-0.13-0.09-0.26-0.15c-0.12-0.07-0.27-0.12-0.42-0.17
		s-0.32-0.08-0.48-0.08c-0.17,0-0.3,0.05-0.39,0.14c-0.09,0.09-0.14,0.2-0.14,0.32c0,0.11,0.03,0.2,0.09,0.29
		c0.06,0.09,0.22,0.23,0.48,0.45c0.38,0.31,0.65,0.57,0.79,0.8c0.14,0.23,0.22,0.48,0.22,0.77c0,0.24-0.05,0.47-0.16,0.71
		c-0.11,0.24-0.3,0.43-0.56,0.6c-0.26,0.16-0.62,0.24-1.05,0.24c-0.33,0-0.63-0.05-0.93-0.14c-0.29-0.09-0.53-0.19-0.72-0.31
		l0.16-1.05c0.53,0.33,0.97,0.5,1.3,0.5c0.21,0,0.36-0.06,0.45-0.17c0.09-0.12,0.13-0.24,0.13-0.38c0-0.15-0.05-0.28-0.14-0.4
		c-0.1-0.11-0.32-0.33-0.68-0.66c-0.21-0.19-0.38-0.37-0.49-0.52s-0.19-0.28-0.22-0.39c-0.03-0.11-0.05-0.24-0.05-0.39
		c0-0.17,0.03-0.33,0.1-0.5c0.06-0.17,0.17-0.32,0.3-0.46c0.14-0.14,0.31-0.25,0.53-0.33c0.21-0.08,0.47-0.12,0.75-0.12
		C28.85,138.35,29.37,138.47,29.88,138.72z"/>
	<path class="st4" d="M34.23,139.84l-0.57,3.74h-1.23l0.06-0.34c-0.14,0.13-0.28,0.23-0.42,0.3c-0.13,0.07-0.31,0.11-0.52,0.11
		c-0.27,0-0.5-0.08-0.71-0.23c-0.21-0.15-0.36-0.35-0.48-0.6c-0.11-0.25-0.17-0.52-0.17-0.82c0-0.25,0.04-0.5,0.12-0.75
		c0.08-0.26,0.23-0.5,0.43-0.74c0.21-0.23,0.5-0.42,0.88-0.57c0.38-0.15,0.84-0.22,1.4-0.22c0.23,0,0.42,0.01,0.57,0.03
		C33.73,139.77,33.95,139.8,34.23,139.84z M32.88,140.64h-0.23c-0.22,0-0.43,0.06-0.61,0.19c-0.18,0.13-0.33,0.3-0.43,0.51
		c-0.1,0.22-0.16,0.45-0.16,0.7c0,0.17,0.04,0.32,0.13,0.44c0.09,0.12,0.21,0.18,0.37,0.18c0.08,0,0.17-0.02,0.27-0.06
		s0.23-0.11,0.39-0.21L32.88,140.64z"/>
	<path class="st4" d="M40.71,139.79l-2.12,3.86h-0.78l-0.37-1.86l-0.96,1.86h-0.77l-0.92-3.86h1.06l0.48,2.08l1.02-2.08h0.69
		l0.39,2.08l1.08-2.08H40.71z"/>
	<path class="st4" d="M42.52,139.79l-0.54,3.79h-1.26l0.54-3.79H42.52z M42.59,138.92c0,0.16-0.06,0.29-0.17,0.4
		c-0.11,0.11-0.25,0.17-0.41,0.17c-0.16,0-0.29-0.06-0.4-0.17c-0.11-0.11-0.17-0.25-0.17-0.4c0-0.16,0.06-0.29,0.17-0.4
		c0.11-0.11,0.25-0.17,0.4-0.17c0.1,0,0.19,0.03,0.28,0.08c0.09,0.05,0.16,0.12,0.21,0.21C42.56,138.73,42.59,138.82,42.59,138.92z"
		/>
	<path class="st4" d="M45.78,140.07l-0.09,0.89c-0.18-0.09-0.39-0.18-0.61-0.25c-0.22-0.07-0.4-0.11-0.53-0.11
		c-0.17,0-0.25,0.06-0.25,0.17c0,0.07,0.03,0.13,0.08,0.18s0.14,0.12,0.25,0.21c0.12,0.08,0.23,0.16,0.32,0.24
		c0.25,0.21,0.42,0.4,0.5,0.56c0.09,0.17,0.13,0.32,0.13,0.47c0,0.19-0.05,0.37-0.16,0.56s-0.28,0.34-0.5,0.46
		c-0.22,0.12-0.49,0.18-0.81,0.18c-0.13,0-0.31-0.02-0.54-0.07c-0.24-0.05-0.48-0.13-0.73-0.27l0.16-0.87
		c0.28,0.11,0.49,0.19,0.64,0.24c0.15,0.05,0.31,0.08,0.48,0.08c0.1,0,0.18-0.02,0.24-0.07s0.08-0.1,0.08-0.16
		c0-0.07-0.04-0.15-0.12-0.22c-0.08-0.07-0.23-0.19-0.46-0.36c-0.21-0.16-0.38-0.33-0.52-0.5c-0.14-0.17-0.21-0.37-0.21-0.59
		c0-0.3,0.12-0.57,0.37-0.8c0.24-0.23,0.6-0.35,1.07-0.35c0.25,0,0.46,0.03,0.65,0.09S45.57,139.96,45.78,140.07z"/>
	<path class="st4" d="M50.21,140.85c0,0.14-0.02,0.33-0.06,0.56l-0.32,2.18h-1.24l0.35-2.34c0-0.04,0.01-0.07,0.01-0.09
		c0-0.11-0.03-0.21-0.08-0.29c-0.05-0.08-0.13-0.13-0.24-0.13c-0.12,0-0.25,0.05-0.38,0.14c-0.13,0.09-0.3,0.23-0.5,0.42l-0.33,2.29
		h-1.24l0.77-5.16h1.23l-0.27,1.81c0.23-0.17,0.43-0.3,0.61-0.38c0.18-0.09,0.39-0.13,0.62-0.13c0.28,0,0.5,0.06,0.66,0.19
		c0.16,0.13,0.27,0.27,0.32,0.45C50.18,140.53,50.21,140.7,50.21,140.85z"/>
</g>
</svg>
