<?xml version="1.0" encoding="utf-8"?>
<!-- Generator: Adobe Illustrator 28.3.0, SVG Export Plug-In . SVG Version: 6.00 Build 0)  -->
<svg version="1.1" id="Layer_1" xmlns="http://www.w3.org/2000/svg" xmlns:xlink="http://www.w3.org/1999/xlink" x="0px" y="0px"
	 viewBox="0 0 220 220" style="enable-background:new 0 0 220 220;" xml:space="preserve">
<style type="text/css">
	.st0{fill:url(#SVGID_1_);}
	.st1{fill:url(#SVGID_00000125568134663893209440000002378854975210928768_);}
	.st2{fill:url(#SVGID_00000046305591494984977930000001807617106696095158_);}
	.st3{fill:#F7941D;}
	.st4{fill:#FFFFFF;}
</style>
<linearGradient id="SVGID_1_" gradientUnits="userSpaceOnUse" x1="10.55" y1="108.27" x2="190.55" y2="108.27">
	<stop  offset="0" style="stop-color:#FF0096"/>
	<stop  offset="0.1605" style="stop-color:#F8137A"/>
	<stop  offset="0.3586" style="stop-color:#F2265E"/>
	<stop  offset="0.558" style="stop-color:#ED334A"/>
	<stop  offset="0.7578" style="stop-color:#EA3B3E"/>
	<stop  offset="0.9587" style="stop-color:#E93E3A"/>
	<stop  offset="0.9601" style="stop-color:#E93E3A"/>
	<stop  offset="1" style="stop-color:#E93E3A"/>
</linearGradient>
<polygon class="st0" points="163.64,193.27 20.55,193.27 20.55,23.27 110,23.27 110,13.27 10.55,13.27 10.55,203.27 163.64,203.27 
	"/>
<linearGradient id="SVGID_00000082356517998512619960000007153161678731743646_" gradientUnits="userSpaceOnUse" x1="100.55" y1="21.6425" x2="136.0917" y2="21.6425">
	<stop  offset="0" style="stop-color:#FF0096"/>
	<stop  offset="0.1605" style="stop-color:#F8137A"/>
	<stop  offset="0.3586" style="stop-color:#F2265E"/>
	<stop  offset="0.558" style="stop-color:#ED334A"/>
	<stop  offset="0.7578" style="stop-color:#EA3B3E"/>
	<stop  offset="0.9587" style="stop-color:#E93E3A"/>
	<stop  offset="0.9601" style="stop-color:#E93E3A"/>
	<stop  offset="1" style="stop-color:#E93E3A"/>
</linearGradient>
<path style="fill:url(#SVGID_00000082356517998512619960000007153161678731743646_);" d="M111.19,20.82
	c2.85,0.69,5.27,3.46,5.27,7.09c0,4.5-3.46,8.21-7.96,8.21c-4.24,0-7.95-3.63-7.95-8.21c0-1.82,0.6-4.06,2.68-7.96l6.92-12.8
	l6.49,3.55L111.19,20.82z M130.64,20.82c2.86,0.69,5.36,3.46,5.36,7.09c0,4.5-3.46,8.21-7.96,8.21c-4.32,0-7.95-3.63-7.95-8.21
	c0-1.82,0.52-4.06,2.59-7.96l7-12.8l6.4,3.55L130.64,20.82z"/>
<linearGradient id="SVGID_00000020357673266881502900000005547428578569239706_" gradientUnits="userSpaceOnUse" x1="156.7397" y1="195.4713" x2="192.2814" y2="195.4713">
	<stop  offset="0" style="stop-color:#FF0096"/>
	<stop  offset="0.1605" style="stop-color:#F8137A"/>
	<stop  offset="0.3586" style="stop-color:#F2265E"/>
	<stop  offset="0.558" style="stop-color:#ED334A"/>
	<stop  offset="0.7578" style="stop-color:#EA3B3E"/>
	<stop  offset="0.9587" style="stop-color:#E93E3A"/>
	<stop  offset="0.9601" style="stop-color:#E93E3A"/>
	<stop  offset="1" style="stop-color:#E93E3A"/>
</linearGradient>
<path style="fill:url(#SVGID_00000020357673266881502900000005547428578569239706_);" d="M162.1,196.34
	c-2.86-0.69-5.27-3.46-5.27-7.18c0-4.41,3.46-8.13,7.95-8.13c4.33,0,7.96,3.55,7.96,8.13c0,1.82-0.52,4.15-2.59,7.96l-7,12.8
	l-6.4-3.46L162.1,196.34z M181.65,196.34c-2.85-0.69-5.27-3.46-5.27-7.18c0-4.41,3.46-8.13,7.96-8.13c4.24,0,7.95,3.55,7.95,8.13
	c0,1.82-0.61,4.15-2.68,7.96l-6.92,12.8l-6.49-3.46L181.65,196.34z"/>
<polygon class="st3" points="80.2,50.65 82.12,56.56 88.34,56.56 83.31,60.22 85.23,66.13 80.2,62.48 75.17,66.13 77.09,60.22 
	72.06,56.56 78.28,56.56 "/>
<polygon class="st3" points="98.3,50.65 100.22,56.56 106.44,56.56 101.41,60.22 103.33,66.13 98.3,62.48 93.27,66.13 95.19,60.22 
	90.16,56.56 96.38,56.56 "/>
<polygon class="st3" points="116.79,50.65 118.71,56.56 124.93,56.56 119.9,60.22 121.82,66.13 116.79,62.48 111.76,66.13 
	113.68,60.22 108.65,56.56 114.87,56.56 "/>
<polygon class="st3" points="134.71,50.65 136.63,56.56 142.85,56.56 137.82,60.22 139.74,66.13 134.71,62.48 129.68,66.13 
	131.6,60.22 126.57,56.56 132.79,56.56 "/>
<polygon class="st3" points="153.07,50.65 154.99,56.56 161.21,56.56 156.18,60.22 158.1,66.13 153.07,62.48 148.04,66.13 
	149.96,60.22 144.93,56.56 151.15,56.56 "/>
<g>
	<path class="st4" d="M30.66,88.84l-0.13,0.92h-2.09l-0.16,1.12h1.81l-0.13,0.92h-1.83l-0.17,1.27h2.54l-0.13,0.92H26.5l0.75-5.16
		H30.66z"/>
	<path class="st4" d="M33.1,88.84l-0.76,5.16h-1.26l0.76-5.16H33.1z"/>
	<path class="st4" d="M39.68,90.27l-0.57,3.74h-1.23l0.06-0.34c-0.14,0.13-0.28,0.23-0.42,0.3c-0.13,0.07-0.31,0.11-0.52,0.11
		c-0.27,0-0.5-0.07-0.71-0.23c-0.21-0.15-0.36-0.35-0.48-0.6c-0.11-0.25-0.17-0.52-0.17-0.82c0-0.25,0.04-0.5,0.12-0.75
		c0.08-0.26,0.23-0.5,0.43-0.74c0.21-0.23,0.5-0.42,0.88-0.57c0.38-0.15,0.84-0.22,1.4-0.22c0.23,0,0.42,0.01,0.57,0.03
		C39.19,90.19,39.4,90.22,39.68,90.27z M38.34,91.06h-0.23c-0.22,0-0.43,0.06-0.61,0.19c-0.18,0.13-0.33,0.3-0.43,0.51
		c-0.1,0.22-0.16,0.45-0.16,0.7c0,0.17,0.04,0.32,0.13,0.44c0.09,0.12,0.21,0.18,0.37,0.18c0.08,0,0.17-0.02,0.27-0.06
		s0.23-0.11,0.39-0.21L38.34,91.06z"/>
	<path class="st4" d="M46.26,91.28c0,0.1-0.02,0.27-0.05,0.52l-0.32,2.21h-1.25l0.33-2.24c0.01-0.11,0.02-0.2,0.02-0.26
		c0-0.26-0.09-0.39-0.28-0.39c-0.18,0-0.43,0.13-0.73,0.4l-0.35,2.49h-1.24l0.31-2.13c0.03-0.23,0.05-0.38,0.05-0.44
		c0-0.11-0.02-0.19-0.06-0.24c-0.04-0.05-0.11-0.08-0.21-0.08c-0.11,0-0.22,0.04-0.33,0.12c-0.12,0.08-0.26,0.2-0.43,0.37l-0.34,2.4
		h-1.24l0.56-3.79h1.24l-0.07,0.44c0.13-0.13,0.29-0.24,0.49-0.35s0.41-0.16,0.64-0.16c0.43,0,0.74,0.19,0.92,0.56
		c0.09-0.09,0.19-0.18,0.31-0.26s0.25-0.15,0.4-0.21c0.15-0.06,0.32-0.09,0.5-0.09c0.44,0,0.74,0.12,0.9,0.36
		C46.17,90.75,46.26,91,46.26,91.28z"/>
	<path class="st4" d="M50.95,91.93c0,0.42-0.09,0.8-0.28,1.12c-0.18,0.32-0.46,0.58-0.84,0.76c-0.38,0.18-0.84,0.27-1.39,0.27
		c-0.14,0-0.3,0-0.48-0.01c-0.19-0.01-0.36-0.02-0.52-0.04s-0.36-0.05-0.61-0.08l0.74-5.09h1.24l-0.25,1.74
		c0.25-0.29,0.56-0.43,0.92-0.43c0.19,0,0.38,0.04,0.55,0.13c0.18,0.09,0.33,0.21,0.47,0.36s0.25,0.34,0.33,0.57
		S50.95,91.67,50.95,91.93z M49.66,91.93c0-0.24-0.05-0.42-0.17-0.53c-0.11-0.11-0.24-0.17-0.4-0.17c-0.25,0-0.48,0.13-0.7,0.4
		l-0.21,1.39c0.08,0.01,0.2,0.01,0.36,0.01C49.29,93.04,49.66,92.67,49.66,91.93z"/>
	<path class="st4" d="M53.33,90.22l-0.54,3.79h-1.26l0.54-3.79H53.33z M53.4,89.35c0,0.16-0.06,0.29-0.17,0.4
		c-0.11,0.11-0.25,0.17-0.41,0.17c-0.16,0-0.29-0.06-0.4-0.17c-0.11-0.11-0.17-0.25-0.17-0.4c0-0.16,0.06-0.29,0.17-0.4
		c0.11-0.11,0.25-0.17,0.4-0.17c0.1,0,0.19,0.03,0.28,0.08c0.09,0.05,0.16,0.12,0.21,0.21C53.37,89.15,53.4,89.25,53.4,89.35z"/>
	<path class="st4" d="M57.56,91.88c0,0.18-0.02,0.36-0.05,0.56h-2.4c0,0.52,0.26,0.79,0.77,0.79c0.26,0,0.49-0.03,0.69-0.09
		s0.44-0.15,0.72-0.26L57.1,93.8c-0.27,0.11-0.48,0.18-0.64,0.22s-0.36,0.06-0.61,0.06c-0.52,0-0.92-0.1-1.22-0.29
		c-0.3-0.19-0.5-0.42-0.6-0.69c-0.11-0.27-0.16-0.53-0.16-0.79c0-0.39,0.09-0.75,0.27-1.08c0.18-0.33,0.42-0.6,0.74-0.79
		s0.67-0.29,1.06-0.29c0.3,0,0.57,0.06,0.81,0.19c0.24,0.13,0.44,0.32,0.59,0.58C57.48,91.18,57.56,91.5,57.56,91.88z M56.36,91.77
		c0-0.02,0-0.03,0-0.05c0-0.02,0-0.04,0-0.07c0-0.43-0.15-0.64-0.44-0.64c-0.18,0-0.32,0.07-0.42,0.21c-0.1,0.14-0.2,0.33-0.29,0.55
		H56.36z"/>
	<path class="st4" d="M62.08,91.3c0,0.07-0.01,0.21-0.04,0.42l-0.34,2.29h-1.23l0.34-2.37c0-0.03,0.01-0.07,0.01-0.13
		c0-0.24-0.1-0.36-0.31-0.36c-0.13,0-0.25,0.04-0.38,0.13s-0.29,0.23-0.51,0.43l-0.33,2.29h-1.24l0.57-3.79h1.24l-0.06,0.44
		c0.23-0.16,0.43-0.29,0.6-0.38c0.17-0.09,0.39-0.13,0.64-0.13c0.39,0,0.66,0.12,0.82,0.36C62,90.75,62.08,91.01,62.08,91.3z"/>
	<path class="st4" d="M65.46,90.22l-0.2,0.93h-0.73l-0.25,1.24c-0.02,0.1-0.03,0.19-0.03,0.25c0,0.21,0.09,0.32,0.28,0.32
		c0.2,0,0.45-0.11,0.73-0.32l-0.07,1.15c-0.34,0.2-0.7,0.3-1.07,0.3c-0.16,0-0.32-0.03-0.48-0.09s-0.3-0.17-0.43-0.32
		c-0.15-0.18-0.23-0.42-0.23-0.72c0-0.13,0.01-0.27,0.04-0.41l0.26-1.39h-0.7l0.17-0.93h0.71l0.15-0.76h1.25l-0.15,0.76H65.46z"/>
	<path class="st4" d="M69.49,91.88c0,0.18-0.02,0.36-0.05,0.56h-2.4c0,0.52,0.26,0.79,0.77,0.79c0.26,0,0.49-0.03,0.69-0.09
		s0.44-0.15,0.72-0.26l-0.19,0.93c-0.27,0.11-0.48,0.18-0.64,0.22s-0.36,0.06-0.61,0.06c-0.52,0-0.92-0.1-1.22-0.29
		c-0.3-0.19-0.5-0.42-0.6-0.69c-0.11-0.27-0.16-0.53-0.16-0.79c0-0.39,0.09-0.75,0.27-1.08c0.18-0.33,0.42-0.6,0.74-0.79
		s0.67-0.29,1.06-0.29c0.3,0,0.57,0.06,0.81,0.19c0.24,0.13,0.44,0.32,0.59,0.58C69.42,91.18,69.49,91.5,69.49,91.88z M68.29,91.77
		c0-0.02,0-0.03,0-0.05c0-0.02,0-0.04,0-0.07c0-0.43-0.15-0.64-0.44-0.64c-0.18,0-0.32,0.07-0.42,0.21c-0.1,0.14-0.2,0.33-0.29,0.55
		H68.29z"/>
	<path class="st4" d="M75.93,91.88c0,0.18-0.02,0.36-0.05,0.56h-2.4c0,0.52,0.26,0.79,0.77,0.79c0.26,0,0.49-0.03,0.69-0.09
		s0.44-0.15,0.72-0.26l-0.19,0.93c-0.27,0.11-0.48,0.18-0.64,0.22s-0.36,0.06-0.61,0.06c-0.52,0-0.92-0.1-1.22-0.29
		c-0.3-0.19-0.5-0.42-0.6-0.69c-0.11-0.27-0.16-0.53-0.16-0.79c0-0.39,0.09-0.75,0.27-1.08c0.18-0.33,0.42-0.6,0.74-0.79
		s0.67-0.29,1.06-0.29c0.3,0,0.57,0.06,0.81,0.19c0.24,0.13,0.44,0.32,0.59,0.58C75.85,91.18,75.93,91.5,75.93,91.88z M74.73,91.77
		c0-0.02,0-0.03,0-0.05c0-0.02,0-0.04,0-0.07c0-0.43-0.15-0.64-0.44-0.64c-0.18,0-0.32,0.07-0.42,0.21c-0.1,0.14-0.2,0.33-0.29,0.55
		H74.73z"/>
	<path class="st4" d="M80.45,91.3c0,0.07-0.01,0.21-0.04,0.42l-0.34,2.29h-1.23l0.34-2.37c0-0.03,0.01-0.07,0.01-0.13
		c0-0.24-0.1-0.36-0.31-0.36c-0.13,0-0.25,0.04-0.38,0.13s-0.29,0.23-0.51,0.43l-0.33,2.29h-1.24l0.57-3.79h1.24l-0.06,0.44
		c0.23-0.16,0.43-0.29,0.6-0.38c0.17-0.09,0.39-0.13,0.64-0.13c0.39,0,0.66,0.12,0.82,0.36C80.37,90.75,80.45,91.01,80.45,91.3z"/>
	<path class="st4" d="M87.21,90.22l-0.12,0.85h-0.54c0.07,0.19,0.1,0.37,0.1,0.54c0,0.26-0.06,0.49-0.19,0.69s-0.31,0.36-0.56,0.47
		c-0.25,0.11-0.55,0.17-0.91,0.17h-0.22c-0.12,0-0.22,0.02-0.29,0.06c-0.07,0.04-0.11,0.1-0.11,0.17c0,0.06,0.02,0.11,0.05,0.14
		c0.04,0.03,0.12,0.06,0.25,0.09c0.13,0.03,0.35,0.07,0.66,0.13c0.88,0.16,1.33,0.53,1.33,1.11c0,0.19-0.05,0.37-0.14,0.54
		c-0.09,0.17-0.28,0.32-0.57,0.45c-0.29,0.13-0.69,0.19-1.22,0.19c-0.29,0-0.55-0.01-0.78-0.04c-0.23-0.03-0.43-0.07-0.6-0.14
		s-0.3-0.17-0.39-0.29c-0.09-0.13-0.14-0.29-0.14-0.48c0-0.37,0.28-0.65,0.85-0.84c-0.14-0.08-0.25-0.17-0.34-0.26
		c-0.09-0.09-0.13-0.22-0.13-0.38c0-0.36,0.27-0.58,0.82-0.66c-0.23-0.09-0.4-0.25-0.53-0.48c-0.13-0.22-0.19-0.45-0.19-0.67
		c0-0.14,0.03-0.29,0.08-0.45c0.05-0.15,0.15-0.3,0.28-0.44c0.13-0.14,0.3-0.25,0.51-0.33c0.21-0.08,0.46-0.12,0.77-0.12H87.21z
		 M85.51,94.8c0-0.12-0.06-0.2-0.17-0.24s-0.35-0.09-0.7-0.13L84.4,94.4c-0.18,0.07-0.3,0.13-0.36,0.18
		c-0.06,0.05-0.09,0.11-0.09,0.19c0,0.11,0.07,0.19,0.2,0.24c0.13,0.05,0.34,0.08,0.63,0.08c0.28,0,0.48-0.02,0.58-0.07
		C85.46,94.96,85.51,94.89,85.51,94.8z M85.5,91.45c0-0.17-0.04-0.29-0.12-0.38c-0.08-0.09-0.19-0.13-0.33-0.13
		c-0.21,0-0.36,0.09-0.44,0.26c-0.08,0.17-0.12,0.33-0.12,0.49c0,0.17,0.04,0.3,0.13,0.39c0.09,0.09,0.2,0.14,0.32,0.14
		c0.2,0,0.34-0.08,0.43-0.24C85.45,91.81,85.5,91.63,85.5,91.45z"/>
	<path class="st4" d="M91.01,91.88c0,0.18-0.02,0.36-0.05,0.56h-2.4c0,0.52,0.26,0.79,0.77,0.79c0.26,0,0.49-0.03,0.69-0.09
		s0.44-0.15,0.72-0.26l-0.19,0.93c-0.27,0.11-0.48,0.18-0.64,0.22s-0.36,0.06-0.61,0.06c-0.52,0-0.92-0.1-1.22-0.29
		c-0.3-0.19-0.5-0.42-0.6-0.69c-0.11-0.27-0.16-0.53-0.16-0.79c0-0.39,0.09-0.75,0.27-1.08c0.18-0.33,0.42-0.6,0.74-0.79
		s0.67-0.29,1.06-0.29c0.3,0,0.57,0.06,0.81,0.19c0.24,0.13,0.44,0.32,0.59,0.58C90.94,91.18,91.01,91.5,91.01,91.88z M89.81,91.77
		c0-0.02,0-0.03,0-0.05c0-0.02,0-0.04,0-0.07c0-0.43-0.15-0.64-0.44-0.64c-0.18,0-0.32,0.07-0.42,0.21c-0.1,0.14-0.2,0.33-0.29,0.55
		H89.81z"/>
	<path class="st4" d="M95.53,91.3c0,0.07-0.01,0.21-0.04,0.42l-0.34,2.29h-1.23l0.34-2.37c0-0.03,0.01-0.07,0.01-0.13
		c0-0.24-0.1-0.36-0.31-0.36c-0.13,0-0.25,0.04-0.38,0.13s-0.29,0.23-0.51,0.43l-0.33,2.29h-1.24l0.57-3.79h1.24l-0.06,0.44
		c0.23-0.16,0.43-0.29,0.6-0.38c0.17-0.09,0.39-0.13,0.64-0.13c0.39,0,0.66,0.12,0.82,0.36C95.45,90.75,95.53,91.01,95.53,91.3z"/>
	<path class="st4" d="M99.83,91.88c0,0.18-0.02,0.36-0.05,0.56h-2.4c0,0.52,0.26,0.79,0.77,0.79c0.26,0,0.49-0.03,0.69-0.09
		s0.44-0.15,0.72-0.26l-0.19,0.93c-0.27,0.11-0.48,0.18-0.64,0.22s-0.36,0.06-0.61,0.06c-0.52,0-0.92-0.1-1.22-0.29
		c-0.3-0.19-0.5-0.42-0.6-0.69c-0.11-0.27-0.16-0.53-0.16-0.79c0-0.39,0.09-0.75,0.27-1.08c0.18-0.33,0.42-0.6,0.74-0.79
		s0.67-0.29,1.06-0.29c0.3,0,0.57,0.06,0.81,0.19c0.24,0.13,0.44,0.32,0.59,0.58C99.76,91.18,99.83,91.5,99.83,91.88z M98.63,91.77
		c0-0.02,0-0.03,0-0.05c0-0.02,0-0.04,0-0.07c0-0.43-0.15-0.64-0.44-0.64c-0.18,0-0.32,0.07-0.42,0.21c-0.1,0.14-0.2,0.33-0.29,0.55
		H98.63z"/>
	<path class="st4" d="M103.66,90.54l-0.58,1.2c-0.07-0.12-0.14-0.22-0.22-0.3s-0.19-0.12-0.31-0.12c-0.24,0-0.47,0.18-0.67,0.53
		l-0.32,2.17h-1.23l0.57-3.79h1.23l-0.08,0.54c0.34-0.41,0.64-0.61,0.91-0.61c0.14,0,0.26,0.03,0.37,0.1S103.53,90.41,103.66,90.54z
		"/>
	<path class="st4" d="M107.59,90.27l-0.57,3.74h-1.23l0.06-0.34c-0.14,0.13-0.28,0.23-0.42,0.3c-0.13,0.07-0.31,0.11-0.52,0.11
		c-0.27,0-0.5-0.07-0.71-0.23c-0.21-0.15-0.36-0.35-0.48-0.6c-0.11-0.25-0.17-0.52-0.17-0.82c0-0.25,0.04-0.5,0.12-0.75
		c0.08-0.26,0.23-0.5,0.43-0.74c0.21-0.23,0.5-0.42,0.88-0.57c0.38-0.15,0.84-0.22,1.4-0.22c0.23,0,0.42,0.01,0.57,0.03
		C107.09,90.19,107.31,90.22,107.59,90.27z M106.24,91.06h-0.23c-0.22,0-0.43,0.06-0.61,0.19c-0.18,0.13-0.33,0.3-0.43,0.51
		c-0.1,0.22-0.16,0.45-0.16,0.7c0,0.17,0.04,0.32,0.13,0.44c0.09,0.12,0.21,0.18,0.37,0.18c0.08,0,0.17-0.02,0.27-0.06
		s0.23-0.11,0.39-0.21L106.24,91.06z"/>
	<path class="st4" d="M110.14,88.84l-0.76,5.16h-1.26l0.76-5.16H110.14z"/>
	<path class="st4" d="M116.99,88.84l-0.73,5.11c-0.5,0.08-0.95,0.12-1.36,0.12c-0.7,0-1.24-0.17-1.63-0.5s-0.58-0.78-0.58-1.35
		c0-0.22,0.04-0.45,0.13-0.69c0.08-0.24,0.22-0.47,0.41-0.68s0.43-0.38,0.73-0.52c0.3-0.13,0.66-0.2,1.09-0.2
		c0.16,0,0.33,0.01,0.51,0.03l0.2-1.33H116.99z M115.42,91.18c-0.03,0-0.07,0-0.12,0c-0.34,0-0.61,0.06-0.8,0.19
		c-0.2,0.13-0.33,0.28-0.4,0.44c-0.07,0.17-0.11,0.31-0.11,0.44c0,0.12,0.03,0.24,0.09,0.37s0.16,0.22,0.3,0.3s0.31,0.12,0.53,0.12
		c0.1,0,0.18-0.01,0.24-0.02L115.42,91.18z"/>
	<path class="st4" d="M120.94,91.88c0,0.18-0.02,0.36-0.05,0.56h-2.4c0,0.52,0.26,0.79,0.77,0.79c0.26,0,0.49-0.03,0.69-0.09
		s0.44-0.15,0.72-0.26l-0.19,0.93c-0.27,0.11-0.48,0.18-0.64,0.22s-0.36,0.06-0.61,0.06c-0.52,0-0.92-0.1-1.22-0.29
		c-0.3-0.19-0.5-0.42-0.6-0.69c-0.11-0.27-0.16-0.53-0.16-0.79c0-0.39,0.09-0.75,0.27-1.08c0.18-0.33,0.42-0.6,0.74-0.79
		s0.67-0.29,1.06-0.29c0.3,0,0.57,0.06,0.81,0.19c0.24,0.13,0.44,0.32,0.59,0.58C120.87,91.18,120.94,91.5,120.94,91.88z
		 M119.74,91.77c0-0.02,0-0.03,0-0.05c0-0.02,0-0.04,0-0.07c0-0.43-0.15-0.64-0.44-0.64c-0.18,0-0.32,0.07-0.42,0.21
		c-0.1,0.14-0.2,0.33-0.29,0.55H119.74z"/>
	<path class="st4" d="M127.61,90.22l-0.12,0.85h-0.54c0.07,0.19,0.1,0.37,0.1,0.54c0,0.26-0.06,0.49-0.19,0.69s-0.31,0.36-0.56,0.47
		c-0.25,0.11-0.55,0.17-0.91,0.17h-0.22c-0.12,0-0.22,0.02-0.29,0.06c-0.07,0.04-0.11,0.1-0.11,0.17c0,0.06,0.02,0.11,0.05,0.14
		c0.04,0.03,0.12,0.06,0.25,0.09c0.13,0.03,0.35,0.07,0.66,0.13c0.88,0.16,1.33,0.53,1.33,1.11c0,0.19-0.05,0.37-0.14,0.54
		c-0.09,0.17-0.28,0.32-0.57,0.45c-0.29,0.13-0.69,0.19-1.22,0.19c-0.29,0-0.55-0.01-0.78-0.04c-0.23-0.03-0.43-0.07-0.6-0.14
		s-0.3-0.17-0.39-0.29c-0.09-0.13-0.14-0.29-0.14-0.48c0-0.37,0.28-0.65,0.85-0.84c-0.14-0.08-0.25-0.17-0.34-0.26
		c-0.09-0.09-0.13-0.22-0.13-0.38c0-0.36,0.27-0.58,0.82-0.66c-0.23-0.09-0.4-0.25-0.53-0.48c-0.13-0.22-0.19-0.45-0.19-0.67
		c0-0.14,0.03-0.29,0.08-0.45c0.05-0.15,0.15-0.3,0.28-0.44c0.13-0.14,0.3-0.25,0.51-0.33c0.21-0.08,0.46-0.12,0.77-0.12H127.61z
		 M125.91,94.8c0-0.12-0.06-0.2-0.17-0.24s-0.35-0.09-0.7-0.13l-0.24-0.03c-0.18,0.07-0.3,0.13-0.36,0.18
		c-0.06,0.05-0.09,0.11-0.09,0.19c0,0.11,0.07,0.19,0.2,0.24c0.13,0.05,0.34,0.08,0.63,0.08c0.28,0,0.48-0.02,0.58-0.07
		C125.86,94.96,125.91,94.89,125.91,94.8z M125.9,91.45c0-0.17-0.04-0.29-0.12-0.38c-0.08-0.09-0.19-0.13-0.33-0.13
		c-0.21,0-0.36,0.09-0.44,0.26c-0.08,0.17-0.12,0.33-0.12,0.49c0,0.17,0.04,0.3,0.13,0.39c0.09,0.09,0.2,0.14,0.32,0.14
		c0.2,0,0.34-0.08,0.43-0.24C125.85,91.81,125.9,91.63,125.9,91.45z"/>
	<path class="st4" d="M131.24,90.54l-0.58,1.2c-0.07-0.12-0.14-0.22-0.22-0.3s-0.19-0.12-0.31-0.12c-0.24,0-0.47,0.18-0.67,0.53
		l-0.32,2.17h-1.23l0.57-3.79h1.23l-0.08,0.54c0.34-0.41,0.64-0.61,0.91-0.61c0.14,0,0.26,0.03,0.37,0.1S131.12,90.41,131.24,90.54z
		"/>
	<path class="st4" d="M135.37,90.22l-0.57,3.79h-1.24l0.06-0.44c-0.05,0.03-0.13,0.09-0.23,0.16c-0.1,0.07-0.2,0.13-0.29,0.18
		c-0.09,0.04-0.2,0.08-0.33,0.12c-0.13,0.04-0.26,0.05-0.4,0.05c-0.27,0-0.48-0.06-0.63-0.18c-0.16-0.12-0.27-0.27-0.33-0.45
		c-0.06-0.18-0.09-0.35-0.09-0.52c0-0.08,0.01-0.22,0.04-0.42l0.34-2.29h1.23l-0.34,2.37c0,0.03-0.01,0.07-0.01,0.13
		c0,0.24,0.1,0.36,0.31,0.36c0.13,0,0.26-0.04,0.38-0.13s0.29-0.23,0.51-0.43l0.33-2.3H135.37z"/>
	<path class="st4" d="M140.07,91.91c0,0.39-0.08,0.75-0.25,1.08c-0.17,0.33-0.41,0.59-0.73,0.79c-0.32,0.2-0.69,0.29-1.1,0.29
		c-0.12,0-0.24-0.01-0.34-0.03c-0.11-0.02-0.22-0.05-0.34-0.09l-0.28,1.78h-1.24l0.6-3.95l-0.52,0.62
		c-0.05,0.05-0.08,0.09-0.11,0.11c-0.02,0.02-0.05,0.03-0.08,0.03c-0.08,0-0.12-0.05-0.12-0.15c0-0.12,0.04-0.26,0.13-0.44
		c0.09-0.18,0.19-0.34,0.3-0.48c0.11-0.14,0.28-0.32,0.52-0.53l0.21-1.4h1.23l-0.1,0.67c0.08-0.02,0.17-0.04,0.26-0.04
		c0.09-0.02,0.18-0.02,0.27-0.02c0.28,0,0.52,0.05,0.74,0.14c0.21,0.09,0.39,0.22,0.53,0.38c0.14,0.16,0.25,0.35,0.31,0.56
		S140.07,91.66,140.07,91.91z M138.77,91.9c0-0.25-0.06-0.45-0.18-0.61c-0.12-0.16-0.31-0.24-0.59-0.24c-0.1,0-0.19,0.01-0.28,0.03
		l-0.3,1.97c0.09,0.02,0.19,0.04,0.29,0.04c0.25,0,0.46-0.06,0.62-0.18c0.16-0.12,0.27-0.27,0.33-0.45
		C138.74,92.27,138.77,92.08,138.77,91.9z"/>
	<path class="st4" d="M144.66,91.97c0,0.3-0.05,0.58-0.16,0.84c-0.11,0.26-0.26,0.49-0.45,0.67c-0.19,0.19-0.42,0.33-0.68,0.43
		s-0.54,0.15-0.83,0.15c-0.34,0-0.66-0.07-0.96-0.23s-0.53-0.37-0.7-0.65s-0.26-0.6-0.26-0.96c0-0.28,0.06-0.54,0.17-0.8
		c0.11-0.25,0.27-0.48,0.47-0.67c0.2-0.19,0.43-0.35,0.7-0.46c0.27-0.11,0.55-0.16,0.86-0.16c0.32,0,0.62,0.07,0.9,0.2
		c0.28,0.14,0.51,0.34,0.68,0.61S144.66,91.57,144.66,91.97z M143.39,91.95c0-0.23-0.06-0.41-0.18-0.54
		c-0.12-0.13-0.28-0.19-0.47-0.19c-0.2,0-0.36,0.06-0.49,0.18s-0.22,0.26-0.28,0.42s-0.09,0.32-0.09,0.46
		c0,0.21,0.06,0.38,0.18,0.52s0.28,0.21,0.49,0.21c0.16,0,0.31-0.05,0.44-0.16c0.13-0.1,0.23-0.24,0.3-0.4
		C143.36,92.28,143.39,92.12,143.39,91.95z"/>
	<path class="st4" d="M151.12,91.88c0,0.18-0.02,0.36-0.05,0.56h-2.4c0,0.52,0.26,0.79,0.77,0.79c0.26,0,0.49-0.03,0.69-0.09
		s0.44-0.15,0.72-0.26l-0.19,0.93c-0.27,0.11-0.48,0.18-0.64,0.22s-0.36,0.06-0.61,0.06c-0.52,0-0.92-0.1-1.22-0.29
		c-0.3-0.19-0.5-0.42-0.6-0.69c-0.11-0.27-0.16-0.53-0.16-0.79c0-0.39,0.09-0.75,0.27-1.08c0.18-0.33,0.42-0.6,0.74-0.79
		s0.67-0.29,1.06-0.29c0.3,0,0.57,0.06,0.81,0.19c0.24,0.13,0.44,0.32,0.59,0.58C151.05,91.18,151.12,91.5,151.12,91.88z
		 M149.92,91.77c0-0.02,0-0.03,0-0.05c0-0.02,0-0.04,0-0.07c0-0.43-0.15-0.64-0.44-0.64c-0.18,0-0.32,0.07-0.42,0.21
		c-0.1,0.14-0.2,0.33-0.29,0.55H149.92z"/>
	<path class="st4" d="M154.36,90.5l-0.09,0.89c-0.18-0.09-0.39-0.17-0.61-0.25c-0.22-0.07-0.4-0.11-0.53-0.11
		c-0.17,0-0.25,0.06-0.25,0.18c0,0.07,0.03,0.13,0.08,0.18s0.14,0.12,0.25,0.21c0.12,0.08,0.23,0.16,0.32,0.24
		c0.25,0.21,0.42,0.4,0.5,0.56c0.09,0.17,0.13,0.32,0.13,0.47c0,0.19-0.05,0.37-0.16,0.56s-0.28,0.34-0.5,0.46
		c-0.22,0.12-0.49,0.18-0.81,0.18c-0.13,0-0.31-0.02-0.54-0.07c-0.24-0.05-0.48-0.13-0.73-0.27l0.16-0.87
		c0.28,0.11,0.49,0.19,0.64,0.24c0.15,0.05,0.31,0.08,0.48,0.08c0.1,0,0.18-0.02,0.24-0.07s0.08-0.1,0.08-0.16
		c0-0.07-0.04-0.15-0.12-0.22s-0.23-0.19-0.46-0.36c-0.21-0.16-0.38-0.33-0.52-0.5c-0.14-0.18-0.21-0.37-0.21-0.59
		c0-0.3,0.12-0.57,0.37-0.8c0.24-0.23,0.6-0.35,1.07-0.35c0.25,0,0.46,0.03,0.65,0.09S154.16,90.39,154.36,90.5z"/>
	<path class="st4" d="M163.1,91.28c0,0.1-0.02,0.27-0.05,0.52l-0.32,2.21h-1.25l0.33-2.24c0.01-0.11,0.02-0.2,0.02-0.26
		c0-0.26-0.09-0.39-0.28-0.39c-0.18,0-0.43,0.13-0.73,0.4l-0.35,2.49h-1.24l0.31-2.13c0.03-0.23,0.05-0.38,0.05-0.44
		c0-0.11-0.02-0.19-0.06-0.24c-0.04-0.05-0.11-0.08-0.21-0.08c-0.11,0-0.22,0.04-0.33,0.12c-0.12,0.08-0.26,0.2-0.43,0.37l-0.34,2.4
		h-1.24l0.56-3.79h1.24l-0.07,0.44c0.13-0.13,0.29-0.24,0.49-0.35s0.41-0.16,0.64-0.16c0.43,0,0.74,0.19,0.92,0.56
		c0.09-0.09,0.19-0.18,0.31-0.26s0.25-0.15,0.4-0.21c0.15-0.06,0.32-0.09,0.5-0.09c0.44,0,0.74,0.12,0.9,0.36
		C163.02,90.75,163.1,91,163.1,91.28z"/>
	<path class="st4" d="M167.82,90.22l-0.57,3.79h-1.24l0.06-0.44c-0.05,0.03-0.13,0.09-0.23,0.16c-0.1,0.07-0.2,0.13-0.29,0.18
		c-0.09,0.04-0.2,0.08-0.33,0.12c-0.13,0.04-0.26,0.05-0.4,0.05c-0.27,0-0.48-0.06-0.63-0.18c-0.16-0.12-0.27-0.27-0.33-0.45
		c-0.06-0.18-0.09-0.35-0.09-0.52c0-0.08,0.01-0.22,0.04-0.42l0.34-2.29h1.23l-0.34,2.37c0,0.03-0.01,0.07-0.01,0.13
		c0,0.24,0.1,0.36,0.31,0.36c0.13,0,0.26-0.04,0.38-0.13s0.29-0.23,0.51-0.43l0.33-2.3H167.82z"/>
	<path class="st4" d="M172.27,90.22l-2.7,5.52h-1.2l1-2.04l-1.21-3.48h1.15l0.73,2.1l1.02-2.1H172.27z"/>
	<path class="st4" d="M178.57,91.93c0,0.42-0.09,0.8-0.28,1.12c-0.18,0.32-0.46,0.58-0.84,0.76c-0.38,0.18-0.84,0.27-1.39,0.27
		c-0.14,0-0.3,0-0.48-0.01c-0.19-0.01-0.36-0.02-0.52-0.04s-0.36-0.05-0.61-0.08l0.74-5.09h1.24l-0.25,1.74
		c0.25-0.29,0.56-0.43,0.92-0.43c0.19,0,0.38,0.04,0.55,0.13c0.18,0.09,0.33,0.21,0.47,0.36s0.25,0.34,0.33,0.57
		S178.57,91.67,178.57,91.93z M177.28,91.93c0-0.24-0.05-0.42-0.17-0.53c-0.11-0.11-0.24-0.17-0.4-0.17c-0.25,0-0.48,0.13-0.7,0.4
		l-0.21,1.39c0.08,0.01,0.2,0.01,0.36,0.01C176.91,93.04,177.28,92.67,177.28,91.93z"/>
	<path class="st4" d="M183.17,91.97c0,0.3-0.05,0.58-0.16,0.84c-0.11,0.26-0.26,0.49-0.45,0.67c-0.19,0.19-0.42,0.33-0.68,0.43
		s-0.54,0.15-0.83,0.15c-0.34,0-0.66-0.07-0.96-0.23s-0.53-0.37-0.7-0.65s-0.26-0.6-0.26-0.96c0-0.28,0.06-0.54,0.17-0.8
		c0.11-0.25,0.27-0.48,0.47-0.67c0.2-0.19,0.43-0.35,0.7-0.46c0.27-0.11,0.55-0.16,0.86-0.16c0.32,0,0.62,0.07,0.9,0.2
		c0.28,0.14,0.51,0.34,0.68,0.61S183.17,91.57,183.17,91.97z M181.91,91.95c0-0.23-0.06-0.41-0.18-0.54
		c-0.12-0.13-0.28-0.19-0.47-0.19c-0.2,0-0.36,0.06-0.49,0.18s-0.22,0.26-0.28,0.42s-0.09,0.32-0.09,0.46
		c0,0.21,0.06,0.38,0.18,0.52s0.28,0.21,0.49,0.21c0.16,0,0.31-0.05,0.44-0.16c0.13-0.1,0.23-0.24,0.3-0.4
		C181.87,92.28,181.91,92.12,181.91,91.95z"/>
	<path class="st4" d="M187.72,91.3c0,0.07-0.01,0.21-0.04,0.42l-0.34,2.29h-1.23l0.34-2.37c0-0.03,0.01-0.07,0.01-0.13
		c0-0.24-0.1-0.36-0.31-0.36c-0.13,0-0.25,0.04-0.38,0.13s-0.29,0.23-0.51,0.43l-0.33,2.29h-1.24l0.57-3.79h1.24l-0.06,0.44
		c0.23-0.16,0.43-0.29,0.6-0.38c0.17-0.09,0.39-0.13,0.64-0.13c0.39,0,0.66,0.12,0.82,0.36C187.64,90.75,187.72,91.01,187.72,91.3z"
		/>
	<path class="st4" d="M190.16,90.22l-0.54,3.79h-1.26l0.54-3.79H190.16z M190.23,89.35c0,0.16-0.06,0.29-0.17,0.4
		c-0.11,0.11-0.25,0.17-0.41,0.17c-0.16,0-0.29-0.06-0.4-0.17c-0.11-0.11-0.17-0.25-0.17-0.4c0-0.16,0.06-0.29,0.17-0.4
		c0.11-0.11,0.25-0.17,0.4-0.17c0.1,0,0.19,0.03,0.28,0.08c0.09,0.05,0.16,0.12,0.21,0.21C190.21,89.15,190.23,89.25,190.23,89.35z"
		/>
	<path class="st4" d="M193.48,90.22l-0.2,0.93h-0.73l-0.25,1.24c-0.02,0.1-0.03,0.19-0.03,0.25c0,0.21,0.09,0.32,0.28,0.32
		c0.2,0,0.45-0.11,0.73-0.32l-0.07,1.15c-0.34,0.2-0.7,0.3-1.07,0.3c-0.16,0-0.32-0.03-0.48-0.09s-0.3-0.17-0.43-0.32
		c-0.15-0.18-0.23-0.42-0.23-0.72c0-0.13,0.01-0.27,0.04-0.41l0.26-1.39h-0.7l0.17-0.93h0.71l0.15-0.76h1.25l-0.15,0.76H193.48z"/>
	<path class="st4" d="M197.88,91.97c0,0.3-0.05,0.58-0.16,0.84c-0.11,0.26-0.26,0.49-0.45,0.67c-0.19,0.19-0.42,0.33-0.68,0.43
		s-0.54,0.15-0.83,0.15c-0.34,0-0.66-0.07-0.96-0.23s-0.53-0.37-0.7-0.65s-0.26-0.6-0.26-0.96c0-0.28,0.06-0.54,0.17-0.8
		c0.11-0.25,0.27-0.48,0.47-0.67c0.2-0.19,0.43-0.35,0.7-0.46c0.27-0.11,0.55-0.16,0.86-0.16c0.32,0,0.62,0.07,0.9,0.2
		c0.28,0.14,0.51,0.34,0.68,0.61S197.88,91.57,197.88,91.97z M196.61,91.95c0-0.23-0.06-0.41-0.18-0.54
		c-0.12-0.13-0.28-0.19-0.47-0.19c-0.2,0-0.36,0.06-0.49,0.18s-0.22,0.26-0.28,0.42s-0.09,0.32-0.09,0.46
		c0,0.21,0.06,0.38,0.18,0.52s0.28,0.21,0.49,0.21c0.16,0,0.31-0.05,0.44-0.16c0.13-0.1,0.23-0.24,0.3-0.4
		C196.58,92.28,196.61,92.12,196.61,91.95z"/>
	<path class="st4" d="M199.98,93.53c0,0.13-0.02,0.26-0.06,0.38c-0.04,0.13-0.1,0.25-0.18,0.38c-0.08,0.13-0.18,0.24-0.31,0.35
		s-0.28,0.2-0.46,0.29c-0.11,0.05-0.24,0.1-0.37,0.13s-0.27,0.05-0.41,0.06s-0.3,0.02-0.48,0.02l0.1-0.4
		c0.22-0.02,0.39-0.06,0.52-0.12c0.13-0.06,0.24-0.13,0.32-0.23c0.08-0.09,0.16-0.21,0.22-0.35c-0.17-0.04-0.32-0.11-0.46-0.21
		s-0.21-0.28-0.21-0.53c0-0.23,0.08-0.42,0.24-0.57c0.16-0.15,0.36-0.22,0.58-0.22c0.27,0,0.49,0.09,0.67,0.28
		C199.9,92.99,199.98,93.23,199.98,93.53z"/>
	<path class="st4" d="M206.94,91.3c0,0.07-0.01,0.21-0.04,0.42l-0.34,2.29h-1.23l0.34-2.37c0-0.03,0.01-0.07,0.01-0.13
		c0-0.24-0.1-0.36-0.31-0.36c-0.13,0-0.25,0.04-0.38,0.13s-0.29,0.23-0.51,0.43l-0.33,2.29h-1.24l0.57-3.79h1.24l-0.06,0.44
		c0.23-0.16,0.43-0.29,0.6-0.38c0.17-0.09,0.39-0.13,0.64-0.13c0.39,0,0.66,0.12,0.82,0.36C206.86,90.75,206.94,91.01,206.94,91.3z"
		/>
	<path class="st4" d="M211.61,91.97c0,0.3-0.05,0.58-0.16,0.84c-0.11,0.26-0.26,0.49-0.45,0.67c-0.19,0.19-0.42,0.33-0.68,0.43
		s-0.54,0.15-0.83,0.15c-0.34,0-0.66-0.07-0.96-0.23s-0.53-0.37-0.7-0.65s-0.26-0.6-0.26-0.96c0-0.28,0.06-0.54,0.17-0.8
		c0.11-0.25,0.27-0.48,0.47-0.67c0.2-0.19,0.43-0.35,0.7-0.46c0.27-0.11,0.55-0.16,0.86-0.16c0.32,0,0.62,0.07,0.9,0.2
		c0.28,0.14,0.51,0.34,0.68,0.61S211.61,91.57,211.61,91.97z M210.34,91.95c0-0.23-0.06-0.41-0.18-0.54
		c-0.12-0.13-0.28-0.19-0.47-0.19c-0.2,0-0.36,0.06-0.49,0.18s-0.22,0.26-0.28,0.42s-0.09,0.32-0.09,0.46
		c0,0.21,0.06,0.38,0.18,0.52s0.28,0.21,0.49,0.21c0.16,0,0.31-0.05,0.44-0.16c0.13-0.1,0.23-0.24,0.3-0.4
		C210.3,92.28,210.34,92.12,210.34,91.95z"/>
	<path class="st4" d="M29.15,99.37l-0.2,0.93h-0.73l-0.25,1.24c-0.02,0.1-0.03,0.19-0.03,0.25c0,0.21,0.09,0.32,0.28,0.32
		c0.2,0,0.45-0.11,0.73-0.32l-0.07,1.15c-0.34,0.2-0.7,0.3-1.07,0.3c-0.16,0-0.32-0.03-0.48-0.09c-0.16-0.06-0.3-0.17-0.43-0.32
		c-0.15-0.18-0.23-0.42-0.23-0.72c0-0.13,0.01-0.27,0.04-0.41l0.26-1.39h-0.7l0.17-0.93h0.71l0.15-0.76h1.25l-0.15,0.76H29.15z"/>
	<path class="st4" d="M33.18,101.04c0,0.18-0.02,0.36-0.05,0.56h-2.4c0,0.52,0.26,0.79,0.77,0.79c0.26,0,0.48-0.03,0.69-0.09
		c0.2-0.06,0.44-0.15,0.72-0.26l-0.19,0.93c-0.27,0.11-0.48,0.18-0.64,0.22s-0.36,0.06-0.61,0.06c-0.52,0-0.92-0.1-1.22-0.29
		c-0.3-0.19-0.5-0.42-0.6-0.69c-0.11-0.27-0.16-0.53-0.16-0.79c0-0.39,0.09-0.75,0.27-1.08c0.18-0.33,0.42-0.6,0.74-0.79
		s0.67-0.29,1.06-0.29c0.3,0,0.57,0.06,0.81,0.19s0.44,0.32,0.59,0.58C33.11,100.34,33.18,100.66,33.18,101.04z M31.98,100.92
		c0-0.02,0-0.03,0-0.05c0-0.02,0-0.04,0-0.07c0-0.43-0.15-0.64-0.44-0.64c-0.18,0-0.32,0.07-0.42,0.21c-0.1,0.14-0.2,0.33-0.29,0.55
		H31.98z"/>
	<path class="st4" d="M40.15,101.07c0,0.39-0.08,0.75-0.25,1.08c-0.17,0.33-0.41,0.59-0.73,0.79c-0.32,0.2-0.69,0.29-1.1,0.29
		c-0.12,0-0.24-0.01-0.34-0.03c-0.11-0.02-0.22-0.05-0.34-0.09l-0.28,1.78h-1.24l0.6-3.95l-0.52,0.62
		c-0.05,0.05-0.08,0.09-0.11,0.11c-0.02,0.02-0.05,0.03-0.08,0.03c-0.08,0-0.12-0.05-0.12-0.15c0-0.12,0.04-0.26,0.13-0.44
		c0.09-0.18,0.19-0.34,0.3-0.48c0.11-0.14,0.28-0.32,0.52-0.53l0.21-1.4h1.23l-0.1,0.67c0.08-0.02,0.17-0.04,0.26-0.04
		c0.09-0.02,0.18-0.02,0.27-0.02c0.28,0,0.52,0.05,0.74,0.14c0.21,0.09,0.39,0.22,0.53,0.38c0.14,0.16,0.25,0.35,0.31,0.56
		S40.15,100.82,40.15,101.07z M38.85,101.05c0-0.25-0.06-0.45-0.18-0.61c-0.12-0.16-0.31-0.24-0.59-0.24c-0.1,0-0.19,0.01-0.28,0.03
		l-0.3,1.97c0.09,0.02,0.19,0.04,0.29,0.04c0.25,0,0.46-0.06,0.62-0.18c0.16-0.12,0.27-0.27,0.33-0.45
		C38.82,101.43,38.85,101.24,38.85,101.05z"/>
	<path class="st4" d="M43.98,99.69l-0.58,1.2c-0.07-0.12-0.14-0.22-0.22-0.3s-0.19-0.12-0.31-0.12c-0.24,0-0.47,0.18-0.67,0.53
		l-0.32,2.17h-1.23l0.57-3.79h1.23l-0.08,0.54c0.34-0.41,0.64-0.61,0.91-0.61c0.14,0,0.26,0.03,0.37,0.1S43.85,99.57,43.98,99.69z"
		/>
	<path class="st4" d="M47.56,101.04c0,0.18-0.02,0.36-0.05,0.56h-2.4c0,0.52,0.26,0.79,0.77,0.79c0.26,0,0.49-0.03,0.69-0.09
		s0.44-0.15,0.72-0.26l-0.19,0.93c-0.27,0.11-0.48,0.18-0.64,0.22s-0.36,0.06-0.61,0.06c-0.52,0-0.92-0.1-1.22-0.29
		c-0.3-0.19-0.5-0.42-0.6-0.69c-0.11-0.27-0.16-0.53-0.16-0.79c0-0.39,0.09-0.75,0.27-1.08c0.18-0.33,0.42-0.6,0.74-0.79
		s0.67-0.29,1.06-0.29c0.3,0,0.57,0.06,0.81,0.19c0.24,0.13,0.44,0.32,0.59,0.58C47.49,100.34,47.56,100.66,47.56,101.04z
		 M46.36,100.92c0-0.02,0-0.03,0-0.05c0-0.02,0-0.04,0-0.07c0-0.43-0.15-0.64-0.44-0.64c-0.18,0-0.32,0.07-0.42,0.21
		c-0.1,0.14-0.2,0.33-0.29,0.55H46.36z"/>
	<path class="st4" d="M52.15,101.13c0,0.3-0.05,0.58-0.16,0.84c-0.11,0.26-0.26,0.49-0.45,0.67c-0.19,0.19-0.42,0.33-0.68,0.43
		s-0.54,0.15-0.83,0.15c-0.34,0-0.66-0.07-0.96-0.23s-0.53-0.37-0.7-0.65s-0.26-0.6-0.26-0.96c0-0.28,0.06-0.54,0.17-0.8
		c0.11-0.25,0.27-0.48,0.47-0.67c0.2-0.19,0.43-0.35,0.7-0.46c0.27-0.11,0.55-0.16,0.86-0.16c0.32,0,0.62,0.07,0.9,0.2
		c0.28,0.14,0.51,0.34,0.68,0.61S52.15,100.73,52.15,101.13z M50.88,101.1c0-0.23-0.06-0.41-0.18-0.54
		c-0.12-0.13-0.28-0.19-0.47-0.19c-0.2,0-0.36,0.06-0.49,0.18s-0.22,0.26-0.28,0.42s-0.09,0.32-0.09,0.46
		c0,0.21,0.06,0.38,0.18,0.52s0.28,0.21,0.49,0.21c0.16,0,0.31-0.05,0.44-0.16c0.13-0.1,0.23-0.24,0.3-0.4
		C50.85,101.44,50.88,101.27,50.88,101.1z"/>
	<path class="st4" d="M56.27,99.44l-0.17,1.17c-0.24-0.08-0.4-0.13-0.46-0.14c-0.14-0.03-0.29-0.05-0.44-0.05
		c-0.29,0-0.52,0.05-0.7,0.16c-0.18,0.11-0.31,0.24-0.39,0.4s-0.12,0.3-0.12,0.43c0,0.17,0.06,0.33,0.17,0.48
		c0.11,0.16,0.34,0.23,0.69,0.23c0.18,0,0.35-0.02,0.53-0.07c0.17-0.05,0.41-0.14,0.7-0.28l-0.2,1.27
		c-0.16,0.05-0.28,0.09-0.38,0.11s-0.2,0.04-0.31,0.05s-0.23,0.02-0.35,0.02c-0.81,0-1.37-0.2-1.67-0.59
		c-0.3-0.39-0.45-0.81-0.45-1.24c0-0.28,0.07-0.58,0.22-0.9c0.14-0.32,0.4-0.6,0.76-0.84c0.36-0.24,0.85-0.36,1.46-0.36
		C55.5,99.3,55.87,99.35,56.27,99.44z"/>
	<path class="st4" d="M60.67,99.37l-0.57,3.79h-1.24l0.06-0.44c-0.05,0.03-0.13,0.09-0.23,0.16c-0.1,0.07-0.2,0.13-0.29,0.18
		c-0.09,0.04-0.2,0.08-0.33,0.12c-0.13,0.04-0.26,0.05-0.4,0.05c-0.27,0-0.48-0.06-0.63-0.18c-0.16-0.12-0.27-0.27-0.33-0.45
		c-0.06-0.18-0.09-0.35-0.09-0.52c0-0.08,0.01-0.22,0.04-0.42l0.34-2.29h1.23l-0.34,2.37c0,0.03-0.01,0.07-0.01,0.13
		c0,0.24,0.1,0.36,0.31,0.36c0.13,0,0.26-0.04,0.38-0.13s0.29-0.23,0.51-0.43l0.33-2.3H60.67z"/>
	<path class="st4" d="M65.38,101.07c0,0.39-0.08,0.75-0.25,1.08c-0.17,0.33-0.41,0.59-0.73,0.79c-0.32,0.2-0.69,0.29-1.1,0.29
		c-0.12,0-0.24-0.01-0.34-0.03c-0.11-0.02-0.22-0.05-0.34-0.09l-0.28,1.78H61.1l0.6-3.95l-0.52,0.62c-0.05,0.05-0.08,0.09-0.11,0.11
		c-0.02,0.02-0.05,0.03-0.08,0.03c-0.08,0-0.12-0.05-0.12-0.15c0-0.12,0.04-0.26,0.13-0.44c0.09-0.18,0.19-0.34,0.3-0.48
		c0.11-0.14,0.28-0.32,0.52-0.53l0.21-1.4h1.23l-0.1,0.67c0.08-0.02,0.17-0.04,0.26-0.04c0.09-0.02,0.18-0.02,0.27-0.02
		c0.28,0,0.52,0.05,0.74,0.14c0.21,0.09,0.39,0.22,0.53,0.38c0.14,0.16,0.25,0.35,0.31,0.56S65.38,100.82,65.38,101.07z
		 M64.08,101.05c0-0.25-0.06-0.45-0.18-0.61c-0.12-0.16-0.31-0.24-0.59-0.24c-0.1,0-0.19,0.01-0.28,0.03l-0.3,1.97
		c0.09,0.02,0.19,0.04,0.29,0.04c0.25,0,0.46-0.06,0.62-0.18c0.16-0.12,0.27-0.27,0.33-0.45C64.05,101.43,64.08,101.24,64.08,101.05
		z"/>
	<path class="st4" d="M69.59,101.04c0,0.18-0.02,0.36-0.05,0.56h-2.4c0,0.52,0.26,0.79,0.77,0.79c0.26,0,0.49-0.03,0.69-0.09
		s0.44-0.15,0.72-0.26l-0.19,0.93c-0.27,0.11-0.48,0.18-0.64,0.22s-0.36,0.06-0.61,0.06c-0.52,0-0.92-0.1-1.22-0.29
		c-0.3-0.19-0.5-0.42-0.6-0.69c-0.11-0.27-0.16-0.53-0.16-0.79c0-0.39,0.09-0.75,0.27-1.08c0.18-0.33,0.42-0.6,0.74-0.79
		s0.67-0.29,1.06-0.29c0.3,0,0.57,0.06,0.81,0.19c0.24,0.13,0.44,0.32,0.59,0.58C69.52,100.34,69.59,100.66,69.59,101.04z
		 M68.39,100.92c0-0.02,0-0.03,0-0.05c0-0.02,0-0.04,0-0.07c0-0.43-0.15-0.64-0.44-0.64c-0.18,0-0.32,0.07-0.42,0.21
		c-0.1,0.14-0.2,0.33-0.29,0.55H68.39z"/>
	<path class="st4" d="M72.83,99.65l-0.09,0.89c-0.18-0.09-0.39-0.17-0.61-0.25c-0.22-0.07-0.4-0.11-0.53-0.11
		c-0.17,0-0.25,0.06-0.25,0.18c0,0.07,0.03,0.13,0.08,0.18s0.14,0.12,0.25,0.21c0.12,0.08,0.23,0.16,0.32,0.24
		c0.25,0.21,0.42,0.4,0.5,0.56c0.09,0.17,0.13,0.32,0.13,0.47c0,0.19-0.05,0.37-0.16,0.56s-0.28,0.34-0.5,0.46
		c-0.22,0.12-0.49,0.18-0.81,0.18c-0.13,0-0.31-0.02-0.54-0.07c-0.24-0.05-0.48-0.13-0.73-0.27l0.16-0.87
		c0.28,0.11,0.49,0.19,0.64,0.24c0.15,0.05,0.31,0.08,0.48,0.08c0.1,0,0.18-0.02,0.24-0.07s0.08-0.1,0.08-0.16
		c0-0.07-0.04-0.15-0.12-0.22s-0.23-0.19-0.46-0.36c-0.21-0.16-0.38-0.33-0.52-0.5c-0.14-0.18-0.21-0.37-0.21-0.59
		c0-0.3,0.12-0.57,0.37-0.8c0.24-0.23,0.6-0.35,1.07-0.35c0.25,0,0.46,0.03,0.65,0.09S72.63,99.54,72.83,99.65z"/>
	<path class="st4" d="M78.2,99.65l-0.09,0.89c-0.18-0.09-0.39-0.17-0.61-0.25c-0.22-0.07-0.4-0.11-0.53-0.11
		c-0.17,0-0.25,0.06-0.25,0.18c0,0.07,0.03,0.13,0.08,0.18s0.14,0.12,0.25,0.21c0.12,0.08,0.23,0.16,0.32,0.24
		c0.25,0.21,0.42,0.4,0.5,0.56c0.09,0.17,0.13,0.32,0.13,0.47c0,0.19-0.05,0.37-0.16,0.56s-0.28,0.34-0.5,0.46
		c-0.22,0.12-0.49,0.18-0.81,0.18c-0.13,0-0.31-0.02-0.54-0.07c-0.24-0.05-0.48-0.13-0.73-0.27l0.16-0.87
		c0.28,0.11,0.49,0.19,0.64,0.24c0.15,0.05,0.31,0.08,0.48,0.08c0.1,0,0.18-0.02,0.24-0.07s0.08-0.1,0.08-0.16
		c0-0.07-0.04-0.15-0.12-0.22s-0.23-0.19-0.46-0.36c-0.21-0.16-0.38-0.33-0.52-0.5c-0.14-0.18-0.21-0.37-0.21-0.59
		c0-0.3,0.12-0.57,0.37-0.8c0.24-0.23,0.6-0.35,1.07-0.35c0.25,0,0.46,0.03,0.65,0.09S78,99.54,78.2,99.65z"/>
	<path class="st4" d="M80.46,99.37l-0.54,3.79h-1.26l0.54-3.79H80.46z M80.53,98.5c0,0.16-0.06,0.29-0.17,0.4
		c-0.11,0.11-0.25,0.17-0.41,0.17c-0.16,0-0.29-0.06-0.4-0.17c-0.11-0.11-0.17-0.25-0.17-0.4c0-0.16,0.06-0.29,0.17-0.4
		c0.11-0.11,0.25-0.17,0.4-0.17c0.1,0,0.19,0.03,0.28,0.08c0.09,0.05,0.16,0.12,0.21,0.21C80.51,98.31,80.53,98.4,80.53,98.5z"/>
	<path class="st4" d="M87.23,100.46c0,0.07-0.01,0.21-0.04,0.42l-0.34,2.29h-1.23l0.34-2.37c0-0.03,0.01-0.07,0.01-0.13
		c0-0.24-0.1-0.36-0.31-0.36c-0.13,0-0.25,0.04-0.38,0.13s-0.29,0.23-0.51,0.43l-0.33,2.29h-1.24l0.57-3.79H85l-0.06,0.44
		c0.23-0.16,0.43-0.29,0.6-0.38c0.17-0.09,0.39-0.13,0.64-0.13c0.39,0,0.66,0.12,0.82,0.36C87.15,99.9,87.23,100.17,87.23,100.46z"
		/>
	<path class="st4" d="M91.9,101.13c0,0.3-0.05,0.58-0.16,0.84c-0.11,0.26-0.26,0.49-0.45,0.67c-0.19,0.19-0.42,0.33-0.68,0.43
		s-0.54,0.15-0.83,0.15c-0.34,0-0.66-0.07-0.96-0.23s-0.53-0.37-0.7-0.65s-0.26-0.6-0.26-0.96c0-0.28,0.06-0.54,0.17-0.8
		c0.11-0.25,0.27-0.48,0.47-0.67c0.2-0.19,0.43-0.35,0.7-0.46c0.27-0.11,0.55-0.16,0.86-0.16c0.32,0,0.62,0.07,0.9,0.2
		c0.28,0.14,0.51,0.34,0.68,0.61S91.9,100.73,91.9,101.13z M90.63,101.1c0-0.23-0.06-0.41-0.18-0.54c-0.12-0.13-0.28-0.19-0.47-0.19
		c-0.2,0-0.36,0.06-0.49,0.18s-0.22,0.26-0.28,0.42s-0.09,0.32-0.09,0.46c0,0.21,0.06,0.38,0.18,0.52s0.28,0.21,0.49,0.21
		c0.16,0,0.31-0.05,0.44-0.16c0.13-0.1,0.23-0.24,0.3-0.4C90.6,101.44,90.63,101.27,90.63,101.1z"/>
	<path class="st4" d="M97.45,99.37l-0.2,0.93h-0.73l-0.25,1.24c-0.02,0.1-0.03,0.19-0.03,0.25c0,0.21,0.09,0.32,0.28,0.32
		c0.2,0,0.45-0.11,0.73-0.32l-0.07,1.15c-0.34,0.2-0.7,0.3-1.07,0.3c-0.16,0-0.32-0.03-0.48-0.09s-0.3-0.17-0.43-0.32
		c-0.15-0.18-0.23-0.42-0.23-0.72c0-0.13,0.01-0.27,0.04-0.41l0.26-1.39h-0.7l0.17-0.93h0.71l0.15-0.76h1.25l-0.15,0.76H97.45z"/>
	<path class="st4" d="M101.48,101.04c0,0.18-0.02,0.36-0.05,0.56h-2.4c0,0.52,0.26,0.79,0.77,0.79c0.26,0,0.49-0.03,0.69-0.09
		s0.44-0.15,0.72-0.26l-0.19,0.93c-0.27,0.11-0.48,0.18-0.64,0.22s-0.36,0.06-0.61,0.06c-0.52,0-0.92-0.1-1.22-0.29
		c-0.3-0.19-0.5-0.42-0.6-0.69c-0.11-0.27-0.16-0.53-0.16-0.79c0-0.39,0.09-0.75,0.27-1.08c0.18-0.33,0.42-0.6,0.74-0.79
		s0.67-0.29,1.06-0.29c0.3,0,0.57,0.06,0.81,0.19c0.24,0.13,0.44,0.32,0.59,0.58C101.41,100.34,101.48,100.66,101.48,101.04z
		 M100.28,100.92c0-0.02,0-0.03,0-0.05c0-0.02,0-0.04,0-0.07c0-0.43-0.15-0.64-0.44-0.64c-0.18,0-0.32,0.07-0.42,0.21
		c-0.1,0.14-0.2,0.33-0.29,0.55H100.28z"/>
	<path class="st4" d="M106.95,99.65l-0.09,0.89c-0.18-0.09-0.39-0.17-0.61-0.25c-0.22-0.07-0.4-0.11-0.53-0.11
		c-0.17,0-0.25,0.06-0.25,0.18c0,0.07,0.03,0.13,0.08,0.18s0.14,0.12,0.25,0.21c0.12,0.08,0.23,0.16,0.32,0.24
		c0.25,0.21,0.42,0.4,0.5,0.56c0.09,0.17,0.13,0.32,0.13,0.47c0,0.19-0.05,0.37-0.16,0.56s-0.28,0.34-0.5,0.46
		c-0.22,0.12-0.49,0.18-0.81,0.18c-0.13,0-0.31-0.02-0.54-0.07c-0.24-0.05-0.48-0.13-0.73-0.27l0.16-0.87
		c0.28,0.11,0.49,0.19,0.64,0.24c0.15,0.05,0.31,0.08,0.48,0.08c0.1,0,0.18-0.02,0.24-0.07s0.08-0.1,0.08-0.16
		c0-0.07-0.04-0.15-0.12-0.22s-0.23-0.19-0.46-0.36c-0.21-0.16-0.38-0.33-0.52-0.5c-0.14-0.18-0.21-0.37-0.21-0.59
		c0-0.3,0.12-0.57,0.37-0.8c0.24-0.23,0.6-0.35,1.07-0.35c0.25,0,0.46,0.03,0.65,0.09S106.74,99.54,106.95,99.65z"/>
	<path class="st4" d="M111.4,99.42l-0.57,3.74h-1.23l0.06-0.34c-0.14,0.13-0.28,0.23-0.42,0.3c-0.13,0.07-0.31,0.11-0.52,0.11
		c-0.27,0-0.5-0.07-0.71-0.23c-0.21-0.15-0.36-0.35-0.48-0.6c-0.11-0.25-0.17-0.52-0.17-0.82c0-0.25,0.04-0.5,0.12-0.75
		c0.08-0.26,0.23-0.5,0.43-0.74c0.21-0.23,0.5-0.42,0.88-0.57c0.38-0.15,0.84-0.22,1.4-0.22c0.23,0,0.42,0.01,0.57,0.03
		C110.91,99.35,111.13,99.38,111.4,99.42z M110.06,100.22h-0.23c-0.22,0-0.43,0.06-0.61,0.19c-0.18,0.13-0.33,0.3-0.43,0.51
		c-0.1,0.22-0.16,0.45-0.16,0.7c0,0.17,0.04,0.32,0.13,0.44c0.09,0.12,0.21,0.18,0.37,0.18c0.08,0,0.17-0.02,0.27-0.06
		s0.23-0.11,0.39-0.21L110.06,100.22z"/>
	<path class="st4" d="M113.95,98l-0.76,5.16h-1.26l0.76-5.16H113.95z"/>
	<path class="st4" d="M117.96,101.04c0,0.18-0.02,0.36-0.05,0.56h-2.4c0,0.52,0.26,0.79,0.77,0.79c0.26,0,0.49-0.03,0.69-0.09
		s0.44-0.15,0.72-0.26l-0.19,0.93c-0.27,0.11-0.48,0.18-0.64,0.22s-0.36,0.06-0.61,0.06c-0.52,0-0.92-0.1-1.22-0.29
		c-0.3-0.19-0.5-0.42-0.6-0.69c-0.11-0.27-0.16-0.53-0.16-0.79c0-0.39,0.09-0.75,0.27-1.08c0.18-0.33,0.42-0.6,0.74-0.79
		s0.67-0.29,1.06-0.29c0.3,0,0.57,0.06,0.81,0.19c0.24,0.13,0.44,0.32,0.59,0.58C117.88,100.34,117.96,100.66,117.96,101.04z
		 M116.76,100.92c0-0.02,0-0.03,0-0.05c0-0.02,0-0.04,0-0.07c0-0.43-0.15-0.64-0.44-0.64c-0.18,0-0.32,0.07-0.42,0.21
		c-0.1,0.14-0.2,0.33-0.29,0.55H116.76z"/>
	<path class="st4" d="M124.74,99.42l-0.57,3.74h-1.23l0.06-0.34c-0.14,0.13-0.28,0.23-0.42,0.3c-0.13,0.07-0.31,0.11-0.52,0.11
		c-0.27,0-0.5-0.07-0.71-0.23c-0.21-0.15-0.36-0.35-0.48-0.6c-0.11-0.25-0.17-0.52-0.17-0.82c0-0.25,0.04-0.5,0.12-0.75
		c0.08-0.26,0.23-0.5,0.43-0.74c0.21-0.23,0.5-0.42,0.88-0.57c0.38-0.15,0.84-0.22,1.4-0.22c0.23,0,0.42,0.01,0.57,0.03
		C124.25,99.35,124.46,99.38,124.74,99.42z M123.4,100.22h-0.23c-0.22,0-0.43,0.06-0.61,0.19c-0.18,0.13-0.33,0.3-0.43,0.51
		c-0.1,0.22-0.16,0.45-0.16,0.7c0,0.17,0.04,0.32,0.13,0.44c0.09,0.12,0.21,0.18,0.37,0.18c0.08,0,0.17-0.02,0.27-0.06
		s0.23-0.11,0.39-0.21L123.4,100.22z"/>
	<path class="st4" d="M127.29,98l-0.76,5.16h-1.26l0.76-5.16H127.29z"/>
	<path class="st4" d="M134.05,101.07c0,0.39-0.08,0.75-0.25,1.08c-0.17,0.33-0.41,0.59-0.73,0.79c-0.32,0.2-0.69,0.29-1.1,0.29
		c-0.12,0-0.24-0.01-0.34-0.03c-0.11-0.02-0.22-0.05-0.34-0.09l-0.28,1.78h-1.24l0.6-3.95l-0.52,0.62
		c-0.05,0.05-0.08,0.09-0.11,0.11c-0.02,0.02-0.05,0.03-0.08,0.03c-0.08,0-0.12-0.05-0.12-0.15c0-0.12,0.04-0.26,0.13-0.44
		c0.09-0.18,0.19-0.34,0.3-0.48c0.11-0.14,0.28-0.32,0.52-0.53l0.21-1.4h1.23l-0.1,0.67c0.08-0.02,0.17-0.04,0.26-0.04
		c0.09-0.02,0.18-0.02,0.27-0.02c0.28,0,0.52,0.05,0.74,0.14c0.21,0.09,0.39,0.22,0.53,0.38c0.14,0.16,0.25,0.35,0.31,0.56
		S134.05,100.82,134.05,101.07z M132.75,101.05c0-0.25-0.06-0.45-0.18-0.61c-0.12-0.16-0.31-0.24-0.59-0.24
		c-0.1,0-0.19,0.01-0.28,0.03l-0.3,1.97c0.09,0.02,0.19,0.04,0.29,0.04c0.25,0,0.46-0.06,0.62-0.18c0.16-0.12,0.27-0.27,0.33-0.45
		C132.72,101.43,132.75,101.24,132.75,101.05z"/>
	<path class="st4" d="M137.88,99.69l-0.58,1.2c-0.07-0.12-0.14-0.22-0.22-0.3s-0.19-0.12-0.31-0.12c-0.24,0-0.47,0.18-0.67,0.53
		l-0.32,2.17h-1.23l0.57-3.79h1.23l-0.08,0.54c0.34-0.41,0.64-0.61,0.91-0.61c0.14,0,0.26,0.03,0.37,0.1S137.75,99.57,137.88,99.69z
		"/>
	<path class="st4" d="M139.72,99.37l-0.54,3.79h-1.26l0.54-3.79H139.72z M139.79,98.5c0,0.16-0.06,0.29-0.17,0.4
		c-0.11,0.11-0.25,0.17-0.41,0.17c-0.16,0-0.29-0.06-0.4-0.17c-0.11-0.11-0.17-0.25-0.17-0.4c0-0.16,0.06-0.29,0.17-0.4
		c0.11-0.11,0.25-0.17,0.4-0.17c0.1,0,0.19,0.03,0.28,0.08c0.09,0.05,0.16,0.12,0.21,0.21C139.76,98.31,139.79,98.4,139.79,98.5z"/>
	<path class="st4" d="M144.26,100.46c0,0.07-0.01,0.21-0.04,0.42l-0.34,2.29h-1.23l0.34-2.37c0-0.03,0.01-0.07,0.01-0.13
		c0-0.24-0.1-0.36-0.31-0.36c-0.13,0-0.25,0.04-0.38,0.13s-0.29,0.23-0.51,0.43l-0.33,2.29h-1.24l0.57-3.79h1.24l-0.06,0.44
		c0.23-0.16,0.43-0.29,0.6-0.38c0.17-0.09,0.39-0.13,0.64-0.13c0.39,0,0.66,0.12,0.82,0.36C144.18,99.9,144.26,100.17,144.26,100.46
		z"/>
	<path class="st4" d="M148.44,99.44l-0.17,1.17c-0.24-0.08-0.4-0.13-0.46-0.14c-0.14-0.03-0.29-0.05-0.44-0.05
		c-0.29,0-0.52,0.05-0.7,0.16c-0.18,0.11-0.31,0.24-0.39,0.4s-0.12,0.3-0.12,0.43c0,0.17,0.06,0.33,0.17,0.48
		c0.11,0.16,0.34,0.23,0.69,0.23c0.18,0,0.35-0.02,0.53-0.07c0.17-0.05,0.41-0.14,0.7-0.28l-0.2,1.27
		c-0.16,0.05-0.28,0.09-0.38,0.11s-0.2,0.04-0.31,0.05s-0.23,0.02-0.35,0.02c-0.81,0-1.37-0.2-1.67-0.59
		c-0.3-0.39-0.45-0.81-0.45-1.24c0-0.28,0.07-0.58,0.22-0.9c0.14-0.32,0.4-0.6,0.76-0.84c0.36-0.24,0.85-0.36,1.46-0.36
		C147.67,99.3,148.04,99.35,148.44,99.44z"/>
	<path class="st4" d="M150.56,99.37l-0.54,3.79h-1.26l0.54-3.79H150.56z M150.63,98.5c0,0.16-0.06,0.29-0.17,0.4
		c-0.11,0.11-0.25,0.17-0.41,0.17c-0.16,0-0.29-0.06-0.4-0.17c-0.11-0.11-0.17-0.25-0.17-0.4c0-0.16,0.06-0.29,0.17-0.4
		c0.11-0.11,0.25-0.17,0.4-0.17c0.1,0,0.19,0.03,0.28,0.08c0.09,0.05,0.16,0.12,0.21,0.21C150.6,98.31,150.63,98.4,150.63,98.5z"/>
	<path class="st4" d="M155.31,101.07c0,0.39-0.08,0.75-0.25,1.08c-0.17,0.33-0.41,0.59-0.73,0.79c-0.32,0.2-0.69,0.29-1.1,0.29
		c-0.12,0-0.24-0.01-0.34-0.03c-0.11-0.02-0.22-0.05-0.34-0.09l-0.28,1.78h-1.24l0.6-3.95l-0.52,0.62
		c-0.05,0.05-0.08,0.09-0.11,0.11c-0.02,0.02-0.05,0.03-0.08,0.03c-0.08,0-0.12-0.05-0.12-0.15c0-0.12,0.04-0.26,0.13-0.44
		c0.09-0.18,0.19-0.34,0.3-0.48c0.11-0.14,0.28-0.32,0.52-0.53l0.21-1.4h1.23l-0.1,0.67c0.08-0.02,0.17-0.04,0.26-0.04
		c0.09-0.02,0.18-0.02,0.27-0.02c0.28,0,0.52,0.05,0.74,0.14c0.21,0.09,0.39,0.22,0.53,0.38c0.14,0.16,0.25,0.35,0.31,0.56
		S155.31,100.82,155.31,101.07z M154.02,101.05c0-0.25-0.06-0.45-0.18-0.61c-0.12-0.16-0.31-0.24-0.59-0.24
		c-0.1,0-0.19,0.01-0.28,0.03l-0.3,1.97c0.09,0.02,0.19,0.04,0.29,0.04c0.25,0,0.46-0.06,0.62-0.18c0.16-0.12,0.27-0.27,0.33-0.45
		C153.98,101.43,154.02,101.24,154.02,101.05z"/>
	<path class="st4" d="M157.67,99.37l-0.54,3.79h-1.26l0.54-3.79H157.67z M157.74,98.5c0,0.16-0.06,0.29-0.17,0.4
		c-0.11,0.11-0.25,0.17-0.41,0.17c-0.16,0-0.29-0.06-0.4-0.17c-0.11-0.11-0.17-0.25-0.17-0.4c0-0.16,0.06-0.29,0.17-0.4
		c0.11-0.11,0.25-0.17,0.4-0.17c0.1,0,0.19,0.03,0.28,0.08c0.09,0.05,0.16,0.12,0.21,0.21C157.72,98.31,157.74,98.4,157.74,98.5z"/>
	<path class="st4" d="M162.27,101.13c0,0.3-0.05,0.58-0.16,0.84c-0.11,0.26-0.26,0.49-0.45,0.67c-0.19,0.19-0.42,0.33-0.68,0.43
		s-0.54,0.15-0.83,0.15c-0.34,0-0.66-0.07-0.96-0.23s-0.53-0.37-0.7-0.65s-0.26-0.6-0.26-0.96c0-0.28,0.06-0.54,0.17-0.8
		c0.11-0.25,0.27-0.48,0.47-0.67c0.2-0.19,0.43-0.35,0.7-0.46c0.27-0.11,0.55-0.16,0.86-0.16c0.32,0,0.62,0.07,0.9,0.2
		c0.28,0.14,0.51,0.34,0.68,0.61S162.27,100.73,162.27,101.13z M161.01,101.1c0-0.23-0.06-0.41-0.18-0.54
		c-0.12-0.13-0.28-0.19-0.47-0.19c-0.2,0-0.36,0.06-0.49,0.18s-0.22,0.26-0.28,0.42s-0.09,0.32-0.09,0.46
		c0,0.21,0.06,0.38,0.18,0.52s0.28,0.21,0.49,0.21c0.16,0,0.31-0.05,0.44-0.16c0.13-0.1,0.23-0.24,0.3-0.4
		C160.97,101.44,161.01,101.27,161.01,101.1z"/>
	<path class="st4" d="M164.2,102.46c0,0.14-0.03,0.27-0.1,0.39c-0.07,0.12-0.16,0.21-0.28,0.28c-0.12,0.07-0.25,0.1-0.39,0.1
		s-0.27-0.03-0.39-0.1c-0.12-0.07-0.21-0.16-0.28-0.28c-0.07-0.12-0.1-0.25-0.1-0.39c0-0.14,0.03-0.27,0.1-0.39
		c0.07-0.12,0.16-0.21,0.28-0.28c0.12-0.07,0.25-0.1,0.39-0.1s0.27,0.04,0.39,0.1c0.12,0.07,0.21,0.16,0.28,0.28
		C164.16,102.18,164.2,102.31,164.2,102.46z"/>
	<path class="st4" d="M29.95,107.46l-0.17,1.02c-0.05-0.04-0.13-0.09-0.26-0.15c-0.12-0.07-0.27-0.12-0.42-0.18
		c-0.16-0.05-0.32-0.08-0.48-0.08c-0.17,0-0.3,0.05-0.39,0.14c-0.09,0.09-0.14,0.2-0.14,0.32c0,0.11,0.03,0.2,0.09,0.29
		c0.06,0.09,0.22,0.23,0.48,0.45c0.38,0.31,0.65,0.57,0.79,0.8c0.14,0.23,0.22,0.49,0.22,0.77c0,0.24-0.05,0.47-0.16,0.71
		c-0.11,0.24-0.3,0.43-0.56,0.6c-0.26,0.16-0.62,0.24-1.05,0.24c-0.33,0-0.63-0.05-0.93-0.14c-0.29-0.09-0.53-0.19-0.72-0.31
		l0.16-1.05c0.53,0.33,0.97,0.5,1.3,0.5c0.21,0,0.36-0.06,0.45-0.17c0.09-0.12,0.13-0.24,0.13-0.38c0-0.15-0.05-0.28-0.14-0.4
		c-0.1-0.11-0.32-0.33-0.68-0.66c-0.21-0.19-0.38-0.37-0.49-0.52c-0.11-0.15-0.19-0.28-0.22-0.4c-0.03-0.11-0.05-0.24-0.05-0.39
		c0-0.17,0.03-0.33,0.1-0.5c0.06-0.17,0.17-0.32,0.3-0.45c0.14-0.14,0.31-0.25,0.53-0.33s0.47-0.12,0.75-0.12
		C28.93,107.09,29.44,107.21,29.95,107.46z"/>
	<path class="st4" d="M32.1,108.53l-0.54,3.79H30.3l0.54-3.79H32.1z M32.17,107.66c0,0.16-0.06,0.29-0.17,0.4
		c-0.11,0.11-0.25,0.17-0.41,0.17c-0.16,0-0.29-0.06-0.4-0.17c-0.11-0.11-0.17-0.25-0.17-0.4c0-0.16,0.06-0.29,0.17-0.4
		c0.11-0.11,0.25-0.17,0.4-0.17c0.1,0,0.19,0.03,0.28,0.08c0.09,0.05,0.16,0.12,0.21,0.21C32.15,107.47,32.17,107.56,32.17,107.66z"
		/>
	<path class="st4" d="M36.33,110.19c0,0.18-0.02,0.36-0.05,0.56h-2.4c0,0.52,0.26,0.79,0.77,0.79c0.26,0,0.49-0.03,0.69-0.09
		s0.44-0.15,0.72-0.26l-0.19,0.93c-0.27,0.11-0.48,0.18-0.64,0.22c-0.16,0.04-0.36,0.06-0.61,0.06c-0.52,0-0.92-0.1-1.22-0.29
		c-0.3-0.19-0.5-0.42-0.6-0.69c-0.11-0.27-0.16-0.53-0.16-0.79c0-0.39,0.09-0.75,0.27-1.08c0.18-0.33,0.42-0.6,0.74-0.79
		s0.67-0.29,1.06-0.29c0.3,0,0.57,0.06,0.81,0.19c0.24,0.13,0.44,0.32,0.59,0.58C36.26,109.49,36.33,109.81,36.33,110.19z
		 M35.13,110.08c0-0.02,0-0.03,0-0.05c0-0.02,0-0.04,0-0.07c0-0.43-0.15-0.64-0.44-0.64c-0.18,0-0.32,0.07-0.42,0.21
		c-0.1,0.14-0.2,0.32-0.29,0.55H35.13z"/>
	<path class="st4" d="M42.94,109.59c0,0.1-0.02,0.27-0.05,0.52l-0.32,2.21h-1.25l0.33-2.24c0.01-0.11,0.02-0.2,0.02-0.26
		c0-0.26-0.09-0.39-0.28-0.39c-0.18,0-0.43,0.13-0.73,0.4l-0.35,2.49h-1.24l0.31-2.13c0.03-0.23,0.05-0.38,0.05-0.44
		c0-0.11-0.02-0.19-0.06-0.24c-0.04-0.05-0.11-0.08-0.21-0.08c-0.11,0-0.22,0.04-0.33,0.12c-0.12,0.08-0.26,0.2-0.43,0.37l-0.34,2.4
		h-1.24l0.56-3.79h1.24l-0.07,0.44c0.13-0.13,0.29-0.24,0.49-0.35s0.41-0.16,0.64-0.16c0.43,0,0.74,0.19,0.92,0.56
		c0.09-0.09,0.19-0.18,0.31-0.26s0.25-0.15,0.4-0.21c0.15-0.06,0.32-0.09,0.5-0.09c0.44,0,0.74,0.12,0.9,0.36
		C42.85,109.06,42.94,109.32,42.94,109.59z"/>
	<path class="st4" d="M47.76,110.22c0,0.39-0.08,0.75-0.25,1.08c-0.17,0.33-0.41,0.59-0.73,0.79c-0.32,0.2-0.69,0.29-1.1,0.29
		c-0.12,0-0.24-0.01-0.34-0.03s-0.22-0.05-0.34-0.09l-0.28,1.78h-1.24l0.6-3.95l-0.52,0.62c-0.05,0.05-0.08,0.09-0.11,0.11
		c-0.02,0.02-0.05,0.03-0.08,0.03c-0.08,0-0.12-0.05-0.12-0.15c0-0.12,0.04-0.26,0.13-0.44c0.09-0.18,0.19-0.34,0.3-0.48
		c0.11-0.14,0.28-0.32,0.52-0.53l0.21-1.4h1.23l-0.1,0.67c0.08-0.02,0.17-0.04,0.26-0.04c0.09-0.02,0.18-0.02,0.27-0.02
		c0.28,0,0.52,0.05,0.74,0.14c0.21,0.09,0.39,0.22,0.53,0.38c0.14,0.16,0.25,0.35,0.31,0.56S47.76,109.98,47.76,110.22z
		 M46.46,110.21c0-0.25-0.06-0.45-0.18-0.61s-0.31-0.24-0.59-0.24c-0.1,0-0.19,0.01-0.28,0.03l-0.3,1.98
		c0.09,0.02,0.19,0.04,0.29,0.04c0.25,0,0.46-0.06,0.62-0.18c0.16-0.12,0.27-0.27,0.33-0.45C46.43,110.58,46.46,110.4,46.46,110.21z
		"/>
	<path class="st4" d="M51.59,108.85l-0.58,1.2c-0.07-0.12-0.14-0.22-0.22-0.3c-0.08-0.08-0.19-0.12-0.31-0.12
		c-0.24,0-0.47,0.18-0.67,0.52l-0.32,2.17h-1.23l0.57-3.79h1.23l-0.08,0.54c0.34-0.41,0.64-0.61,0.91-0.61
		c0.14,0,0.26,0.03,0.37,0.1S51.47,108.73,51.59,108.85z"/>
	<path class="st4" d="M55.18,110.19c0,0.18-0.02,0.36-0.05,0.56h-2.4c0,0.52,0.26,0.79,0.77,0.79c0.26,0,0.49-0.03,0.69-0.09
		s0.44-0.15,0.72-0.26l-0.19,0.93c-0.27,0.11-0.48,0.18-0.64,0.22c-0.16,0.04-0.36,0.06-0.61,0.06c-0.52,0-0.92-0.1-1.22-0.29
		c-0.3-0.19-0.5-0.42-0.6-0.69c-0.11-0.27-0.16-0.53-0.16-0.79c0-0.39,0.09-0.75,0.27-1.08c0.18-0.33,0.42-0.6,0.74-0.79
		s0.67-0.29,1.06-0.29c0.3,0,0.57,0.06,0.81,0.19c0.24,0.13,0.44,0.32,0.59,0.58C55.1,109.49,55.18,109.81,55.18,110.19z
		 M53.98,110.08c0-0.02,0-0.03,0-0.05c0-0.02,0-0.04,0-0.07c0-0.43-0.15-0.64-0.44-0.64c-0.18,0-0.32,0.07-0.42,0.21
		c-0.1,0.14-0.2,0.32-0.29,0.55H53.98z"/>
	<path class="st4" d="M60.65,108.81l-0.09,0.89c-0.18-0.09-0.39-0.17-0.61-0.25c-0.22-0.07-0.4-0.11-0.53-0.11
		c-0.17,0-0.25,0.06-0.25,0.18c0,0.07,0.03,0.13,0.08,0.18s0.14,0.12,0.25,0.21c0.12,0.08,0.23,0.17,0.32,0.24
		c0.25,0.21,0.42,0.4,0.5,0.56c0.09,0.17,0.13,0.32,0.13,0.47c0,0.19-0.05,0.37-0.16,0.56s-0.28,0.34-0.5,0.46
		c-0.22,0.12-0.49,0.18-0.81,0.18c-0.13,0-0.31-0.02-0.54-0.07c-0.24-0.05-0.48-0.13-0.73-0.27l0.16-0.87
		c0.28,0.11,0.49,0.19,0.64,0.24c0.15,0.05,0.31,0.08,0.48,0.08c0.1,0,0.18-0.02,0.24-0.07s0.08-0.1,0.08-0.16
		c0-0.07-0.04-0.15-0.12-0.22c-0.08-0.07-0.23-0.19-0.46-0.36c-0.21-0.16-0.38-0.33-0.52-0.5c-0.14-0.17-0.21-0.37-0.21-0.59
		c0-0.3,0.12-0.57,0.37-0.8c0.24-0.23,0.6-0.35,1.07-0.35c0.25,0,0.46,0.03,0.65,0.09S60.44,108.7,60.65,108.81z"/>
	<path class="st4" d="M64.76,110.19c0,0.18-0.02,0.36-0.05,0.56h-2.4c0,0.52,0.26,0.79,0.77,0.79c0.26,0,0.49-0.03,0.69-0.09
		s0.44-0.15,0.72-0.26l-0.19,0.93c-0.27,0.11-0.48,0.18-0.64,0.22c-0.16,0.04-0.36,0.06-0.61,0.06c-0.52,0-0.92-0.1-1.22-0.29
		c-0.3-0.19-0.5-0.42-0.6-0.69c-0.11-0.27-0.16-0.53-0.16-0.79c0-0.39,0.09-0.75,0.27-1.08c0.18-0.33,0.42-0.6,0.74-0.79
		s0.67-0.29,1.06-0.29c0.3,0,0.57,0.06,0.81,0.19c0.24,0.13,0.44,0.32,0.59,0.58C64.69,109.49,64.76,109.81,64.76,110.19z
		 M63.56,110.08c0-0.02,0-0.03,0-0.05c0-0.02,0-0.04,0-0.07c0-0.43-0.15-0.64-0.44-0.64c-0.18,0-0.32,0.07-0.42,0.21
		c-0.1,0.14-0.2,0.32-0.29,0.55H63.56z"/>
	<path class="st4" d="M69.28,109.61c0,0.07-0.01,0.22-0.04,0.42l-0.34,2.29h-1.23l0.34-2.37c0-0.03,0.01-0.07,0.01-0.13
		c0-0.24-0.1-0.36-0.31-0.36c-0.13,0-0.25,0.04-0.38,0.13s-0.29,0.23-0.51,0.43l-0.33,2.29h-1.24l0.57-3.79h1.24l-0.06,0.44
		c0.23-0.16,0.43-0.29,0.6-0.38c0.17-0.09,0.39-0.13,0.64-0.13c0.39,0,0.66,0.12,0.82,0.36C69.2,109.06,69.28,109.32,69.28,109.61z"
		/>
	<path class="st4" d="M72.66,108.53l-0.2,0.93h-0.73l-0.25,1.24c-0.02,0.1-0.03,0.19-0.03,0.25c0,0.21,0.09,0.32,0.28,0.32
		c0.2,0,0.45-0.11,0.73-0.32l-0.07,1.15c-0.34,0.2-0.7,0.3-1.07,0.3c-0.16,0-0.32-0.03-0.48-0.09s-0.3-0.17-0.43-0.32
		c-0.15-0.18-0.23-0.42-0.23-0.72c0-0.13,0.01-0.27,0.04-0.41l0.26-1.39h-0.7l0.17-0.93h0.71l0.15-0.76h1.25l-0.15,0.76H72.66z"/>
	<path class="st4" d="M74.84,108.53l-0.54,3.79h-1.26l0.54-3.79H74.84z M75.65,106.8l-1.6,1.23h-0.76l0.98-1.23H75.65z"/>
	<path class="st4" d="M81.6,108.53l-0.79,5.52h-1.26l0.28-1.9c-0.12,0.06-0.25,0.12-0.39,0.17c-0.14,0.05-0.3,0.08-0.48,0.08
		c-0.27,0-0.51-0.07-0.71-0.21c-0.21-0.14-0.37-0.34-0.48-0.59s-0.17-0.54-0.17-0.85c0-0.18,0.03-0.38,0.08-0.62
		c0.05-0.23,0.16-0.47,0.33-0.72c0.17-0.25,0.41-0.45,0.74-0.62c0.33-0.17,0.75-0.25,1.26-0.25H81.6z M80.21,109.55
		c-0.56,0.02-0.93,0.16-1.09,0.41s-0.25,0.5-0.25,0.75c0,0.21,0.05,0.38,0.16,0.51s0.25,0.2,0.42,0.2c0.16,0,0.33-0.05,0.5-0.14
		L80.21,109.55z"/>
	<path class="st4" d="M86.16,108.53l-0.57,3.79h-1.24l0.06-0.44c-0.05,0.04-0.13,0.09-0.23,0.16c-0.1,0.07-0.2,0.13-0.29,0.17
		c-0.09,0.04-0.2,0.09-0.33,0.12c-0.13,0.04-0.26,0.05-0.4,0.05c-0.27,0-0.48-0.06-0.63-0.18s-0.27-0.27-0.33-0.45
		c-0.06-0.18-0.09-0.35-0.09-0.52c0-0.08,0.01-0.22,0.04-0.42l0.34-2.29h1.23l-0.34,2.37c0,0.03-0.01,0.07-0.01,0.13
		c0,0.24,0.1,0.36,0.31,0.36c0.13,0,0.26-0.04,0.38-0.13c0.12-0.08,0.29-0.23,0.51-0.43l0.33-2.3H86.16z"/>
	<path class="st4" d="M90.34,110.19c0,0.18-0.02,0.36-0.05,0.56h-2.4c0,0.52,0.26,0.79,0.77,0.79c0.26,0,0.49-0.03,0.69-0.09
		s0.44-0.15,0.72-0.26l-0.19,0.93c-0.27,0.11-0.48,0.18-0.64,0.22c-0.16,0.04-0.36,0.06-0.61,0.06c-0.52,0-0.92-0.1-1.22-0.29
		c-0.3-0.19-0.5-0.42-0.6-0.69c-0.11-0.27-0.16-0.53-0.16-0.79c0-0.39,0.09-0.75,0.27-1.08c0.18-0.33,0.42-0.6,0.74-0.79
		s0.67-0.29,1.06-0.29c0.3,0,0.57,0.06,0.81,0.19c0.24,0.13,0.44,0.32,0.59,0.58C90.27,109.49,90.34,109.81,90.34,110.19z
		 M89.14,110.08c0-0.02,0-0.03,0-0.05c0-0.02,0-0.04,0-0.07c0-0.43-0.15-0.64-0.44-0.64c-0.18,0-0.32,0.07-0.42,0.21
		c-0.1,0.14-0.2,0.32-0.29,0.55H89.14z"/>
	<path class="st4" d="M99.18,109.59c0,0.1-0.02,0.27-0.05,0.52l-0.32,2.21h-1.25l0.33-2.24c0.01-0.11,0.02-0.2,0.02-0.26
		c0-0.26-0.09-0.39-0.28-0.39c-0.18,0-0.43,0.13-0.73,0.4l-0.35,2.49h-1.24l0.31-2.13c0.03-0.23,0.05-0.38,0.05-0.44
		c0-0.11-0.02-0.19-0.06-0.24c-0.04-0.05-0.11-0.08-0.21-0.08c-0.11,0-0.22,0.04-0.33,0.12c-0.12,0.08-0.26,0.2-0.43,0.37l-0.34,2.4
		h-1.24l0.56-3.79h1.24l-0.07,0.44c0.13-0.13,0.29-0.24,0.49-0.35s0.41-0.16,0.64-0.16c0.43,0,0.74,0.19,0.92,0.56
		c0.09-0.09,0.19-0.18,0.31-0.26s0.25-0.15,0.4-0.21c0.15-0.06,0.32-0.09,0.5-0.09c0.44,0,0.74,0.12,0.9,0.36
		C99.1,109.06,99.18,109.32,99.18,109.59z"/>
	<path class="st4" d="M103.47,110.19c0,0.18-0.02,0.36-0.05,0.56h-2.4c0,0.52,0.26,0.79,0.77,0.79c0.26,0,0.49-0.03,0.69-0.09
		s0.44-0.15,0.72-0.26l-0.19,0.93c-0.27,0.11-0.48,0.18-0.64,0.22c-0.16,0.04-0.36,0.06-0.61,0.06c-0.52,0-0.92-0.1-1.22-0.29
		c-0.3-0.19-0.5-0.42-0.6-0.69c-0.11-0.27-0.16-0.53-0.16-0.79c0-0.39,0.09-0.75,0.27-1.08c0.18-0.33,0.42-0.6,0.74-0.79
		s0.67-0.29,1.06-0.29c0.3,0,0.57,0.06,0.81,0.19c0.24,0.13,0.44,0.32,0.59,0.58C103.4,109.49,103.47,109.81,103.47,110.19z
		 M102.27,110.08c0-0.02,0-0.03,0-0.05c0-0.02,0-0.04,0-0.07c0-0.43-0.15-0.64-0.44-0.64c-0.18,0-0.32,0.07-0.42,0.21
		c-0.1,0.14-0.2,0.32-0.29,0.55H102.27z"/>
	<path class="st4" d="M110.25,108.58l-0.57,3.74h-1.23l0.06-0.34c-0.14,0.13-0.28,0.23-0.42,0.3c-0.13,0.07-0.31,0.11-0.52,0.11
		c-0.27,0-0.5-0.08-0.71-0.23c-0.21-0.15-0.36-0.35-0.48-0.6c-0.11-0.25-0.17-0.52-0.17-0.82c0-0.25,0.04-0.5,0.12-0.75
		c0.08-0.26,0.23-0.5,0.43-0.74c0.21-0.23,0.5-0.42,0.88-0.57c0.38-0.15,0.84-0.22,1.4-0.22c0.23,0,0.42,0.01,0.57,0.03
		C109.76,108.5,109.98,108.54,110.25,108.58z M108.91,109.37h-0.23c-0.22,0-0.43,0.06-0.61,0.19c-0.18,0.13-0.33,0.3-0.43,0.51
		c-0.1,0.22-0.16,0.45-0.16,0.7c0,0.17,0.04,0.32,0.13,0.44c0.09,0.12,0.21,0.18,0.37,0.18c0.08,0,0.17-0.02,0.27-0.06
		s0.23-0.11,0.39-0.21L108.91,109.37z"/>
	<path class="st4" d="M114.96,110.22c0,0.39-0.08,0.75-0.25,1.08c-0.17,0.33-0.41,0.59-0.73,0.79c-0.32,0.2-0.69,0.29-1.1,0.29
		c-0.12,0-0.24-0.01-0.34-0.03s-0.22-0.05-0.34-0.09l-0.28,1.78h-1.24l0.6-3.95l-0.52,0.62c-0.05,0.05-0.08,0.09-0.11,0.11
		c-0.02,0.02-0.05,0.03-0.08,0.03c-0.08,0-0.12-0.05-0.12-0.15c0-0.12,0.04-0.26,0.13-0.44c0.09-0.18,0.19-0.34,0.3-0.48
		c0.11-0.14,0.28-0.32,0.52-0.53l0.21-1.4h1.23l-0.1,0.67c0.08-0.02,0.17-0.04,0.26-0.04c0.09-0.02,0.18-0.02,0.27-0.02
		c0.28,0,0.52,0.05,0.74,0.14c0.21,0.09,0.39,0.22,0.53,0.38c0.14,0.16,0.25,0.35,0.31,0.56S114.96,109.98,114.96,110.22z
		 M113.66,110.21c0-0.25-0.06-0.45-0.18-0.61s-0.31-0.24-0.59-0.24c-0.1,0-0.19,0.01-0.28,0.03l-0.3,1.98
		c0.09,0.02,0.19,0.04,0.29,0.04c0.25,0,0.46-0.06,0.62-0.18c0.16-0.12,0.27-0.27,0.33-0.45
		C113.63,110.58,113.66,110.4,113.66,110.21z"/>
	<path class="st4" d="M119.54,110.28c0,0.3-0.05,0.58-0.16,0.84c-0.11,0.26-0.26,0.49-0.45,0.67s-0.42,0.33-0.68,0.43
		c-0.26,0.1-0.54,0.16-0.83,0.16c-0.34,0-0.66-0.08-0.96-0.23s-0.53-0.37-0.7-0.65s-0.26-0.6-0.26-0.96c0-0.28,0.06-0.54,0.17-0.8
		c0.11-0.25,0.27-0.48,0.47-0.67c0.2-0.19,0.43-0.35,0.7-0.46c0.27-0.11,0.55-0.16,0.86-0.16c0.32,0,0.62,0.07,0.9,0.2
		c0.28,0.14,0.51,0.34,0.68,0.61S119.54,109.89,119.54,110.28z M118.28,110.26c0-0.23-0.06-0.41-0.18-0.54
		c-0.12-0.13-0.28-0.19-0.47-0.19c-0.2,0-0.36,0.06-0.49,0.18c-0.13,0.12-0.22,0.26-0.28,0.42s-0.09,0.32-0.09,0.46
		c0,0.21,0.06,0.38,0.18,0.52s0.28,0.21,0.49,0.21c0.16,0,0.31-0.05,0.44-0.16s0.23-0.24,0.3-0.4
		C118.24,110.6,118.28,110.43,118.28,110.26z"/>
	<path class="st4" d="M123.94,108.53l-2.7,5.52h-1.2l1-2.04l-1.21-3.48h1.15l0.73,2.11l1.02-2.11H123.94z"/>
	<path class="st4" d="M128.06,108.58l-0.57,3.74h-1.23l0.06-0.34c-0.14,0.13-0.28,0.23-0.42,0.3c-0.13,0.07-0.31,0.11-0.52,0.11
		c-0.27,0-0.5-0.08-0.71-0.23c-0.21-0.15-0.36-0.35-0.48-0.6c-0.11-0.25-0.17-0.52-0.17-0.82c0-0.25,0.04-0.5,0.12-0.75
		c0.08-0.26,0.23-0.5,0.43-0.74c0.21-0.23,0.5-0.42,0.88-0.57c0.38-0.15,0.84-0.22,1.4-0.22c0.23,0,0.42,0.01,0.57,0.03
		C127.57,108.5,127.78,108.54,128.06,108.58z M126.72,109.37h-0.23c-0.22,0-0.43,0.06-0.61,0.19c-0.18,0.13-0.33,0.3-0.43,0.51
		c-0.1,0.22-0.16,0.45-0.16,0.7c0,0.17,0.04,0.32,0.13,0.44c0.09,0.12,0.21,0.18,0.37,0.18c0.08,0,0.17-0.02,0.27-0.06
		s0.23-0.11,0.39-0.21L126.72,109.37z"/>
	<path class="st4" d="M132.54,110.24c0,0.42-0.09,0.8-0.28,1.12c-0.18,0.32-0.46,0.58-0.84,0.76c-0.38,0.18-0.84,0.27-1.39,0.27
		c-0.14,0-0.3,0-0.48-0.02c-0.19-0.01-0.36-0.02-0.52-0.04c-0.16-0.02-0.36-0.05-0.61-0.08l0.74-5.09h1.24l-0.25,1.74
		c0.25-0.29,0.56-0.43,0.92-0.43c0.19,0,0.38,0.04,0.55,0.13c0.18,0.09,0.33,0.21,0.47,0.36s0.25,0.34,0.33,0.57
		S132.54,109.98,132.54,110.24z M131.24,110.25c0-0.24-0.05-0.42-0.17-0.53c-0.11-0.11-0.24-0.17-0.4-0.17
		c-0.25,0-0.48,0.13-0.7,0.4l-0.21,1.39c0.08,0.01,0.2,0.01,0.36,0.01C130.87,111.35,131.24,110.98,131.24,110.25z"/>
	<path class="st4" d="M137.11,108.58l-0.57,3.74h-1.23l0.06-0.34c-0.14,0.13-0.28,0.23-0.42,0.3c-0.13,0.07-0.31,0.11-0.52,0.11
		c-0.27,0-0.5-0.08-0.71-0.23c-0.21-0.15-0.36-0.35-0.48-0.6c-0.11-0.25-0.17-0.52-0.17-0.82c0-0.25,0.04-0.5,0.12-0.75
		c0.08-0.26,0.23-0.5,0.43-0.74c0.21-0.23,0.5-0.42,0.88-0.57c0.38-0.15,0.84-0.22,1.4-0.22c0.23,0,0.42,0.01,0.57,0.03
		C136.62,108.5,136.83,108.54,137.11,108.58z M135.77,109.37h-0.23c-0.22,0-0.43,0.06-0.61,0.19c-0.18,0.13-0.33,0.3-0.43,0.51
		c-0.1,0.22-0.16,0.45-0.16,0.7c0,0.17,0.04,0.32,0.13,0.44c0.09,0.12,0.21,0.18,0.37,0.18c0.08,0,0.17-0.02,0.27-0.06
		s0.23-0.11,0.39-0.21L135.77,109.37z"/>
	<path class="st4" d="M141.6,109.61c0,0.07-0.01,0.22-0.04,0.42l-0.34,2.29h-1.23l0.34-2.37c0-0.03,0.01-0.07,0.01-0.13
		c0-0.24-0.1-0.36-0.31-0.36c-0.13,0-0.25,0.04-0.38,0.13s-0.29,0.23-0.51,0.43l-0.33,2.29h-1.24l0.57-3.79h1.24l-0.06,0.44
		c0.23-0.16,0.43-0.29,0.6-0.38c0.17-0.09,0.39-0.13,0.64-0.13c0.39,0,0.66,0.12,0.82,0.36C141.52,109.06,141.6,109.32,141.6,109.61
		z"/>
	<path class="st4" d="M143.88,111.84c0,0.13-0.02,0.26-0.06,0.38s-0.1,0.25-0.18,0.38c-0.08,0.13-0.18,0.24-0.31,0.35
		c-0.12,0.11-0.28,0.2-0.46,0.29c-0.11,0.05-0.24,0.1-0.37,0.13c-0.13,0.03-0.27,0.05-0.41,0.06c-0.14,0.01-0.3,0.02-0.48,0.02
		l0.1-0.4c0.22-0.02,0.39-0.06,0.52-0.12c0.13-0.06,0.24-0.13,0.32-0.23c0.08-0.09,0.16-0.21,0.22-0.35
		c-0.17-0.04-0.32-0.11-0.46-0.21c-0.14-0.1-0.21-0.28-0.21-0.53c0-0.23,0.08-0.42,0.24-0.57c0.16-0.15,0.36-0.22,0.58-0.22
		c0.27,0,0.49,0.09,0.67,0.28C143.79,111.31,143.88,111.55,143.88,111.84z"/>
	<path class="st4" d="M150.83,109.61c0,0.07-0.01,0.22-0.04,0.42l-0.34,2.29h-1.23l0.34-2.37c0-0.03,0.01-0.07,0.01-0.13
		c0-0.24-0.1-0.36-0.31-0.36c-0.13,0-0.25,0.04-0.38,0.13s-0.29,0.23-0.51,0.43l-0.33,2.29h-1.24l0.57-3.79h1.24l-0.06,0.44
		c0.23-0.16,0.43-0.29,0.6-0.38c0.17-0.09,0.39-0.13,0.64-0.13c0.39,0,0.66,0.12,0.82,0.36
		C150.75,109.06,150.83,109.32,150.83,109.61z"/>
	<path class="st4" d="M155.5,110.28c0,0.3-0.05,0.58-0.16,0.84c-0.11,0.26-0.26,0.49-0.45,0.67s-0.42,0.33-0.68,0.43
		c-0.26,0.1-0.54,0.16-0.83,0.16c-0.34,0-0.66-0.08-0.96-0.23s-0.53-0.37-0.7-0.65s-0.26-0.6-0.26-0.96c0-0.28,0.06-0.54,0.17-0.8
		c0.11-0.25,0.27-0.48,0.47-0.67c0.2-0.19,0.43-0.35,0.7-0.46c0.27-0.11,0.55-0.16,0.86-0.16c0.32,0,0.62,0.07,0.9,0.2
		c0.28,0.14,0.51,0.34,0.68,0.61S155.5,109.89,155.5,110.28z M154.23,110.26c0-0.23-0.06-0.41-0.18-0.54
		c-0.12-0.13-0.28-0.19-0.47-0.19c-0.2,0-0.36,0.06-0.49,0.18c-0.13,0.12-0.22,0.26-0.28,0.42s-0.09,0.32-0.09,0.46
		c0,0.21,0.06,0.38,0.18,0.52s0.28,0.21,0.49,0.21c0.16,0,0.31-0.05,0.44-0.16s0.23-0.24,0.3-0.4
		C154.19,110.6,154.23,110.43,154.23,110.26z"/>
	<path class="st4" d="M161.04,108.53l-0.2,0.93h-0.73l-0.25,1.24c-0.02,0.1-0.03,0.19-0.03,0.25c0,0.21,0.09,0.32,0.28,0.32
		c0.2,0,0.45-0.11,0.73-0.32l-0.07,1.15c-0.34,0.2-0.7,0.3-1.07,0.3c-0.16,0-0.32-0.03-0.48-0.09s-0.3-0.17-0.43-0.32
		c-0.15-0.18-0.23-0.42-0.23-0.72c0-0.13,0.01-0.27,0.04-0.41l0.26-1.39h-0.7l0.17-0.93h0.71l0.15-0.76h1.25l-0.15,0.76H161.04z"/>
	<path class="st4" d="M165.07,110.19c0,0.18-0.02,0.36-0.05,0.56h-2.4c0,0.52,0.26,0.79,0.77,0.79c0.26,0,0.49-0.03,0.69-0.09
		s0.44-0.15,0.72-0.26l-0.19,0.93c-0.27,0.11-0.48,0.18-0.64,0.22c-0.16,0.04-0.36,0.06-0.61,0.06c-0.52,0-0.92-0.1-1.22-0.29
		c-0.3-0.19-0.5-0.42-0.6-0.69c-0.11-0.27-0.16-0.53-0.16-0.79c0-0.39,0.09-0.75,0.27-1.08c0.18-0.33,0.42-0.6,0.74-0.79
		s0.67-0.29,1.06-0.29c0.3,0,0.57,0.06,0.81,0.19c0.24,0.13,0.44,0.32,0.59,0.58C165,109.49,165.07,109.81,165.07,110.19z
		 M163.87,110.08c0-0.02,0-0.03,0-0.05c0-0.02,0-0.04,0-0.07c0-0.43-0.15-0.64-0.44-0.64c-0.18,0-0.32,0.07-0.42,0.21
		c-0.1,0.14-0.2,0.32-0.29,0.55H163.87z"/>
	<path class="st4" d="M170.54,108.81l-0.09,0.89c-0.18-0.09-0.39-0.17-0.61-0.25c-0.22-0.07-0.4-0.11-0.53-0.11
		c-0.17,0-0.25,0.06-0.25,0.18c0,0.07,0.03,0.13,0.08,0.18s0.14,0.12,0.25,0.21c0.12,0.08,0.23,0.17,0.32,0.24
		c0.25,0.21,0.42,0.4,0.5,0.56c0.09,0.17,0.13,0.32,0.13,0.47c0,0.19-0.05,0.37-0.16,0.56s-0.28,0.34-0.5,0.46
		c-0.22,0.12-0.49,0.18-0.81,0.18c-0.13,0-0.31-0.02-0.54-0.07c-0.24-0.05-0.48-0.13-0.73-0.27l0.16-0.87
		c0.28,0.11,0.49,0.19,0.64,0.24c0.15,0.05,0.31,0.08,0.48,0.08c0.1,0,0.18-0.02,0.24-0.07s0.08-0.1,0.08-0.16
		c0-0.07-0.04-0.15-0.12-0.22c-0.08-0.07-0.23-0.19-0.46-0.36c-0.21-0.16-0.38-0.33-0.52-0.5c-0.14-0.17-0.21-0.37-0.21-0.59
		c0-0.3,0.12-0.57,0.37-0.8c0.24-0.23,0.6-0.35,1.07-0.35c0.25,0,0.46,0.03,0.65,0.09S170.34,108.7,170.54,108.81z"/>
	<path class="st4" d="M172.8,108.53l-0.54,3.79H171l0.54-3.79H172.8z M172.87,107.66c0,0.16-0.06,0.29-0.17,0.4
		c-0.11,0.11-0.25,0.17-0.41,0.17c-0.16,0-0.29-0.06-0.4-0.17c-0.11-0.11-0.17-0.25-0.17-0.4c0-0.16,0.06-0.29,0.17-0.4
		c0.11-0.11,0.25-0.17,0.4-0.17c0.1,0,0.19,0.03,0.28,0.08c0.09,0.05,0.16,0.12,0.21,0.21
		C172.85,107.47,172.87,107.56,172.87,107.66z"/>
	<path class="st4" d="M177.03,110.19c0,0.18-0.02,0.36-0.05,0.56h-2.4c0,0.52,0.26,0.79,0.77,0.79c0.26,0,0.49-0.03,0.69-0.09
		s0.44-0.15,0.72-0.26l-0.19,0.93c-0.27,0.11-0.48,0.18-0.64,0.22c-0.16,0.04-0.36,0.06-0.61,0.06c-0.52,0-0.92-0.1-1.22-0.29
		c-0.3-0.19-0.5-0.42-0.6-0.69c-0.11-0.27-0.16-0.53-0.16-0.79c0-0.39,0.09-0.75,0.27-1.08c0.18-0.33,0.42-0.6,0.74-0.79
		s0.67-0.29,1.06-0.29c0.3,0,0.57,0.06,0.81,0.19c0.24,0.13,0.44,0.32,0.59,0.58C176.96,109.49,177.03,109.81,177.03,110.19z
		 M175.83,110.08c0-0.02,0-0.03,0-0.05c0-0.02,0-0.04,0-0.07c0-0.43-0.15-0.64-0.44-0.64c-0.18,0-0.32,0.07-0.42,0.21
		c-0.1,0.14-0.2,0.32-0.29,0.55H175.83z"/>
	<path class="st4" d="M181.55,109.61c0,0.07-0.01,0.22-0.04,0.42l-0.34,2.29h-1.23l0.34-2.37c0-0.03,0.01-0.07,0.01-0.13
		c0-0.24-0.1-0.36-0.31-0.36c-0.13,0-0.25,0.04-0.38,0.13s-0.29,0.23-0.51,0.43l-0.33,2.29h-1.24l0.57-3.79h1.24l-0.06,0.44
		c0.23-0.16,0.43-0.29,0.6-0.38c0.17-0.09,0.39-0.13,0.64-0.13c0.39,0,0.66,0.12,0.82,0.36
		C181.47,109.06,181.55,109.32,181.55,109.61z"/>
	<path class="st4" d="M184.93,108.53l-0.2,0.93H184l-0.25,1.24c-0.02,0.1-0.03,0.19-0.03,0.25c0,0.21,0.09,0.32,0.28,0.32
		c0.2,0,0.45-0.11,0.73-0.32l-0.07,1.15c-0.34,0.2-0.7,0.3-1.07,0.3c-0.16,0-0.32-0.03-0.48-0.09s-0.3-0.17-0.43-0.32
		c-0.15-0.18-0.23-0.42-0.23-0.72c0-0.13,0.01-0.27,0.04-0.41l0.26-1.39h-0.7l0.17-0.93h0.71l0.15-0.76h1.25l-0.15,0.76H184.93z"/>
	<path class="st4" d="M188.96,110.19c0,0.18-0.02,0.36-0.05,0.56h-2.4c0,0.52,0.26,0.79,0.77,0.79c0.26,0,0.49-0.03,0.69-0.09
		s0.44-0.15,0.72-0.26l-0.19,0.93c-0.27,0.11-0.48,0.18-0.64,0.22c-0.16,0.04-0.36,0.06-0.61,0.06c-0.52,0-0.92-0.1-1.22-0.29
		c-0.3-0.19-0.5-0.42-0.6-0.69c-0.11-0.27-0.16-0.53-0.16-0.79c0-0.39,0.09-0.75,0.27-1.08c0.18-0.33,0.42-0.6,0.74-0.79
		s0.67-0.29,1.06-0.29c0.3,0,0.57,0.06,0.81,0.19c0.24,0.13,0.44,0.32,0.59,0.58C188.89,109.49,188.96,109.81,188.96,110.19z
		 M187.76,110.08c0-0.02,0-0.03,0-0.05c0-0.02,0-0.04,0-0.07c0-0.43-0.15-0.64-0.44-0.64c-0.18,0-0.32,0.07-0.42,0.21
		c-0.1,0.14-0.2,0.32-0.29,0.55H187.76z"/>
	<path class="st4" d="M192.21,108.81l-0.09,0.89c-0.18-0.09-0.39-0.17-0.61-0.25c-0.22-0.07-0.4-0.11-0.53-0.11
		c-0.17,0-0.25,0.06-0.25,0.18c0,0.07,0.03,0.13,0.08,0.18s0.14,0.12,0.25,0.21c0.12,0.08,0.23,0.17,0.32,0.24
		c0.25,0.21,0.42,0.4,0.5,0.56c0.09,0.17,0.13,0.32,0.13,0.47c0,0.19-0.05,0.37-0.16,0.56s-0.28,0.34-0.5,0.46
		c-0.22,0.12-0.49,0.18-0.81,0.18c-0.13,0-0.31-0.02-0.54-0.07c-0.24-0.05-0.48-0.13-0.73-0.27l0.16-0.87
		c0.28,0.11,0.49,0.19,0.64,0.24c0.15,0.05,0.31,0.08,0.48,0.08c0.1,0,0.18-0.02,0.24-0.07s0.08-0.1,0.08-0.16
		c0-0.07-0.04-0.15-0.12-0.22c-0.08-0.07-0.23-0.19-0.46-0.36c-0.21-0.16-0.38-0.33-0.52-0.5c-0.14-0.17-0.21-0.37-0.21-0.59
		c0-0.3,0.12-0.57,0.37-0.8c0.24-0.23,0.6-0.35,1.07-0.35c0.25,0,0.46,0.03,0.65,0.09S192,108.7,192.21,108.81z"/>
	<path class="st4" d="M198.43,108.6l-0.17,1.17c-0.24-0.08-0.4-0.13-0.46-0.14c-0.14-0.03-0.29-0.05-0.44-0.05
		c-0.29,0-0.52,0.05-0.7,0.16c-0.18,0.11-0.31,0.24-0.39,0.4s-0.12,0.3-0.12,0.43c0,0.17,0.06,0.33,0.17,0.48
		c0.11,0.16,0.34,0.23,0.69,0.23c0.18,0,0.35-0.02,0.53-0.07s0.41-0.14,0.7-0.28l-0.2,1.27c-0.16,0.05-0.28,0.09-0.38,0.11
		s-0.2,0.04-0.31,0.05c-0.11,0.01-0.23,0.02-0.35,0.02c-0.81,0-1.37-0.2-1.67-0.59c-0.3-0.39-0.45-0.81-0.45-1.24
		c0-0.28,0.07-0.58,0.22-0.9c0.14-0.32,0.4-0.6,0.76-0.84c0.36-0.24,0.85-0.36,1.46-0.36C197.66,108.46,198.03,108.51,198.43,108.6z
		"/>
	<path class="st4" d="M202.02,108.85l-0.58,1.2c-0.07-0.12-0.14-0.22-0.22-0.3c-0.08-0.08-0.19-0.12-0.31-0.12
		c-0.24,0-0.47,0.18-0.67,0.52l-0.32,2.17h-1.23l0.57-3.79h1.23l-0.08,0.54c0.34-0.41,0.64-0.61,0.91-0.61
		c0.14,0,0.26,0.03,0.37,0.1S201.9,108.73,202.02,108.85z"/>
	<path class="st4" d="M203.86,108.53l-0.54,3.79h-1.26l0.54-3.79H203.86z M203.93,107.66c0,0.16-0.06,0.29-0.17,0.4
		c-0.11,0.11-0.25,0.17-0.41,0.17c-0.16,0-0.29-0.06-0.4-0.17c-0.11-0.11-0.17-0.25-0.17-0.4c0-0.16,0.06-0.29,0.17-0.4
		c0.11-0.11,0.25-0.17,0.4-0.17c0.1,0,0.19,0.03,0.28,0.08c0.09,0.05,0.16,0.12,0.21,0.21
		C203.91,107.47,203.93,107.56,203.93,107.66z"/>
	<path class="st4" d="M207.18,108.53l-0.2,0.93h-0.73L206,110.7c-0.02,0.1-0.03,0.19-0.03,0.25c0,0.21,0.09,0.32,0.28,0.32
		c0.2,0,0.45-0.11,0.73-0.32l-0.07,1.15c-0.34,0.2-0.7,0.3-1.07,0.3c-0.16,0-0.32-0.03-0.48-0.09s-0.3-0.17-0.43-0.32
		c-0.15-0.18-0.23-0.42-0.23-0.72c0-0.13,0.01-0.27,0.04-0.41l0.26-1.39h-0.7l0.17-0.93h0.71l0.15-0.76h1.25l-0.15,0.76H207.18z"/>
	<path class="st4" d="M209.35,108.53l-0.54,3.79h-1.26l0.54-3.79H209.35z M209.42,107.66c0,0.16-0.06,0.29-0.17,0.4
		c-0.11,0.11-0.25,0.17-0.41,0.17c-0.16,0-0.29-0.06-0.4-0.17c-0.11-0.11-0.17-0.25-0.17-0.4c0-0.16,0.06-0.29,0.17-0.4
		c0.11-0.11,0.25-0.17,0.4-0.17c0.1,0,0.19,0.03,0.28,0.08c0.09,0.05,0.16,0.12,0.21,0.21C209.4,107.47,209.42,107.56,209.42,107.66
		z"/>
	<path class="st4" d="M212.79,109.86l-0.18,1.18h-2.53l0.18-1.18H212.79z"/>
	<path class="st4" d="M29.95,117.76l-0.17,1.17c-0.24-0.08-0.4-0.12-0.46-0.14c-0.14-0.03-0.29-0.05-0.44-0.05
		c-0.29,0-0.52,0.05-0.7,0.16c-0.18,0.11-0.31,0.24-0.4,0.4c-0.08,0.16-0.12,0.3-0.12,0.43c0,0.17,0.06,0.33,0.17,0.48
		c0.11,0.16,0.34,0.23,0.69,0.23c0.18,0,0.35-0.02,0.53-0.07s0.41-0.14,0.7-0.28l-0.2,1.27c-0.16,0.05-0.28,0.09-0.38,0.11
		s-0.2,0.04-0.31,0.05c-0.11,0.01-0.23,0.02-0.35,0.02c-0.81,0-1.37-0.2-1.67-0.59c-0.3-0.39-0.45-0.81-0.45-1.24
		c0-0.28,0.07-0.58,0.22-0.9s0.4-0.6,0.76-0.84s0.85-0.36,1.46-0.36C29.18,117.62,29.55,117.66,29.95,117.76z"/>
	<path class="st4" d="M34.27,117.74l-0.57,3.74h-1.23l0.06-0.34c-0.14,0.13-0.28,0.23-0.42,0.3c-0.13,0.07-0.31,0.11-0.52,0.11
		c-0.27,0-0.5-0.08-0.71-0.23c-0.21-0.15-0.36-0.35-0.48-0.6c-0.11-0.25-0.17-0.52-0.17-0.82c0-0.25,0.04-0.5,0.12-0.75
		c0.08-0.26,0.23-0.5,0.43-0.74c0.21-0.23,0.5-0.42,0.88-0.57c0.38-0.15,0.84-0.22,1.4-0.22c0.23,0,0.42,0.01,0.57,0.03
		C33.78,117.66,33.99,117.69,34.27,117.74z M32.93,118.53H32.7c-0.22,0-0.43,0.06-0.61,0.19c-0.18,0.13-0.33,0.3-0.43,0.51
		c-0.1,0.22-0.16,0.45-0.16,0.7c0,0.17,0.04,0.32,0.13,0.44c0.09,0.12,0.21,0.18,0.37,0.18c0.08,0,0.17-0.02,0.27-0.06
		s0.23-0.11,0.39-0.21L32.93,118.53z"/>
	<path class="st4" d="M39.08,116.31l-0.73,5.11c-0.5,0.08-0.95,0.12-1.36,0.12c-0.7,0-1.24-0.17-1.63-0.5
		c-0.39-0.33-0.58-0.78-0.58-1.34c0-0.22,0.04-0.45,0.13-0.69c0.08-0.24,0.22-0.47,0.41-0.68c0.19-0.21,0.43-0.38,0.73-0.52
		c0.3-0.13,0.66-0.2,1.09-0.2c0.16,0,0.33,0.01,0.51,0.03l0.2-1.33H39.08z M37.5,118.65c-0.03,0-0.07,0-0.12,0
		c-0.34,0-0.61,0.06-0.8,0.19c-0.2,0.13-0.33,0.28-0.4,0.44c-0.07,0.17-0.11,0.31-0.11,0.44c0,0.12,0.03,0.24,0.09,0.37
		s0.16,0.22,0.3,0.3s0.31,0.12,0.53,0.12c0.1,0,0.18-0.01,0.24-0.02L37.5,118.65z"/>
	<path class="st4" d="M43.39,119.44c0,0.3-0.05,0.58-0.16,0.84c-0.11,0.26-0.26,0.49-0.45,0.67s-0.42,0.33-0.68,0.43
		c-0.26,0.1-0.54,0.16-0.83,0.16c-0.34,0-0.66-0.08-0.96-0.23s-0.53-0.37-0.7-0.65s-0.26-0.6-0.26-0.96c0-0.28,0.06-0.54,0.17-0.8
		c0.11-0.25,0.27-0.48,0.47-0.67c0.2-0.2,0.43-0.35,0.7-0.46c0.27-0.11,0.55-0.16,0.86-0.16c0.32,0,0.62,0.07,0.9,0.2
		c0.28,0.14,0.51,0.34,0.68,0.61S43.39,119.04,43.39,119.44z M42.13,119.42c0-0.23-0.06-0.41-0.18-0.54
		c-0.12-0.13-0.28-0.19-0.47-0.19c-0.2,0-0.36,0.06-0.49,0.17c-0.13,0.12-0.22,0.26-0.28,0.42s-0.09,0.32-0.09,0.46
		c0,0.21,0.06,0.38,0.18,0.52s0.28,0.21,0.49,0.21c0.16,0,0.31-0.05,0.44-0.16s0.23-0.24,0.3-0.4
		C42.09,119.75,42.13,119.59,42.13,119.42z"/>
	<path class="st4" d="M50.17,118.77c0,0.08-0.01,0.21-0.04,0.42l-0.34,2.29h-1.23l0.34-2.37c0-0.03,0.01-0.07,0.01-0.13
		c0-0.24-0.1-0.36-0.31-0.36c-0.13,0-0.25,0.04-0.38,0.13c-0.12,0.08-0.29,0.23-0.51,0.43l-0.33,2.29h-1.24l0.57-3.79h1.24
		l-0.06,0.44c0.23-0.16,0.43-0.29,0.6-0.38c0.17-0.09,0.39-0.13,0.64-0.13c0.39,0,0.66,0.12,0.82,0.36
		C50.09,118.22,50.17,118.48,50.17,118.77z"/>
	<path class="st4" d="M52.61,117.68l-0.54,3.79h-1.26l0.54-3.79H52.61z M52.68,116.82c0,0.16-0.06,0.29-0.17,0.4
		c-0.11,0.11-0.25,0.17-0.41,0.17c-0.16,0-0.29-0.06-0.4-0.17c-0.11-0.11-0.17-0.25-0.17-0.4c0-0.16,0.06-0.29,0.17-0.4
		c0.11-0.11,0.25-0.17,0.4-0.17c0.1,0,0.19,0.03,0.28,0.08c0.09,0.05,0.16,0.12,0.21,0.21C52.66,116.62,52.68,116.72,52.68,116.82z"
		/>
	<path class="st4" d="M57.21,117.68l-0.6,4.19c-0.06,0.42-0.23,0.75-0.5,1.01c-0.28,0.26-0.63,0.39-1.06,0.39
		c-0.14,0-0.3-0.02-0.5-0.07l0.15-1c0.02,0,0.05,0,0.09,0c0.21,0,0.36-0.06,0.45-0.18c0.09-0.12,0.15-0.3,0.18-0.55l0.53-3.79H57.21
		z M57.28,116.82c0,0.16-0.06,0.29-0.17,0.4c-0.11,0.11-0.25,0.17-0.41,0.17c-0.16,0-0.29-0.06-0.4-0.17
		c-0.11-0.11-0.17-0.25-0.17-0.4c0-0.16,0.06-0.29,0.17-0.4c0.11-0.11,0.25-0.17,0.4-0.17c0.1,0,0.19,0.03,0.28,0.08
		c0.09,0.05,0.16,0.12,0.21,0.21C57.26,116.62,57.28,116.72,57.28,116.82z"/>
	<path class="st4" d="M61.92,117.68l-0.57,3.79h-1.24l0.06-0.44c-0.05,0.04-0.13,0.09-0.23,0.16c-0.1,0.07-0.2,0.13-0.29,0.17
		c-0.09,0.04-0.2,0.09-0.33,0.12c-0.13,0.04-0.26,0.05-0.4,0.05c-0.27,0-0.48-0.06-0.63-0.18s-0.27-0.27-0.33-0.45
		c-0.06-0.18-0.09-0.35-0.09-0.52c0-0.08,0.01-0.22,0.04-0.42l0.34-2.29h1.23l-0.34,2.37c0,0.03-0.01,0.07-0.01,0.13
		c0,0.24,0.1,0.36,0.31,0.36c0.13,0,0.26-0.04,0.38-0.13c0.12-0.08,0.29-0.23,0.51-0.43l0.33-2.3H61.92z"/>
	<path class="st4" d="M66.1,117.79l-1.93,2.78h1.59l-0.14,0.92h-3.39v-0.07l1.99-2.85h-1.59l0.12-0.87h3.35V117.79z"/>
	<path class="st4" d="M70.37,117.68l-0.12,0.85h-0.54c0.07,0.19,0.1,0.37,0.1,0.54c0,0.26-0.06,0.49-0.19,0.69s-0.31,0.36-0.56,0.47
		c-0.25,0.11-0.55,0.17-0.91,0.17h-0.22c-0.12,0-0.22,0.02-0.29,0.06c-0.07,0.04-0.11,0.1-0.11,0.17c0,0.06,0.02,0.11,0.05,0.14
		c0.04,0.03,0.12,0.06,0.25,0.09c0.13,0.03,0.35,0.08,0.66,0.13c0.88,0.16,1.33,0.53,1.33,1.11c0,0.19-0.05,0.37-0.14,0.54
		c-0.09,0.17-0.28,0.32-0.57,0.45c-0.29,0.13-0.69,0.19-1.22,0.19c-0.29,0-0.55-0.01-0.78-0.04s-0.43-0.07-0.6-0.14
		s-0.3-0.17-0.39-0.29c-0.09-0.13-0.14-0.29-0.14-0.48c0-0.37,0.28-0.65,0.85-0.84c-0.14-0.08-0.25-0.17-0.34-0.26
		s-0.13-0.22-0.13-0.38c0-0.36,0.27-0.58,0.82-0.66c-0.23-0.09-0.4-0.25-0.53-0.48c-0.13-0.22-0.19-0.45-0.19-0.67
		c0-0.14,0.03-0.29,0.08-0.45s0.15-0.3,0.28-0.44c0.13-0.14,0.3-0.25,0.51-0.33s0.46-0.12,0.77-0.12H70.37z M68.67,122.27
		c0-0.12-0.06-0.2-0.17-0.24c-0.11-0.04-0.35-0.09-0.7-0.13l-0.24-0.03c-0.18,0.07-0.3,0.13-0.36,0.18
		c-0.06,0.05-0.09,0.11-0.09,0.19c0,0.11,0.07,0.19,0.2,0.24s0.34,0.08,0.63,0.08c0.28,0,0.48-0.03,0.58-0.08
		C68.62,122.43,68.67,122.36,68.67,122.27z M68.66,118.92c0-0.17-0.04-0.29-0.12-0.38c-0.08-0.09-0.19-0.13-0.33-0.13
		c-0.21,0-0.36,0.09-0.44,0.26c-0.08,0.17-0.12,0.33-0.12,0.49c0,0.17,0.04,0.3,0.13,0.39c0.09,0.09,0.2,0.14,0.32,0.14
		c0.2,0,0.34-0.08,0.43-0.24C68.62,119.27,68.66,119.1,68.66,118.92z"/>
	<path class="st4" d="M74.52,117.74l-0.57,3.74h-1.23l0.06-0.34c-0.14,0.13-0.28,0.23-0.42,0.3c-0.13,0.07-0.31,0.11-0.52,0.11
		c-0.27,0-0.5-0.08-0.71-0.23c-0.21-0.15-0.36-0.35-0.48-0.6c-0.11-0.25-0.17-0.52-0.17-0.82c0-0.25,0.04-0.5,0.12-0.75
		c0.08-0.26,0.23-0.5,0.43-0.74c0.21-0.23,0.5-0.42,0.88-0.57c0.38-0.15,0.84-0.22,1.4-0.22c0.23,0,0.42,0.01,0.57,0.03
		C74.02,117.66,74.24,117.69,74.52,117.74z M73.17,118.53h-0.23c-0.22,0-0.43,0.06-0.61,0.19c-0.18,0.13-0.33,0.3-0.43,0.51
		c-0.1,0.22-0.16,0.45-0.16,0.7c0,0.17,0.04,0.32,0.13,0.44c0.09,0.12,0.21,0.18,0.37,0.18c0.08,0,0.17-0.02,0.27-0.06
		s0.23-0.11,0.39-0.21L73.17,118.53z"/>
	<path class="st4" d="M79.32,116.31l-0.73,5.11c-0.5,0.08-0.95,0.12-1.36,0.12c-0.7,0-1.24-0.17-1.63-0.5
		c-0.39-0.33-0.58-0.78-0.58-1.34c0-0.22,0.04-0.45,0.13-0.69c0.08-0.24,0.22-0.47,0.41-0.68c0.19-0.21,0.43-0.38,0.73-0.52
		c0.3-0.13,0.66-0.2,1.09-0.2c0.16,0,0.33,0.01,0.51,0.03l0.2-1.33H79.32z M77.75,118.65c-0.03,0-0.07,0-0.12,0
		c-0.34,0-0.61,0.06-0.8,0.19c-0.2,0.13-0.33,0.28-0.4,0.44c-0.07,0.17-0.11,0.31-0.11,0.44c0,0.12,0.03,0.24,0.09,0.37
		s0.16,0.22,0.3,0.3s0.31,0.12,0.53,0.12c0.1,0,0.18-0.01,0.24-0.02L77.75,118.65z"/>
	<path class="st4" d="M83.64,119.44c0,0.3-0.05,0.58-0.16,0.84c-0.11,0.26-0.26,0.49-0.45,0.67s-0.42,0.33-0.68,0.43
		c-0.26,0.1-0.54,0.16-0.83,0.16c-0.34,0-0.66-0.08-0.96-0.23s-0.53-0.37-0.7-0.65s-0.26-0.6-0.26-0.96c0-0.28,0.06-0.54,0.17-0.8
		c0.11-0.25,0.27-0.48,0.47-0.67c0.2-0.2,0.43-0.35,0.7-0.46c0.27-0.11,0.55-0.16,0.86-0.16c0.32,0,0.62,0.07,0.9,0.2
		c0.28,0.14,0.51,0.34,0.68,0.61S83.64,119.04,83.64,119.44z M82.37,119.42c0-0.23-0.06-0.41-0.18-0.54
		c-0.12-0.13-0.28-0.19-0.47-0.19c-0.2,0-0.36,0.06-0.49,0.17c-0.13,0.12-0.22,0.26-0.28,0.42s-0.09,0.32-0.09,0.46
		c0,0.21,0.06,0.38,0.18,0.52s0.28,0.21,0.49,0.21c0.16,0,0.31-0.05,0.44-0.16s0.23-0.24,0.3-0.4
		C82.34,119.75,82.37,119.59,82.37,119.42z"/>
	<path class="st4" d="M85.56,120.77c0,0.14-0.03,0.27-0.1,0.39c-0.07,0.12-0.16,0.21-0.28,0.28c-0.12,0.07-0.25,0.1-0.39,0.1
		s-0.27-0.04-0.39-0.1s-0.21-0.16-0.28-0.28c-0.07-0.12-0.1-0.25-0.1-0.39c0-0.14,0.03-0.27,0.1-0.39c0.07-0.12,0.16-0.21,0.28-0.28
		c0.12-0.07,0.25-0.1,0.39-0.1s0.27,0.03,0.39,0.1c0.12,0.07,0.21,0.16,0.28,0.28C85.53,120.5,85.56,120.63,85.56,120.77z"/>
	<path class="st4" d="M27.74,128.92l-0.07,2.4c-0.02,0.31-0.05,0.53-0.1,0.67c-0.04,0.11-0.12,0.21-0.23,0.3
		c-0.11,0.09-0.27,0.14-0.49,0.14c-0.23,0-0.39-0.06-0.5-0.17c-0.1-0.12-0.16-0.24-0.16-0.38c0-0.21,0.06-0.5,0.17-0.89l0.58-2.06
		H27.74z M28.28,127.9c0,0.14-0.04,0.28-0.11,0.39s-0.17,0.21-0.28,0.28c-0.12,0.07-0.25,0.1-0.39,0.1s-0.27-0.04-0.39-0.1
		s-0.21-0.16-0.28-0.28c-0.07-0.12-0.1-0.25-0.1-0.39s0.03-0.27,0.1-0.39c0.07-0.12,0.16-0.21,0.28-0.28s0.25-0.1,0.39-0.1
		s0.27,0.04,0.39,0.1c0.12,0.07,0.21,0.16,0.28,0.28S28.28,127.76,28.28,127.9z"/>
	<path class="st4" d="M33.13,125.47L33,126.39h-2.09l-0.16,1.12h1.81l-0.13,0.92H30.6l-0.17,1.27h2.54l-0.13,0.92h-3.87l0.75-5.16
		H33.13z"/>
	<path class="st4" d="M35.57,125.47l-0.76,5.16h-1.26l0.76-5.16H35.57z"/>
	<path class="st4" d="M41.69,126.91l-0.17,1.17c-0.24-0.08-0.4-0.12-0.46-0.14c-0.14-0.03-0.29-0.05-0.44-0.05
		c-0.29,0-0.52,0.05-0.7,0.16c-0.18,0.11-0.31,0.24-0.39,0.4c-0.08,0.16-0.12,0.3-0.12,0.43c0,0.17,0.06,0.33,0.17,0.48
		c0.11,0.16,0.34,0.23,0.69,0.23c0.18,0,0.35-0.02,0.53-0.07s0.41-0.14,0.7-0.28l-0.2,1.27c-0.16,0.05-0.28,0.09-0.38,0.11
		s-0.2,0.04-0.31,0.05c-0.11,0.01-0.23,0.02-0.35,0.02c-0.81,0-1.37-0.2-1.67-0.59c-0.3-0.39-0.45-0.81-0.45-1.24
		c0-0.28,0.07-0.58,0.22-0.9c0.14-0.32,0.4-0.6,0.76-0.84s0.85-0.36,1.46-0.36C40.92,126.77,41.29,126.82,41.69,126.91z"/>
	<path class="st4" d="M46.04,128.6c0,0.3-0.05,0.58-0.16,0.84c-0.11,0.26-0.26,0.49-0.45,0.67s-0.42,0.33-0.68,0.43
		c-0.26,0.1-0.54,0.16-0.83,0.16c-0.34,0-0.66-0.08-0.96-0.23s-0.53-0.37-0.7-0.65s-0.26-0.6-0.26-0.96c0-0.28,0.06-0.54,0.17-0.8
		c0.11-0.25,0.27-0.48,0.47-0.67c0.2-0.2,0.43-0.35,0.7-0.46c0.27-0.11,0.55-0.16,0.86-0.16c0.32,0,0.62,0.07,0.9,0.2
		c0.28,0.14,0.51,0.34,0.68,0.61S46.04,128.2,46.04,128.6z M44.77,128.57c0-0.23-0.06-0.41-0.18-0.54
		c-0.12-0.13-0.28-0.19-0.47-0.19c-0.2,0-0.36,0.06-0.49,0.17c-0.13,0.12-0.22,0.26-0.28,0.42s-0.09,0.32-0.09,0.46
		c0,0.21,0.06,0.38,0.18,0.52s0.28,0.21,0.49,0.21c0.16,0,0.31-0.05,0.44-0.16s0.23-0.24,0.3-0.4
		C44.73,128.91,44.77,128.74,44.77,128.57z"/>
	<path class="st4" d="M52.67,127.9c0,0.1-0.02,0.27-0.05,0.52l-0.32,2.21h-1.25l0.33-2.24c0.01-0.11,0.02-0.2,0.02-0.26
		c0-0.26-0.09-0.39-0.28-0.39c-0.18,0-0.43,0.13-0.73,0.4l-0.35,2.49H48.8l0.31-2.13c0.03-0.23,0.05-0.38,0.05-0.44
		c0-0.11-0.02-0.19-0.06-0.24c-0.04-0.05-0.11-0.08-0.21-0.08c-0.11,0-0.22,0.04-0.33,0.12c-0.12,0.08-0.26,0.2-0.43,0.37l-0.34,2.4
		h-1.24l0.56-3.79h1.24l-0.07,0.44c0.13-0.13,0.29-0.24,0.49-0.35c0.2-0.11,0.41-0.16,0.64-0.16c0.43,0,0.74,0.19,0.92,0.56
		c0.09-0.09,0.19-0.17,0.31-0.26s0.25-0.15,0.4-0.21s0.32-0.09,0.5-0.09c0.44,0,0.74,0.12,0.9,0.36
		C52.59,127.37,52.67,127.63,52.67,127.9z"/>
	<path class="st4" d="M57.49,128.54c0,0.39-0.08,0.75-0.25,1.08c-0.17,0.33-0.41,0.59-0.73,0.79c-0.32,0.2-0.69,0.29-1.1,0.29
		c-0.12,0-0.24-0.01-0.34-0.03s-0.22-0.05-0.34-0.09l-0.28,1.78h-1.24l0.6-3.95l-0.52,0.62c-0.05,0.05-0.08,0.09-0.11,0.11
		c-0.02,0.02-0.05,0.03-0.08,0.03c-0.08,0-0.12-0.05-0.12-0.15c0-0.12,0.04-0.26,0.13-0.44c0.09-0.18,0.19-0.34,0.3-0.48
		c0.11-0.14,0.28-0.32,0.52-0.53l0.21-1.4h1.23l-0.1,0.67c0.08-0.02,0.17-0.04,0.26-0.04c0.09-0.01,0.18-0.02,0.27-0.02
		c0.28,0,0.52,0.05,0.74,0.14c0.21,0.09,0.39,0.22,0.53,0.38c0.14,0.16,0.25,0.35,0.31,0.56S57.49,128.29,57.49,128.54z
		 M56.19,128.52c0-0.25-0.06-0.45-0.18-0.62c-0.12-0.16-0.31-0.24-0.59-0.24c-0.1,0-0.19,0.01-0.28,0.03l-0.3,1.97
		c0.09,0.02,0.19,0.04,0.29,0.04c0.25,0,0.46-0.06,0.62-0.18c0.16-0.12,0.27-0.27,0.33-0.45C56.16,128.9,56.19,128.71,56.19,128.52z
		"/>
	<path class="st4" d="M62.05,126.89l-0.57,3.74h-1.23l0.06-0.34c-0.14,0.13-0.28,0.23-0.42,0.3c-0.13,0.07-0.31,0.11-0.52,0.11
		c-0.27,0-0.5-0.08-0.71-0.23c-0.21-0.15-0.36-0.35-0.48-0.6c-0.11-0.25-0.17-0.52-0.17-0.82c0-0.25,0.04-0.5,0.12-0.75
		c0.08-0.26,0.23-0.5,0.43-0.74c0.21-0.23,0.5-0.42,0.88-0.57c0.38-0.15,0.84-0.22,1.4-0.22c0.23,0,0.42,0.01,0.57,0.03
		C61.55,126.82,61.77,126.85,62.05,126.89z M60.7,127.69h-0.23c-0.22,0-0.43,0.06-0.61,0.19c-0.18,0.13-0.33,0.3-0.43,0.51
		c-0.1,0.22-0.16,0.45-0.16,0.7c0,0.17,0.04,0.32,0.13,0.44c0.09,0.12,0.21,0.18,0.37,0.18c0.08,0,0.17-0.02,0.27-0.06
		s0.23-0.11,0.39-0.21L60.7,127.69z"/>
	<path class="st4" d="M66.54,127.92c0,0.08-0.01,0.21-0.04,0.42l-0.34,2.29h-1.23l0.34-2.37c0-0.03,0.01-0.07,0.01-0.13
		c0-0.24-0.1-0.36-0.31-0.36c-0.13,0-0.25,0.04-0.38,0.13c-0.12,0.08-0.29,0.23-0.51,0.43l-0.33,2.29H62.5l0.57-3.79h1.24
		l-0.06,0.44c0.23-0.16,0.43-0.29,0.6-0.38c0.17-0.09,0.39-0.13,0.64-0.13c0.39,0,0.66,0.12,0.82,0.36
		C66.46,127.37,66.54,127.64,66.54,127.92z M66.38,125.21c-0.01,0.38-0.1,0.67-0.26,0.85s-0.35,0.28-0.56,0.28
		c-0.1,0-0.19-0.01-0.26-0.04c-0.07-0.03-0.23-0.11-0.48-0.24c-0.07-0.05-0.15-0.07-0.26-0.07c-0.07,0-0.14,0.03-0.21,0.08
		c-0.07,0.06-0.11,0.15-0.12,0.27h-0.62c0.1-0.75,0.38-1.13,0.86-1.13c0.08,0,0.14,0.01,0.2,0.02s0.12,0.04,0.18,0.07
		c0.06,0.03,0.17,0.09,0.32,0.18c0.09,0.06,0.18,0.09,0.25,0.09c0.09,0,0.17-0.04,0.23-0.11c0.06-0.07,0.1-0.16,0.11-0.26H66.38z"/>
	<path class="st4" d="M70.84,128.51c0,0.18-0.02,0.36-0.05,0.55h-2.4c0,0.52,0.26,0.79,0.77,0.79c0.26,0,0.49-0.03,0.69-0.09
		s0.44-0.15,0.72-0.26l-0.19,0.93c-0.27,0.11-0.48,0.18-0.64,0.22c-0.16,0.04-0.36,0.06-0.61,0.06c-0.52,0-0.92-0.1-1.22-0.29
		c-0.3-0.19-0.5-0.42-0.6-0.69c-0.11-0.27-0.16-0.53-0.16-0.79c0-0.39,0.09-0.75,0.27-1.08c0.18-0.33,0.42-0.59,0.74-0.79
		s0.67-0.29,1.06-0.29c0.3,0,0.57,0.06,0.81,0.19c0.24,0.13,0.44,0.32,0.59,0.58S70.84,128.13,70.84,128.51z M69.64,128.39
		c0-0.02,0-0.03,0-0.05c0-0.02,0-0.04,0-0.07c0-0.43-0.15-0.64-0.44-0.64c-0.18,0-0.32,0.07-0.42,0.21c-0.1,0.14-0.2,0.32-0.29,0.55
		H69.64z"/>
	<path class="st4" d="M74.66,127.16l-0.58,1.2c-0.07-0.12-0.14-0.22-0.22-0.3c-0.08-0.08-0.19-0.12-0.31-0.12
		c-0.24,0-0.47,0.17-0.67,0.53l-0.32,2.17h-1.23l0.57-3.79h1.23l-0.08,0.54c0.34-0.41,0.64-0.61,0.91-0.61
		c0.14,0,0.26,0.03,0.37,0.1S74.54,127.04,74.66,127.16z"/>
	<path class="st4" d="M76.5,126.84l-0.54,3.79H74.7l0.54-3.79H76.5z M76.57,125.97c0,0.16-0.06,0.29-0.17,0.4
		c-0.11,0.11-0.25,0.17-0.41,0.17c-0.16,0-0.29-0.06-0.4-0.17c-0.11-0.11-0.17-0.25-0.17-0.4c0-0.16,0.06-0.29,0.17-0.4
		c0.11-0.11,0.25-0.17,0.4-0.17c0.1,0,0.19,0.03,0.28,0.08c0.09,0.05,0.16,0.12,0.21,0.21C76.55,125.78,76.57,125.87,76.57,125.97z"
		/>
	<path class="st4" d="M79.76,127.12l-0.09,0.89c-0.18-0.09-0.39-0.18-0.61-0.25c-0.22-0.07-0.4-0.11-0.53-0.11
		c-0.17,0-0.25,0.06-0.25,0.17c0,0.07,0.03,0.13,0.08,0.18s0.14,0.12,0.25,0.21c0.12,0.08,0.23,0.16,0.32,0.24
		c0.25,0.21,0.42,0.4,0.5,0.56c0.09,0.17,0.13,0.32,0.13,0.47c0,0.19-0.05,0.37-0.16,0.56s-0.28,0.34-0.5,0.46
		c-0.22,0.12-0.49,0.18-0.81,0.18c-0.13,0-0.31-0.02-0.54-0.07c-0.24-0.05-0.48-0.13-0.73-0.27l0.16-0.87
		c0.28,0.11,0.49,0.19,0.64,0.24c0.15,0.05,0.31,0.08,0.48,0.08c0.1,0,0.18-0.02,0.24-0.07s0.08-0.1,0.08-0.16
		c0-0.07-0.04-0.15-0.12-0.22c-0.08-0.07-0.23-0.19-0.46-0.36c-0.21-0.16-0.38-0.33-0.52-0.5c-0.14-0.17-0.21-0.37-0.21-0.59
		c0-0.3,0.12-0.57,0.37-0.8c0.24-0.23,0.6-0.35,1.07-0.35c0.25,0,0.46,0.03,0.65,0.09S79.56,127.01,79.76,127.12z"/>
	<path class="st4" d="M86.27,127.9c0,0.1-0.02,0.27-0.05,0.52l-0.32,2.21h-1.25l0.33-2.24c0.01-0.11,0.02-0.2,0.02-0.26
		c0-0.26-0.09-0.39-0.28-0.39c-0.18,0-0.43,0.13-0.73,0.4l-0.35,2.49H82.4l0.31-2.13c0.03-0.23,0.05-0.38,0.05-0.44
		c0-0.11-0.02-0.19-0.06-0.24c-0.04-0.05-0.11-0.08-0.21-0.08c-0.11,0-0.22,0.04-0.33,0.12c-0.12,0.08-0.26,0.2-0.43,0.37l-0.34,2.4
		h-1.24l0.56-3.79h1.24l-0.07,0.44c0.13-0.13,0.29-0.24,0.49-0.35c0.2-0.11,0.41-0.16,0.64-0.16c0.43,0,0.74,0.19,0.92,0.56
		c0.09-0.09,0.19-0.17,0.31-0.26s0.25-0.15,0.4-0.21s0.32-0.09,0.5-0.09c0.44,0,0.74,0.12,0.9,0.36
		C86.19,127.37,86.27,127.63,86.27,127.9z"/>
	<path class="st4" d="M90.94,128.6c0,0.3-0.05,0.58-0.16,0.84c-0.11,0.26-0.26,0.49-0.45,0.67s-0.42,0.33-0.68,0.43
		c-0.26,0.1-0.54,0.16-0.83,0.16c-0.34,0-0.66-0.08-0.96-0.23s-0.53-0.37-0.7-0.65s-0.26-0.6-0.26-0.96c0-0.28,0.06-0.54,0.17-0.8
		c0.11-0.25,0.27-0.48,0.47-0.67c0.2-0.2,0.43-0.35,0.7-0.46c0.27-0.11,0.55-0.16,0.86-0.16c0.32,0,0.62,0.07,0.9,0.2
		c0.28,0.14,0.51,0.34,0.68,0.61S90.94,128.2,90.94,128.6z M89.67,128.57c0-0.23-0.06-0.41-0.18-0.54
		c-0.12-0.13-0.28-0.19-0.47-0.19c-0.2,0-0.36,0.06-0.49,0.17c-0.13,0.12-0.22,0.26-0.28,0.42s-0.09,0.32-0.09,0.46
		c0,0.21,0.06,0.38,0.18,0.52s0.28,0.21,0.49,0.21c0.16,0,0.31-0.05,0.44-0.16s0.23-0.24,0.3-0.4
		C89.64,128.91,89.67,128.74,89.67,128.57z"/>
	<path class="st4" d="M97.4,128.51c0,0.18-0.02,0.36-0.05,0.55h-2.4c0,0.52,0.26,0.79,0.77,0.79c0.26,0,0.49-0.03,0.69-0.09
		s0.44-0.15,0.72-0.26l-0.19,0.93c-0.27,0.11-0.48,0.18-0.64,0.22c-0.16,0.04-0.36,0.06-0.61,0.06c-0.52,0-0.92-0.1-1.22-0.29
		c-0.3-0.19-0.5-0.42-0.6-0.69c-0.11-0.27-0.16-0.53-0.16-0.79c0-0.39,0.09-0.75,0.27-1.08c0.18-0.33,0.42-0.59,0.74-0.79
		s0.67-0.29,1.06-0.29c0.3,0,0.57,0.06,0.81,0.19c0.24,0.13,0.44,0.32,0.59,0.58S97.4,128.13,97.4,128.51z M96.2,128.39
		c0-0.02,0-0.03,0-0.05c0-0.02,0-0.04,0-0.07c0-0.43-0.15-0.64-0.44-0.64c-0.18,0-0.32,0.07-0.42,0.21c-0.1,0.14-0.2,0.32-0.29,0.55
		H96.2z"/>
	<path class="st4" d="M100.65,127.12l-0.09,0.89c-0.18-0.09-0.39-0.18-0.61-0.25c-0.22-0.07-0.4-0.11-0.53-0.11
		c-0.17,0-0.25,0.06-0.25,0.17c0,0.07,0.03,0.13,0.08,0.18s0.14,0.12,0.25,0.21c0.12,0.08,0.23,0.16,0.32,0.24
		c0.25,0.21,0.42,0.4,0.5,0.56c0.09,0.17,0.13,0.32,0.13,0.47c0,0.19-0.05,0.37-0.16,0.56s-0.28,0.34-0.5,0.46
		c-0.22,0.12-0.49,0.18-0.81,0.18c-0.13,0-0.31-0.02-0.54-0.07c-0.24-0.05-0.48-0.13-0.73-0.27l0.16-0.87
		c0.28,0.11,0.49,0.19,0.64,0.24c0.15,0.05,0.31,0.08,0.48,0.08c0.1,0,0.18-0.02,0.24-0.07s0.08-0.1,0.08-0.16
		c0-0.07-0.04-0.15-0.12-0.22c-0.08-0.07-0.23-0.19-0.46-0.36c-0.21-0.16-0.38-0.33-0.52-0.5c-0.14-0.17-0.21-0.37-0.21-0.59
		c0-0.3,0.12-0.57,0.37-0.8c0.24-0.23,0.6-0.35,1.07-0.35c0.25,0,0.46,0.03,0.65,0.09S100.44,127.01,100.65,127.12z"/>
	<path class="st4" d="M105.35,125.47l-0.76,5.16h-1.26l0.76-5.16H105.35z"/>
	<path class="st4" d="M109.73,128.6c0,0.3-0.05,0.58-0.16,0.84c-0.11,0.26-0.26,0.49-0.45,0.67s-0.42,0.33-0.68,0.43
		c-0.26,0.1-0.54,0.16-0.83,0.16c-0.34,0-0.66-0.08-0.96-0.23s-0.53-0.37-0.7-0.65s-0.26-0.6-0.26-0.96c0-0.28,0.06-0.54,0.17-0.8
		c0.11-0.25,0.27-0.48,0.47-0.67c0.2-0.2,0.43-0.35,0.7-0.46c0.27-0.11,0.55-0.16,0.86-0.16c0.32,0,0.62,0.07,0.9,0.2
		c0.28,0.14,0.51,0.34,0.68,0.61S109.73,128.2,109.73,128.6z M108.47,128.57c0-0.23-0.06-0.41-0.18-0.54
		c-0.12-0.13-0.28-0.19-0.47-0.19c-0.2,0-0.36,0.06-0.49,0.17c-0.13,0.12-0.22,0.26-0.28,0.42s-0.09,0.32-0.09,0.46
		c0,0.21,0.06,0.38,0.18,0.52s0.28,0.21,0.49,0.21c0.16,0,0.31-0.05,0.44-0.16s0.23-0.24,0.3-0.4
		C108.43,128.91,108.47,128.74,108.47,128.57z"/>
	<path class="st4" d="M116.5,126.84l-0.79,5.52h-1.26l0.28-1.9c-0.12,0.06-0.25,0.12-0.39,0.17c-0.14,0.05-0.3,0.08-0.48,0.08
		c-0.27,0-0.51-0.07-0.71-0.21c-0.21-0.14-0.37-0.34-0.48-0.59s-0.17-0.54-0.17-0.85c0-0.18,0.03-0.38,0.08-0.62
		c0.05-0.23,0.16-0.47,0.33-0.72c0.17-0.25,0.41-0.45,0.74-0.62s0.75-0.25,1.26-0.25H116.5z M115.11,127.87
		c-0.56,0.02-0.93,0.16-1.09,0.41s-0.25,0.5-0.25,0.75c0,0.21,0.05,0.38,0.16,0.51s0.25,0.2,0.42,0.2c0.16,0,0.33-0.05,0.5-0.14
		L115.11,127.87z"/>
	<path class="st4" d="M121.07,126.84l-0.57,3.79h-1.24l0.06-0.44c-0.05,0.04-0.13,0.09-0.23,0.16c-0.1,0.07-0.2,0.13-0.29,0.17
		c-0.09,0.04-0.2,0.09-0.33,0.12c-0.13,0.04-0.26,0.05-0.4,0.05c-0.27,0-0.48-0.06-0.63-0.18s-0.27-0.27-0.33-0.45
		c-0.06-0.18-0.09-0.35-0.09-0.52c0-0.08,0.01-0.22,0.04-0.42l0.34-2.29h1.23l-0.34,2.37c0,0.03-0.01,0.07-0.01,0.13
		c0,0.24,0.1,0.36,0.31,0.36c0.13,0,0.26-0.04,0.38-0.13c0.12-0.08,0.29-0.23,0.51-0.43l0.33-2.3H121.07z"/>
	<path class="st4" d="M125.25,128.51c0,0.18-0.02,0.36-0.05,0.55h-2.4c0,0.52,0.26,0.79,0.77,0.79c0.26,0,0.49-0.03,0.69-0.09
		s0.44-0.15,0.72-0.26l-0.19,0.93c-0.27,0.11-0.48,0.18-0.64,0.22c-0.16,0.04-0.36,0.06-0.61,0.06c-0.52,0-0.92-0.1-1.22-0.29
		c-0.3-0.19-0.5-0.42-0.6-0.69c-0.11-0.27-0.16-0.53-0.16-0.79c0-0.39,0.09-0.75,0.27-1.08c0.18-0.33,0.42-0.59,0.74-0.79
		s0.67-0.29,1.06-0.29c0.3,0,0.57,0.06,0.81,0.19c0.24,0.13,0.44,0.32,0.59,0.58S125.25,128.13,125.25,128.51z M124.05,128.39
		c0-0.02,0-0.03,0-0.05c0-0.02,0-0.04,0-0.07c0-0.43-0.15-0.64-0.44-0.64c-0.18,0-0.32,0.07-0.42,0.21c-0.1,0.14-0.2,0.32-0.29,0.55
		H124.05z"/>
	<path class="st4" d="M134.08,127.9c0,0.1-0.02,0.27-0.05,0.52l-0.32,2.21h-1.25l0.33-2.24c0.01-0.11,0.02-0.2,0.02-0.26
		c0-0.26-0.09-0.39-0.28-0.39c-0.18,0-0.43,0.13-0.73,0.4l-0.35,2.49h-1.24l0.31-2.13c0.03-0.23,0.05-0.38,0.05-0.44
		c0-0.11-0.02-0.19-0.06-0.24c-0.04-0.05-0.11-0.08-0.21-0.08c-0.11,0-0.22,0.04-0.33,0.12c-0.12,0.08-0.26,0.2-0.43,0.37l-0.34,2.4
		h-1.24l0.56-3.79h1.24l-0.07,0.44c0.13-0.13,0.29-0.24,0.49-0.35c0.2-0.11,0.41-0.16,0.64-0.16c0.43,0,0.74,0.19,0.92,0.56
		c0.09-0.09,0.19-0.17,0.31-0.26s0.25-0.15,0.4-0.21s0.32-0.09,0.5-0.09c0.44,0,0.74,0.12,0.9,0.36
		C134,127.37,134.08,127.63,134.08,127.9z"/>
	<path class="st4" d="M138.38,128.51c0,0.18-0.02,0.36-0.05,0.55h-2.4c0,0.52,0.26,0.79,0.77,0.79c0.26,0,0.49-0.03,0.69-0.09
		s0.44-0.15,0.72-0.26l-0.19,0.93c-0.27,0.11-0.48,0.18-0.64,0.22c-0.16,0.04-0.36,0.06-0.61,0.06c-0.52,0-0.92-0.1-1.22-0.29
		c-0.3-0.19-0.5-0.42-0.6-0.69c-0.11-0.27-0.16-0.53-0.16-0.79c0-0.39,0.09-0.75,0.27-1.08c0.18-0.33,0.42-0.59,0.74-0.79
		s0.67-0.29,1.06-0.29c0.3,0,0.57,0.06,0.81,0.19c0.24,0.13,0.44,0.32,0.59,0.58S138.38,128.13,138.38,128.51z M137.18,128.39
		c0-0.02,0-0.03,0-0.05c0-0.02,0-0.04,0-0.07c0-0.43-0.15-0.64-0.44-0.64c-0.18,0-0.32,0.07-0.42,0.21c-0.1,0.14-0.2,0.32-0.29,0.55
		H137.18z"/>
	<path class="st4" d="M145.05,126.84l-0.12,0.85h-0.54c0.07,0.19,0.1,0.37,0.1,0.54c0,0.26-0.06,0.49-0.19,0.69
		s-0.31,0.36-0.56,0.47c-0.25,0.11-0.55,0.17-0.91,0.17h-0.22c-0.12,0-0.22,0.02-0.29,0.06c-0.07,0.04-0.11,0.1-0.11,0.17
		c0,0.06,0.02,0.11,0.05,0.14c0.04,0.03,0.12,0.06,0.25,0.09c0.13,0.03,0.35,0.08,0.66,0.13c0.88,0.16,1.33,0.53,1.33,1.11
		c0,0.19-0.05,0.37-0.14,0.54c-0.09,0.17-0.28,0.32-0.57,0.45c-0.29,0.13-0.69,0.19-1.22,0.19c-0.29,0-0.55-0.01-0.78-0.04
		s-0.43-0.07-0.6-0.14s-0.3-0.17-0.39-0.29c-0.09-0.13-0.14-0.29-0.14-0.48c0-0.37,0.28-0.65,0.85-0.84
		c-0.14-0.08-0.25-0.17-0.34-0.26s-0.13-0.22-0.13-0.38c0-0.36,0.27-0.58,0.82-0.66c-0.23-0.09-0.4-0.25-0.53-0.48
		c-0.13-0.22-0.19-0.45-0.19-0.67c0-0.14,0.03-0.29,0.08-0.45s0.15-0.3,0.28-0.44c0.13-0.14,0.3-0.25,0.51-0.33s0.46-0.12,0.77-0.12
		H145.05z M143.35,131.43c0-0.12-0.06-0.2-0.17-0.24c-0.11-0.04-0.35-0.09-0.7-0.13l-0.24-0.03c-0.18,0.07-0.3,0.13-0.36,0.18
		c-0.06,0.05-0.09,0.11-0.09,0.19c0,0.11,0.07,0.19,0.2,0.24s0.34,0.08,0.63,0.08c0.28,0,0.48-0.03,0.58-0.08
		C143.3,131.59,143.35,131.52,143.35,131.43z M143.33,128.08c0-0.17-0.04-0.29-0.12-0.38c-0.08-0.09-0.19-0.13-0.33-0.13
		c-0.21,0-0.36,0.09-0.44,0.26c-0.08,0.17-0.12,0.33-0.12,0.49c0,0.17,0.04,0.3,0.13,0.39c0.09,0.09,0.2,0.14,0.32,0.14
		c0.2,0,0.34-0.08,0.43-0.24C143.29,128.43,143.33,128.26,143.33,128.08z"/>
	<path class="st4" d="M149.28,126.84l-0.57,3.79h-1.24l0.06-0.44c-0.05,0.04-0.13,0.09-0.23,0.16c-0.1,0.07-0.2,0.13-0.29,0.17
		c-0.09,0.04-0.2,0.09-0.33,0.12c-0.13,0.04-0.26,0.05-0.4,0.05c-0.27,0-0.48-0.06-0.63-0.18s-0.27-0.27-0.33-0.45
		c-0.06-0.18-0.09-0.35-0.09-0.52c0-0.08,0.01-0.22,0.04-0.42l0.34-2.29h1.23l-0.34,2.37c0,0.03-0.01,0.07-0.01,0.13
		c0,0.24,0.1,0.36,0.31,0.36c0.13,0,0.26-0.04,0.38-0.13c0.12-0.08,0.29-0.23,0.51-0.43l0.33-2.3H149.28z"/>
	<path class="st4" d="M152.49,127.12l-0.09,0.89c-0.18-0.09-0.39-0.18-0.61-0.25c-0.22-0.07-0.4-0.11-0.53-0.11
		c-0.17,0-0.25,0.06-0.25,0.17c0,0.07,0.03,0.13,0.08,0.18s0.14,0.12,0.25,0.21c0.12,0.08,0.23,0.16,0.32,0.24
		c0.25,0.21,0.42,0.4,0.5,0.56c0.09,0.17,0.13,0.32,0.13,0.47c0,0.19-0.05,0.37-0.16,0.56s-0.28,0.34-0.5,0.46
		c-0.22,0.12-0.49,0.18-0.81,0.18c-0.13,0-0.31-0.02-0.54-0.07c-0.24-0.05-0.48-0.13-0.73-0.27l0.16-0.87
		c0.28,0.11,0.49,0.19,0.64,0.24c0.15,0.05,0.31,0.08,0.48,0.08c0.1,0,0.18-0.02,0.24-0.07s0.08-0.1,0.08-0.16
		c0-0.07-0.04-0.15-0.12-0.22c-0.08-0.07-0.23-0.19-0.46-0.36c-0.21-0.16-0.38-0.33-0.52-0.5c-0.14-0.17-0.21-0.37-0.21-0.59
		c0-0.3,0.12-0.57,0.37-0.8c0.24-0.23,0.6-0.35,1.07-0.35c0.25,0,0.46,0.03,0.65,0.09S152.28,127.01,152.49,127.12z"/>
	<path class="st4" d="M155.69,126.84l-0.2,0.93h-0.73l-0.25,1.24c-0.02,0.1-0.03,0.19-0.03,0.25c0,0.21,0.09,0.32,0.28,0.32
		c0.2,0,0.45-0.11,0.73-0.32l-0.07,1.15c-0.34,0.2-0.7,0.3-1.07,0.3c-0.16,0-0.32-0.03-0.48-0.09s-0.3-0.17-0.43-0.32
		c-0.15-0.18-0.23-0.42-0.23-0.72c0-0.13,0.01-0.27,0.04-0.41l0.26-1.39h-0.7l0.17-0.93h0.71l0.15-0.76h1.25l-0.15,0.76H155.69z"/>
	<path class="st4" d="M160.09,128.6c0,0.3-0.05,0.58-0.16,0.84c-0.11,0.26-0.26,0.49-0.45,0.67s-0.42,0.33-0.68,0.43
		c-0.26,0.1-0.54,0.16-0.83,0.16c-0.34,0-0.66-0.08-0.96-0.23s-0.53-0.37-0.7-0.65s-0.26-0.6-0.26-0.96c0-0.28,0.06-0.54,0.17-0.8
		c0.11-0.25,0.27-0.48,0.47-0.67c0.2-0.2,0.43-0.35,0.7-0.46c0.27-0.11,0.55-0.16,0.86-0.16c0.32,0,0.62,0.07,0.9,0.2
		c0.28,0.14,0.51,0.34,0.68,0.61S160.09,128.2,160.09,128.6z M158.82,128.57c0-0.23-0.06-0.41-0.18-0.54
		c-0.12-0.13-0.28-0.19-0.47-0.19c-0.2,0-0.36,0.06-0.49,0.17c-0.13,0.12-0.22,0.26-0.28,0.42s-0.09,0.32-0.09,0.46
		c0,0.21,0.06,0.38,0.18,0.52s0.28,0.21,0.49,0.21c0.16,0,0.31-0.05,0.44-0.16s0.23-0.24,0.3-0.4
		C158.79,128.91,158.82,128.74,158.82,128.57z M159.84,125.11l-1.6,1.23h-0.76l0.98-1.23H159.84z"/>
	<path class="st4" d="M167.18,125.47l-0.73,5.11c-0.5,0.08-0.95,0.12-1.36,0.12c-0.7,0-1.24-0.17-1.63-0.5
		c-0.39-0.33-0.58-0.78-0.58-1.34c0-0.22,0.04-0.45,0.13-0.69c0.08-0.24,0.22-0.47,0.41-0.68c0.19-0.21,0.43-0.38,0.73-0.52
		c0.3-0.13,0.66-0.2,1.09-0.2c0.16,0,0.33,0.01,0.51,0.03l0.2-1.33H167.18z M165.61,127.81c-0.03,0-0.07,0-0.12,0
		c-0.34,0-0.61,0.06-0.8,0.19c-0.2,0.13-0.33,0.28-0.4,0.44c-0.07,0.17-0.11,0.31-0.11,0.44c0,0.12,0.03,0.24,0.09,0.37
		s0.16,0.22,0.3,0.3s0.31,0.12,0.53,0.12c0.1,0,0.18-0.01,0.24-0.02L165.61,127.81z"/>
	<path class="st4" d="M171.12,128.51c0,0.18-0.02,0.36-0.05,0.55h-2.4c0,0.52,0.26,0.79,0.77,0.79c0.26,0,0.49-0.03,0.69-0.09
		s0.44-0.15,0.72-0.26l-0.19,0.93c-0.27,0.11-0.48,0.18-0.64,0.22c-0.16,0.04-0.36,0.06-0.61,0.06c-0.52,0-0.92-0.1-1.22-0.29
		c-0.3-0.19-0.5-0.42-0.6-0.69c-0.11-0.27-0.16-0.53-0.16-0.79c0-0.39,0.09-0.75,0.27-1.08c0.18-0.33,0.42-0.59,0.74-0.79
		s0.67-0.29,1.06-0.29c0.3,0,0.57,0.06,0.81,0.19c0.24,0.13,0.44,0.32,0.59,0.58S171.12,128.13,171.12,128.51z M169.92,128.39
		c0-0.02,0-0.03,0-0.05c0-0.02,0-0.04,0-0.07c0-0.43-0.15-0.64-0.44-0.64c-0.18,0-0.32,0.07-0.42,0.21c-0.1,0.14-0.2,0.32-0.29,0.55
		H169.92z"/>
	<path class="st4" d="M178.66,129.11c0,0.48-0.19,0.88-0.57,1.19c-0.11,0.09-0.24,0.16-0.38,0.21c-0.14,0.05-0.3,0.08-0.48,0.1
		c-0.18,0.02-0.4,0.03-0.65,0.03H174l0.76-5.16h1.86c0.3,0,0.58,0.03,0.86,0.09c0.27,0.06,0.51,0.18,0.7,0.36
		c0.19,0.18,0.29,0.44,0.29,0.78c0,0.29-0.07,0.52-0.2,0.71c-0.13,0.19-0.31,0.34-0.53,0.48
		C178.35,128.13,178.66,128.54,178.66,129.11z M177.27,129.06c0-0.2-0.04-0.35-0.11-0.46s-0.19-0.19-0.36-0.24
		c-0.16-0.05-0.38-0.07-0.66-0.07h-0.48l-0.24,1.57h0.86C176.95,129.87,177.27,129.6,177.27,129.06z M177.18,126.85
		c0-0.22-0.07-0.39-0.2-0.5c-0.14-0.11-0.35-0.17-0.66-0.17h-0.34l-0.21,1.4h0.5C176.88,127.58,177.18,127.34,177.18,126.85z"/>
	<path class="st4" d="M183.06,125.47l-0.14,0.92h-1.65l-0.17,1.12h1.39l-0.13,0.92h-1.4l-0.32,2.2h-1.32l0.76-5.16H183.06z"/>
	<path class="st4" d="M189.07,125.47l-0.77,5.16h-1.23l-2.02-3.11l-0.47,3.11h-1.32l0.76-5.16h1.24l2.02,3.1l0.47-3.1H189.07z"/>
	<path class="st4" d="M191.08,129.93c0,0.14-0.04,0.27-0.1,0.39s-0.16,0.21-0.28,0.28s-0.25,0.1-0.39,0.1
		c-0.14,0-0.27-0.04-0.39-0.1c-0.12-0.07-0.21-0.16-0.28-0.28c-0.07-0.12-0.1-0.25-0.1-0.39c0-0.14,0.03-0.27,0.1-0.39
		c0.07-0.12,0.16-0.21,0.28-0.28c0.12-0.07,0.25-0.1,0.39-0.1c0.14,0,0.27,0.03,0.39,0.1c0.12,0.07,0.21,0.16,0.28,0.28
		C191.05,129.65,191.08,129.78,191.08,129.93z M191.61,125.96c0,0.13-0.01,0.26-0.04,0.39c-0.03,0.13-0.07,0.3-0.12,0.49l-0.59,2.06
		h-0.79l0.07-2.4c0.02-0.33,0.06-0.55,0.1-0.67c0.04-0.11,0.12-0.21,0.23-0.3c0.12-0.09,0.28-0.14,0.49-0.14
		c0.23,0,0.4,0.06,0.5,0.17C191.56,125.69,191.61,125.82,191.61,125.96z"/>
	<path class="st4" d="M28.6,152.94l-0.77,5.16H26.5l0.76-5.16H28.6z"/>
	<path class="st4" d="M31.81,154.31l-0.2,0.93h-0.73l-0.25,1.24c-0.02,0.1-0.03,0.19-0.03,0.25c0,0.21,0.09,0.32,0.28,0.32
		c0.2,0,0.45-0.11,0.73-0.32l-0.07,1.15c-0.34,0.2-0.7,0.3-1.07,0.3c-0.16,0-0.32-0.03-0.48-0.09c-0.16-0.06-0.3-0.17-0.43-0.32
		c-0.15-0.18-0.23-0.42-0.23-0.72c0-0.13,0.01-0.27,0.04-0.41l0.26-1.39h-0.7l0.17-0.93h0.71l0.15-0.76h1.25l-0.15,0.76H31.81z"/>
	<path class="st4" d="M35.85,154.41l-1.93,2.78h1.59l-0.14,0.92h-3.39v-0.07l1.99-2.85h-1.59l0.12-0.87h3.35V154.41z"/>
	<path class="st4" d="M39.67,155.98c0,0.18-0.02,0.36-0.05,0.55h-2.4c0,0.52,0.26,0.79,0.77,0.79c0.26,0,0.49-0.03,0.69-0.09
		s0.44-0.15,0.72-0.26l-0.19,0.93c-0.27,0.11-0.48,0.18-0.64,0.22c-0.16,0.04-0.36,0.06-0.61,0.06c-0.52,0-0.92-0.1-1.22-0.29
		c-0.3-0.19-0.5-0.42-0.6-0.69c-0.11-0.27-0.16-0.53-0.16-0.79c0-0.39,0.09-0.75,0.27-1.08c0.18-0.33,0.42-0.59,0.74-0.79
		s0.67-0.29,1.06-0.29c0.3,0,0.57,0.06,0.81,0.19c0.24,0.13,0.44,0.32,0.59,0.58S39.67,155.6,39.67,155.98z M38.47,155.86
		c0-0.02,0-0.03,0-0.05c0-0.02,0-0.04,0-0.07c0-0.43-0.15-0.64-0.44-0.64c-0.18,0-0.32,0.07-0.42,0.21c-0.1,0.14-0.2,0.32-0.29,0.55
		H38.47z"/>
	<path class="st4" d="M42.25,152.94l-0.76,5.16h-1.26l0.76-5.16H42.25z"/>
	<path class="st4" d="M51.88,158.1h-1.27l-0.14-3.3l-1.79,3.3h-0.79l-0.85-3.41l-1.12,3.41h-1.3l1.7-5.16h1.39l0.82,3.28l1.77-3.28
		h1.35L51.88,158.1z"/>
	<path class="st4" d="M56.72,156.07c0,0.3-0.05,0.58-0.16,0.84c-0.11,0.26-0.26,0.49-0.45,0.67s-0.42,0.33-0.68,0.43
		c-0.26,0.1-0.54,0.16-0.83,0.16c-0.34,0-0.66-0.08-0.96-0.23s-0.53-0.37-0.7-0.65s-0.26-0.6-0.26-0.96c0-0.28,0.06-0.54,0.17-0.8
		c0.11-0.25,0.27-0.48,0.47-0.67c0.2-0.2,0.43-0.35,0.7-0.46c0.27-0.11,0.55-0.16,0.86-0.16c0.32,0,0.62,0.07,0.9,0.2
		c0.28,0.14,0.51,0.34,0.68,0.61S56.72,155.67,56.72,156.07z M55.45,156.04c0-0.23-0.06-0.41-0.18-0.54
		c-0.12-0.13-0.28-0.19-0.47-0.19c-0.2,0-0.36,0.06-0.49,0.17c-0.13,0.12-0.22,0.26-0.28,0.42s-0.09,0.32-0.09,0.46
		c0,0.21,0.06,0.38,0.18,0.52s0.28,0.21,0.49,0.21c0.16,0,0.31-0.05,0.44-0.16s0.23-0.24,0.3-0.4
		C55.42,156.38,55.45,156.21,55.45,156.04z"/>
	<path class="st4" d="M60.57,154.63l-0.58,1.2c-0.07-0.12-0.14-0.22-0.22-0.3c-0.08-0.08-0.19-0.12-0.31-0.12
		c-0.24,0-0.47,0.17-0.67,0.53l-0.32,2.17h-1.23l0.57-3.79h1.23l-0.08,0.54c0.34-0.41,0.64-0.61,0.91-0.61
		c0.14,0,0.26,0.03,0.37,0.1S60.45,154.51,60.57,154.63z"/>
	<path class="st4" d="M64.5,154.36l-0.57,3.74h-1.23l0.06-0.34c-0.14,0.13-0.28,0.23-0.42,0.3c-0.13,0.07-0.31,0.11-0.52,0.11
		c-0.27,0-0.5-0.08-0.71-0.23c-0.21-0.15-0.36-0.35-0.48-0.6c-0.11-0.25-0.17-0.52-0.17-0.82c0-0.25,0.04-0.5,0.12-0.75
		c0.08-0.26,0.23-0.5,0.43-0.74c0.21-0.23,0.5-0.42,0.88-0.57c0.38-0.15,0.84-0.22,1.4-0.22c0.23,0,0.42,0.01,0.57,0.03
		C64.01,154.29,64.22,154.32,64.5,154.36z M63.16,155.16h-0.23c-0.22,0-0.43,0.06-0.61,0.19c-0.18,0.13-0.33,0.3-0.43,0.51
		c-0.1,0.22-0.16,0.45-0.16,0.7c0,0.17,0.04,0.32,0.13,0.44c0.09,0.12,0.21,0.18,0.37,0.18c0.08,0,0.17-0.02,0.27-0.06
		s0.23-0.11,0.39-0.21L63.16,155.16z"/>
	<path class="st4" d="M67.05,152.94l-0.76,5.16h-1.26l0.76-5.16H67.05z"/>
	<path class="st4" d="M71.06,155.98c0,0.18-0.02,0.36-0.05,0.55h-2.4c0,0.52,0.26,0.79,0.77,0.79c0.26,0,0.49-0.03,0.69-0.09
		s0.44-0.15,0.72-0.26l-0.19,0.93c-0.27,0.11-0.48,0.18-0.64,0.22c-0.16,0.04-0.36,0.06-0.61,0.06c-0.52,0-0.92-0.1-1.22-0.29
		c-0.3-0.19-0.5-0.42-0.6-0.69c-0.11-0.27-0.16-0.53-0.16-0.79c0-0.39,0.09-0.75,0.27-1.08c0.18-0.33,0.42-0.59,0.74-0.79
		s0.67-0.29,1.06-0.29c0.3,0,0.57,0.06,0.81,0.19c0.24,0.13,0.44,0.32,0.59,0.58S71.06,155.6,71.06,155.98z M69.85,155.86
		c0-0.02,0-0.03,0-0.05c0-0.02,0-0.04,0-0.07c0-0.43-0.15-0.64-0.44-0.64c-0.18,0-0.32,0.07-0.42,0.21c-0.1,0.14-0.2,0.32-0.29,0.55
		H69.85z"/>
	<path class="st4" d="M74.3,154.59l-0.09,0.89c-0.18-0.09-0.39-0.18-0.61-0.25c-0.22-0.07-0.4-0.11-0.53-0.11
		c-0.17,0-0.25,0.06-0.25,0.17c0,0.07,0.03,0.13,0.08,0.18s0.14,0.12,0.25,0.21c0.12,0.08,0.23,0.16,0.32,0.24
		c0.25,0.21,0.42,0.4,0.5,0.56c0.09,0.17,0.13,0.32,0.13,0.47c0,0.19-0.05,0.37-0.16,0.56s-0.28,0.34-0.5,0.46
		c-0.22,0.12-0.49,0.18-0.81,0.18c-0.13,0-0.31-0.02-0.54-0.07c-0.24-0.05-0.48-0.13-0.73-0.27l0.16-0.87
		c0.28,0.11,0.49,0.19,0.64,0.24c0.15,0.05,0.31,0.08,0.48,0.08c0.1,0,0.18-0.02,0.24-0.07s0.08-0.1,0.08-0.16
		c0-0.07-0.04-0.15-0.12-0.22c-0.08-0.07-0.23-0.19-0.46-0.36c-0.21-0.16-0.38-0.33-0.52-0.5c-0.14-0.17-0.21-0.37-0.21-0.59
		c0-0.3,0.12-0.57,0.37-0.8c0.24-0.23,0.6-0.35,1.07-0.35c0.25,0,0.46,0.03,0.65,0.09S74.09,154.48,74.3,154.59z"/>
</g>
</svg>
