<?xml version="1.0" encoding="utf-8"?>
<!-- Generator: Adobe Illustrator 28.3.0, SVG Export Plug-In . SVG Version: 6.00 Build 0)  -->
<svg version="1.1" id="Layer_1" xmlns="http://www.w3.org/2000/svg" xmlns:xlink="http://www.w3.org/1999/xlink" x="0px" y="0px"
	 viewBox="0 0 580 80" style="enable-background:new 0 0 580 80;" xml:space="preserve">
<style type="text/css">
	.st0{fill:url(#SVGID_1_);}
	.st1{fill:url(#SVGID_00000010304409596794107480000001015665628385254820_);}
</style>
<g>
	<path d="M42.48,36.12c0-8.88,6.9-15.69,15.99-15.69s15.99,6.81,15.99,15.73c0,8.88-6.9,15.73-15.91,15.73
		C49.46,51.9,42.48,45,42.48,36.12z M67.52,36.12c0-5.69-3.66-9.53-9.05-9.53c-5.43,0-9.05,3.79-9.05,9.53
		c0,5.73,3.62,9.61,9.05,9.61C63.9,45.73,67.52,41.85,67.52,36.12z"/>
	<path d="M78.16,30.43h6.6v1.47c1.42-1.16,3.36-1.9,5.47-1.9c5.95,0,10.22,4.66,10.22,10.91c0,6.25-4.27,10.91-10.22,10.91
		c-2.15,0-4.14-0.69-5.56-1.85v10.26h-6.51V30.43z M93.76,40.9c0-2.93-1.94-4.96-4.7-4.96c-2.8,0-4.7,2.03-4.7,4.96
		c0,2.89,1.9,4.96,4.7,4.96C91.82,45.86,93.76,43.79,93.76,40.9z"/>
	<path d="M103.54,23.92c0-2.03,1.51-3.62,3.58-3.62s3.53,1.6,3.53,3.62c0,2.03-1.47,3.62-3.53,3.62S103.54,25.95,103.54,23.92z
		 M103.8,30.43h6.6v20.95h-6.6V30.43z"/>
	<path d="M115.05,30.43h6.59v1.68c1.47-1.34,3.53-2.11,5.86-2.11c4.61,0,7.97,3.66,7.97,7.97v13.41h-6.6V39.44
		c0-2.2-1.51-3.66-3.58-3.66c-2.11,0-3.66,1.47-3.66,3.66v11.94h-6.59V30.43z"/>
	<path d="M139.44,23.92c0-2.03,1.51-3.62,3.58-3.62c2.07,0,3.53,1.6,3.53,3.62c0,2.03-1.47,3.62-3.53,3.62
		C140.95,27.54,139.44,25.95,139.44,23.92z M139.7,30.43h6.6v20.95h-6.6V30.43z"/>
	<path d="M149.57,40.86c0-6.21,4.91-10.91,11.47-10.91c6.51,0,11.47,4.7,11.47,10.91c0,6.25-4.91,10.99-11.47,10.99
		C154.53,51.85,149.57,47.07,149.57,40.86z M165.78,40.86c0-2.93-1.94-4.91-4.74-4.91c-2.8,0-4.74,2.03-4.74,4.96
		c0,2.93,1.94,4.96,4.74,4.96C163.88,45.86,165.78,43.84,165.78,40.86z"/>
	<path d="M175.77,30.43h6.59v1.68c1.47-1.34,3.53-2.11,5.86-2.11c4.61,0,7.98,3.66,7.98,7.97v13.41h-6.6V39.44
		c0-2.2-1.51-3.66-3.58-3.66c-2.11,0-3.66,1.47-3.66,3.66v11.94h-6.59V30.43z"/>
	<path d="M199.04,40.9c0-6.25,4.87-10.95,11.25-10.95c6.16,0,10.56,4.4,10.56,10.48c0,0.78-0.09,1.55-0.3,2.63l-15,0.04
		c0.69,2.33,2.5,3.66,5.17,3.66c2.07,0,3.75-0.69,5-2.16l3.62,3.62c-2.07,2.41-5.04,3.62-8.58,3.62
		C203.95,51.85,199.04,47.28,199.04,40.9z M205.55,38.58l9.14-0.04c-0.52-2.33-1.98-3.53-4.35-3.53
		C207.92,35,206.2,36.33,205.55,38.58z"/>
	<path d="M222.1,48.02l3.75-3.79c1.38,1.51,3.32,2.37,5.56,2.37c1.55,0,2.41-0.48,2.41-1.29c0-3.06-10.22-1.03-10.22-8.75
		c0-4.01,3.28-6.72,8.41-6.72c3.53,0,6.72,1.25,8.62,3.66l-3.75,3.79c-1.29-1.55-3.02-2.11-4.61-2.11c-1.51,0-2.24,0.47-2.24,1.25
		c0,2.67,10.17,0.95,10.17,8.79c0,4.14-3.32,6.68-8.53,6.68C227.92,51.9,224.25,50.39,222.1,48.02z"/>
	<path d="M250.67,40.9c0-6.25,4.27-10.91,10.22-10.91c2.11,0,4.05,0.65,5.47,1.77V20.08h6.59v31.29h-6.47v-1.51
		c-1.47,1.21-3.45,1.94-5.6,1.94C254.94,51.81,250.67,47.15,250.67,40.9z M266.75,40.9c0-2.93-1.9-4.96-4.66-4.96
		c-2.76,0-4.74,2.07-4.74,4.96s1.98,4.96,4.7,4.96C264.85,45.86,266.75,43.84,266.75,40.9z"/>
	<path d="M276.22,40.9c0-6.25,4.87-10.95,11.25-10.95c6.16,0,10.56,4.4,10.56,10.48c0,0.78-0.09,1.55-0.3,2.63l-15,0.04
		c0.69,2.33,2.5,3.66,5.17,3.66c2.07,0,3.75-0.69,5-2.16l3.62,3.62c-2.07,2.41-5.04,3.62-8.58,3.62
		C281.14,51.85,276.22,47.28,276.22,40.9z M282.73,38.58l9.14-0.04c-0.52-2.33-1.98-3.53-4.35-3.53
		C285.11,35,283.38,36.33,282.73,38.58z"/>
	<path d="M309.41,20.08h6.6v31.29h-6.6V20.08z"/>
	<path d="M319.28,40.86c0-6.21,4.91-10.91,11.47-10.91c6.51,0,11.47,4.7,11.47,10.91c0,6.25-4.91,10.99-11.47,10.99
		C324.23,51.85,319.28,47.07,319.28,40.86z M335.48,40.86c0-2.93-1.94-4.91-4.74-4.91S326,37.97,326,40.9
		c0,2.93,1.94,4.96,4.74,4.96C333.59,45.86,335.48,43.84,335.48,40.86z"/>
	<path d="M343.54,48.02l3.75-3.79c1.38,1.51,3.32,2.37,5.56,2.37c1.55,0,2.41-0.48,2.41-1.29c0-3.06-10.22-1.03-10.22-8.75
		c0-4.01,3.28-6.72,8.41-6.72c3.53,0,6.72,1.25,8.62,3.66l-3.75,3.79c-1.29-1.55-3.02-2.11-4.61-2.11c-1.51,0-2.24,0.47-2.24,1.25
		c0,2.67,10.17,0.95,10.17,8.79c0,4.14-3.32,6.68-8.53,6.68C349.36,51.9,345.69,50.39,343.54,48.02z"/>
	<path d="M372.89,42.54V30.43h6.59V42.5c0,2.16,1.21,3.49,3.23,3.49c1.98,0,3.19-1.29,3.19-3.49V30.43h6.59v12.11
		c0,5.52-4.01,9.31-9.78,9.31C376.94,51.85,372.89,48.02,372.89,42.54z"/>
	<path d="M394.69,48.02l3.75-3.79c1.38,1.51,3.32,2.37,5.56,2.37c1.55,0,2.41-0.48,2.41-1.29c0-3.06-10.21-1.03-10.21-8.75
		c0-4.01,3.28-6.72,8.41-6.72c3.53,0,6.72,1.25,8.62,3.66l-3.75,3.79c-1.29-1.55-3.02-2.11-4.61-2.11c-1.51,0-2.24,0.47-2.24,1.25
		c0,2.67,10.17,0.95,10.17,8.79c0,4.14-3.32,6.68-8.53,6.68C400.51,51.9,396.85,50.39,394.69,48.02z"/>
	<path d="M415.85,42.54V30.43h6.59V42.5c0,2.16,1.21,3.49,3.23,3.49c1.98,0,3.19-1.29,3.19-3.49V30.43h6.59v12.11
		c0,5.52-4.01,9.31-9.78,9.31S415.85,48.02,415.85,42.54z"/>
	<path d="M438.3,40.9c0-6.25,4.27-10.91,10.04-10.91c2.33,0,4.35,0.82,5.78,2.16v-1.72h6.47v20.95h-6.47v-1.72
		c-1.42,1.34-3.45,2.16-5.78,2.16C442.57,51.81,438.3,47.15,438.3,40.9z M454.38,40.9c0-2.93-1.9-4.96-4.66-4.96
		c-2.76,0-4.74,2.07-4.74,4.96s1.98,4.96,4.7,4.96C452.49,45.86,454.38,43.84,454.38,40.9z"/>
	<path d="M465.24,30.43h6.6v1.59c1.34-1.34,3.1-2.03,5.39-2.03c1.98,0,3.54,0.6,4.66,1.85l-3.92,4.96c-0.6-0.6-1.42-0.99-2.54-0.99
		c-2.2,0-3.58,1.34-3.58,4.05v11.51h-6.6V30.43z"/>
	<path d="M483.34,23.92c0-2.03,1.51-3.62,3.58-3.62s3.54,1.6,3.54,3.62c0,2.03-1.47,3.62-3.54,3.62S483.34,25.95,483.34,23.92z
		 M483.6,30.43h6.6v20.95h-6.6V30.43z"/>
	<path d="M493.47,40.86c0-6.21,4.91-10.91,11.47-10.91c6.51,0,11.47,4.7,11.47,10.91c0,6.25-4.91,10.99-11.47,10.99
		C498.42,51.85,493.47,47.07,493.47,40.86z M509.67,40.86c0-2.93-1.94-4.91-4.74-4.91c-2.8,0-4.74,2.03-4.74,4.96
		c0,2.93,1.94,4.96,4.74,4.96C507.78,45.86,509.67,43.84,509.67,40.86z"/>
	<path d="M517.73,48.02l3.75-3.79c1.38,1.51,3.32,2.37,5.56,2.37c1.55,0,2.41-0.48,2.41-1.29c0-3.06-10.22-1.03-10.22-8.75
		c0-4.01,3.28-6.72,8.41-6.72c3.53,0,6.72,1.25,8.62,3.66l-3.75,3.79c-1.29-1.55-3.02-2.11-4.61-2.11c-1.51,0-2.24,0.47-2.24,1.25
		c0,2.67,10.17,0.95,10.17,8.79c0,4.14-3.32,6.68-8.53,6.68C523.55,51.9,519.88,50.39,517.73,48.02z"/>
</g>
<linearGradient id="SVGID_1_" gradientUnits="userSpaceOnUse" x1="42.4761" y1="67.5015" x2="536.2647" y2="67.5015">
	<stop  offset="0" style="stop-color:#FF0096"/>
	<stop  offset="0.1605" style="stop-color:#F8137A"/>
	<stop  offset="0.3586" style="stop-color:#F2265E"/>
	<stop  offset="0.558" style="stop-color:#ED334A"/>
	<stop  offset="0.7578" style="stop-color:#EA3B3E"/>
	<stop  offset="0.9587" style="stop-color:#E93E3A"/>
	<stop  offset="0.9601" style="stop-color:#E93E3A"/>
	<stop  offset="1" style="stop-color:#E93E3A"/>
</linearGradient>
<rect x="42.48" y="65.12" class="st0" width="493.79" height="4.76"/>
<linearGradient id="SVGID_00000115494226425866495120000004536029409920676536_" gradientUnits="userSpaceOnUse" x1="52.8727" y1="34.9976" x2="64.0639" y2="34.9976">
	<stop  offset="0" style="stop-color:#FF0096"/>
	<stop  offset="0.1605" style="stop-color:#F8137A"/>
	<stop  offset="0.3586" style="stop-color:#F2265E"/>
	<stop  offset="0.558" style="stop-color:#ED334A"/>
	<stop  offset="0.7578" style="stop-color:#EA3B3E"/>
	<stop  offset="0.9587" style="stop-color:#E93E3A"/>
	<stop  offset="0.9601" style="stop-color:#E93E3A"/>
	<stop  offset="1" style="stop-color:#E93E3A"/>
</linearGradient>
<polygon style="fill:url(#SVGID_00000115494226425866495120000004536029409920676536_);" points="58.47,29.68 59.79,33.74 
	64.06,33.74 60.61,36.25 61.93,40.32 58.47,37.81 55.01,40.32 56.33,36.25 52.87,33.74 57.15,33.74 "/>
</svg>
