<?xml version="1.0" encoding="utf-8"?>
<!-- Generator: Adobe Illustrator 28.3.0, SVG Export Plug-In . SVG Version: 6.00 Build 0)  -->
<svg version="1.1" id="Layer_1" xmlns="http://www.w3.org/2000/svg" xmlns:xlink="http://www.w3.org/1999/xlink" x="0px" y="0px"
	 viewBox="0 0 340 80" style="enable-background:new 0 0 340 80;" xml:space="preserve">
<style type="text/css">
	.st0{fill:#FFFFFF;stroke:#231F20;stroke-width:0.25;stroke-miterlimit:10;}
	.st1{fill:url(#SVGID_1_);}
</style>
<g>
	<path class="st0" d="M51.52,22.86h14.16c6.43,0,11.42,4.13,11.42,10.75c0,6.67-4.99,10.8-11.42,10.8h-6.62v12.33h-7.53V22.86z
		 M59.05,28.72v9.84h5.52c2.83,0,5.04-1.82,5.04-4.94c0-3.12-2.21-4.9-5.04-4.9H59.05z"/>
	<path class="st0" d="M81,33.42h7.34v1.77c1.49-1.49,3.45-2.25,6-2.25c2.21,0,3.93,0.67,5.18,2.06l-4.37,5.52
		c-0.67-0.67-1.58-1.1-2.83-1.1c-2.45,0-3.99,1.49-3.99,4.51v12.81H81V33.42z"/>
	<path class="st0" d="M99.29,45.03c0-6.91,5.47-12.14,12.76-12.14c7.24,0,12.76,5.23,12.76,12.14c0,6.96-5.47,12.24-12.76,12.24
		C104.81,57.27,99.29,51.94,99.29,45.03z M117.33,45.03c0-3.26-2.16-5.47-5.28-5.47c-3.12,0-5.28,2.25-5.28,5.52
		c0,3.26,2.16,5.52,5.28,5.52C115.22,50.6,117.33,48.34,117.33,45.03z"/>
	<path class="st0" d="M130.98,39.66h-5.13v-6.24h5.13V31.4c0-5.66,3.98-10.03,10.31-10.03c3.22,0,5.52,1.1,7.34,2.98l-4.61,4.61
		c-0.63-0.62-1.39-1.01-2.5-1.01c-2.01,0-3.21,1.2-3.21,3.21v2.26h6.72v6.24h-6.72v17.08h-7.34V39.66z"/>
	<path class="st0" d="M146.39,45.08c0-6.96,5.42-12.19,12.53-12.19c6.86,0,11.76,4.9,11.76,11.66c0,0.86-0.1,1.73-0.34,2.93
		l-16.7,0.05c0.77,2.59,2.78,4.08,5.76,4.08c2.31,0,4.18-0.77,5.57-2.4l4.03,4.03c-2.31,2.69-5.61,4.03-9.55,4.03
		C151.86,57.27,146.39,52.18,146.39,45.08z M153.63,42.49l10.17-0.05c-0.57-2.59-2.21-3.93-4.84-3.93
		C156.27,38.51,154.35,39.99,153.63,42.49z"/>
	<path class="st0" d="M172.07,53l4.17-4.22c1.54,1.68,3.7,2.64,6.19,2.64c1.73,0,2.69-0.53,2.69-1.44c0-3.41-11.37-1.15-11.37-9.74
		c0-4.46,3.65-7.49,9.36-7.49c3.93,0,7.49,1.39,9.6,4.08l-4.17,4.22c-1.44-1.73-3.36-2.35-5.13-2.35c-1.68,0-2.5,0.53-2.5,1.39
		c0,2.98,11.33,1.05,11.33,9.79c0,4.61-3.7,7.44-9.5,7.44C178.55,57.32,174.47,55.64,172.07,53z"/>
	<path class="st0" d="M194.68,45.03c0-6.91,5.47-12.14,12.76-12.14c7.24,0,12.76,5.23,12.76,12.14c0,6.96-5.47,12.24-12.76,12.24
		C200.2,57.27,194.68,51.94,194.68,45.03z M212.72,45.03c0-3.26-2.16-5.47-5.28-5.47c-3.12,0-5.28,2.25-5.28,5.52
		c0,3.26,2.16,5.52,5.28,5.52C210.61,50.6,212.72,48.34,212.72,45.03z"/>
	<path class="st0" d="M223.87,33.42h7.34v1.77c1.49-1.49,3.45-2.25,6-2.25c2.21,0,3.93,0.67,5.18,2.06l-4.37,5.52
		c-0.67-0.67-1.58-1.1-2.83-1.1c-2.45,0-3.99,1.49-3.99,4.51v12.81h-7.34V33.42z"/>
	<path class="st0" d="M242.16,45.08c0-6.96,5.42-12.19,12.53-12.19c6.86,0,11.76,4.9,11.76,11.66c0,0.86-0.1,1.73-0.34,2.93
		l-16.7,0.05c0.77,2.59,2.78,4.08,5.76,4.08c2.31,0,4.18-0.77,5.57-2.4l4.03,4.03c-2.31,2.69-5.61,4.03-9.55,4.03
		C247.63,57.27,242.16,52.18,242.16,45.08z M249.41,42.49l10.17-0.05c-0.57-2.59-2.21-3.93-4.84-3.93
		C252.05,38.51,250.13,39.99,249.41,42.49z"/>
	<path class="st0" d="M267.85,53l4.17-4.22c1.54,1.68,3.7,2.64,6.19,2.64c1.73,0,2.69-0.53,2.69-1.44c0-3.41-11.37-1.15-11.37-9.74
		c0-4.46,3.65-7.49,9.36-7.49c3.93,0,7.49,1.39,9.6,4.08l-4.17,4.22c-1.44-1.73-3.36-2.35-5.13-2.35c-1.68,0-2.5,0.53-2.5,1.39
		c0,2.98,11.33,1.05,11.33,9.79c0,4.61-3.7,7.44-9.5,7.44C274.33,57.32,270.25,55.64,267.85,53z"/>
</g>
<linearGradient id="SVGID_1_" gradientUnits="userSpaceOnUse" x1="51.5166" y1="65.8219" x2="288.4834" y2="65.8219">
	<stop  offset="0" style="stop-color:#FF0096"/>
	<stop  offset="1" style="stop-color:#FE4136"/>
</linearGradient>
<rect x="51.52" y="64.45" class="st1" width="236.97" height="2.74"/>
</svg>
