<?xml version="1.0" encoding="utf-8"?>
<!-- Generator: Adobe Illustrator 28.3.0, SVG Export Plug-In . SVG Version: 6.00 Build 0)  -->
<svg version="1.1" id="Layer_1" xmlns="http://www.w3.org/2000/svg" xmlns:xlink="http://www.w3.org/1999/xlink" x="0px" y="0px"
	 viewBox="0 0 340 100" style="enable-background:new 0 0 340 100;" xml:space="preserve">
<style type="text/css">
	.st0{fill:url(#SVGID_1_);}
</style>
<g>
	<path d="M3.55,59.88c-0.04-3.41,2.05-5.84,5.14-6.98l0.22-2.09h4.4l0.3,5.69h-1.58c-1.8,0-3.05,1.06-3.05,2.72
		c0,1.65,1.18,2.68,2.86,2.68c1.8,0,3.34-1.18,4.3-2.94l3.6,3.34c-1.47,2.9-4.34,4.89-8.19,4.89C6.89,67.18,3.55,64.13,3.55,59.88z
		 M7.8,44.42c0-1.91,1.4-3.38,3.31-3.38c1.94,0,3.34,1.47,3.34,3.38c0,1.91-1.4,3.38-3.34,3.38C9.2,47.79,7.8,46.33,7.8,44.42z"/>
	<path d="M20.59,46.25c0-7.56,5.88-13.37,13.62-13.37c7.75,0,13.66,5.8,13.66,13.4c0,2.98-0.92,5.69-2.5,7.89l3.82,3.78l-3.34,3.34
		l-3.89-3.86c-2.17,1.43-4.78,2.24-7.68,2.24C26.54,59.69,20.59,53.82,20.59,46.25z M38.04,53.52l-4.3-4.33l3.34-3.34l4.15,4.19
		c0.48-1.1,0.74-2.39,0.74-3.78c0-4.85-3.12-8.11-7.75-8.11c-4.63,0-7.71,3.23-7.71,8.11c0,4.89,3.09,8.19,7.71,8.19
		C35.65,54.44,36.97,54.11,38.04,53.52z"/>
	<path d="M51.6,49.04V33.33h5.8v16.05c0,3.12,2.17,5.03,5.03,5.03s4.96-1.91,4.96-4.99V33.33h5.8v15.75
		c0,6.13-4.37,10.58-10.76,10.58C56.08,59.66,51.6,55.18,51.6,49.04z"/>
	<path d="M77.8,33.33h5.76v25.93H77.8V33.33z"/>
	<path d="M88.56,33.33H107v4.96H94.33v5.32h11.57v4.81H94.33v5.84h12.85v4.99H88.56V33.33z M93.63,28.63l5.84-5.47l3.08,4.33
		l-7.09,3.82L93.63,28.63z"/>
	<path d="M111.16,33.33h4.04l12.3,15.75V33.33h5.76v25.93h-4.22l-12.12-15.53v15.53h-5.76V33.33z"/>
	<path d="M138.28,33.33h18.43v4.96h-12.67v5.32h11.57v4.81h-11.57v5.84h12.85v4.99h-18.62V33.33z"/>
	<path d="M158.3,55.43l3.75-3.71c1.65,1.95,3.6,3.01,6.32,3.01c2.42,0,3.85-0.95,3.85-2.5c0-4.88-12.15-2.57-12.15-11.68
		c0-4.77,3.75-7.64,9.11-7.64c3.64,0,6.76,1.39,8.7,3.56l-3.74,3.71c-1.54-1.62-3.09-2.39-5.07-2.39c-2.06,0-3.27,0.77-3.27,2.2
		c0,4.52,12.15,2.28,12.15,11.71c0,4.96-3.71,7.93-9.95,7.93C163.74,59.66,160.84,58.3,158.3,55.43z"/>
	<path d="M186.7,55.43l3.75-3.71c1.65,1.95,3.6,3.01,6.32,3.01c2.42,0,3.85-0.95,3.85-2.5c0-4.88-12.15-2.57-12.15-11.68
		c0-4.77,3.75-7.64,9.11-7.64c3.64,0,6.76,1.39,8.7,3.56l-3.74,3.71c-1.54-1.62-3.09-2.39-5.07-2.39c-2.06,0-3.27,0.77-3.27,2.2
		c0,4.52,12.15,2.28,12.15,11.71c0,4.96-3.71,7.93-9.95,7.93C192.14,59.66,189.24,58.3,186.7,55.43z"/>
	<path d="M208.93,46.25c0-7.56,5.88-13.37,13.62-13.37c7.75,0,13.63,5.8,13.63,13.4c0,7.56-5.88,13.4-13.55,13.4
		C214.88,59.69,208.93,53.82,208.93,46.25z M230.27,46.25c0-4.85-3.12-8.11-7.71-8.11c-4.63,0-7.71,3.23-7.71,8.11
		c0,4.89,3.09,8.19,7.71,8.19C227.18,54.44,230.27,51.14,230.27,46.25z"/>
	<path d="M239.87,33.33h4.11l9.14,14.29l9.14-14.29h4.15v25.93h-5.76V44.89l-5.62,8.78h-3.82l-5.62-8.78v14.36h-5.73V33.33z"/>
	<path d="M270.07,46.25c0-7.56,5.88-13.37,13.62-13.37c7.75,0,13.63,5.8,13.63,13.4c0,7.56-5.88,13.4-13.55,13.4
		C276.02,59.69,270.07,53.82,270.07,46.25z M291.41,46.25c0-4.85-3.12-8.11-7.71-8.11c-4.63,0-7.71,3.23-7.71,8.11
		c0,4.89,3.09,8.19,7.71,8.19C288.32,54.44,291.41,51.14,291.41,46.25z"/>
	<path d="M298.51,55.43l3.75-3.71c1.65,1.95,3.6,3.01,6.32,3.01c2.42,0,3.85-0.95,3.85-2.5c0-4.88-12.15-2.57-12.15-11.68
		c0-4.77,3.75-7.64,9.11-7.64c3.64,0,6.76,1.39,8.7,3.56l-3.74,3.71c-1.54-1.62-3.09-2.39-5.07-2.39c-2.06,0-3.27,0.77-3.27,2.2
		c0,4.52,12.15,2.28,12.15,11.71c0,4.96-3.71,7.93-9.95,7.93C303.94,59.66,301.04,58.3,298.51,55.43z"/>
	<path d="M326.39,42.84h1.58c1.8,0,3.05-1.03,3.05-2.72c0-1.62-1.18-2.64-2.94-2.64c-1.84,0-3.38,1.14-4.3,2.94l-3.6-3.38
		c1.47-2.9,4.3-4.85,8.15-4.85c4.77,0,8.12,3.27,8.12,7.53c0,3.75-2.13,6.06-5.14,7.16l-0.22,3.01h-4.41L326.39,42.84z
		 M325.55,56.28c0-1.91,1.39-3.41,3.34-3.41c1.91,0,3.3,1.51,3.3,3.41c0,1.91-1.39,3.38-3.3,3.38
		C326.94,59.66,325.55,58.19,325.55,56.28z"/>
</g>
<g>
	<g>
		<linearGradient id="SVGID_1_" gradientUnits="userSpaceOnUse" x1="26.4067" y1="82.4021" x2="313.5933" y2="82.4021">
			<stop  offset="0" style="stop-color:#FF0096"/>
			<stop  offset="0.1605" style="stop-color:#F8137A"/>
			<stop  offset="0.3586" style="stop-color:#F2265E"/>
			<stop  offset="0.558" style="stop-color:#ED334A"/>
			<stop  offset="0.7578" style="stop-color:#EA3B3E"/>
			<stop  offset="0.9587" style="stop-color:#E93E3A"/>
			<stop  offset="0.9601" style="stop-color:#E93E3A"/>
			<stop  offset="1" style="stop-color:#E93E3A"/>
		</linearGradient>
		<path class="st0" d="M29.31,89.58c-0.63-2.07,0.37-4.02,1.95-5.37c1.93-1.65,4.58-1.91,7-1.43c5.77,1.13,10.22,5.35,15.43,7.79
			c11.67,5.46,23.87,0.23,34.51-5.14c5.37-2.71,10.81-5.47,16.73-6.77c5.26-1.15,10.41-0.58,15.36,1.47
			c8.71,3.61,16.14,10.49,25.59,12.29c4.79,0.91,9.47,0.25,13.87-1.85c4.23-2.02,7.82-5.12,11.54-7.92
			c3.57-2.69,7.39-5.32,11.88-6.11c4.48-0.79,9.03,0.49,13.18,2.09c8.63,3.33,17.15,9.13,26.78,8.52c4.96-0.31,9.36-2.48,13.57-4.97
			c3.89-2.3,7.97-5.23,12.58-5.78c4.8-0.57,8.73,2.19,12.43,4.86c4.12,2.99,8.29,5.85,13.55,6.16c6.3,0.37,12.01-2.71,17.71-4.9
			c4.86-1.86,10.83-3.43,15.3,0.18c1.65,1.33,2.7,3.09,2.64,5.24c-0.08,2.87,4.37,2.86,4.45,0c0.15-5.44-4.17-9.65-9.07-11.22
			c-6.03-1.94-12.37,0.57-17.9,2.88c-5.37,2.25-11.44,4.8-17.2,2.38c-4.51-1.9-8-5.58-12.28-7.87c-4.61-2.46-9.63-2.86-14.54-1.02
			c-4.77,1.79-8.87,4.86-13.38,7.17c-4.23,2.17-8.63,3-13.33,2.02c-4.79-1-9.22-3.15-13.64-5.17c-4.48-2.05-9.08-4.14-13.99-4.9
			c-4.96-0.77-9.73-0.05-14.23,2.21c-4.32,2.17-7.97,5.41-11.84,8.26c-3.71,2.74-7.83,5.4-12.57,5.69
			c-4.69,0.29-9.12-1.45-13.2-3.58c-4.42-2.31-8.58-5.08-13.05-7.31c-4.74-2.36-9.78-4.03-15.14-3.91
			c-6.34,0.14-12.36,2.41-18.04,5.05C81.4,83.55,69.09,91.88,57,87.18c-5.67-2.21-10.18-6.62-16.11-8.33
			c-5.53-1.6-11.74-0.42-14.89,4.77c-1.31,2.15-1.72,4.74-0.98,7.15C25.85,93.5,30.15,92.34,29.31,89.58L29.31,89.58z"/>
	</g>
</g>
</svg>
