<?xml version="1.0" encoding="utf-8"?>
<!-- Generator: Adobe Illustrator 28.3.0, SVG Export Plug-In . SVG Version: 6.00 Build 0)  -->
<svg version="1.1" id="Layer_1" xmlns="http://www.w3.org/2000/svg" xmlns:xlink="http://www.w3.org/1999/xlink" x="0px" y="0px"
	 viewBox="0 0 340 80" style="enable-background:new 0 0 340 80;" xml:space="preserve">
<style type="text/css">
	.st0{fill:#FFFFFF;stroke:url(#SVGID_1_);stroke-width:0.3676;stroke-miterlimit:10;}
	
		.st1{fill:#FFFFFF;stroke:url(#SVGID_00000028300615897546610690000015685656281791927694_);stroke-width:0.3676;stroke-miterlimit:10;}
	
		.st2{fill:#FFFFFF;stroke:url(#SVGID_00000128449861834016591440000006532958508158393246_);stroke-width:0.3676;stroke-miterlimit:10;}
	
		.st3{fill:#FFFFFF;stroke:url(#SVGID_00000048500334979930676520000014339485467281006496_);stroke-width:0.3676;stroke-miterlimit:10;}
	
		.st4{fill:#FFFFFF;stroke:url(#SVGID_00000005252985567763304560000007679601316545586363_);stroke-width:0.3676;stroke-miterlimit:10;}
	
		.st5{fill:#FFFFFF;stroke:url(#SVGID_00000087411813129613761780000011556882445211721644_);stroke-width:0.1838;stroke-miterlimit:10;}
	
		.st6{fill:#FFFFFF;stroke:url(#SVGID_00000176019343854846760380000007712195759472217988_);stroke-width:0.1838;stroke-miterlimit:10;}
</style>
<g>
	<radialGradient id="SVGID_1_" cx="130.5065" cy="40" r="14.0412" gradientUnits="userSpaceOnUse">
		<stop  offset="0.131" style="stop-color:#000000;stop-opacity:0.98"/>
		<stop  offset="0.9505" style="stop-color:#FF0096"/>
	</radialGradient>
	<path class="st0" d="M118.95,50.79l4.42-4.38c1.95,2.3,4.25,3.55,7.46,3.55c2.86,0,4.55-1.13,4.55-2.95
		c0-5.77-14.35-3.04-14.35-13.78c0-5.63,4.42-9.02,10.75-9.02c4.29,0,7.98,1.65,10.27,4.2l-4.42,4.38
		c-1.82-1.91-3.64-2.82-5.98-2.82c-2.43,0-3.86,0.91-3.86,2.6c0,5.33,14.35,2.69,14.35,13.83c0,5.85-4.38,9.36-11.75,9.36
		C125.36,55.78,121.94,54.17,118.95,50.79z"/>
	
		<radialGradient id="SVGID_00000152945150327181729880000001486608633325239478_" cx="157.4732" cy="40" r="13.5015" gradientUnits="userSpaceOnUse">
		<stop  offset="0.131" style="stop-color:#000000;stop-opacity:0.98"/>
		<stop  offset="0.9505" style="stop-color:#FF0096"/>
	</radialGradient>
	
		<path style="fill:#FFFFFF;stroke:url(#SVGID_00000152945150327181729880000001486608633325239478_);stroke-width:0.3676;stroke-miterlimit:10;" d="
		M146.48,24.7h21.76v5.85h-14.95v6.28h13.65v5.68h-13.65v6.89h15.17v5.9h-21.98V24.7z"/>
	
		<radialGradient id="SVGID_00000159453633157917864460000013146035864646680729_" cx="187.3293" cy="40" r="14.9315" gradientUnits="userSpaceOnUse">
		<stop  offset="0.131" style="stop-color:#000000;stop-opacity:0.98"/>
		<stop  offset="0.9505" style="stop-color:#FF0096"/>
	</radialGradient>
	
		<path style="fill:#FFFFFF;stroke:url(#SVGID_00000159453633157917864460000013146035864646680729_);stroke-width:0.3676;stroke-miterlimit:10;" d="
		M173.16,24.7h12.27c9.19,0,16.08,6.28,16.08,15.3c0,8.93-6.85,15.3-15.99,15.3h-12.35V24.7z M179.96,30.64v18.68h5.38
		c5.55,0,9.19-3.51,9.19-9.36c0-5.81-3.68-9.32-9.19-9.32H179.96z"/>
	
		<radialGradient id="SVGID_00000116226879667277390190000003177591940274593951_" cx="216.8432" cy="40" r="13.5015" gradientUnits="userSpaceOnUse">
		<stop  offset="0.131" style="stop-color:#000000;stop-opacity:0.98"/>
		<stop  offset="0.9505" style="stop-color:#FF0096"/>
	</radialGradient>
	
		<path style="fill:#FFFFFF;stroke:url(#SVGID_00000116226879667277390190000003177591940274593951_);stroke-width:0.3676;stroke-miterlimit:10;" d="
		M205.85,24.7h21.76v5.85h-14.95v6.28h13.65v5.68h-13.65v6.89h15.17v5.9h-21.98V24.7z"/>
	
		<radialGradient id="SVGID_00000078023049805961299150000006150483636666424486_" cx="241.0514" cy="40" r="14.0412" gradientUnits="userSpaceOnUse">
		<stop  offset="0.131" style="stop-color:#000000;stop-opacity:0.98"/>
		<stop  offset="0.9505" style="stop-color:#FF0096"/>
	</radialGradient>
	
		<path style="fill:#FFFFFF;stroke:url(#SVGID_00000078023049805961299150000006150483636666424486_);stroke-width:0.3676;stroke-miterlimit:10;" d="
		M229.49,50.79l4.42-4.38c1.95,2.3,4.25,3.55,7.46,3.55c2.86,0,4.55-1.13,4.55-2.95c0-5.77-14.35-3.04-14.35-13.78
		c0-5.63,4.42-9.02,10.75-9.02c4.29,0,7.98,1.65,10.27,4.2l-4.42,4.38c-1.82-1.91-3.64-2.82-5.98-2.82c-2.43,0-3.86,0.91-3.86,2.6
		c0,5.33,14.35,2.69,14.35,13.83c0,5.85-4.38,9.36-11.75,9.36C235.91,55.78,232.48,54.17,229.49,50.79z"/>
</g>
<g>
	
		<radialGradient id="SVGID_00000083784947789352333700000002280458948789137578_" cx="97.1007" cy="40.0227" r="11.3964" gradientUnits="userSpaceOnUse">
		<stop  offset="0.131" style="stop-color:#000000;stop-opacity:0.98"/>
		<stop  offset="0.9505" style="stop-color:#FF0096"/>
	</radialGradient>
	
		<path style="fill:#FFFFFF;stroke:url(#SVGID_00000083784947789352333700000002280458948789137578_);stroke-width:0.1838;stroke-miterlimit:10;" d="
		M97.09,52.62c-3.76-4.17-7.52-8.13-9.35-13.37c-1.47-4.21,1.09-9.16,5.41-11.05c4.54-1.98,9.89-0.26,12.36,4
		c1.28,2.21,1.82,4.59,0.94,7.03C104.57,44.47,100.86,48.44,97.09,52.62z M96.85,49.92c3.25-3.7,6.09-7.02,7.68-11.2
		c0.24-0.63,0.34-1.37,0.3-2.05c-0.18-3.21-2.3-5.93-5.32-6.93c-2.93-0.97-6.27-0.04-8.3,2.32c-2.13,2.47-2.58,5.45-0.77,8.46
		C92.32,43.66,94.56,46.59,96.85,49.92z"/>
	
		<radialGradient id="SVGID_00000134954407246781293750000017159957607462796687_" cx="97.0856" cy="37.1047" r="5.5281" gradientUnits="userSpaceOnUse">
		<stop  offset="0.131" style="stop-color:#000000;stop-opacity:0.98"/>
		<stop  offset="0.9505" style="stop-color:#FF0096"/>
	</radialGradient>
	
		<path style="fill:#FFFFFF;stroke:url(#SVGID_00000134954407246781293750000017159957607462796687_);stroke-width:0.1838;stroke-miterlimit:10;" d="
		M96.99,42.53c-3.08-0.05-5.42-2.51-5.35-5.6c0.08-2.99,2.51-5.3,5.54-5.25c3.01,0.04,5.36,2.43,5.34,5.45
		C102.51,40.21,100.09,42.58,96.99,42.53z M100.53,37.14c0.02-1.93-1.58-3.54-3.48-3.52c-1.83,0.02-3.41,1.6-3.44,3.44
		c-0.03,1.89,1.6,3.52,3.51,3.51C98.98,40.56,100.52,39.01,100.53,37.14z"/>
</g>
</svg>
