<?xml version="1.0" encoding="utf-8"?>
<!-- Generator: Adobe Illustrator 28.3.0, SVG Export Plug-In . SVG Version: 6.00 Build 0)  -->
<svg version="1.1" xmlns="http://www.w3.org/2000/svg" xmlns:xlink="http://www.w3.org/1999/xlink" x="0px" y="0px"
	 viewBox="0 0 460 100" style="enable-background:new 0 0 460 100;" xml:space="preserve">
<style type="text/css">
	.st0{display:none;}
	.st1{display:inline;}
	.st2{fill:#FF0096;}
	.st3{display:inline;fill:#EC008C;}
	.st4{fill:url(#SVGID_1_);}
	.st5{fill:#EC008C;}
</style>
<g id="Layer_1" class="st0">
	<g class="st1">
		<path class="st2" d="M133.19,24.55h8.06l17.93,28.01l17.93-28.01h8.14v50.84h-11.31V47.23l-11.02,17.21h-7.49l-11.02-17.21v28.15
			h-11.23V24.55z"/>
		<path class="st2" d="M194.97,24.55h11.3v50.84h-11.3V24.55z"/>
		<path class="st2" d="M211.31,67.9l7.34-7.27c3.24,3.82,7.06,5.9,12.39,5.9c4.75,0,7.56-1.87,7.56-4.9
			c0-9.58-23.83-5.04-23.83-22.9c0-9.36,7.34-14.98,17.86-14.98c7.13,0,13.25,2.74,17.07,6.98l-7.34,7.27
			c-3.02-3.17-6.05-4.68-9.94-4.68c-4.03,0-6.41,1.51-6.41,4.32c0,8.86,23.83,4.46,23.83,22.97c0,9.72-7.27,15.55-19.51,15.55
			C221.97,76.18,216.28,73.52,211.31,67.9z"/>
		<path class="st2" d="M257.03,24.55h11.31v50.84h-11.31V24.55z"/>
		<path class="st2" d="M275.54,49.9c0-14.83,11.52-26.21,26.71-26.21s26.71,11.38,26.71,26.28c0,14.83-11.52,26.28-26.57,26.28
			C287.2,76.25,275.54,64.73,275.54,49.9z M317.37,49.9c0-9.5-6.12-15.91-15.12-15.91c-9.07,0-15.12,6.34-15.12,15.91
			c0,9.58,6.05,16.06,15.12,16.06C311.32,65.96,317.37,59.48,317.37,49.9z M293.47,15.34l11.45-10.73l6.05,8.5l-13.9,7.49
			L293.47,15.34z"/>
		<path class="st2" d="M336.16,24.55h7.92l24.12,30.89V24.55h11.3v50.84h-8.28l-23.76-30.46v30.46h-11.3V24.55z"/>
	</g>
</g>
<g id="Layer_2" class="st0">
</g>
<g id="Layer_3" class="st0">
	<path class="st3" d="M82.86,49.88c0-12.73,9.78-22.15,23.17-22.15s23.17,9.43,23.17,22.21c0,12.73-9.78,22.21-23.05,22.21
		C92.77,72.15,82.86,62.6,82.86,49.88z M116.96,49.88c0-7.08-4.26-11.59-10.93-11.59c-6.72,0-10.93,4.5-10.93,11.59
		c0,7.14,4.2,11.71,10.93,11.71S116.96,57.02,116.96,49.88z"/>
	<path class="st3" d="M134.13,28.57h20.41c7.8,0,12.97,4.74,12.97,11.35c0,3.78-1.68,6.78-4.92,8.64c3.96,2.1,6.06,5.7,6.06,10.15
		c0,7.44-5.94,12.61-14.83,12.61h-19.69V28.57z M145.89,37.21v7.92h5.28c2.52,0,4.44-1.26,4.44-3.96c0-2.7-1.86-3.96-4.44-3.96
		H145.89z M145.89,53.42v9.25h5.82c3.06,0,5.04-1.74,5.04-4.62c0-2.88-1.98-4.62-5.04-4.62H145.89z"/>
	<path class="st3" d="M168.17,66.27l7.68-7.68c1.5,1.92,3.3,2.88,5.82,2.88c2.94,0,5.46-1.8,5.46-5.88V28.57h12.07V55.1
		c0,10.57-6.72,16.93-18.01,16.93C175.37,72.03,171.41,70.05,168.17,66.27z"/>
	<path class="st3" d="M205.56,28.57h32.3v9.97h-20.29v6.12H236v9.72h-18.43v6.96h20.65v9.96h-32.66V28.57z"/>
	<path class="st3" d="M253.05,38.77h-12.79V28.57h37.64v10.21h-12.85v32.54h-12.01V38.77z"/>
	<path class="st3" d="M282.4,28.57h12.01v42.74H282.4V28.57z"/>
	<path class="st3" d="M298.37,28.57h12.73l8.76,26.17l8.94-26.17h12.55l-15.91,42.74h-11.41L298.37,28.57z"/>
	<path class="st3" d="M341.83,49.88c0-12.73,9.79-22.15,23.17-22.15c13.39,0,23.17,9.43,23.17,22.21c0,12.73-9.79,22.21-23.05,22.21
		C351.74,72.15,341.83,62.6,341.83,49.88z M375.93,49.88c0-7.08-4.26-11.59-10.93-11.59c-6.72,0-10.92,4.5-10.92,11.59
		c0,7.14,4.2,11.71,10.92,11.71C371.73,61.58,375.93,57.02,375.93,49.88z"/>
	<path class="st3" d="M389.08,65.36l7.5-7.5c3.12,3,6.48,4.56,10.45,4.56c3.3,0,4.98-1.08,4.98-2.82c0-6.12-19.87-3.66-19.87-18.43
		c0-8.28,6.3-13.33,16.03-13.33c6.36,0,12.13,2.16,15.73,5.88l-7.56,7.5c-2.64-2.58-5.16-3.78-8.29-3.78c-2.52,0-4.08,0.78-4.08,2.4
		c0,5.82,19.87,3.24,19.87,18.49c0,8.7-6.48,13.69-17.77,13.69C398.74,72.03,393.64,69.99,389.08,65.36z"/>
</g>
<g id="Layer_4">
	<g>
		<g>
			<linearGradient id="SVGID_1_" gradientUnits="userSpaceOnUse" x1="80.4702" y1="49.9496" x2="112.3137" y2="49.9496">
				<stop  offset="0" style="stop-color:#FFF33B"/>
				<stop  offset="0.0401" style="stop-color:#FEE72E"/>
				<stop  offset="0.1171" style="stop-color:#FED51B"/>
				<stop  offset="0.1964" style="stop-color:#FDCA10"/>
				<stop  offset="0.2809" style="stop-color:#FDC70C"/>
				<stop  offset="0.6685" style="stop-color:#F3903F"/>
				<stop  offset="0.8876" style="stop-color:#ED683C"/>
				<stop  offset="1" style="stop-color:#E93E3A"/>
			</linearGradient>
			<path class="st4" d="M104.65,66.54c2.14-0.52,4.51,0.77,5.37,2.79c0.94,2.24-0.57,4.74-2.68,5.64c-2.34,0.99-4.66-0.44-5.87-2.44
				c-1.51-2.49-1.33-5.43-0.56-8.14c1.71-5.96,5.85-11.08,5.54-17.56c-0.27-5.68-3.28-10.97-7.33-14.84
				c-4.89-4.68-11.14-7.49-17.25-10.2c-1.24-0.55-2.43,0.35-2.2,1.69c2.06,12.17,11.26,22.57,22.99,26.3
				c1.84,0.59,2.63-2.31,0.8-2.89c-10.8-3.43-19.01-13.06-20.89-24.2c-0.73,0.56-1.47,1.13-2.2,1.69
				c6.14,2.72,12.61,5.53,17.36,10.44c4.66,4.82,7.04,11.35,4.81,17.87c-2.15,6.29-7.2,12.81-4.43,19.75
				c1.03,2.59,3.07,4.89,5.84,5.63c2.83,0.75,5.82-0.42,7.64-2.66c2.07-2.52,2.32-6.03,0.36-8.7c-1.85-2.52-5.02-3.8-8.08-3.06
				C101.98,64.1,102.78,66.99,104.65,66.54L104.65,66.54z"/>
		</g>
	</g>
	<g>
		<path class="st5" d="M124.73,25.59H140l10.51,31.4l10.73-31.4h15.05L157.2,76.86h-13.68L124.73,25.59z"/>
		<path class="st5" d="M181.03,25.59h14.4v51.27h-14.4V25.59z"/>
		<path class="st5" d="M199.1,69.74l9-9c3.74,3.6,7.78,5.47,12.53,5.47c3.96,0,5.98-1.3,5.98-3.38c0-7.34-23.83-4.39-23.83-22.11
			c0-9.94,7.56-15.99,19.23-15.99c7.63,0,14.54,2.59,18.87,7.06l-9.07,9c-3.17-3.1-6.19-4.54-9.94-4.54c-3.02,0-4.9,0.94-4.9,2.88
			c0,6.98,23.83,3.89,23.83,22.18c0,10.44-7.78,16.42-21.31,16.42C210.7,77.73,204.58,75.28,199.1,69.74z"/>
		<path class="st5" d="M246.77,25.59h14.4v51.27h-14.4V25.59z"/>
		<path class="st5" d="M267.07,51.16c0-15.27,11.74-26.57,27.79-26.57c16.06,0,27.79,11.3,27.79,26.64
			c0,15.26-11.74,26.64-27.65,26.64C278.95,77.87,267.07,66.42,267.07,51.16z M307.97,51.16c0-8.5-5.11-13.9-13.11-13.9
			c-8.06,0-13.1,5.4-13.1,13.9c0,8.57,5.04,14.04,13.1,14.04C302.93,65.2,307.97,59.73,307.97,51.16z M285,15.73l13.68-9.72
			l5.98,10.94l-16.06,5.76L285,15.73z"/>
		<path class="st5" d="M328.56,25.59h10.08l21.6,27.15V25.59h14.4v51.27h-10.8l-20.88-26.21v26.21h-14.4V25.59z"/>
	</g>
</g>
</svg>
