<?xml version="1.0" encoding="utf-8"?>
<!-- Generator: Adobe Illustrator 28.3.0, SVG Export Plug-In . SVG Version: 6.00 Build 0)  -->
<svg version="1.1" id="Layer_1" xmlns="http://www.w3.org/2000/svg" xmlns:xlink="http://www.w3.org/1999/xlink" x="0px" y="0px"
	 viewBox="0 0 90 90" style="enable-background:new 0 0 90 90;" xml:space="preserve">
<style type="text/css">
	.st0{fill:#FFFFFF;}
</style>
<g id="uDwiyo.tif">
	<g>
		<path class="st0" d="M46.74,78.25c-6.41,0.01-11.13-1.2-15.73-3.18c-1.11-0.48-2.65-0.53-3.83-0.19
			c-4.66,1.33-9.25,2.91-13.88,4.35c-0.73,0.23-1.54,0.18-2.32,0.25c0.04-0.85-0.1-1.76,0.16-2.54c1.35-4.18,2.7-8.36,4.25-12.46
			c0.77-2.04,0.67-3.73-0.28-5.75C6.12,39.48,15.96,17.48,36.04,11.7c14.23-4.09,29.6,1.58,37.74,13.93
			c7.94,12.05,7.08,28.64-2.1,39.94C64.91,73.92,56.08,78.08,46.74,78.25z M20.06,69.88c3.03-0.92,5.53-1.84,8.1-2.39
			c1.19-0.26,2.75-0.19,3.78,0.38c5.48,3.01,11.32,3.92,17.4,3.2c14.36-1.71,25.33-16.13,23.56-30.17
			c-1.67-13.26-14.48-25.68-31.39-23.27C21.44,20.49,11.84,41.2,22.14,58.65c0.53,0.89,0.64,2.29,0.39,3.32
			C21.92,64.51,20.99,66.98,20.06,69.88z"/>
		<path class="st0" d="M34.7,27.01c2.01,0.17,3,1.01,3.55,2.57c0.4,1.14,0.71,2.33,1.27,3.4c1.47,2.81,1.36,5.3-1.04,7.6
			c-0.33,0.31-0.39,1.3-0.14,1.74c2.36,4.22,5.71,7.47,10.2,9.35c0.69,0.29,2.07-0.12,2.64-0.69c3.35-3.32,3.3-3.37,7.5-1.19
			c0.4,0.21,0.8,0.44,1.19,0.66c3.8,2.06,4.27,5.58,1.02,8.61c-2.41,2.25-5.29,3.11-8.62,2.21c-11.04-2.96-18.18-10.27-22.7-20.37
			c-1.86-4.15-1.72-8.33,1.65-11.81C32.12,28.16,33.52,27.69,34.7,27.01z"/>
	</g>
</g>
</svg>
