<?xml version="1.0" encoding="utf-8"?>
<!-- Generator: Adobe Illustrator 28.3.0, SVG Export Plug-In . SVG Version: 6.00 Build 0)  -->
<svg version="1.1" id="Layer_1" xmlns="http://www.w3.org/2000/svg" xmlns:xlink="http://www.w3.org/1999/xlink" x="0px" y="0px"
	 viewBox="0 0 340 80" style="enable-background:new 0 0 340 80;" xml:space="preserve">
<style type="text/css">
	.st0{fill:#FFFFFF;stroke:#231F20;stroke-width:0.25;stroke-miterlimit:10;}
</style>
<g>
	<path class="st0" d="M51.16,42.49h-4.3v-5.04H52l0.79-4.62h-4.35v-4.99h5.18l1.43-8.64h5.73l-1.43,8.64h4.67l1.43-8.64h5.78
		l-1.48,8.64h4.48v4.99h-5.31l-0.74,4.62h4.53v5.04h-5.36l-1.57,9.34h-5.73l1.52-9.34H56.9l-1.52,9.34h-5.73L51.16,42.49z
		 M62.39,37.46l0.79-4.62h-4.67l-0.79,4.62H62.39z"/>
	<path class="st0" d="M88.16,38.24L76.46,19.2h8.41l6.93,11.92l6.98-11.92h8.23l-11.6,18.72v13.91h-7.26V38.24z"/>
	<path class="st0" d="M102.08,40.55c0-6.66,5.27-11.69,12.29-11.69c6.98,0,12.29,5.04,12.29,11.69c0,6.7-5.27,11.78-12.29,11.78
		C107.39,52.34,102.08,47.21,102.08,40.55z M119.45,40.55c0-3.14-2.08-5.27-5.08-5.27s-5.08,2.17-5.08,5.31
		c0,3.14,2.08,5.32,5.08,5.32C117.42,45.91,119.45,43.74,119.45,40.55z"/>
	<path class="st0" d="M128.43,47.02l4.72-4.67c2.08,2.45,4.53,3.79,7.95,3.79c3.05,0,4.85-1.2,4.85-3.14c0-6.15-15.3-3.24-15.3-14.7
		c0-6.01,4.72-9.61,11.46-9.61c4.58,0,8.5,1.76,10.95,4.48l-4.71,4.67c-1.94-2.03-3.88-3-6.38-3c-2.59,0-4.11,0.97-4.11,2.77
		c0,5.68,15.3,2.87,15.3,14.74c0,6.24-4.67,9.98-12.52,9.98C135.28,52.34,131.62,50.63,128.43,47.02z"/>
	<path class="st0" d="M155.53,40.55c0-6.66,5.27-11.69,12.29-11.69c6.98,0,12.29,5.04,12.29,11.69c0,6.7-5.27,11.78-12.29,11.78
		C160.85,52.34,155.53,47.21,155.53,40.55z M172.91,40.55c0-3.14-2.08-5.27-5.08-5.27s-5.08,2.17-5.08,5.31
		c0,3.14,2.08,5.32,5.08,5.32C170.88,45.91,172.91,43.74,172.91,40.55z"/>
	<path class="st0" d="M189.28,50.3l-8.55-20.93h7.63l4.48,13.68l4.58-13.68h7.62l-9.61,22.55l-3.98,9.38h-7.26L189.28,50.3z"/>
	<path class="st0" d="M208.39,19.2h14c6.29,0,9.84,3.84,9.84,8.55c0,2.91-1.38,5.22-4.02,6.66c3.33,1.62,5.13,4.39,5.13,7.95
		c0,5.36-4.16,9.47-11.04,9.47h-13.91V19.2z M215.55,24.84v7.26H221c2.36,0,4.02-1.2,4.02-3.65c0-2.4-1.61-3.6-4.02-3.6H215.55z
		 M215.55,37.6v8.6h6.05c2.82,0,4.53-1.85,4.53-4.3s-1.71-4.3-4.53-4.3H215.55z"/>
	<path class="st0" d="M238.03,19.2h22.6v6.24h-15.35v7.35h14.6v6.24h-14.6v12.8h-7.26V19.2z"/>
	<path class="st0" d="M265.31,19.2h5.08l15.48,19.83V19.2h7.26v32.63h-5.31l-15.25-19.55v19.55h-7.26V19.2z"/>
</g>
</svg>
