<?xml version="1.0" encoding="utf-8"?>
<!-- Generator: Adobe Illustrator 28.3.0, SVG Export Plug-In . SVG Version: 6.00 Build 0)  -->
<svg version="1.1" xmlns="http://www.w3.org/2000/svg" xmlns:xlink="http://www.w3.org/1999/xlink" x="0px" y="0px"
	 viewBox="0 0 90 90" style="enable-background:new 0 0 90 90;" xml:space="preserve">
<style type="text/css">
	.st0{display:none;}
	.st1{display:inline;fill:#0866FE;}
	.st2{display:inline;}
	.st3{fill:#0866FE;}
	.st4{fill:#FFFFFF;}
</style>
<g id="Layer_2" class="st0">
	<circle class="st1" cx="44.92" cy="44.8" r="42.12"/>
</g>
<g id="Layer_1" class="st0">
	<g id="_x36_pnzwb.tif" class="st2">
		<g>
			<path class="st3" d="M41.73,6.2c2.72,0,5.45,0,8.17,0c0.84,0.44,1.79,0.27,2.66,0.3c7.18,0.2,13.07,3.51,18.46,7.8
				c5.62,4.48,9.76,10.14,12.45,16.84c1.1,2.74,1.59,5.59,1.81,8.51c0.38,4.98,0.35,9.97-0.27,14.91C84.2,61,81.13,66.47,77.11,71.4
				c-4.54,5.57-10.19,9.69-16.88,12.4c-2.81,1.14-5.74,1.55-8.71,1.74c-1.63,0.11-2.05-0.33-2.11-2.26
				c-0.12-3.82-0.04-7.65-0.04-11.47c0-3.89-0.07-7.78,0.04-11.67c0.07-2.38,0.69-2.98,3.03-3.09c1.88-0.09,3.76-0.06,5.64-0.04
				c1.52,0.02,2.41-0.55,2.71-2.14c0.37-1.97,0.76-3.94,1.06-5.93c0.26-1.67-0.11-2.08-1.85-2.13c-2.27-0.07-4.54,0.01-6.8-0.04
				c-3.31-0.06-3.75-0.55-3.83-3.91c-0.04-1.7,0.19-3.37,0.53-5.01c0.6-2.94,3.12-5.22,6.19-5.68c1.66-0.25,3.33-0.54,5.02-0.44
				c1.54,0.09,2.29-0.58,2.26-2.17c-0.03-1.62,0.01-3.24-0.02-4.86c-0.02-1.36-0.64-2.2-2.04-2.38c-4.98-0.63-9.92-0.88-14.79,0.83
				c-4.4,1.54-7.12,4.59-8.42,8.97c-1.07,3.57-1.33,7.24-1.31,10.95c0.01,3.32-0.38,3.66-3.7,3.72c-4.44,0.08-4.44,0.08-4.44,4.55
				c0,1.17,0.01,2.33,0.01,3.5c0,1.43,0.66,2.16,2.12,2.17c1.23,0.01,2.46,0,3.69,0.07c1.49,0.08,2.26,0.85,2.28,2.33
				c0.11,7.78,0.13,15.55-0.02,23.33c-0.03,1.85-0.83,2.37-2.71,1.94c-4.57-1.04-8.54-3.35-12.29-6.06
				C15.19,73.91,10.61,67.68,7.6,60.23c-1.14-2.82-1.12-5.82-1.47-8.76c-0.04-0.32,0.04-0.65-0.2-0.92c0-3.24,0-6.48,0-9.73
				c0.67-2.69,0.34-5.53,1.28-8.17c2.65-7.5,7.01-13.79,13.34-18.66c4.4-3.38,9.1-6.14,14.67-7.11C37.38,6.52,39.57,6.55,41.73,6.2z
				"/>
		</g>
	</g>
	<g id="cIcp17_00000133525721656761996450000001701344744950354314_" class="st2">
		<g>
			<path d="M89.62,44.94c0.05,24.22-19.31,44.22-43.74,44.68C20.85,90.09,0.92,70.17,0.39,46.06C-0.17,21.05,19.66,0.9,44.01,0.38
				C69.16-0.16,89.6,20.06,89.62,44.94z M45,71.59c0-0.04,0-0.07,0-0.11c2.22,0,4.43,0.03,6.65-0.01c2.71-0.04,5.43-0.01,8.1-0.6
				c5.97-1.32,9.65-4.98,11.06-10.93c0.61-2.56,0.62-5.19,0.63-7.8c0.04-5.11,0.01-10.23-0.02-15.34c-0.02-2.43-0.11-4.86-0.73-7.24
				c-1.17-4.51-3.84-7.75-8.17-9.57c-2.6-1.09-5.35-1.35-8.12-1.37c-5.66-0.06-11.32-0.06-16.99-0.05c-2.48,0.01-4.95,0.11-7.4,0.62
				c-5.49,1.14-9.69,5.35-10.84,10.82c-0.54,2.58-0.6,5.19-0.63,7.8c-0.05,4.5-0.08,9-0.01,13.49c0.04,2.57,0.15,5.16,0.49,7.71
				c0.5,3.8,2.28,6.95,5.38,9.29c2.62,1.98,5.65,2.81,8.85,2.97C37.17,71.46,41.09,71.49,45,71.59z"/>
			<path class="st4" d="M45,71.59c-3.91-0.1-7.83-0.13-11.74-0.31c-3.21-0.15-6.24-0.99-8.85-2.97c-3.1-2.34-4.88-5.49-5.38-9.29
				c-0.34-2.55-0.45-5.14-0.49-7.71c-0.07-4.5-0.04-9,0.01-13.49c0.03-2.61,0.08-5.22,0.63-7.8c1.15-5.47,5.36-9.68,10.84-10.82
				c2.44-0.51,4.92-0.61,7.4-0.62c5.66-0.02,11.32-0.01,16.99,0.05c2.77,0.03,5.52,0.28,8.12,1.37c4.33,1.82,7,5.06,8.17,9.57
				c0.62,2.37,0.71,4.8,0.73,7.24c0.04,5.11,0.06,10.23,0.02,15.34c-0.02,2.61-0.03,5.23-0.63,7.8c-1.41,5.95-5.09,9.61-11.06,10.93
				c-2.67,0.59-5.39,0.56-8.1,0.6c-2.21,0.04-4.43,0.01-6.65,0.01C45,71.51,45,71.55,45,71.59z M66.77,45.58c-0.02,0-0.05,0-0.07,0
				c0-1.83,0.04-3.67-0.01-5.5c-0.06-2.5-0.06-5-0.31-7.48c-0.46-4.71-3.01-7.97-7.93-8.82c-1.99-0.34-4.04-0.4-6.07-0.43
				c-4.51-0.07-9.03-0.07-13.55-0.03c-2.13,0.02-4.27,0.08-6.38,0.31c-4.65,0.51-7.86,3.1-8.64,7.81c-0.37,2.22-0.47,4.51-0.48,6.76
				c-0.01,6.03,0.07,12.06,0.17,18.09c0.03,2.09,0.51,4.1,1.64,5.89c1.55,2.44,3.87,3.73,6.67,4.09c1.96,0.26,3.95,0.35,5.93,0.38
				c4.21,0.06,8.43,0.07,12.65,0.03c2.33-0.02,4.66-0.09,6.98-0.29c2.84-0.24,5.33-1.3,7.1-3.66c1.43-1.91,1.94-4.14,2.03-6.47
				C66.63,52.7,66.69,49.14,66.77,45.58z"/>
			<path d="M66.77,45.58c-0.09,3.56-0.14,7.13-0.27,10.69c-0.09,2.33-0.6,4.56-2.03,6.47c-1.77,2.36-4.26,3.42-7.1,3.66
				c-2.32,0.2-4.66,0.27-6.98,0.29c-4.22,0.04-8.43,0.03-12.65-0.03c-1.98-0.03-3.97-0.12-5.93-0.38c-2.79-0.37-5.12-1.65-6.67-4.09
				c-1.14-1.79-1.61-3.81-1.64-5.89c-0.1-6.03-0.18-12.06-0.17-18.09c0-2.26,0.11-4.54,0.48-6.76c0.78-4.71,3.99-7.31,8.64-7.81
				c2.11-0.23,4.25-0.29,6.38-0.31c4.52-0.04,9.03-0.03,13.55,0.03c2.03,0.03,4.08,0.08,6.07,0.43c4.92,0.85,7.47,4.1,7.93,8.82
				c0.24,2.48,0.24,4.99,0.31,7.48c0.04,1.83,0.01,3.67,0.01,5.5C66.72,45.58,66.75,45.58,66.77,45.58z M44.99,58.59
				c7.49,0,13.59-6.07,13.6-13.54c0.01-7.52-6.05-13.62-13.56-13.63C37.5,31.4,31.4,37.49,31.41,45.03
				C31.41,52.5,37.51,58.58,44.99,58.59z M59.11,34.03c1.79,0,3.19-1.38,3.19-3.14c0.01-1.79-1.4-3.2-3.19-3.19
				c-1.76,0.01-3.13,1.4-3.14,3.19C55.97,32.64,57.36,34.03,59.11,34.03z"/>
			<path class="st4" d="M44.99,58.59c-7.48,0-13.58-6.09-13.58-13.56c0-7.54,6.09-13.63,13.63-13.61
				c7.51,0.01,13.57,6.11,13.56,13.63C58.58,52.52,52.48,58.59,44.99,58.59z M45.01,36.19c-4.89-0.01-8.83,3.92-8.83,8.81
				c0,4.87,3.9,8.79,8.77,8.81c4.89,0.02,8.84-3.9,8.85-8.79C53.83,40.14,49.91,36.2,45.01,36.19z"/>
			<path class="st4" d="M59.11,34.03c-1.75,0-3.14-1.39-3.14-3.14c0-1.79,1.38-3.19,3.14-3.19c1.79-0.01,3.2,1.4,3.19,3.19
				C62.29,32.65,60.9,34.03,59.11,34.03z"/>
			<path d="M45.01,36.19c4.89,0.01,8.81,3.95,8.8,8.84c-0.02,4.89-3.97,8.81-8.85,8.79c-4.87-0.02-8.77-3.95-8.77-8.81
				C36.19,40.11,40.12,36.18,45.01,36.19z"/>
		</g>
	</g>
</g>
<g id="Layer_3" class="st0">
	<g id="kCD8Nw_00000091697853455502544520000009089168186397515455_" class="st2">
		<g>
			<path d="M44.97,89.12c-24.3-0.02-44.09-19.81-44.08-44.1C0.89,20.53,20.7,0.84,45.28,0.88c24.3,0.04,43.87,19.95,43.84,44.59
				C89.08,69.42,69.14,89.14,44.97,89.12z M46.88,38.91c-0.08-0.25-0.13-0.32-0.13-0.4c0-1.84-0.01-3.68,0.01-5.52
				c0.03-3.2,1.17-4.35,4.37-4.39c1.62-0.02,3.25,0,4.93,0c0-2.85,0-5.57,0-8.57c-3.2,0-6.37-0.27-9.46,0.06
				c-5.03,0.54-8.51,4.07-9.18,9.09c-0.33,2.46-0.23,4.97-0.32,7.46c-0.02,0.72,0,1.44,0,2.31c-2.76,0-5.35,0-7.93,0
				c0,3.15,0,6.16,0,9.29c2.63,0,5.18,0,7.9,0c0,7.87,0,15.61,0,23.36c3.3,0,6.43,0,9.68,0c0-7.78,0-15.49,0-23.32
				c2.68,0,5.23,0,7.91,0c0.41-3.16,0.81-6.21,1.21-9.37C52.78,38.91,49.84,38.91,46.88,38.91z"/>
			<path class="st4" d="M46.88,38.91c2.97,0,5.9,0,9.01,0c-0.41,3.16-0.8,6.21-1.21,9.37c-2.67,0-5.23,0-7.91,0
				c0,7.84,0,15.54,0,23.32c-3.25,0-6.39,0-9.68,0c0-7.75,0-15.49,0-23.36c-2.72,0-5.27,0-7.9,0c0-3.14,0-6.14,0-9.29
				c2.58,0,5.17,0,7.93,0c0-0.86-0.02-1.59,0-2.31c0.08-2.49-0.01-5,0.32-7.46c0.67-5.02,4.15-8.55,9.18-9.09
				c3.1-0.33,6.26-0.06,9.46-0.06c0,3,0,5.72,0,8.57c-1.69,0-3.31-0.02-4.93,0c-3.2,0.04-4.34,1.19-4.37,4.39
				c-0.02,1.84-0.01,3.68-0.01,5.52C46.75,38.59,46.8,38.67,46.88,38.91z"/>
		</g>
	</g>
</g>
<g id="Layer_4" class="st0">
	<g id="rGSG4y_00000051370404599032857600000011881383323340777135_" class="st2">
		<g>
			<path d="M89.2,44.93c0.03,24.24-19.78,44.15-43.88,44.25C20.89,89.29,1.07,69.6,0.8,45.51C0.53,21.05,20.27,0.89,44.79,0.81
				C69.3,0.73,89.18,20.54,89.2,44.93z M42.24,47.31c-0.03,0.04,0.02,0,0.02-0.03c0.01-2.96,0.03-5.93,0.01-8.89
				c0-0.16-0.31-0.45-0.5-0.47c-6.89-0.94-13.9,2.75-17.19,8.92c-3.9,7.31-1.8,16.16,3.32,20.66c4.1,3.6,8.75,5.31,14.14,4.65
				c8.81-1.08,15.16-8.41,15.15-17.3c-0.01-5.93,0-11.86,0-17.78c0-0.27,0-0.55,0-1c3.2,2.16,6.53,3.5,10.21,3.93
				c0.04-0.14,0.07-0.2,0.07-0.27c0-3.55,0-7.1,0.01-10.66c0-0.5-0.26-0.5-0.62-0.51c-1.79-0.07-3.52-0.46-5.08-1.31
				c-3.56-1.93-5.96-4.82-6.94-8.8c-0.14-0.56-0.36-0.77-0.95-0.75c-1.76,0.04-3.53,0.01-5.29,0.02c-0.94,0-0.94,0-0.94,0.94
				c0,12.16,0,24.32-0.01,36.49c0,0.24,0.01,0.47-0.02,0.7c-0.35,3.14-2.66,5.86-5.72,6.65c-3.78,0.98-6.66-0.63-8.46-2.98
				c-1.8-2.34-1.97-5.07-0.75-7.75c1.2-2.63,3.33-4.18,6.21-4.52C39.98,47.1,41.09,47.27,42.24,47.31z"/>
			<path class="st4" d="M42.24,47.31c-1.15-0.03-2.26-0.2-3.33-0.08c-2.88,0.35-5.01,1.89-6.21,4.52c-1.22,2.68-1.05,5.41,0.75,7.75
				c1.8,2.34,4.69,3.95,8.46,2.98c3.07-0.79,5.38-3.51,5.72-6.65c0.03-0.23,0.02-0.47,0.02-0.7c0-12.16,0-24.32,0.01-36.49
				c0-0.94,0-0.94,0.94-0.94c1.76,0,3.53,0.02,5.29-0.02c0.59-0.01,0.81,0.2,0.95,0.75c0.98,3.98,3.38,6.87,6.94,8.8
				c1.57,0.85,3.29,1.24,5.08,1.31c0.36,0.01,0.63,0.01,0.62,0.51c-0.02,3.55-0.01,7.1-0.01,10.66c0,0.07-0.03,0.13-0.07,0.27
				c-3.68-0.43-7.01-1.78-10.21-3.93c0,0.45,0,0.72,0,1c0,5.93-0.01,11.86,0,17.78c0.01,8.89-6.35,16.22-15.15,17.3
				c-5.39,0.66-10.04-1.05-14.14-4.65c-5.12-4.49-7.22-13.34-3.32-20.66c3.29-6.17,10.3-9.86,17.19-8.92
				c0.19,0.03,0.5,0.31,0.5,0.47c0.02,2.96,0,5.93-0.01,8.89C42.26,47.31,42.21,47.35,42.24,47.31z"/>
		</g>
	</g>
</g>
<g id="Layer_5">
	<g id="jM8pOZ_00000047753353295243749910000006542299045504578690_">
		<g>
			<path class="st4" d="M44.96,89.03c-24.43-0.1-44.13-19.89-44-44.2C1.08,20.31,20.88,0.76,45.57,0.97
				C69.59,1.19,89.2,20.81,89.05,45.45C88.9,69.44,69.02,89.12,44.96,89.03z M45.16,63c0-0.08,0-0.16,0.01-0.24
				c2.29,0,4.58,0.11,6.85-0.02c3.97-0.24,7.94-0.5,11.88-0.98c3.23-0.39,5.03-2.33,5.68-5.53c0.68-3.36,0.79-6.78,0.83-10.19
				c0.04-4.21-0.03-8.42-0.86-12.58c-0.58-2.88-2.3-4.77-5.21-5.27c-2.6-0.44-5.23-0.73-7.86-0.89c-8.98-0.56-17.96-0.44-26.93,0.29
				c-1.37,0.11-2.77,0.31-4.09,0.67c-3.63,0.99-4.89,3.27-5.19,6.8c-0.33,3.86-0.49,7.74-0.45,11.61c0.03,3.22,0.31,6.46,0.74,9.65
				c0.37,2.72,2.01,4.6,4.77,5.2c1.85,0.4,3.73,0.72,5.62,0.83C35.67,62.64,40.41,62.79,45.16,63z"/>
			<path class="st4" d="M53.07,44.92c-4.36,2.54-8.64,5.03-13.02,7.58c0-5.05,0-9.98,0-15.06C44.41,39.94,48.7,42.41,53.07,44.92z"
				/>
		</g>
	</g>
</g>
</svg>
